<svg id="Grupo_1102350" data-name="Grupo 1102350" xmlns="http://www.w3.org/2000/svg" xmlns:xlink="http://www.w3.org/1999/xlink" width="568.5" height="470.026" viewBox="0 0 568.5 470.026">
  <defs>
    <clipPath id="clip-path">
      <rect id="Rectángulo_402150" data-name="Rectángulo 402150" width="568.5" height="470.026" fill="none"/>
    </clipPath>
    <clipPath id="clip-path-3">
      <path id="Trazado_879918" data-name="Trazado 879918" d="M330.3,170.78c8.652,15.124,14.256,37.428,11.016,51.782l-40.462,21s81.726,95.891,111.712,79.8,19.589-96.421,19.589-96.421l-38.2-3.811-11.578-52.76c2.937-11.724-1.766-15.647-9.379-15.646-15.4,0-42.7,16.054-42.7,16.054" transform="translate(-300.855 -154.726)" fill="#fdc49a"/>
    </clipPath>
    <clipPath id="clip-path-5">
      <rect id="Rectángulo_402103" data-name="Rectángulo 402103" width="116.301" height="166.235" fill="none"/>
    </clipPath>
    <clipPath id="clip-path-6">
      <rect id="Rectángulo_402105" data-name="Rectángulo 402105" width="0.212" height="0.042" fill="none"/>
    </clipPath>
    <clipPath id="clip-path-7">
      <path id="Trazado_879925" data-name="Trazado 879925" d="M370.95,184.031a1.738,1.738,0,0,0-.212-.042,1.764,1.764,0,0,1,.212.042" transform="translate(-370.738 -183.989)" fill="none"/>
    </clipPath>
    <radialGradient id="radial-gradient" cx="309.885" cy="-796.774" r="2616.391" gradientTransform="matrix(0.275, 0, 0, -0.785, -829.364, 10554.201)" gradientUnits="objectBoundingBox">
      <stop offset="0" stop-color="#ffc"/>
      <stop offset="0.031" stop-color="#ffc"/>
      <stop offset="0.452" stop-color="#ffcdcc"/>
      <stop offset="0.583" stop-color="#ffc6c5"/>
      <stop offset="0.772" stop-color="#ffb3b2"/>
      <stop offset="0.994" stop-color="#ff9393"/>
      <stop offset="1" stop-color="#ff9393"/>
    </radialGradient>
    <clipPath id="clip-path-8">
      <rect id="Rectángulo_402107" data-name="Rectángulo 402107" width="0.232" height="0.063" fill="none"/>
    </clipPath>
    <clipPath id="clip-path-9">
      <path id="Trazado_879926" data-name="Trazado 879926" d="M378.32,183.476a1.49,1.49,0,0,0-.232-.063,1.509,1.509,0,0,1,.232.063" transform="translate(-378.088 -183.413)" fill="none"/>
    </clipPath>
    <radialGradient id="radial-gradient-2" cx="400.9" cy="-1155.247" r="2053.545" gradientTransform="matrix(0.345, 0, 0, -1, -692.121, 8538.063)" xlink:href="#radial-gradient"/>
    <clipPath id="clip-path-10">
      <rect id="Rectángulo_402108" data-name="Rectángulo 402108" width="89.075" height="175.678" fill="none"/>
    </clipPath>
    <clipPath id="clip-path-11">
      <rect id="Rectángulo_402110" data-name="Rectángulo 402110" width="0.075" height="0.117" fill="none"/>
    </clipPath>
    <clipPath id="clip-path-12">
      <path id="Trazado_879931" data-name="Trazado 879931" d="M344.5,137.456l.016-.024c-.005.008-.155.243-.016.024" transform="translate(-344.437 -137.432)" fill="none"/>
    </clipPath>
    <radialGradient id="radial-gradient-3" cx="584.969" cy="-180.283" r="605.189" gradientTransform="matrix(1.446, 0, 0, -1, 570.75, 2945.294)" xlink:href="#radial-gradient"/>
    <clipPath id="clip-path-13">
      <rect id="Rectángulo_402112" data-name="Rectángulo 402112" width="75.882" height="73.851" fill="none"/>
    </clipPath>
    <clipPath id="clip-path-14">
      <path id="Trazado_879932" data-name="Trazado 879932" d="M338.775,129.865l-1.244-21.874,70.484-19.607-38.007-32.37-36.281,36.7s-5.916,28.224,5.048,37.147" transform="translate(-332.133 -56.014)" fill="none"/>
    </clipPath>
    <radialGradient id="radial-gradient-4" cx="1.372" cy="0.75" r="1.352" gradientTransform="matrix(0.947, 0, 0, -1, -0.117, 9.928)" gradientUnits="objectBoundingBox">
      <stop offset="0" stop-color="#ffe2d0"/>
      <stop offset="0.308" stop-color="#ffe2d0"/>
      <stop offset="1" stop-color="#ff9ca3"/>
    </radialGradient>
    <clipPath id="clip-path-15">
      <path id="Trazado_879933" data-name="Trazado 879933" d="M359.216,58.766S332.509,77.325,322.249,104.8c-2.769,7.417-.852,22.628-.852,22.628s3.1,10.761,8.712,12.5l1.367-.577c16.28,34.265,49.508,33.811,53.763,34.667,3.037.611,21.282-26.217,21.282-26.217L405.7,97.209c-2.669-36.127-35.786-38.5-44.432-38.5-1.306,0-2.053.054-2.053.054" transform="translate(-320.751 -58.712)" fill="none"/>
    </clipPath>
    <clipPath id="clip-path-17">
      <rect id="Rectángulo_402115" data-name="Rectángulo 402115" width="67.581" height="113.656" fill="none"/>
    </clipPath>
    <clipPath id="clip-path-18">
      <rect id="Rectángulo_402116" data-name="Rectángulo 402116" width="64.717" height="114.345" fill="none"/>
    </clipPath>
    <clipPath id="clip-path-19">
      <rect id="Rectángulo_402121" data-name="Rectángulo 402121" width="5.596" height="22.993" fill="none"/>
    </clipPath>
    <clipPath id="clip-path-20">
      <rect id="Rectángulo_402122" data-name="Rectángulo 402122" width="10.765" height="7.651" fill="none"/>
    </clipPath>
    <clipPath id="clip-path-21">
      <rect id="Rectángulo_402124" data-name="Rectángulo 402124" width="0.206" height="0.022" fill="none"/>
    </clipPath>
    <clipPath id="clip-path-22">
      <path id="Trazado_879956" data-name="Trazado 879956" d="M365.114,188.266a1.528,1.528,0,0,0-.206-.022,1.774,1.774,0,0,1,.206.022" transform="translate(-364.908 -188.244)" fill="none"/>
    </clipPath>
    <radialGradient id="radial-gradient-5" cx="308.621" cy="-795.395" r="2612.508" gradientTransform="matrix(0.274, 0, 0, -0.785, -845.572, 10860.045)" xlink:href="#radial-gradient"/>
    <clipPath id="clip-path-23">
      <rect id="Rectángulo_402126" data-name="Rectángulo 402126" width="0.228" height="0.042" fill="none"/>
    </clipPath>
    <clipPath id="clip-path-24">
      <path id="Trazado_879957" data-name="Trazado 879957" d="M372.136,187.123a1.48,1.48,0,0,0-.227-.042,1.48,1.48,0,0,1,.227.042" transform="translate(-371.909 -187.081)" fill="none"/>
    </clipPath>
    <radialGradient id="radial-gradient-6" cx="394.665" cy="-1146.608" r="2038.174" gradientTransform="matrix(0.343, 0, 0, -1, -699.229, 8742.401)" xlink:href="#radial-gradient"/>
    <clipPath id="clip-path-25">
      <rect id="Rectángulo_402127" data-name="Rectángulo 402127" width="6.184" height="16.49" fill="none"/>
    </clipPath>
    <clipPath id="clip-path-26">
      <rect id="Rectángulo_402128" data-name="Rectángulo 402128" width="64.456" height="55.693" fill="none"/>
    </clipPath>
    <clipPath id="clip-path-27">
      <rect id="Rectángulo_402129" data-name="Rectángulo 402129" width="40.759" height="99.82" fill="none"/>
    </clipPath>
    <clipPath id="clip-path-28">
      <rect id="Rectángulo_402130" data-name="Rectángulo 402130" width="39.795" height="6.28" fill="none"/>
    </clipPath>
    <clipPath id="clip-path-29">
      <path id="Trazado_879975" data-name="Trazado 879975" d="M563.955,181.276l-6.694,11.445-3.935,4.914,7.7,26.654s15.323,12.3,18.466,18.269,5.005,51.032,7.543,64.433c4.464,23.574,16.017,41,28.6,38.659,0,0,41.51-8.135-13.358-101.363-2.028-3.445-6.847-19.12-6.847-19.12l1.757-22.347c-.783-.706-3.909-3.874-4.764-4.4-.177-1.716-5.673-9.791-5.673-9.791l-1.851-.035c-1.525-2.538-3.388-5.276-3.388-5.276l-4.039-1.446c-.331-.75-.5-.712-.926-1.566Z" transform="translate(-553.326 -180.301)" fill="none"/>
    </clipPath>
    <clipPath id="clip-path-31">
      <rect id="Rectángulo_402133" data-name="Rectángulo 402133" width="33.081" height="57.158" fill="none"/>
    </clipPath>
    <clipPath id="clip-path-32">
      <rect id="Rectángulo_402134" data-name="Rectángulo 402134" width="0.036" height="0.09" fill="none"/>
    </clipPath>
    <clipPath id="clip-path-33">
      <rect id="Rectángulo_402135" data-name="Rectángulo 402135" width="24.748" height="32.34" fill="none"/>
    </clipPath>
    <clipPath id="clip-path-34">
      <rect id="Rectángulo_402136" data-name="Rectángulo 402136" width="19.264" height="9.514" fill="none"/>
    </clipPath>
    <clipPath id="clip-path-35">
      <rect id="Rectángulo_402137" data-name="Rectángulo 402137" width="12.891" height="6.907" fill="none"/>
    </clipPath>
    <clipPath id="clip-path-36">
      <rect id="Rectángulo_402138" data-name="Rectángulo 402138" width="30.07" height="31.63" fill="none"/>
    </clipPath>
    <clipPath id="clip-path-37">
      <path id="Trazado_879992" data-name="Trazado 879992" d="M56.881,312.633c-.062-.147-.109-.255-.136-.314.026.059.074.167.136.314" transform="translate(-56.745 -312.319)" fill="none"/>
    </clipPath>
    <radialGradient id="radial-gradient-7" cx="53.923" cy="-106.923" r="241.587" gradientTransform="matrix(0, 1, 1.73, 0, -1557.761, 982.275)" gradientUnits="objectBoundingBox">
      <stop offset="0" stop-color="#ffc0a7"/>
      <stop offset="0.228" stop-color="#ffc0a7"/>
      <stop offset="0.442" stop-color="#feb9a4"/>
      <stop offset="0.6" stop-color="#fdb1a1"/>
      <stop offset="0.927" stop-color="#fe9995"/>
      <stop offset="1" stop-color="#ff9393"/>
    </radialGradient>
    <clipPath id="clip-path-39">
      <path id="Trazado_880000" data-name="Trazado 880000" d="M85.736,325.469l-2.783,5.887s-.491-3.95-5.274-1.415l1.445,26.422,23.809,11.551s17.269,3.152,16.265,3.065l37.717,45.5c13.2,12.808,32.378,15.083,37.4,9.665,8.472-9.134-6.049-37.245-17.6-43.139l-37-21.692-11.457-5.721-1.352-.167-1.83-2.2-12.072-2.374-6.492-8.184s5.52-12.586-1.785-11.289l-6.053,8.7-.122,7.141L95.082,338.4c6.444-15.741-1.716-13.1-1.716-13.1L90.1,330.5s2.165-5.429-2.027-5.429a8.376,8.376,0,0,0-2.338.4" transform="translate(-77.679 -325.068)" fill="none"/>
    </clipPath>
    <clipPath id="clip-path-41">
      <rect id="Rectángulo_402143" data-name="Rectángulo 402143" width="116.413" height="72.524" fill="none"/>
    </clipPath>
    <clipPath id="clip-path-42">
      <rect id="Rectángulo_402144" data-name="Rectángulo 402144" width="5.106" height="21.67" fill="none"/>
    </clipPath>
    <clipPath id="clip-path-43">
      <rect id="Rectángulo_402145" data-name="Rectángulo 402145" width="2.852" height="14.728" fill="none"/>
    </clipPath>
    <clipPath id="clip-path-44">
      <rect id="Rectángulo_402146" data-name="Rectángulo 402146" width="5.381" height="23.436" fill="none"/>
    </clipPath>
    <clipPath id="clip-path-45">
      <rect id="Rectángulo_402147" data-name="Rectángulo 402147" width="75.789" height="23.885" fill="none"/>
    </clipPath>
    <clipPath id="clip-path-46">
      <rect id="Rectángulo_402148" data-name="Rectángulo 402148" width="5.653" height="4.116" fill="none"/>
    </clipPath>
  </defs>
  <g id="Grupo_1102478" data-name="Grupo 1102478" clip-path="url(#clip-path)">
    <g id="Grupo_1102351" data-name="Grupo 1102351">
      <g id="Grupo_1102350-2" data-name="Grupo 1102350" clip-path="url(#clip-path)">
        <path id="Trazado_879908" data-name="Trazado 879908" d="M556.689,301.681c0-124.357-92.5-227.1-212.454-243.2q13.848,4.553,27.186,10.408a272.664,272.664,0,0,1,32.533,16.962,231.54,231.54,0,0,1,29.617,21.489,192.684,192.684,0,0,1,25.289,26.242,166.422,166.422,0,0,1,19.2,30.711,165.26,165.26,0,0,0-20.995-29.2A189.22,189.22,0,0,0,430.625,111a225.63,225.63,0,0,0-30.159-19.024A264.239,264.239,0,0,0,367.913,77.6a295.591,295.591,0,0,0-68.891-16.026,238.1,238.1,0,0,0-31.656-1.371A245.647,245.647,0,0,0,70.448,254.414l.394.034a217.244,217.244,0,0,0-1.83,50.218A196.568,196.568,0,0,0,79.4,354.376a156.024,156.024,0,0,0,24.48,45,132.861,132.861,0,0,0,18.059,18.74,127.45,127.45,0,0,0,21.725,14.9A129.215,129.215,0,0,1,119.9,420.855a137.9,137.9,0,0,1-21.077-16.9,156.929,156.929,0,0,1-20.3-24.377A245.733,245.733,0,0,0,152.48,488.753H470.115a244.856,244.856,0,0,0,86.574-187.072" transform="translate(-23.139 -19.805)" fill="#d8bcff"/>
        <path id="Trazado_879909" data-name="Trazado 879909" d="M523.309,562.291s-3.7,10.092-19.773,17.226c.388.331.773.665,1.161,1,.956.818,1.9,1.645,2.851,2.47,13.542-8.114,18.835-18.184,18.835-18.184,15.117,8.351,44.744,3.45,52.155-11.01-8.254,3.079-28.408,1.077-26.473-4.8s13.357,1.407,13.357,1.407,19.2,9.218,27.588-21.871c-12.457,4.111-27.506,6.252-26.639.586,1.527-9.974,11.572,1.087,22.023-4.17,6.532-3.285,12.528-14.521,12.519-23.807-9.891,10.989-23.014,10.713-21.407,6.424,3.067-8.185,11-2.794,19.626-10.071,10.25-13.807-4.223-37.333-4.223-37.333s-9.439,12.73-21.8,9.859c0,0,.618,21.289-4.4,16.741s-2.251-18.845-2.251-18.845a69.554,69.554,0,0,0-12.8,9.551c-7.548,7.158-4.481,17.723-4.481,17.723s6.025,17.085,1.388,17.973-8.863-20.25-5.7-26.934c-9.086-1.634-21.081,14.623-13.585,27.154,5.745,9.6,8.836,15.61,4.992,18.77-3.236,2.66-10.064-4.5-11.088-12.761-1.159-9.35,1.4-20.019,1.4-20.019-34.267,31.636-3.282,62.93-3.282,62.93" transform="translate(-170.522 -155.829)" fill="#9b66ff"/>
        <path id="Trazado_879910" data-name="Trazado 879910" d="M335.2,562.291s3.7,10.092,19.773,17.226c-.388.331-.773.665-1.161,1-.956.818-1.9,1.645-2.851,2.47-13.542-8.114-18.835-18.184-18.835-18.184-15.116,8.351-44.744,3.45-52.155-11.01,8.254,3.079,28.408,1.077,26.473-4.8s-13.357,1.407-13.357,1.407-19.2,9.218-27.588-21.871c12.457,4.111,27.506,6.252,26.639.586-1.527-9.974-11.572,1.087-22.023-4.17-6.532-3.285-12.528-14.521-12.519-23.807,9.891,10.989,23.014,10.713,21.407,6.424-3.067-8.185-11-2.794-19.626-10.071-10.25-13.807,4.223-37.333,4.223-37.333s9.439,12.73,21.8,9.859c0,0-.618,21.289,4.4,16.741s2.251-18.845,2.251-18.845a69.556,69.556,0,0,1,12.8,9.551c7.548,7.158,4.481,17.723,4.481,17.723s-6.025,17.085-1.388,17.973,8.863-20.25,5.7-26.934c9.086-1.634,21.081,14.623,13.585,27.154-5.745,9.6-8.836,15.61-4.992,18.77,3.236,2.66,10.064-4.5,11.088-12.761,1.159-9.35-1.4-20.019-1.4-20.019,34.267,31.636,3.282,62.93,3.282,62.93" transform="translate(-86.596 -155.829)" fill="#9b66ff"/>
        <path id="Trazado_879911" data-name="Trazado 879911" d="M499.867,635.767s-9.772.772-19.987,13.125q-.295-.632-.589-1.264c-.483-1.04-.977-2.075-1.468-3.11,10.454-9.9,20.6-12.067,20.6-12.067-3.616-15.325,7.972-40.133,22.491-43.085-4.733,6.49-7.93,24.678-2.291,24.425s2.048-12.073,2.048-12.073-3.372-19.124,25.987-18.845c-6.672,9.926-12.253,22.614-7.065,23.245,9.133,1.112,1.891-10.427,9.076-18.311,4.491-4.928,15.829-7.43,23.981-5.138-12.08,5.982-15.064,17.572-10.9,17.216,7.942-.68,5.157-8.968,13.668-14.755,14.643-5.606,31.74,12.886,31.74,12.886s-13.5,5.159-14.015,16.714c0,0-18.54-5.778-15.781-.25s15.991,6.61,15.991,6.61a63.41,63.41,0,0,1-11.532,8.887c-8.14,4.867-16.662-.424-16.662-.424s-13.519-9.49-15.44-5.637,15.6,12.761,22.247,11.626c-.8,8.38-18.022,14.915-27.182,5.251-7.02-7.4-11.534-11.6-15.252-9C526.4,633.982,531,641.737,538,644.668c7.926,3.317,17.922,3.691,17.922,3.691-36.2,22.308-56.059-12.592-56.059-12.592" transform="translate(-161.814 -197.03)" fill="#b78bff"/>
        <path id="Trazado_879912" data-name="Trazado 879912" d="M324.734,635.767s9.772.772,19.987,13.125c.2-.421.394-.842.589-1.264.483-1.04.976-2.075,1.468-3.11-10.454-9.9-20.6-12.067-20.6-12.067,3.616-15.325-7.972-40.133-22.491-43.085,4.733,6.49,7.93,24.678,2.291,24.425s-2.048-12.073-2.048-12.073,3.372-19.124-25.986-18.845c6.672,9.926,12.253,22.614,7.064,23.245-9.133,1.112-1.891-10.427-9.076-18.311-4.491-4.928-15.829-7.43-23.981-5.138,12.08,5.982,15.064,17.572,10.9,17.216-7.941-.68-5.157-8.968-13.668-14.755-14.643-5.606-31.74,12.886-31.74,12.886s13.5,5.159,14.015,16.714c0,0,18.54-5.778,15.781-.25s-15.992,6.61-15.992,6.61a63.41,63.41,0,0,0,11.532,8.887c8.141,4.867,16.663-.424,16.663-.424s13.519-9.49,15.439-5.637-15.6,12.761-22.247,11.626c.8,8.38,18.022,14.915,27.182,5.251,7.019-7.4,11.533-11.6,15.252-9,3.132,2.187-1.472,9.942-8.478,12.873-7.925,3.317-17.922,3.691-17.922,3.691,36.2,22.308,56.06-12.592,56.06-12.592" transform="translate(-73.639 -197.03)" fill="#b78bff"/>
        <path id="Trazado_879913" data-name="Trazado 879913" d="M332.376,696.982c-246.462,0-264.779,9.076-264.779,9.076h490.21s21.031-9.076-225.431-9.076" transform="translate(-22.892 -236.032)" fill="#9b66ff"/>
        <path id="Trazado_879914" data-name="Trazado 879914" d="M382.328,35.8l-.036.036c.018-.005.038-.009.055-.015Z" transform="translate(-129.463 -12.123)" fill="#5c232f"/>
        <path id="Trazado_879915" data-name="Trazado 879915" d="M587.7,316.466,521.675,266.75l-9.1,57.887s79.639,56.694,92.151,49.091S587.7,316.466,587.7,316.466" transform="translate(-173.584 -90.335)" fill="#f59e5a"/>
        <path id="Trazado_879916" data-name="Trazado 879916" d="M588.414,315.884c1.057-.011,2.115-.018,3.17,0L526.333,266.75s58.151,49.173,62.081,49.134" transform="translate(-178.242 -90.335)" fill="#ffda94"/>
        <path id="Trazado_879917" data-name="Trazado 879917" d="M599.325,359.612c-2.29,0-32.544-15.573-32.544-15.573-11.136-6.374-20.73-12.282-20.73-12.282S526.01,295.4,520.068,282.2l-7.491,47.666s79.639,56.694,92.151,49.091c4.452-2.7,3.577-10.736.606-19.958a31.69,31.69,0,0,1-6.009.608" transform="translate(-173.584 -95.568)" fill="#f0803d"/>
      </g>
    </g>
    <g id="Grupo_1102353" data-name="Grupo 1102353" transform="translate(198.971 102.328)">
      <g id="Grupo_1102352" data-name="Grupo 1102352" clip-path="url(#clip-path-3)">
        <rect id="Rectángulo_402102" data-name="Rectángulo 402102" width="141.699" height="184.728" transform="translate(0 -0.001)" fill="#fdc49a"/>
      </g>
    </g>
    <g id="Grupo_1102381" data-name="Grupo 1102381">
      <g id="Grupo_1102380" data-name="Grupo 1102380" clip-path="url(#clip-path)">
        <g id="Grupo_1102356" data-name="Grupo 1102356" transform="translate(199.088 106.556)" style="mix-blend-mode: multiply;isolation: isolate">
          <g id="Grupo_1102355" data-name="Grupo 1102355">
            <g id="Grupo_1102354" data-name="Grupo 1102354" clip-path="url(#clip-path-5)">
              <path id="Trazado_879919" data-name="Trazado 879919" d="M301.033,245.963l40.345-21.235c3.24-14.354-2.365-36.659-11.016-51.782,0,0,55.4-29.957,46.519,5.484-2.333,41.223,12.859,48.41,3.782,51.814s-26.852-15.506-26.852-15.506l5.945,42.305s49.818,44,51.163,11.778c0,0,13.216,50.535,1.709,56.71-29.987,16.089-111.6-79.567-111.6-79.567" transform="translate(-301.033 -161.119)" fill="#ffe0e5"/>
            </g>
          </g>
        </g>
        <path id="Trazado_879920" data-name="Trazado 879920" d="M441.151,257.788l1.936-.511-1.926-.216Z" transform="translate(-149.395 -87.053)" fill="#f59e5a"/>
        <path id="Trazado_879921" data-name="Trazado 879921" d="M465.013,352.275c-3.879-19.233-4.94-22.6-4.94-22.6l-20.024-64.2-19.894-2.232c4.339,11.564,3.176,28.788-36.792,35.223-60.718,9.777-82.369-8.9-89.661-19.8a102.372,102.372,0,0,0-22.075,15.87L321.6,385.68l12.258,91.463,80.462,17.915,37.167-18.623,3.873-88.411s13.531-16.516,9.652-35.749" transform="translate(-91.986 -89.145)" fill="#f59e5a"/>
        <path id="Trazado_879922" data-name="Trazado 879922" d="M344.231,412.192s25.459-2.514,38.659-15.715c-36.05,7.328-45.26-8.8-45.26-8.8s-51.021-88.36-51.386-94.415A96,96,0,0,0,271.627,304.7L321.6,395.848l12.258,91.463s69.784,14.374,81.213,8.955l-66.6-16.027Z" transform="translate(-91.986 -99.313)" fill="#f0803d"/>
        <path id="Trazado_879923" data-name="Trazado 879923" d="M433.325,263.742l-4.5-.505c4.339,11.564,3.175,28.788-36.793,35.224-60.717,9.777-82.368-8.9-89.661-19.8-1.735.938-3.456,1.88-5.145,2.818,23.616,35.682,154.367,31.91,136.1-17.737" transform="translate(-100.655 -89.145)" fill="#fff"/>
        <path id="Trazado_879924" data-name="Trazado 879924" d="M444.08,253.626l34.476,3.868a39.986,39.986,0,0,0-6.619-11.215Z" transform="translate(-150.387 -83.402)" fill="#f59e5a"/>
        <g id="Grupo_1102361" data-name="Grupo 1102361" transform="translate(245.188 121.681)" opacity="0.5" style="mix-blend-mode: multiply;isolation: isolate">
          <g id="Grupo_1102360" data-name="Grupo 1102360">
            <g id="Grupo_1102359" data-name="Grupo 1102359" clip-path="url(#clip-path-6)">
              <g id="Grupo_1102358" data-name="Grupo 1102358" transform="translate(0 0)">
                <g id="Grupo_1102357" data-name="Grupo 1102357" clip-path="url(#clip-path-7)">
                  <rect id="Rectángulo_402104" data-name="Rectángulo 402104" width="0.214" height="0.059" transform="translate(-0.003 0) rotate(-4.699)" fill="url(#radial-gradient)"/>
                </g>
              </g>
            </g>
          </g>
        </g>
        <g id="Grupo_1102366" data-name="Grupo 1102366" transform="translate(250.049 121.3)" opacity="0.5" style="mix-blend-mode: multiply;isolation: isolate">
          <g id="Grupo_1102365" data-name="Grupo 1102365">
            <g id="Grupo_1102364" data-name="Grupo 1102364" clip-path="url(#clip-path-8)">
              <g id="Grupo_1102363" data-name="Grupo 1102363" transform="translate(0 0)">
                <g id="Grupo_1102362" data-name="Grupo 1102362" clip-path="url(#clip-path-9)">
                  <rect id="Rectángulo_402106" data-name="Rectángulo 402106" width="0.237" height="0.082" transform="translate(-0.005 0) rotate(-4.709)" fill="url(#radial-gradient-2)"/>
                </g>
              </g>
            </g>
          </g>
        </g>
        <path id="Trazado_879927" data-name="Trazado 879927" d="M414.1,91.126l-.014-.033c0,.013,0,.026,0,.04Z" transform="translate(-140.228 -30.849)" fill="#5c232f"/>
        <path id="Trazado_879928" data-name="Trazado 879928" d="M547.737,361.856c-3.88-19.233-4.94-22.6-4.94-22.6l-14.885-47.726c-.682.3,15.222,66.271,15.022,70.731-.43,9.6,4.361,27.52-27.03,32.059l16.658,5.029,2.2,67.89,3.323-69.632s13.531-16.516,9.652-35.749" transform="translate(-174.71 -98.725)" fill="#ffda94"/>
        <path id="Trazado_879929" data-name="Trazado 879929" d="M301.411,201.087c.786,11-12.707,7.822-9.429,20.116,8.8,33,64.432,40.074,59.718,29.7s10.372-8.486,13.672-18.858-13.672-16.972-7.072-25.93-21.4-39.107-21.4-39.107,42.971-49.04,43.066-58.27a6.031,6.031,0,0,0-.04-.756q-.041-.359-.121-.733c-3.145-14.638-66.873-29.529-71.677-27.394-24.479,10.879-16.712,40.691-13.322,47.684s-5.77,20.524-.157,26.873.135,18.143-2.216,21.639c-6.27,9.32,8.595,19.726,8.974,25.035" transform="translate(-98.512 -26.973)" fill="#704445"/>
        <g id="Grupo_1102369" data-name="Grupo 1102369" transform="translate(192.384 52.677)" style="mix-blend-mode: multiply;isolation: isolate">
          <g id="Grupo_1102368" data-name="Grupo 1102368">
            <g id="Grupo_1102367" data-name="Grupo 1102367" clip-path="url(#clip-path-10)">
              <path id="Trazado_879930" data-name="Trazado 879930" d="M364.264,224.773c-3.212-4.315-8.747-6.333-13.771-7.6-1.194-.3-2.4-.533-3.6-.784-.186-.039-.321-.069-.426-.093a2.107,2.107,0,0,1-.222,0q-1.433-.034-2.866-.032c-5.866,0-11.759.116-17.605-.459-4.043-.4-16.362-7.982-17.445-13-.772-3.575,8.42-.957,10.711,1.393,7.834,8.035,34.384.073,39.134,1.688.076.026.146.058.218.086,2.774-4.051-1.159-12.2-6.389-20-.648-.61-1.3-1.449-2.212-1.491-12.168-.549-20.194-5.509-28.732-7.6-9.529-2.339-18.82-2.009-17.287-6.443,2.907-8.408,32.242,2.106,33.39-3.724,3.507-4.02,42.721-49.162,42.813-57.98a6.161,6.161,0,0,0-.04-.756q-.041-.359-.121-.733c-3.146-14.638-66.873-29.529-71.677-27.394-24.479,10.879-16.711,40.691-13.322,47.684s-5.77,20.524-.157,26.873.134,18.143-2.216,21.639c-6.27,9.32,8.594,19.726,8.974,25.035.786,11-12.707,7.822-9.43,20.116,8.8,33,64.433,40.074,59.718,29.7s10.373-8.486,13.673-18.858a9.3,9.3,0,0,0-.361-6.507,4.015,4.015,0,0,1-.747-.766" transform="translate(-290.896 -79.65)" fill="#b2b2b2"/>
            </g>
          </g>
        </g>
        <g id="Grupo_1102374" data-name="Grupo 1102374" transform="translate(227.794 90.891)" opacity="0.5" style="mix-blend-mode: multiply;isolation: isolate">
          <g id="Grupo_1102373" data-name="Grupo 1102373">
            <g id="Grupo_1102372" data-name="Grupo 1102372" clip-path="url(#clip-path-11)">
              <g id="Grupo_1102371" data-name="Grupo 1102371" transform="translate(0)">
                <g id="Grupo_1102370" data-name="Grupo 1102370" clip-path="url(#clip-path-12)">
                  <rect id="Rectángulo_402109" data-name="Rectángulo 402109" width="0.178" height="0.257" transform="translate(-0.104 0.002) rotate(-5.66)" fill="url(#radial-gradient-3)"/>
                </g>
              </g>
            </g>
          </g>
        </g>
        <g id="Grupo_1102379" data-name="Grupo 1102379" transform="translate(219.656 37.045)" opacity="0.52" style="mix-blend-mode: multiply;isolation: isolate">
          <g id="Grupo_1102378" data-name="Grupo 1102378">
            <g id="Grupo_1102377" data-name="Grupo 1102377" clip-path="url(#clip-path-13)">
              <g id="Grupo_1102376" data-name="Grupo 1102376" transform="translate(0 0)">
                <g id="Grupo_1102375" data-name="Grupo 1102375" clip-path="url(#clip-path-14)">
                  <rect id="Rectángulo_402111" data-name="Rectángulo 402111" width="93.636" height="88.719" transform="translate(-19.134 3.101) rotate(-11.824)" fill="url(#radial-gradient-4)"/>
                </g>
              </g>
            </g>
          </g>
        </g>
      </g>
    </g>
    <g id="Grupo_1102383" data-name="Grupo 1102383" transform="translate(212.129 38.829)">
      <g id="Grupo_1102382" data-name="Grupo 1102382" clip-path="url(#clip-path-15)">
        <rect id="Rectángulo_402114" data-name="Rectángulo 402114" width="121.059" height="138.496" transform="matrix(0.941, -0.338, 0.338, 0.941, -38.101, 13.206)" fill="#fdc49a"/>
      </g>
    </g>
    <g id="Grupo_1102429" data-name="Grupo 1102429">
      <g id="Grupo_1102428" data-name="Grupo 1102428" clip-path="url(#clip-path)">
        <path id="Trazado_879934" data-name="Trazado 879934" d="M435.144,98.786l-.176-.417c.055-.573.1-1.148.125-1.727a27.572,27.572,0,0,0-6.7-18.89,22.483,22.483,0,0,0-3.457-5.7c7.017,6.306,12.648,15.693,13.681,29.676l.819,50.6s-18.245,26.828-21.282,26.217c-.063-.013-.133-.025-.208-.038l20.274-26.264s-1.631-48.073-3.076-53.451" transform="translate(-141.537 -24.4)" fill="#fff"/>
        <g id="Grupo_1102386" data-name="Grupo 1102386" transform="translate(212.129 40.486)" style="mix-blend-mode: multiply;isolation: isolate">
          <g id="Grupo_1102385" data-name="Grupo 1102385">
            <g id="Grupo_1102384" data-name="Grupo 1102384" clip-path="url(#clip-path-17)">
              <path id="Trazado_879935" data-name="Trazado 879935" d="M388.262,129.372c-1.863-2.128-11.054-23.856-11.054-23.856L375.35,90.549s4.692-12.246,1.626-24.129c-.345-1.337-3.9-3.262-7.34-5.2a32.257,32.257,0,0,1-8.768,1.265,31.535,31.535,0,0,1-8.2-1.081c-8.459,8.484-23.315,25.214-30.422,44.248-2.77,7.417-.852,22.628-.852,22.628s3.1,10.762,8.711,12.5l1.367-.577c16.28,34.265,49.508,33.81,53.763,34.666.575.116,3.093-2.32,3.093-2.32l-5.137-32.04s4.354-10.344,5.067-11.137" transform="translate(-320.751 -61.217)" fill="#ffe0e5"/>
            </g>
          </g>
        </g>
        <g id="Grupo_1102389" data-name="Grupo 1102389" transform="translate(212.129 39.813)" style="mix-blend-mode: multiply;isolation: isolate">
          <g id="Grupo_1102388" data-name="Grupo 1102388">
            <g id="Grupo_1102387" data-name="Grupo 1102387" clip-path="url(#clip-path-18)">
              <path id="Trazado_879936" data-name="Trazado 879936" d="M342.032,139.949a147.555,147.555,0,0,1-.967-17.268S387.111,81.192,369.7,69.634c-.065-.043,4.035-2.118,4.038-2.206.025-.778.068-1.563.068-2.342,0-.613-.02-1.224-.051-1.835-.887-.548-1.884-1.118-2.909-1.7-.188.02-.376.051-.565.065a12.162,12.162,0,0,1-5.78-.952,30.716,30.716,0,0,1-4.106.29,31.508,31.508,0,0,1-6.865-.76c-8.272,8.175-23.926,25.4-31.282,45.1-2.77,7.417-.852,22.628-.852,22.628s3.1,10.761,8.711,12.5l1.367-.577c16.28,34.265,49.508,33.81,53.763,34.666a1.131,1.131,0,0,0,.229.019c-.19-.454-39.538-3.591-43.436-34.6" transform="translate(-320.751 -60.199)" fill="#ffe0e5"/>
            </g>
          </g>
        </g>
        <path id="Trazado_879938" data-name="Trazado 879938" d="M426.377,129.546c.308,2.668-.773,4.984-2.415,5.174s-3.222-1.819-3.53-4.488.774-4.984,2.415-5.174,3.222,1.82,3.53,4.488" transform="translate(-142.361 -42.346)" fill="#1d1d1b"/>
        <path id="Trazado_879939" data-name="Trazado 879939" d="M424.163,124.2a4.487,4.487,0,0,0,5.076-1.852c-1.019,3.163-2.185,4.856-5.076,1.852" transform="translate(-143.642 -41.432)" fill="#1d1d1b"/>
        <path id="Trazado_879940" data-name="Trazado 879940" d="M427.021,126.1a4.487,4.487,0,0,0,5.381.484c-2.268,2.429-4.044,3.464-5.381-.484" transform="translate(-144.61 -42.703)" fill="#1d1d1b"/>
        <path id="Trazado_879941" data-name="Trazado 879941" d="M424.231,129.295c.168,1.456-.423,2.721-1.319,2.825s-1.759-.993-1.927-2.45.422-2.721,1.318-2.825,1.759.993,1.928,2.45" transform="translate(-142.556 -42.953)" fill="#fff"/>
        <path id="Trazado_879942" data-name="Trazado 879942" d="M414,115.606c8.664-10.49,19.784-3.7,19.784-3.7a14.872,14.872,0,0,0-15.856-3.671A5.731,5.731,0,0,0,414,115.606" transform="translate(-140.105 -36.337)" fill="#1d1d1b"/>
        <path id="Trazado_879944" data-name="Trazado 879944" d="M356.054,129.335c8.875-12.806,19.917-5.386,19.917-5.386s-.727-6.771-8.407-5.432c-8.334,1.454-11.509,10.818-11.509,10.818" transform="translate(-120.577 -40.076)" fill="#1d1d1b"/>
        <g id="Grupo_1102402" data-name="Grupo 1102402" transform="translate(268.513 91.889)" style="mix-blend-mode: multiply;isolation: isolate">
          <g id="Grupo_1102401" data-name="Grupo 1102401">
            <g id="Grupo_1102400" data-name="Grupo 1102400" clip-path="url(#clip-path-19)">
              <path id="Trazado_879945" data-name="Trazado 879945" d="M411.6,156.561l-5.332,5.372-.265-22.992Z" transform="translate(-406.007 -138.941)" fill="#ffe0e5"/>
            </g>
          </g>
        </g>
        <path id="Trazado_879946" data-name="Trazado 879946" d="M418.826,156.677l-.118-3.607L411.144,140.4Z" transform="translate(-139.234 -47.546)" fill="#fff"/>
        <g id="Grupo_1102405" data-name="Grupo 1102405" transform="translate(268.313 110.823)" style="mix-blend-mode: multiply;isolation: isolate">
          <g id="Grupo_1102404" data-name="Grupo 1102404">
            <g id="Grupo_1102403" data-name="Grupo 1102403" clip-path="url(#clip-path-20)">
              <path id="Trazado_879947" data-name="Trazado 879947" d="M416.47,167.571c-.021-.031-3.5.47-3.5.47a22.154,22.154,0,0,0-7.263,6s3.145,2.378,6.14.384c.24-2.219,1.741-4.694,4.625-6.853" transform="translate(-405.705 -167.57)" fill="#ffd1cd"/>
            </g>
          </g>
        </g>
        <path id="Trazado_879948" data-name="Trazado 879948" d="M375.963,140.1c.308,2.669-.773,4.984-2.415,5.174s-3.223-1.819-3.531-4.488.774-4.984,2.415-5.174,3.222,1.819,3.53,4.487" transform="translate(-125.288 -45.921)" fill="#1d1d1b"/>
        <path id="Trazado_879949" data-name="Trazado 879949" d="M373.749,134.751a4.486,4.486,0,0,0,5.076-1.852c-1.019,3.163-2.185,4.856-5.076,1.852" transform="translate(-126.57 -45.006)" fill="#1d1d1b"/>
        <path id="Trazado_879950" data-name="Trazado 879950" d="M376.607,136.652a4.485,4.485,0,0,0,5.381.484c-2.268,2.429-4.044,3.464-5.381-.484" transform="translate(-127.538 -46.277)" fill="#1d1d1b"/>
        <path id="Trazado_879951" data-name="Trazado 879951" d="M373.817,139.849c.168,1.456-.423,2.721-1.319,2.825s-1.759-.993-1.927-2.45.422-2.721,1.318-2.825,1.759.993,1.928,2.45" transform="translate(-125.484 -46.528)" fill="#fff"/>
        <path id="Trazado_879952" data-name="Trazado 879952" d="M413.641,185.75l-19.106,4.136s7.807,10.654,17.206,4.236c-2.173-6.487,1.9-8.372,1.9-8.372" transform="translate(-133.609 -62.904)" fill="#1d1d1b"/>
        <path id="Trazado_879953" data-name="Trazado 879953" d="M407.333,200.3l8.737-1.9s.463,1.917-2.419,2.372a11.051,11.051,0,0,1-6.318-.474" transform="translate(-137.943 -67.189)" fill="#d60b52"/>
        <path id="Trazado_879954" data-name="Trazado 879954" d="M390.1,189.5a35.4,35.4,0,0,0,4.938-2.287c3.836-2.177,7.533-5.358,10.456-3.013,2.4-4.1,4.17.183,7.847.315-8.057,1.627-23.241,4.985-23.241,4.985" transform="translate(-132.106 -61.78)" fill="#d60b52"/>
        <path id="Trazado_879955" data-name="Trazado 879955" d="M397.2,190.045s4.754-1.026,8.119-1.8,5.724-1.165,5.724-1.165-.632,1.609-3.9,2.46-9.1,2-9.945.509" transform="translate(-134.51 -63.353)" fill="#fff"/>
        <g id="Grupo_1102410" data-name="Grupo 1102410" transform="translate(241.332 124.495)" opacity="0.5" style="mix-blend-mode: multiply;isolation: isolate">
          <g id="Grupo_1102409" data-name="Grupo 1102409">
            <g id="Grupo_1102408" data-name="Grupo 1102408" clip-path="url(#clip-path-21)">
              <g id="Grupo_1102407" data-name="Grupo 1102407" transform="translate(0 0)">
                <g id="Grupo_1102406" data-name="Grupo 1102406" clip-path="url(#clip-path-22)">
                  <rect id="Rectángulo_402123" data-name="Rectángulo 402123" width="0.207" height="0.057" transform="translate(-0.004 0.001) rotate(-9.656)" fill="url(#radial-gradient-5)"/>
                </g>
              </g>
            </g>
          </g>
        </g>
        <g id="Grupo_1102415" data-name="Grupo 1102415" transform="translate(245.962 123.726)" opacity="0.5" style="mix-blend-mode: multiply;isolation: isolate">
          <g id="Grupo_1102414" data-name="Grupo 1102414">
            <g id="Grupo_1102413" data-name="Grupo 1102413" clip-path="url(#clip-path-23)">
              <g id="Grupo_1102412" data-name="Grupo 1102412">
                <g id="Grupo_1102411" data-name="Grupo 1102411" clip-path="url(#clip-path-24)">
                  <rect id="Rectángulo_402125" data-name="Rectángulo 402125" width="0.231" height="0.079" transform="translate(-0.007 0.001) rotate(-9.655)" fill="url(#radial-gradient-6)"/>
                </g>
              </g>
            </g>
          </g>
        </g>
        <g id="Grupo_1102418" data-name="Grupo 1102418" transform="translate(215.324 100.269)" style="mix-blend-mode: multiply;isolation: isolate">
          <g id="Grupo_1102417" data-name="Grupo 1102417">
            <g id="Grupo_1102416" data-name="Grupo 1102416" clip-path="url(#clip-path-25)">
              <path id="Trazado_879958" data-name="Trazado 879958" d="M331.766,168.1s-.591-18.09-5.243-16.376c-2.028.748-.149,6.292-.149,6.292Z" transform="translate(-325.582 -151.612)" fill="#ffd1cd"/>
            </g>
          </g>
        </g>
        <path id="Trazado_879959" data-name="Trazado 879959" d="M404.382,121.171c-4.954-8.753,3.772-16.03-2.345-25.322-2.852-4.333-1.191-13.1-1.191-13.1-15.464-25.359-33-25.223-33-25.223s-47.3-12.154-56.773,11.089c0,0-15.6,7.447-15.658,27.606-.072,24.434,17.235,29.852,17.235,29.852-.225-1.211-2.642-12.051,4.829-13.939,3.407-.86,5.213,2.412,5.213,2.412.533-.054-1.083,11.228,4.514,21.769,2.368-1.723,4.023-3.985,1.823-6.813-.99-1.274,2.044-5.5-.628-8.8-1.782-2.2,11.716-5.362,8.961-9.518-1.209-1.824,14.55-7.925,11.084-10.578-2.167-1.658,12.138-11.492,9.935-13.968s8.286-6.011,3.493-12.4l33.386,17.573,2.726,55.274-16.719,21.776c.011,1.9,10.375,20.118,10.375,20.118l45.574,4.714s-20.276-23.45-15.152-28.916c7.072-7.543-13.673-16.265-10.137-25.223,2.028-5.137-6.356-16.288-7.543-18.387" transform="translate(-100.041 -18.405)" fill="#704445"/>
        <g id="Grupo_1102421" data-name="Grupo 1102421" transform="translate(195.372 62.215)" style="mix-blend-mode: multiply;isolation: isolate">
          <g id="Grupo_1102420" data-name="Grupo 1102420">
            <g id="Grupo_1102419" data-name="Grupo 1102419" clip-path="url(#clip-path-26)">
              <path id="Trazado_879960" data-name="Trazado 879960" d="M359.869,96.67c-.131-.118-.266-.23-.4-.35-.453-.415-19.794,10.646-30.289,10.646-11.156,0-27.58.548-29.115-12.06-.048-.4-.569-.554-.851-.834a32.434,32.434,0,0,0-3.8,15.6c-.073,24.434,17.235,29.852,17.235,29.852-.225-1.21-2.643-12.051,4.829-13.938,3.407-.861,5.214,2.411,5.214,2.411.532-.054-1.083,11.228,4.514,21.769,2.368-1.723,4.023-3.985,1.823-6.813-.991-1.273,2.043-5.5-.629-8.8-1.782-2.2,11.716-5.362,8.962-9.518-1.21-1.824,14.55-7.925,11.084-10.578-2.166-1.658,12.138-11.492,9.935-13.968-.845-.949.179-2.056,1.489-3.419" transform="translate(-295.413 -94.072)" fill="#b2b2b2"/>
            </g>
          </g>
        </g>
        <g id="Grupo_1102424" data-name="Grupo 1102424" transform="translate(281.224 73.9)" style="mix-blend-mode: multiply;isolation: isolate">
          <g id="Grupo_1102423" data-name="Grupo 1102423">
            <g id="Grupo_1102422" data-name="Grupo 1102422" clip-path="url(#clip-path-27)">
              <path id="Trazado_879961" data-name="Trazado 879961" d="M425.226,188.3l16.719-21.776-2.7-54.782s-1.271,47.252,11.222,60.453-14.851,14.615,15.519,39.367L435.6,208.419S425.237,190.2,425.226,188.3" transform="translate(-425.226 -111.741)" fill="#b2b2b2"/>
            </g>
          </g>
        </g>
        <g id="Grupo_1102427" data-name="Grupo 1102427" transform="translate(214.138 42.213)" style="mix-blend-mode: multiply;isolation: isolate">
          <g id="Grupo_1102426" data-name="Grupo 1102426">
            <g id="Grupo_1102425" data-name="Grupo 1102425" clip-path="url(#clip-path-28)">
              <path id="Trazado_879962" data-name="Trazado 879962" d="M323.789,70.108s23.078-5.194,39.795-.651c-19.252-13.035-39.795.651-39.795.651" transform="translate(-323.789 -63.828)" fill="#b2b2b2"/>
            </g>
          </g>
        </g>
        <path id="Trazado_879963" data-name="Trazado 879963" d="M487.15,446.247l-30.256,4.916s11.724-12.48,30.256-4.916" transform="translate(-154.727 -150.297)" fill="#f0803d"/>
        <path id="Trazado_879964" data-name="Trazado 879964" d="M603.283,72.468c-11.709-20.276-24.5-34.478-32.509-35.982-6.026-1.131-6.422,4.6-6.268,4.981,1.04,24.188-5.461,33.883-5.445,34.137L498.669,111.29a12.426,12.426,0,0,0-6.3,11.785A27.9,27.9,0,0,0,506.475,145.8a15.281,15.281,0,0,0,15.566-.008c13.876-8.235,47.066-27.485,60.817-31.553,14.036-5.217,27.767,4.265,29.739,4.886,4.414,1.39,7.145.454,7.122-4.463-.062-13-10.072-31.172-16.437-42.193" transform="translate(-166.726 -12.306)" fill="#f59e5a"/>
        <path id="Trazado_879965" data-name="Trazado 879965" d="M492.368,143.135a12.426,12.426,0,0,1,6.3-11.785l60.392-35.687a.354.354,0,0,1,.037-.091c4.637,27.789,23.487,38.812,23.487,38.812-13.908,4.233-46.756,23.284-60.544,31.467a15.283,15.283,0,0,1-15.566.008,27.9,27.9,0,0,1-14.107-22.724" transform="translate(-166.726 -32.365)" fill="#f59e5a"/>
        <path id="Trazado_879966" data-name="Trazado 879966" d="M584.3,108.827c24.019,36.339,34.927,35.257,34.927,35.257a15.41,15.41,0,0,1-4.51-.412c-1.972-.62-15.7-10.1-29.739-4.885-13.751,4.068-46.941,23.318-60.817,31.553a15.283,15.283,0,0,1-15.566.008,28.669,28.669,0,0,1-10-9.662c1.792-2.039,85.7-51.859,85.7-51.859" transform="translate(-168.85 -36.854)" fill="#f0803d"/>
        <path id="Trazado_879967" data-name="Trazado 879967" d="M531.473,169.9c9.262-5.45,23.633-13.717,36.367-20.236-5.3-1.986-20.516-21.881-22.982-36.046L509.877,134.24c1.057,1.8-1.427,19.25,21.6,35.66" transform="translate(-172.669 -38.477)" fill="#9b66ff"/>
        <path id="Trazado_879968" data-name="Trazado 879968" d="M549.413,139.263c-8.4,5.157-29.88,18.178-33.07,20.032,2.89,5.867,8.021,12.662,17.319,19.289,8.459-4.977,21.177-12.3,33.02-18.5a74.233,74.233,0,0,1-17.269-20.819" transform="translate(-174.859 -47.161)" fill="#5e29ff"/>
        <path id="Trazado_879969" data-name="Trazado 879969" d="M639.137,73.925c12.609,20.827,19.288,39.958,14.916,42.733S635.917,104.8,623.307,83.97,604.02,44.012,608.391,41.237,626.528,53.1,639.137,73.925" transform="translate(-205.577 -13.851)" fill="#9b66ff"/>
        <path id="Trazado_879970" data-name="Trazado 879970" d="M628.71,93.847a86.689,86.689,0,0,1-9.486-10.432c2.319,4.731,5.079,9.789,8.2,14.952,12.609,20.827,26.375,35.461,30.746,32.687,2.442-1.55,1.433-8.209-2.131-17.414A148.759,148.759,0,0,1,628.71,93.847" transform="translate(-209.7 -28.248)" fill="#5e29ff"/>
        <path id="Trazado_879971" data-name="Trazado 879971" d="M645.022,94.713a11.092,11.092,0,0,1-3.648,15.257l-11.609-18.9a11.092,11.092,0,0,1,15.257,3.648" transform="translate(-213.269 -30.283)" fill="#f59e5a"/>
        <path id="Trazado_879972" data-name="Trazado 879972" d="M631.658,90.51c1.885,6.161,8.649,10.094,14.947,9.371a11.082,11.082,0,0,1-5.233,10.457l-11.609-18.9a11.123,11.123,0,0,1,1.894-.923" transform="translate(-213.269 -30.651)" fill="#f0803d"/>
        <path id="Trazado_879973" data-name="Trazado 879973" d="M573.34,218.468l-27.755-31.527-4.85,1.437s-9.97-.988-1.347-8.174c0,0,35.3-21.827,31.8-13.473l-8.132,10.937,20.8,35.41c-6.2,9.971-10.509,5.389-10.509,5.389" transform="translate(-181.474 -55.818)" fill="#f59e5a"/>
        <path id="Trazado_879974" data-name="Trazado 879974" d="M540.086,186.717s6.133-4.18,11.273-7.126l2.649,6.871,4.4-6.108,6.467.179s-2.75,15.241-.468,17.741c5.606,6.145,12.41,13.2,14.256,21.553a7.252,7.252,0,0,0,1.619,3.3,5.221,5.221,0,0,1-4.556,1.259,4.1,4.1,0,0,1-2.018-1.3l-27.426-31.154-4.85,1.437s-6.871-2.65-1.347-6.662" transform="translate(-182.172 -60.818)" fill="#f0803d"/>
      </g>
    </g>
    <g id="Grupo_1102431" data-name="Grupo 1102431" transform="translate(365.943 119.242)">
      <g id="Grupo_1102430" data-name="Grupo 1102430" clip-path="url(#clip-path-29)">
        <path id="Trazado_880056" data-name="Trazado 880056" d="M0,0H180.133V125.438H0Z" transform="translate(-22.353 164.656) rotate(-82.269)" fill="#fdc49a"/>
      </g>
    </g>
    <g id="Grupo_1102451" data-name="Grupo 1102451">
      <g id="Grupo_1102450" data-name="Grupo 1102450" clip-path="url(#clip-path)">
        <g id="Grupo_1102434" data-name="Grupo 1102434" transform="translate(373.646 163.231)" style="mix-blend-mode: multiply;isolation: isolate">
          <g id="Grupo_1102433" data-name="Grupo 1102433">
            <g id="Grupo_1102432" data-name="Grupo 1102432" clip-path="url(#clip-path-31)">
              <path id="Trazado_879976" data-name="Trazado 879976" d="M583.439,265.082c1.932,3.671,3.38,22.111,4.8,38.889,5.457-.956,9.816-6.044,9.816-6.044L590.2,264.3a20.71,20.71,0,0,0,1.571-9.9c-.165,0-10.372.786-10.372.786l-16.423-8.369s15.323,12.3,18.466,18.269" transform="translate(-564.973 -246.814)" fill="#ffe0e5"/>
            </g>
          </g>
        </g>
        <path id="Trazado_879977" data-name="Trazado 879977" d="M609.705,236.874l-2.673-11.543,2-22.472-5.114-4.755-5.84-10.041-2.28-.29-2.893-4.967-3.6-.61a14.949,14.949,0,0,0-2.339-1.971c.521,1.026.982,1.02,1.368,1.9l-3.346.57,7.244.6s1.863,2.737,3.389,5.276l1.851.034,5.172,8.432-4.461-.188,4.962,1.548c.856.532,3.981,3.7,4.764,4.405l-2.036,24.131s3.456,10.193,3.827,9.949" transform="translate(-198.107 -61.032)" fill="#fff"/>
        <g id="Grupo_1102437" data-name="Grupo 1102437" transform="translate(375.974 143.272)" style="mix-blend-mode: multiply;isolation: isolate">
          <g id="Grupo_1102436" data-name="Grupo 1102436">
            <g id="Grupo_1102435" data-name="Grupo 1102435" clip-path="url(#clip-path-32)">
              <path id="Trazado_879978" data-name="Trazado 879978" d="M568.53,216.686c-.012-.015-.024-.034-.036-.05.005.03.011.06.016.09.007-.013.013-.026.019-.04" transform="translate(-568.494 -216.636)" fill="#1d1d1b"/>
            </g>
          </g>
        </g>
        <g id="Grupo_1102440" data-name="Grupo 1102440" transform="translate(370.98 123.843)" style="mix-blend-mode: multiply;isolation: isolate">
          <g id="Grupo_1102439" data-name="Grupo 1102439">
            <g id="Grupo_1102438" data-name="Grupo 1102438" clip-path="url(#clip-path-33)">
              <path id="Trazado_879979" data-name="Trazado 879979" d="M571.488,208.719a7.366,7.366,0,0,1,.6-2.3l.815-1.147-.015,0a8.7,8.7,0,0,0,5.687-3.841,6.12,6.12,0,0,0,.458-4.794l1.158-1.63s4.133,5.229,4.088,5.217c-1.508-.407-6.879,9.71-8.353,12.55a41.5,41.5,0,0,0-4.437-4.053" transform="translate(-564.514 -189.882)" fill="#ffe0e5"/>
              <path id="Trazado_879980" data-name="Trazado 879980" d="M579.083,217.438c1.294-1.47,9.248-10.482,9.248-10.482l3.5,4.493-9.265,8.338-.188,6.482-.985-6.492Z" transform="translate(-567.086 -193.929)" fill="#ffe0e5"/>
              <path id="Trazado_879981" data-name="Trazado 879981" d="M574.362,191.541l.039-.017a5.887,5.887,0,0,1,.829-.871l-2.948-3.4-4.141,4.577-7.2,3.02s13.513-3.091,13.419-3.313" transform="translate(-560.943 -187.258)" fill="#ffe0e5"/>
            </g>
          </g>
        </g>
        <g id="Grupo_1102443" data-name="Grupo 1102443" transform="translate(371.39 121.783)" style="mix-blend-mode: multiply;isolation: isolate">
          <g id="Grupo_1102442" data-name="Grupo 1102442">
            <g id="Grupo_1102441" data-name="Grupo 1102441" clip-path="url(#clip-path-34)">
              <path id="Trazado_879982" data-name="Trazado 879982" d="M572.251,185.876l.1-.144,8.477-.951s-7.712-1.441-9.053.005c-.28.3-4.92,6.832-4.92,6.832l-5.291,2.038,5.668-1.13Z" transform="translate(-561.562 -184.143)" fill="#ca9e67"/>
            </g>
          </g>
        </g>
        <g id="Grupo_1102446" data-name="Grupo 1102446" transform="translate(373.134 120.103)" style="mix-blend-mode: multiply;isolation: isolate">
          <g id="Grupo_1102445" data-name="Grupo 1102445">
            <g id="Grupo_1102444" data-name="Grupo 1102444" clip-path="url(#clip-path-35)">
              <path id="Trazado_879983" data-name="Trazado 879983" d="M568.213,182.939l.1-.144,8.778-1.192-9.354.247-3.537,6.66Z" transform="translate(-564.199 -181.602)" fill="#ca9e67"/>
            </g>
          </g>
        </g>
        <g id="Grupo_1102449" data-name="Grupo 1102449" transform="translate(373.579 126.978)" style="mix-blend-mode: multiply;isolation: isolate">
          <g id="Grupo_1102448" data-name="Grupo 1102448">
            <g id="Grupo_1102447" data-name="Grupo 1102447" clip-path="url(#clip-path-36)">
              <path id="Trazado_879984" data-name="Trazado 879984" d="M587.989,211.141c-.8,4.139-5.974,3.932-5.974,3.932l-.606,4.311c-2.493,4.85-6.332,1.55-6.332,1.55s-1.47-8.143-1.531-8.415l10.107-11.241.077-.083,11.033,1.04s-10.18-2.118-12.332-2.666l-.159-.042c-1.681-.453-8.193,11.935-8.732,12.966-.015-.067-.024-.11-.024-.11-.007.06-.005.118-.011.178l0,.008,0,0a8.876,8.876,0,0,0-.015,1.5c0,.02,0,.04,0,.061-.247-.077-.477-.157-.7-.241a5.346,5.346,0,0,1-.588-.247c-.038-.018-.083-.034-.12-.052l-.034-.027a6.623,6.623,0,0,1-2.206-8.162l.815-1.147-.015,0a8.705,8.705,0,0,0,5.687-3.84,6.121,6.121,0,0,0,.458-4.794l1.158-1.631h0l9.617-1.925S579,191.979,577.062,192a.941.941,0,0,0-.5.255,5.934,5.934,0,0,0-.83.872l-.038.017c2.014,4.76.108,7.007-3.364,8.8a12.543,12.543,0,0,1-7.456.69c.386,1.1,3.122,2.042,3.018,3.031-.809,7.635,2.065,9.072,2.065,9.072l2.785,1.167,1.616,6.287,2.335,1.437,10.976-1.048s2.232-2.216,2.274-4.545a3.272,3.272,0,0,0-2.12-3.08c5.965.033,7.12-3.757,7.12-3.757-5.768,4.57-6.954-.057-6.954-.057" transform="translate(-564.873 -191.998)" fill="#ca9e67"/>
            </g>
          </g>
        </g>
        <path id="Trazado_879985" data-name="Trazado 879985" d="M586.616,234.753s2.775-1.78,2.579-6.366a7.393,7.393,0,0,0,3.545-.952l3.308,6.983c-6.2,9.969-10.51,5.389-10.51,5.389l-3.1-4.581Z" transform="translate(-197.243 -77.02)" fill="#f59e5a"/>
        <path id="Trazado_879986" data-name="Trazado 879986" d="M586.616,236.629a6.335,6.335,0,0,0,2.311-3.655,6.88,6.88,0,0,0,6.379,3.678c.181,0,.351-.015.526-.026-6.082,9.52-10.294,5.055-10.294,5.055l-3.1-4.581Z" transform="translate(-197.243 -78.896)" fill="#f0803d"/>
        <path id="Trazado_879987" data-name="Trazado 879987" d="M484.26,661.88,474.2,581.732l-2.2-4.086a60.319,60.319,0,0,1-33.944,13.986c-21.216,1.886-79.362-8.172-81.484-8.879s-3.379-5.029-3.379-5.029l-21.687,83.213Z" transform="translate(-112.265 -195.619)" fill="#9b66ff"/>
        <path id="Trazado_879988" data-name="Trazado 879988" d="M542.044,602.43c-2.038,2.038-3.091,3.038-3.091,3.038l12.258,64.59L542.645,601.8c-.2.212-.4.431-.6.634" transform="translate(-182.516 -203.798)" fill="#b78bff"/>
        <path id="Trazado_879989" data-name="Trazado 879989" d="M474.216,588.658c.247-.249.508-.485.765-.725l-.778-6.2-2.2-4.086a60.323,60.323,0,0,1-33.945,13.986c-21.215,1.886-79.362-8.172-81.484-8.879s-3.379-5.029-3.379-5.029l-21.687,83.212,32.531.465c.095-.416,10.372-62.226,10.372-62.226l65.533,7.543s25.319-9.014,34.273-18.06" transform="translate(-112.265 -195.619)" fill="#7e49ff"/>
        <path id="Trazado_879990" data-name="Trazado 879990" d="M285.223,342.148c-9.077-20.139-28.6-31.117-28.6-31.117l-30.232,68c6.164,10.806,10.541,22.5,14.164,34.392.9,2.967,1.759,5.946,2.621,8.922,12.048-11.928,47.164-49.714,47.164-49.714l6.829,11.949s-2.867-22.292-11.944-42.431" transform="translate(-76.666 -105.33)" fill="#f59e5a"/>
        <path id="Trazado_879991" data-name="Trazado 879991" d="M292.476,349.563a64.3,64.3,0,0,0-11.108-16.635c9.851,19.149,7.336,40.836,7.336,40.836l-40.9,47.074c.9,2.967,1.759,5.946,2.621,8.922,12.048-11.928,47.164-49.714,47.164-49.714l6.829,11.949s-2.867-22.292-11.944-42.431" transform="translate(-83.919 -112.746)" fill="#f0803d"/>
      </g>
    </g>
    <g id="Grupo_1102453" data-name="Grupo 1102453" transform="translate(37.528 206.552)">
      <g id="Grupo_1102452" data-name="Grupo 1102452" clip-path="url(#clip-path-37)">
        <rect id="Rectángulo_402140" data-name="Rectángulo 402140" width="0.193" height="0.334" transform="translate(-0.059 0.012) rotate(-11.038)" fill="url(#radial-gradient-7)"/>
      </g>
    </g>
    <g id="Grupo_1102455" data-name="Grupo 1102455">
      <g id="Grupo_1102454" data-name="Grupo 1102454" clip-path="url(#clip-path)">
        <path id="Trazado_879993" data-name="Trazado 879993" d="M133.774,371.158a17.211,17.211,0,0,0-3.912-2.191l2.87.354,11.457,5.72s45.236,25.259,48.271,26.4a87.123,87.123,0,0,1,5.783,7.432,23.96,23.96,0,0,1,4.34,11.276c-1.543-7.357-9.68-16.415-9.68-16.415s-55.661-31.249-59.129-32.578" transform="translate(-43.978 -124.95)" fill="#fff"/>
        <path id="Trazado_879994" data-name="Trazado 879994" d="M149.34,359.613l58.582-14.792.292-3.865L101.346,321.707,43.456,337Z" transform="translate(-14.716 -108.946)" fill="#b78bff"/>
        <path id="Trazado_879995" data-name="Trazado 879995" d="M145.72,358.15l34.909-7.637L90.584,334.159l-36.3,7.59Z" transform="translate(-18.383 -113.163)" fill="#ebdeff"/>
        <path id="Trazado_879996" data-name="Trazado 879996" d="M187.035,343.222l13.331-2.917L165.98,334.06l-13.863,2.9Z" transform="translate(-51.514 -113.129)" fill="#ebdeff"/>
        <path id="Trazado_879997" data-name="Trazado 879997" d="M149.34,367.445l58.582-14.792.292-3.865L147.6,364.469,43.456,344.833Z" transform="translate(-14.716 -116.777)" fill="#7e49ff"/>
        <path id="Trazado_879998" data-name="Trazado 879998" d="M131.884,235.379a8.045,8.045,0,0,0-6.519-7.26L19.436,206.471s-5.023-.048-3.02,6.13c1.99,6.141,16.428,86.289,16.428,86.289l107.18,21.7Z" transform="translate(-5.399 -69.921)" fill="#9b66ff"/>
        <path id="Trazado_879999" data-name="Trazado 879999" d="M110.343,239.637l20.2,3.537c3.087.517,6.1,2.634,6.434,5.9l6.925,79.13L42.026,308.359l-2.709-12.1c1.386.276,71.026-56.625,71.026-56.625" transform="translate(-13.315 -81.153)" fill="#7e49ff"/>
      </g>
    </g>
    <g id="Grupo_1102457" data-name="Grupo 1102457" transform="translate(51.373 214.984)">
      <g id="Grupo_1102456" data-name="Grupo 1102456" clip-path="url(#clip-path-39)">
        <rect id="Rectángulo_402142" data-name="Rectángulo 402142" width="138.907" height="150.08" transform="translate(-28.592 98.378) rotate(-74.162)" fill="#fdc49a"/>
      </g>
    </g>
    <g id="Grupo_1102477" data-name="Grupo 1102477">
      <g id="Grupo_1102476" data-name="Grupo 1102476" clip-path="url(#clip-path)">
        <g id="Grupo_1102460" data-name="Grupo 1102460" transform="translate(52.818 246.279)" style="mix-blend-mode: multiply;isolation: isolate">
          <g id="Grupo_1102459" data-name="Grupo 1102459">
            <g id="Grupo_1102458" data-name="Grupo 1102458" clip-path="url(#clip-path-41)">
              <path id="Trazado_880001" data-name="Trazado 880001" d="M123.081,385.4s4.861-.393,2.986-4.4c-.438.015-25.3-8.015-25.3-8.015l-20.9-.6,23.809,11.55s17.269,3.152,16.265,3.065l37.717,45.5c13.2,12.808,32.378,15.083,37.4,9.665a8.238,8.238,0,0,0,1.22-1.746c-20.957-16.611-73.2-55.019-73.2-55.019" transform="translate(-79.864 -372.388)" fill="#ffe0e5"/>
            </g>
          </g>
        </g>
        <path id="Trazado_880002" data-name="Trazado 880002" d="M204.127,405.718l-19.153-12.33-4.008-1.237c.083.282,3.892,2.761,3.928,3.06a10.652,10.652,0,0,1-2.769,7.725c-5.108,5.108-13.527,10.146-22.257,6.659-.432-.172-1.507-1.729-1.944-1.944l2.416,5.009,2.887,1.945,21.1,24.588c13.2,12.808,32.378,15.083,37.4,9.665,8.471-9.134-6.051-37.245-17.6-43.139" transform="translate(-53.481 -132.801)" fill="#f59e5a"/>
        <path id="Trazado_880003" data-name="Trazado 880003" d="M219.213,451.888c-5.225,5.692-35.636-27.437-43.948-35.815-4.506,2.463-9.889,3.657-15.4,1.458-.432-.173-1.507-1.729-1.944-1.945l2.416,5.009,2.888,1.945,21.1,24.588c13.2,12.808,32.378,15.083,37.4,9.665,3.489-3.762,17.994-18.105-9.351-36.021,14.615,17.916,7.652,30.228,6.836,31.117" transform="translate(-53.481 -140.738)" fill="#f0803d"/>
        <path id="Trazado_880004" data-name="Trazado 880004" d="M189.976,396.608l-5-3.221-4.008-1.237c.083.282,3.892,2.761,3.928,3.06a10.652,10.652,0,0,1-2.769,7.725c-5.108,5.108-13.527,10.145-22.257,6.659-.432-.173-1.507-1.729-1.945-1.944l2.417,5.009,2.887,1.945.315.367a2.588,2.588,0,0,1,.51-.014c8.957,1.65,23.809-2.357,25.924-18.349" transform="translate(-53.48 -132.801)" fill="#fff"/>
        <g id="Grupo_1102463" data-name="Grupo 1102463" transform="translate(67.003 215.11)" style="mix-blend-mode: multiply;isolation: isolate">
          <g id="Grupo_1102462" data-name="Grupo 1102462">
            <g id="Grupo_1102461" data-name="Grupo 1102461" clip-path="url(#clip-path-42)">
              <path id="Trazado_880005" data-name="Trazado 880005" d="M106.418,346.928l-3.333-8.463c4.318-10.547,2.08-12.84.132-13.207,3.98,1.266-1.905,13.985-1.905,13.985l1.214.421Z" transform="translate(-101.312 -325.258)" fill="#ffe0e5"/>
            </g>
          </g>
        </g>
        <g id="Grupo_1102466" data-name="Grupo 1102466" transform="translate(53.795 221.272)" style="mix-blend-mode: multiply;isolation: isolate">
          <g id="Grupo_1102465" data-name="Grupo 1102465">
            <g id="Grupo_1102464" data-name="Grupo 1102464" clip-path="url(#clip-path-43)">
              <path id="Trazado_880006" data-name="Trazado 880006" d="M84.192,334.576s-.949.627-1.636,2.933a58.875,58.875,0,0,0-1.216,7.505l.7,4.29-.282-5.812Z" transform="translate(-81.34 -334.576)" fill="#ffe0e5"/>
            </g>
          </g>
        </g>
        <g id="Grupo_1102469" data-name="Grupo 1102469" transform="translate(58.962 215.196)" style="mix-blend-mode: multiply;isolation: isolate">
          <g id="Grupo_1102468" data-name="Grupo 1102468">
            <g id="Grupo_1102467" data-name="Grupo 1102467" clip-path="url(#clip-path-44)">
              <path id="Trazado_880007" data-name="Trazado 880007" d="M90.469,338.3l3.518-7.7s1.679-4.24-.839-5.216c1.953,1.03-3.994,13.673-3.994,13.673l3.153,9.763Z" transform="translate(-89.154 -325.389)" fill="#ffe0e5"/>
            </g>
          </g>
        </g>
        <path id="Trazado_880008" data-name="Trazado 880008" d="M625.461,298.913c-.152.127.592,2.269.438,2.394a42.667,42.667,0,0,1-26.133,9.394c-.495,0-1.238-2.183-1.728-2.2l-.629,2.907,1.109,2.757c.817,9.449,2.483,27.9,3.448,33,4.465,23.573,16.018,41,28.6,38.659,0,0,36.355-5.638-1.807-80.541-.208-.409-1.1-3.85-1.1-3.85a23.533,23.533,0,0,1-2.2-2.514" transform="translate(-202.312 -101.227)" fill="#f59e5a"/>
        <path id="Trazado_880009" data-name="Trazado 880009" d="M639.851,301.307c-.406.328-.822.646-1.242.96,0,0,27.756,46.778,18.39,73.407,5.223-10.194,6.073-30.437-14.286-70.4-.208-.409-1.1-3.85-1.1-3.85a23.608,23.608,0,0,1-2.2-2.514c-.152.127.592,2.269.438,2.394" transform="translate(-216.264 -101.227)" fill="#ffda94"/>
        <path id="Trazado_880010" data-name="Trazado 880010" d="M637.324,385.293c-19.643,14.078-25.836-56.668-27.76-69.268-.142-.53-.271-1.059-.393-1.589a39.644,39.644,0,0,1-9.405,1.174c-.5,0-1.239-2.184-1.729-2.2l-.628,2.907,1.109,2.757c.817,9.449,2.482,27.9,3.448,33,4.464,23.574,16.017,41,28.6,38.659a17.149,17.149,0,0,0,8.08-4.3c-.446-.374-.853-1.469-1.323-1.132" transform="translate(-202.312 -106.135)" fill="#f0803d"/>
        <path id="Trazado_880011" data-name="Trazado 880011" d="M628.761,305.277c-.208-.409-1.1-3.85-1.1-3.85a23.533,23.533,0,0,1-2.2-2.514c-.152.127.592,2.269.438,2.394a42.664,42.664,0,0,1-26.133,9.394c-.495,0-1.238-2.184-1.728-2.2l-.629,2.907,1.109,2.757c13.742,5.337,30.414-8.551,30.243-8.885" transform="translate(-202.312 -101.226)" fill="#fff"/>
        <path id="Trazado_880012" data-name="Trazado 880012" d="M807.374,510.563c-.151-.313-.3-.624-.462-.928-.082-.155-.153-.323-.237-.476-.165-.3-.349-.578-.523-.868-.134-.222-.261-.448-.4-.663-.052-.081-.1-.168-.149-.247q-.537-.817-1.125-1.573l-.006-.007c-.011-.015-.024-.027-.035-.042-.366-.468-.746-.921-1.14-1.352-.079-.086-.165-.162-.245-.247-.142-.15-.288-.292-.433-.437-.186-.187-.366-.384-.557-.563s-.408-.349-.612-.524c-.146-.126-.29-.255-.44-.377-.083-.067-.161-.143-.245-.21q-.668-.527-1.376-.993l-.049-.03c-.065-.042-.134-.077-.2-.118-.4-.253-.8-.5-1.211-.726-.21-.114-.423-.224-.637-.33l-10.256-5.08a19.608,19.608,0,0,1,1.848,1.056c.065.042.134.076.2.118a20.194,20.194,0,0,1,1.67,1.232c.149.122.294.251.44.377q.6.519,1.169,1.087c.145.145.292.288.433.437.48.508.945,1.036,1.384,1.6.011.015.024.028.036.043.45.579.873,1.194,1.28,1.827.138.215.267.441.4.663.263.437.518.883.76,1.343.159.3.311.615.462.928q.3.619.571,1.264c.144.341.28.69.414,1.041-.106-.091-.212-.182-.32-.27-.073-.06-.141-.126-.214-.183q-.583-.46-1.2-.867l-.042-.026c-.058-.038-.119-.069-.177-.106-.345-.22-.694-.436-1.054-.631q-.275-.15-.556-.288l-10.255-5.08h0l-.011,0a17.19,17.19,0,0,0-2.291-.934,19.379,19.379,0,0,0-7.885-.8c-.708.067-1.418.175-2.128.307-.228.042-.456.1-.684.149-.486.1-.972.218-1.457.351-.263.072-.525.152-.788.233q-.689.211-1.378.462c-.26.095-.52.189-.78.292-.486.192-.971.4-1.455.621-.222.1-.444.193-.665.3-.7.335-1.4.692-2.089,1.081l-.073.044c-.669.379-1.333.786-1.993,1.213-.22.143-.438.3-.658.445-.32.216-.642.422-.959.649-.1.069-.19.153-.286.223-.879.639-1.751,1.305-2.606,2.025-.022.018-.043.038-.065.057l-.037.029c-.069.058-.136.126-.206.185q-.936.8-1.848,1.665c-.088.082-.179.155-.266.239-.144.138-.282.288-.425.428q-.575.563-1.14,1.147c-.13.135-.265.261-.395.4s-.228.256-.344.38c-.312.336-.618.678-.925,1.024-.153.173-.312.338-.465.515-.1.118-.2.243-.3.363-.265.312-.526.63-.787.95-.161.2-.326.386-.485.585-.1.128-.2.264-.3.394-.23.294-.456.592-.681.891-.15.2-.306.391-.453.593-.116.158-.227.323-.343.483q-.309.43-.612.866c-.126.181-.257.356-.382.539-.138.2-.268.411-.4.616-.19.286-.379.573-.565.863-.1.15-.2.295-.292.446-.163.258-.316.524-.476.784-.172.282-.345.562-.513.847-.065.111-.136.219-.2.331-.191.329-.373.667-.559,1-.151.271-.306.538-.454.811-.039.072-.081.142-.12.214-.224.417-.435.843-.651,1.266-.126.247-.257.489-.38.737-.018.036-.037.071-.055.106-.284.577-.554,1.163-.822,1.75-.065.144-.137.285-.2.43l-.013.027c-.315.7-.614,1.417-.906,2.134-.032.079-.068.155-.1.234l-.007.018q-.5,1.248-.951,2.521c-.009.024-.018.048-.027.073-.056.157-.1.318-.155.476-.251.73-.494,1.465-.719,2.206-.028.09-.061.178-.088.268-.052.175-.091.354-.141.53q-.359,1.237-.667,2.491c-.043.178-.1.351-.142.529q-.114.486-.222.974c-.165.755-.31,1.5-.442,2.243-.043.24-.078.477-.118.716-.058.354-.123.71-.174,1.061-.015.1-.021.2-.034.3-.138.977-.253,1.945-.333,2.9-.01.117-.013.231-.023.348-.065.843-.106,1.671-.128,2.49-.007.262-.011.522-.014.782q-.011,1.156.034,2.275c.006.152.006.307.014.458.046.876.122,1.732.22,2.572.009.073.01.151.019.223.024.206.063.4.091.6.058.415.118.827.188,1.231.05.292.108.579.165.866.077.388.159.773.249,1.151.032.138.056.282.09.418.026.1.063.2.089.3.216.831.45,1.646.724,2.426l0,.011c.009.026.021.05.03.076.229.647.482,1.272.749,1.881.031.071.055.148.087.217.064.144.14.275.207.416.172.364.349.723.534,1.072.056.106.1.221.162.325s.14.226.206.342q.245.427.5.837c.078.123.147.255.226.374.065.1.137.187.2.284.164.241.333.476.506.707.093.125.178.26.274.383.068.088.144.167.214.253s.132.18.2.265.169.179.251.273c.123.143.239.295.365.432.14.153.29.29.433.438s.276.286.419.423c.077.073.148.155.226.227.258.24.528.46.8.683.091.075.177.158.27.231.022.017.042.038.065.056q.583.459,1.2.866c.038.025.078.046.116.07.126.081.257.152.384.23.256.157.508.319.772.462q.275.149.556.288h0l10.255,5.08a16.621,16.621,0,0,0,4.08.958c-13.805-2.918-.416-1.625-.653-1.561s1.194-.132.959-.074c-.467.114-1.792-.026-2.259.064-.21.04-1.559,1.214-1.768,1.25-.669.114-17.593-6.782-18.261-6.719-2,.189.308,3.346,4.154,5.956a70.227,70.227,0,0,0,10.988,5.694,21.394,21.394,0,0,0,11.669,1.987c.667-.063,1.335-.159,2-.272.21-.036.419-.081.628-.122.468-.091.936-.19,1.4-.3q.351-.085.7-.181c.468-.126.935-.265,1.4-.414.209-.067.419-.13.628-.2.653-.223,1.306-.463,1.958-.73l.038-.015c.665-.274,1.327-.575,1.987-.892.206-.1.411-.207.617-.31.46-.232.919-.471,1.377-.722q.345-.19.69-.389.68-.391,1.354-.812c.2-.128.41-.251.614-.383.616-.4,1.227-.808,1.835-1.241l.077-.052.011-.008q.853-.61,1.694-1.265c.166-.129.329-.268.494-.4.393-.313.785-.626,1.173-.954l.058-.047c.045-.038.089-.082.134-.12.766-.652,1.521-1.335,2.266-2.041.085-.08.173-.151.257-.232.053-.05.1-.105.155-.155q1-.963,1.973-1.987c.038-.04.079-.077.117-.117.11-.117.216-.243.325-.36q.691-.743,1.367-1.514c.1-.11.2-.212.292-.323s.185-.227.28-.337q.585-.687,1.157-1.4c.12-.148.245-.289.364-.438.049-.062.1-.126.143-.188q.643-.814,1.266-1.656c.077-.1.157-.2.234-.306.011-.014.02-.029.03-.043q.733-1,1.437-2.032l.063-.089c.12-.175.233-.358.351-.535.322-.483.643-.968.956-1.461.044-.07.092-.138.136-.208.128-.2.249-.415.376-.62.266-.432.532-.864.79-1.3.064-.109.132-.214.2-.323.11-.189.213-.384.321-.575.247-.433.493-.868.732-1.307.08-.147.165-.29.244-.437s.166-.326.251-.487q.361-.686.71-1.381c.092-.184.19-.363.281-.548.06-.121.114-.247.174-.369.247-.509.487-1.024.723-1.54.1-.207.2-.41.291-.618.032-.071.06-.145.092-.218.366-.824.721-1.654,1.058-2.493v0l0-.01c.355-.885.688-1.78,1.011-2.679.036-.1.078-.2.114-.3.052-.149.1-.3.147-.45q.429-1.24.813-2.5c.044-.146.1-.288.142-.434.016-.054.028-.11.044-.163.349-1.173.662-2.357.95-3.548.028-.119.066-.235.095-.354q.131-.557.254-1.116c.236-1.081.433-2.146.611-3.2.041-.243.082-.485.12-.727.036-.225.079-.452.111-.676.054-.37.079-.727.126-1.095.088-.688.173-1.376.236-2.052.049-.524.083-1.039.118-1.555.044-.658.081-1.311.1-1.956.016-.512.022-1.016.023-1.519q0-.944-.028-1.868c-.017-.492-.039-.979-.07-1.462-.039-.606-.092-1.2-.153-1.793-.028-.276-.038-.565-.071-.838-.028-.231-.071-.45-.1-.678-.049-.355-.1-.706-.161-1.056-.1-.578-.2-1.145-.319-1.706-.069-.329-.136-.659-.212-.981-.036-.155-.063-.317-.1-.47-.062-.25-.149-.478-.216-.724-.173-.636-.356-1.261-.558-1.87-.058-.175-.1-.366-.161-.539-.079-.224-.176-.43-.259-.65-.159-.423-.324-.84-.5-1.249-.082-.193-.15-.4-.235-.591-.105-.232-.227-.446-.336-.673m-13.79.228c.152.358.3.722.435,1.093q.191.51.366,1.036c.177.532.337,1.08.488,1.636.094.345.193.685.276,1.038.067.284.126.573.187.862.1.487.2.981.278,1.483.05.307.1.616.141.928.06.433.107.876.152,1.319.054.517.1,1.038.134,1.568q.041.631.062,1.274.028.809.024,1.636c0,.437-.006.876-.02,1.321-.017.563-.05,1.135-.088,1.71-.03.45-.06.9-.1,1.356-.056.592-.13,1.194-.207,1.8-.065.511-.124,1.018-.206,1.537-.034.214-.069.429-.106.643-.155.922-.327,1.85-.533,2.792-.094.429-.2.854-.3,1.281-.251,1.041-.526,2.075-.83,3.1-.051.172-.107.343-.159.515q-.336,1.1-.712,2.186c-.075.217-.149.435-.225.65-.281.786-.573,1.568-.883,2.341l0,.009c-.295.735-.606,1.46-.926,2.181-.107.242-.22.481-.33.721-.207.452-.417.9-.634,1.348-.13.269-.265.536-.4.8q-.306.608-.622,1.208-.212.4-.429.8-.316.578-.643,1.148c-.149.26-.3.521-.448.777-.229.388-.463.77-.7,1.152-.146.236-.29.474-.438.708-.276.435-.56.862-.844,1.288-.118.177-.234.358-.354.534q-.617.9-1.259,1.78c-.069.093-.14.182-.208.274q-.555.748-1.128,1.474c-.144.183-.292.36-.438.541q-.5.622-1.015,1.226-.247.29-.5.575-.589.673-1.193,1.321c-.13.14-.257.282-.388.419q-.849.894-1.723,1.735c-.118.114-.239.224-.358.337-.651.615-1.31,1.212-1.979,1.782-.05.043-.1.089-.15.132q-1.455,1.228-2.957,2.3l-.064.044c-.533.379-1.07.74-1.61,1.089-.178.114-.357.222-.536.334-.393.245-.788.483-1.185.711-.2.114-.4.227-.6.337q-.6.331-1.208.634c-.178.089-.355.183-.534.268-.577.276-1.154.54-1.734.779l-.047.018c-.564.231-1.13.44-1.7.634-.183.062-.365.116-.548.175-.407.13-.814.252-1.222.362q-.306.082-.613.157c-.409.1-.817.187-1.226.266-.183.035-.365.074-.548.105-.584.1-1.168.183-1.751.239a20.461,20.461,0,0,1-4.648-.106l-.087-.087q-.41-.421-.8-.87c-.152-.177-.3-.354-.452-.537-.167-.207-.328-.421-.488-.636-.172-.231-.342-.466-.506-.707-.146-.215-.288-.436-.429-.658q-.259-.411-.5-.837-.189-.329-.368-.668c-.185-.349-.362-.706-.533-1.069-.1-.21-.2-.42-.295-.636-.267-.609-.521-1.233-.749-1.881-.011-.029-.023-.056-.033-.085-.273-.78-.508-1.595-.724-2.426-.062-.237-.122-.476-.18-.717-.089-.379-.171-.765-.248-1.153-.058-.286-.114-.573-.165-.864-.07-.405-.13-.818-.188-1.233-.038-.274-.079-.546-.11-.825-.1-.84-.174-1.7-.22-2.572-.008-.151-.008-.306-.014-.458q-.047-1.119-.034-2.275,0-.389.013-.781c.022-.819.063-1.649.128-2.492.009-.116.013-.229.022-.347.081-.95.2-1.918.333-2.9q.094-.675.208-1.357c.04-.239.075-.476.118-.716.133-.741.278-1.487.443-2.243.11-.5.24-1,.363-1.5q.308-1.253.667-2.491c.077-.265.149-.533.229-.8.226-.741.468-1.476.72-2.206.063-.182.118-.368.183-.549q.45-1.272.951-2.522l.007-.017c.032-.079.068-.155.1-.234.295-.726.6-1.448.919-2.161.063-.143.134-.282.2-.424.286-.626.576-1.249.88-1.864.121-.245.25-.484.374-.728.254-.5.509-1,.775-1.487.147-.273.3-.54.453-.811.251-.447.5-.893.761-1.331.169-.285.341-.565.513-.846.253-.413.507-.825.768-1.23.186-.29.376-.577.565-.864q.388-.583.784-1.154.3-.437.613-.866.393-.546.8-1.078c.224-.3.45-.595.679-.888.26-.332.524-.659.79-.984s.52-.635.784-.946.509-.588.766-.878c.305-.345.613-.687.924-1.022.245-.264.491-.522.74-.779q.563-.585,1.139-1.147c.229-.225.459-.448.691-.667q.913-.861,1.848-1.664c.082-.07.161-.146.243-.214.876-.739,1.77-1.427,2.671-2.082q.619-.45,1.245-.872c.22-.148.438-.3.658-.445.66-.427,1.324-.834,1.993-1.213l.073-.044c.693-.39,1.391-.747,2.091-1.082.219-.105.44-.2.659-.3.486-.22.973-.431,1.461-.624.259-.1.518-.2.778-.29q.688-.25,1.38-.462c.262-.08.524-.16.786-.232.487-.134.974-.248,1.461-.352.227-.049.454-.106.682-.148.71-.132,1.419-.24,2.127-.307a20.5,20.5,0,0,1,4.653.105c.1.1.207.2.308.31.418.443.823.9,1.206,1.393.011.014.022.026.034.039.393.506.762,1.042,1.117,1.595.121.188.233.386.35.58.229.382.451.77.663,1.172.14.265.273.537.4.81q.26.541.5,1.1" transform="translate(-248.751 -167.555)" fill="#9b66ff"/>
        <path id="Trazado_880013" data-name="Trazado 880013" d="M774.728,500.2a30.958,30.958,0,0,0-14.249,5.557l-.322.22c-.3.206-.6.415-.891.63-.031.023-.062.047-.093.069q-.912.67-1.806,1.4c-.087.071-.175.14-.263.212q-.42.346-.835.7c-.112.1-.223.194-.334.292q-1.3,1.138-2.547,2.392c-.128.128-.256.257-.384.387q-.366.374-.727.757c-.132.139-.262.282-.392.423q-.617.669-1.22,1.364c-.142.164-.284.325-.425.491-.21.248-.418.5-.625.753q-.238.291-.474.585c-.2.246-.394.493-.588.743s-.4.531-.605.8q-.4.529-.784,1.069c-.184.257-.368.514-.548.775q-.245.352-.485.71-.283.418-.558.841c-.14.214-.28.425-.417.641q-.441.691-.865,1.4c-.122.2-.241.409-.362.614q-.289.493-.571.991c-.12.212-.239.424-.356.638q-.341.621-.67,1.251c-.079.151-.159.3-.237.454q-.378.737-.738,1.487c-.093.192-.183.385-.274.579q-.279.593-.546,1.194c-.079.178-.161.356-.239.536q-.363.833-.706,1.679c-.049.12-.094.242-.142.363q-.278.7-.54,1.411-.1.277-.2.554-.255.71-.495,1.429c-.042.124-.085.247-.126.371q-.29.888-.554,1.786c-.046.155-.089.311-.134.468q-.2.7-.385,1.41c-.046.177-.093.352-.137.53-.153.61-.3,1.221-.436,1.835l0,.011c-.024.109-.042.216-.065.325-.036.183-.073.366-.11.55-4.4,21.653,4.852,37.859,20.938,36.337,5.851-.553,11.806-3.384,17.266-7.8l.183-.148q1.279-1.044,2.517-2.2l.173-.163q1.244-1.173,2.441-2.45l.1-.113q.765-.821,1.506-1.683l.1-.11q1.166-1.361,2.268-2.817l.122-.162q1.1-1.462,2.134-3.01l.081-.122q1.76-2.653,3.289-5.526h0q.923-1.735,1.747-3.537l.017-.038a64.246,64.246,0,0,0,4.346-12.922c4.84-22.1-4.458-38.761-20.766-37.218" transform="translate(-248.964 -169.359)" fill="#9b66ff"/>
        <path id="Trazado_880014" data-name="Trazado 880014" d="M801.949,530.622c-.649-.157-1.336-.312-2.037-.459l-2.782,9.925-3.417.06,1.985.517,3.455-.069Z" transform="translate(-268.79 -179.539)" fill="#b78bff"/>
        <path id="Trazado_880015" data-name="Trazado 880015" d="M784.333,537.323a9.035,9.035,0,0,1,1.083-.037,4.87,4.87,0,0,0-3.106-.471,6.031,6.031,0,0,0-5.221,4.9c-1.7,7.764,12.814,5.623,9.629,20.165-1.685,7.694-7.072,12.484-12.893,13.673l-1.258,5.1-3.077.123,2.014.486,3.086-.1,1.258-5.1c5.821-1.19,11.208-5.979,12.893-13.673,3.185-14.542-11.33-12.4-9.629-20.165a6.032,6.032,0,0,1,5.221-4.9" transform="translate(-260.587 -181.776)" fill="#b78bff"/>
        <path id="Trazado_880016" data-name="Trazado 880016" d="M769.576,596.033l.1-.4a17.2,17.2,0,0,1-3.241-.268,15.038,15.038,0,0,0,3.142.667" transform="translate(-259.552 -201.62)" fill="#88a8d7"/>
        <path id="Trazado_880017" data-name="Trazado 880017" d="M738.458,543.516c4.84-22.1,21.985-41.263,38.288-42.805a20.244,20.244,0,0,1,5.63.228,19.435,19.435,0,0,0-7.653-.735c-16.3,1.543-33.448,20.708-38.288,42.805-4.25,19.4,2.407,34.612,15.135,36.984-11.394-3.542-17.13-18.132-13.112-36.476" transform="translate(-248.96 -169.36)" fill="#9b66ff"/>
        <path id="Trazado_880018" data-name="Trazado 880018" d="M767.505,579.607a14.685,14.685,0,0,0-.271,2.519,4.711,4.711,0,0,0,3.031,1.171,3.044,3.044,0,0,1-1.008-.663,14.684,14.684,0,0,1,.271-2.519c.1-.648.2-2.081.222-2.192l-1.6-1.135a19.261,19.261,0,0,0-.641,2.819" transform="translate(-259.823 -195.329)" fill="#b78bff"/>
        <path id="Trazado_880019" data-name="Trazado 880019" d="M792.655,525.289c.7.028,1.4.1,2.1.192l1.26-5.237-1.811-.983Z" transform="translate(-268.432 -175.847)" fill="#b78bff"/>
        <path id="Trazado_880020" data-name="Trazado 880020" d="M779.712,519.371l3.035-.1-1.5,6.02a36.09,36.09,0,0,1,6.912,1.133l-2.8,9.974-3.455.068.772-3.524a6.942,6.942,0,0,0,.06-.7c-.706-1.082-1.827-1.554-3.993-1.349a6.033,6.033,0,0,0-5.221,4.9c-1.7,7.764,12.814,5.622,9.629,20.165-1.685,7.694-7.072,12.484-12.893,13.674l-1.257,5.1-3.086.1,1.228-4.967c-5.343.057-8.045-2.114-8.187-2.229l2.979-10.371,3.35,0c-.025.111-.486,2.22-.583,2.868a14.642,14.642,0,0,0-.271,2.519c.185.234,1.606,1.506,5.165,1.169a6.03,6.03,0,0,0,5.332-4.975c1.885-8.61-12.712-5.883-9.382-21.085,1.6-7.3,6.793-11.622,12.659-12.374Z" transform="translate(-257.02 -175.852)" fill="#ebdeff"/>
        <path id="Trazado_880021" data-name="Trazado 880021" d="M773.7,491.4c18.68-1.767,29.328,17.316,23.784,42.626s-25.178,47.258-43.858,49.026S724.3,565.74,729.844,540.43,755.022,493.171,773.7,491.4m-18.8,85.831c16.309-1.543,33.454-20.708,38.292-42.8s-4.457-38.761-20.766-37.218-33.449,20.708-38.289,42.805,4.459,38.754,20.763,37.212" transform="translate(-246.664 -166.375)" fill="#b78bff"/>
        <path id="Trazado_880022" data-name="Trazado 880022" d="M128.162,534.839c.023-.1.054-.206.075-.31.046-.23.069-.46.1-.69.016-.12.04-.241.052-.362a11.527,11.527,0,0,0,.063-1.3c0-.068-.01-.134-.012-.2-.011-.362-.037-.723-.082-1.079-.018-.141-.044-.278-.067-.417-.028-.169-.046-.341-.082-.509-.024-.114-.062-.224-.089-.338-.036-.142-.073-.284-.113-.425-.081-.282-.176-.557-.279-.829-.046-.123-.087-.246-.138-.366-.019-.044-.031-.091-.05-.134-.054-.123-.128-.237-.186-.358-.136-.282-.274-.563-.433-.833-.034-.058-.058-.121-.092-.178q-.243-.4-.519-.77l-4.5-6.1a10.781,10.781,0,0,1,.61.946c.159.271.3.553.435.837.078.162.165.321.235.487.051.121.093.248.14.372.1.27.2.543.276.821.042.144.08.288.116.435.067.274.122.552.169.833.024.142.051.284.069.428.044.352.07.707.081,1.065,0,.073.011.143.013.215a11.471,11.471,0,0,1-.063,1.3c-.013.124-.037.247-.054.37-.045.33-.1.66-.173.989-.024.105-.049.208-.075.312a11.868,11.868,0,0,1-.39,1.273l-24.746,65.88c-.072.19-.16.37-.24.555-.151.347-.315.686-.494,1.013-.068.124-.134.251-.206.372-.155.263-.323.515-.5.764-.075.108-.145.221-.223.326-.213.286-.44.56-.675.826-.04.045-.075.095-.116.14-.279.306-.574.6-.881.872-.083.075-.171.141-.256.214-.236.2-.477.4-.727.584-.114.084-.232.162-.349.242q-.4.279-.829.526c-.119.069-.237.138-.357.2a13.117,13.117,0,0,1-1.444.672c-.243.1-.49.181-.739.261-.074.024-.147.053-.222.075q-.512.154-1.035.265c-.087.018-.175.03-.263.046-.263.05-.526.095-.792.127-.127.016-.254.025-.381.037-.231.021-.462.038-.694.046q-.205.007-.411.007c-.228,0-.456-.007-.685-.019-.136-.007-.271-.014-.407-.026-.243-.022-.487-.054-.73-.091-.118-.018-.235-.03-.353-.052-.359-.065-.717-.143-1.072-.242-.12-.034-.239-.069-.358-.106L20.757,584.29a11.141,11.141,0,0,1-1.874-.77,10.989,10.989,0,0,1-3.786-3.233l4.5,6.1a11.12,11.12,0,0,0,5.66,4l62.261,19.542c.12.038.239.073.358.107.356.1.714.177,1.072.242.118.022.237.034.355.053.242.036.484.069.726.091.137.012.274.019.411.026.227.012.453.019.68.019.139,0,.276,0,.415-.007.23-.009.46-.025.688-.046.129-.012.258-.021.386-.037.265-.032.526-.077.787-.126.089-.017.179-.028.268-.047q.522-.111,1.034-.265c.075-.022.149-.052.224-.076.219-.07.438-.139.653-.222.029-.011.056-.028.085-.039a12.869,12.869,0,0,0,1.45-.676c.042-.023.089-.038.132-.062.071-.04.136-.09.207-.131q.435-.253.85-.54c.071-.049.149-.088.219-.139.04-.029.076-.063.116-.093.25-.185.49-.381.727-.584.071-.061.149-.113.219-.176.015-.013.028-.029.044-.042.308-.278.6-.569.884-.878l0,0c.014-.015.026-.032.039-.048q.395-.438.749-.915c.015-.021.033-.038.048-.059.055-.075.1-.158.152-.234.18-.257.354-.518.515-.791.03-.05.067-.1.1-.147.116-.2.224-.41.329-.62.014-.028.03-.056.044-.084.123-.251.239-.508.345-.77.043-.1.084-.21.124-.317L127.7,536.421a12.135,12.135,0,0,0,.391-1.274c.026-.1.051-.205.074-.308" transform="translate(-5.113 -175.972)" fill="#9b66ff"/>
        <path id="Trazado_880023" data-name="Trazado 880023" d="M52.429,483.641c.124.034.248.071.373.11l62.253,19.54a11.847,11.847,0,0,1,1.874.77,11.1,11.1,0,0,1,5.172,13.917l-24.746,65.88A12.69,12.69,0,0,1,82.279,591.6q-.18-.051-.358-.106L19.66,571.954a11.09,11.09,0,0,1-7.047-14.689l24.746-65.879a12.684,12.684,0,0,1,15.07-7.745" transform="translate(-4.015 -163.636)" fill="#b78bff"/>
        <path id="Trazado_880024" data-name="Trazado 880024" d="M0,571.619,5.211,575.5l43.831-19.491-2.5-5.088Z" transform="translate(0 -186.569)" fill="#c0c9c9"/>
        <path id="Trazado_880025" data-name="Trazado 880025" d="M95.063,549.136l-7.947-18.214L81.9,527.038l10.168,23.3Z" transform="translate(-27.737 -178.481)" fill="#c0c9c9"/>
        <path id="Trazado_880026" data-name="Trazado 880026" d="M89.241,580.926l5.211,3.883,33.538-14.733-1.466-5.529Z" transform="translate(-30.221 -191.183)" fill="#c0c9c9"/>
        <path id="Trazado_880027" data-name="Trazado 880027" d="M158.33,545.6l-9.811,19.772,5.211,3.883,9.811-19.772Z" transform="translate(-50.296 -184.768)" fill="#c0c9c9"/>
        <path id="Trazado_880028" data-name="Trazado 880028" d="M108.034,539.315l-18.356-7.828L92.2,539.1,67.326,549.136l-2.991,1.207-10.168-23.3L0,563.53l46.542-20.7,2.5,5.089,9.977,20.3L96.3,551.845l1.467,5.528.454,1.714Z" transform="translate(0 -178.481)" fill="#fcf8f7"/>
        <path id="Trazado_880029" data-name="Trazado 880029" d="M63.388,39.2c-.01-.116-.028-.233-.035-.349-.016-.257-.008-.511-.008-.765,0-.134-.009-.269,0-.4a12.7,12.7,0,0,1,.12-1.427c.011-.073.03-.144.041-.218.063-.394.144-.782.243-1.163.039-.149.087-.295.131-.442.054-.181.1-.365.16-.542.042-.121.1-.235.144-.354.058-.15.118-.3.182-.446.126-.293.267-.579.415-.86.067-.126.128-.255.2-.378.026-.045.046-.093.073-.138.074-.126.17-.238.249-.361.185-.288.372-.571.581-.841.044-.058.079-.122.124-.179q.315-.393.663-.759L72.333,23.6a12.081,12.081,0,0,0-.786.938c-.209.271-.4.557-.583.845-.106.165-.222.324-.319.495-.072.125-.135.256-.2.384-.147.278-.286.561-.411.851-.065.151-.127.3-.186.456-.111.288-.21.583-.3.88-.046.152-.095.3-.135.456-.1.376-.176.758-.239,1.146-.013.077-.033.153-.044.231a12.8,12.8,0,0,0-.119,1.424c0,.136,0,.274,0,.41,0,.366.011.733.043,1.1.01.116.022.233.035.351a13.5,13.5,0,0,0,.233,1.443l16.937,75.362c.048.218.117.426.176.639q.166.6.382,1.177c.054.145.106.292.165.435.128.309.271.609.42.905.065.129.122.262.191.388.186.343.389.675.6,1,.036.055.067.114.1.169.253.374.526.734.813,1.081.078.093.163.179.243.27.223.256.451.507.69.745.11.108.225.21.338.315q.392.363.808.7c.116.093.233.185.352.274a14.051,14.051,0,0,0,1.442.947c.246.14.5.271.751.4.076.037.149.079.226.115q.523.244,1.065.442c.09.033.182.059.272.089.273.094.548.182.827.258.133.036.267.065.4.1.243.058.487.111.733.155.145.026.29.048.436.069q.365.052.733.082c.146.013.292.025.438.032.263.013.526.014.79.011.128,0,.256,0,.384,0,.392-.017.784-.048,1.177-.1q.2-.028.4-.062l69.155-11.923a11.832,11.832,0,0,0,6.606-3.505l-5.668,5.965a11.809,11.809,0,0,1-6.606,3.506L95.949,126.965c-.133.023-.265.044-.4.062-.393.054-.785.086-1.177.1-.129.005-.257,0-.386,0-.263,0-.526,0-.787-.01-.148-.007-.295-.02-.442-.033-.244-.02-.486-.047-.727-.081-.148-.021-.295-.044-.442-.069-.244-.044-.486-.1-.727-.153-.136-.032-.271-.062-.405-.1-.277-.075-.55-.163-.821-.255-.092-.032-.187-.058-.278-.092q-.541-.2-1.064-.442c-.077-.036-.151-.079-.228-.116-.223-.109-.447-.218-.665-.339-.029-.017-.055-.039-.084-.056a13.9,13.9,0,0,1-1.448-.952c-.042-.031-.09-.054-.132-.087-.071-.054-.132-.118-.2-.174q-.429-.34-.829-.714c-.069-.064-.146-.118-.214-.185-.039-.037-.072-.081-.11-.118-.24-.238-.468-.488-.691-.744-.067-.077-.143-.145-.208-.224-.014-.017-.026-.036-.04-.053-.288-.349-.562-.71-.817-1.087l0,0c-.013-.019-.022-.039-.035-.058q-.358-.536-.667-1.108c-.013-.024-.03-.047-.043-.071-.048-.089-.083-.187-.128-.277-.155-.307-.3-.617-.435-.937-.025-.06-.058-.115-.081-.175-.095-.237-.179-.479-.261-.724-.011-.033-.024-.065-.035-.1-.1-.292-.182-.589-.258-.89-.031-.12-.059-.241-.087-.363L63.657,40.985a13.721,13.721,0,0,1-.233-1.444c-.013-.116-.025-.231-.035-.346" transform="translate(-21.45 -7.994)" fill="#9b66ff"/>
        <path id="Trazado_880030" data-name="Trazado 880030" d="M151.4.119c-.138.019-.274.04-.413.064L81.837,12.106a12.589,12.589,0,0,0-2.108.557,12.2,12.2,0,0,0-7.506,14.363l16.937,75.362a13.723,13.723,0,0,0,14.959,10.681c.132-.019.265-.039.4-.062l69.155-11.924a11.754,11.754,0,0,0,2.108-.558,12.2,12.2,0,0,0,7.506-14.363L166.348,10.8A13.717,13.717,0,0,0,151.4.119" transform="translate(-24.347 0)" fill="#b78bff"/>
        <path id="Trazado_880031" data-name="Trazado 880031" d="M193.213,52.144,203.331,97.38l10.443-1.737L203.653,50.4Z" transform="translate(-65.431 -17.067)" fill="#fcf8f7"/>
        <path id="Trazado_880032" data-name="Trazado 880032" d="M175.463,84.529l-2.657,3.505,6.02,26.9,2.655-3.505Z" transform="translate(-58.521 -28.626)" fill="#c0c9c9"/>
        <path id="Trazado_880033" data-name="Trazado 880033" d="M176.823,83.635l6.018,26.9,10.441-1.745-6.018-26.9Z" transform="translate(-59.881 -27.732)" fill="#fcf8f7"/>
        <path id="Trazado_880034" data-name="Trazado 880034" d="M150.965,72.745l8.178,36.593L169.6,107.6l-8.187-36.589Z" transform="translate(-51.124 -24.047)" fill="#fcf8f7"/>
        <path id="Trazado_880035" data-name="Trazado 880035" d="M149.6,73.635l-2.657,3.506,8.178,36.593,2.657-3.506Z" transform="translate(-49.764 -24.936)" fill="#c0c9c9"/>
        <path id="Trazado_880036" data-name="Trazado 880036" d="M117.446,27.658l15.416,68.9L143.3,94.811l-15.415-68.9Z" transform="translate(-39.773 -8.775)" fill="#fcf8f7"/>
        <path id="Trazado_880037" data-name="Trazado 880037" d="M116.085,28.552l-2.657,3.506,15.416,68.9,2.657-3.506Z" transform="translate(-38.412 -9.669)" fill="#c0c9c9"/>
        <path id="Trazado_880038" data-name="Trazado 880038" d="M100.971,65.727l-2.657,3.505,10.47,46.8,2.657-3.505Z" transform="translate(-33.294 -22.258)" fill="#c0c9c9"/>
        <path id="Trazado_880039" data-name="Trazado 880039" d="M102.331,64.838l10.47,46.8,10.443-1.737L112.775,63.1Z" transform="translate(-34.654 -21.369)" fill="#fcf8f7"/>
        <path id="Trazado_880040" data-name="Trazado 880040" d="M110.183,144.206l-2.657,3.505.981,4.363,2.657-3.506Z" transform="translate(-36.414 -48.835)" fill="#c0c9c9"/>
        <path id="Trazado_880041" data-name="Trazado 880041" d="M191.853,53.037l10.117,45.236-2.657,3.506L189.2,56.543Z" transform="translate(-64.071 -17.961)" fill="#c0c9c9"/>
        <path id="Trazado_880042" data-name="Trazado 880042" d="M217.595,118.81l-2.657,3.506-10.443,1.737,2.657-3.505Z" transform="translate(-69.252 -40.235)" fill="#c0c9c9"/>
        <path id="Trazado_880043" data-name="Trazado 880043" d="M181.908,127.819l2.655-3.505L195,122.568l-2.657,3.506Z" transform="translate(-61.603 -41.507)" fill="#c0c9c9"/>
        <path id="Trazado_880044" data-name="Trazado 880044" d="M159.313,131.579l2.657-3.505,10.453-1.74-2.657,3.505Z" transform="translate(-53.951 -42.783)" fill="#c0c9c9"/>
        <path id="Trazado_880045" data-name="Trazado 880045" d="M136.738,135.342l2.657-3.505,10.439-1.746-2.657,3.506Z" transform="translate(-46.306 -44.055)" fill="#c0c9c9"/>
        <path id="Trazado_880046" data-name="Trazado 880046" d="M114.145,139.1,116.8,135.6l10.443-1.737-2.656,3.505Z" transform="translate(-38.655 -45.332)" fill="#c0c9c9"/>
        <path id="Trazado_880047" data-name="Trazado 880047" d="M192.5,130.439l-2.656,3.505L109.01,147.412l2.657-3.506Z" transform="translate(-36.916 -44.173)" fill="#c0c9c9"/>
        <path id="Trazado_880048" data-name="Trazado 880048" d="M111.543,137.31l.981,4.362,80.834-13.467-.981-4.362Z" transform="translate(-37.774 -41.939)" fill="#fcf8f7"/>
        <path id="Trazado_880049" data-name="Trazado 880049" d="M806.715,287.725,769.6,297.851a.4.4,0,0,1-.307-.042l-2.218-1.321-38.07-22.694a.4.4,0,0,0-.437.02l-6.468,4.709a.4.4,0,0,0-.148.209c-6.324,20.954,5.452,47.738,26.859,60.5,9.378,5.589,19.083,7.582,27.691,6.373a31.072,31.072,0,0,0,14.052-5.59l6.789-4.943c-.069.05-.14.1-.209.147A31.448,31.448,0,0,0,808.5,319.631c3.407-9.842,2.666-21.111-1.308-31.662a.4.4,0,0,0-.478-.243" transform="translate(-243.911 -92.701)" fill="#b78bff"/>
        <path id="Trazado_880050" data-name="Trazado 880050" d="M797.344,335.341l-6.789,4.943a31.063,31.063,0,0,1-14.053,5.59c-8.607,1.21-18.312-.783-27.69-6.372-21.409-12.763-33.183-39.548-26.859-60.5a.4.4,0,0,1,.148-.208l5.746-4.184a.4.4,0,0,1,.614.424c-5.678,20.8,6.062,46.961,27.14,59.528,9.378,5.589,19.083,7.582,27.69,6.372a31.063,31.063,0,0,0,14.053-5.59" transform="translate(-243.911 -92.969)" fill="#9b66ff"/>
        <g id="Grupo_1102472" data-name="Grupo 1102472" transform="translate(487.506 182.536)" style="mix-blend-mode: overlay;isolation: isolate">
          <g id="Grupo_1102471" data-name="Grupo 1102471">
            <g id="Grupo_1102470" data-name="Grupo 1102470" clip-path="url(#clip-path-45)">
              <path id="Trazado_880051" data-name="Trazado 880051" d="M812.924,288.75a.4.4,0,0,0-.477-.244L775.2,298.5a.4.4,0,0,1-.306-.042c-2.536-1.518-37.722-22.578-37.758-22.452.647.8,35.273,22.265,37.79,23.824a.394.394,0,0,0,.309.046s37.772-10.9,37.688-11.127" transform="translate(-737.136 -276.005)" fill="#c6c6c6"/>
            </g>
          </g>
        </g>
        <path id="Trazado_880052" data-name="Trazado 880052" d="M760.414,230.766a31.064,31.064,0,0,0-14.059,5.6l.008-.006-.017.013-.005,0-.559.407a.243.243,0,0,1-.03.02,42.29,42.29,0,0,0-9.467,7.283,31.9,31.9,0,0,0-7.277,11.072.4.4,0,0,0,.167.49l37.78,22.52a.4.4,0,0,0,.436-.02l6.477-4.716a.4.4,0,0,0,.142-.191l12.645-36.552a.4.4,0,0,0-.185-.48c-8.865-4.875-17.948-6.578-26.056-5.438" transform="translate(-246.868 -78.033)" fill="#f59e5a"/>
        <path id="Trazado_880053" data-name="Trazado 880053" d="M773.6,284.041l-6.091,4.435a.4.4,0,0,1-.436.02l-37.556-22.386a.4.4,0,0,1-.03-.661l6.09-4.435a.4.4,0,0,1,.437-.02l37.555,22.385a.4.4,0,0,1,.03.662" transform="translate(-246.984 -88.366)" fill="#f0803d"/>
        <g id="Grupo_1102475" data-name="Grupo 1102475" transform="translate(483.151 172.492)" style="mix-blend-mode: multiply;isolation: isolate">
          <g id="Grupo_1102474" data-name="Grupo 1102474">
            <g id="Grupo_1102473" data-name="Grupo 1102473" clip-path="url(#clip-path-46)">
              <line id="Línea_1736" data-name="Línea 1736" x1="5.653" y2="4.116" transform="translate(0 0)" fill="#dadada"/>
            </g>
          </g>
        </g>
        <path id="Trazado_880054" data-name="Trazado 880054" d="M815.923,244.514l-6.468,4.71a.4.4,0,0,0-.141.191l-12.1,34.979a.4.4,0,0,0,.481.512l34.013-9.424a.379.379,0,0,0,.128-.061l6.469-4.709a.4.4,0,0,0,.129-.487A60.416,60.416,0,0,0,816.373,244.5a.4.4,0,0,0-.45.014" transform="translate(-269.967 -82.778)" fill="#9b66ff"/>
        <path id="Trazado_880055" data-name="Trazado 880055" d="M803.908,280.443a.4.4,0,0,0-.128.061l-.042.031a.4.4,0,0,0,.141-.191l11.935-34.5a.4.4,0,0,0-.609-.45l-5.666,4.126a.4.4,0,0,0-.141.191l-11.935,34.5a.4.4,0,0,0,.608.45l3.866-2.815-3.12,2.272a.4.4,0,0,0,.339.7l32.634-9.041a.39.39,0,0,0,.128-.062l4.963-3.614c.357-.26,1.44-1.187,1.44-1.187Z" transform="translate(-270.052 -83.077)" fill="#7e49ff"/>
      </g>
    </g>
  </g>
</svg>
