<svg xmlns="http://www.w3.org/2000/svg" xmlns:xlink="http://www.w3.org/1999/xlink" width="388.371" height="389.053" viewBox="0 0 388.371 389.053">
  <defs>
    <linearGradient id="linear-gradient" y1="0.5" x2="1" y2="0.5" gradientUnits="objectBoundingBox">
      <stop offset="0" stop-color="#c4c0c3"/>
      <stop offset="0.47" stop-color="#e1dfe0"/>
      <stop offset="0.96" stop-color="#fff"/>
    </linearGradient>
    <linearGradient id="linear-gradient-2" x1="0.269" y1="0.025" x2="0.756" y2="1.027" xlink:href="#linear-gradient"/>
  </defs>
  <g id="Grupo_1104237" data-name="Grupo 1104237" transform="translate(-935.711 -17578.625)">
    <path id="Trazado_132418" data-name="Trazado 132418" d="M152.751,288.662l-103-41.9A166.893,166.893,0,0,0,41,281.031a27.887,27.887,0,0,0,.841,52.817,167.679,167.679,0,0,0,8.816,31.522L153.1,322.176A55.961,55.961,0,0,1,152.751,288.662Z" transform="translate(923.146 17467.637)" fill="#26aab7"/>
    <path id="Trazado_132419" data-name="Trazado 132419" d="M573.851,303.019a27.9,27.9,0,0,0-18.789-25.861,167.97,167.97,0,0,0-9.143-34.028L443.45,286.33a55.876,55.876,0,0,1,.068,33.656l102.965,41.9a167.219,167.219,0,0,0,8.494-31.968,27.9,27.9,0,0,0,18.874-26.894Z" transform="translate(739.774 17469.219)" fill="#26aab7"/>
    <path id="Trazado_132420" data-name="Trazado 132420" d="M363.7,547.051,320.5,444.6a55.916,55.916,0,0,1-33.413.147L245.19,547.74a166.915,166.915,0,0,0,32.284,8.466,27.893,27.893,0,0,0,53-.152A167.828,167.828,0,0,0,363.7,547.051Z" transform="translate(826.135 17381.459)" fill="#26aab7"/>
    <path id="Trazado_132421" data-name="Trazado 132421" d="M326.711,42.667a27.887,27.887,0,0,0-52.456.463,167.626,167.626,0,0,0-32.865,9.03L284.584,154.6a55.91,55.91,0,0,1,33.751-.265L360.26,51.359a167.493,167.493,0,0,0-33.548-8.692Z" transform="translate(827.79 17564.459)" fill="#26aab7"/>
    <path id="Trazado_132422" data-name="Trazado 132422" d="M160.769,80.45A167.878,167.878,0,0,0,130.483,98.4a27.882,27.882,0,0,0-36.4,37.251A167.37,167.37,0,0,0,77.44,165.043L180.422,206.95a55.961,55.961,0,0,1,23.547-24.032Z" transform="translate(899.206 17540.08)" fill="#786ead"/>
    <path id="Trazado_132423" data-name="Trazado 132423" d="M205.558,420.1a55.876,55.876,0,0,1-23.812-23.434L79.3,439.87a167.627,167.627,0,0,0,17.2,29.276A27.887,27.887,0,0,0,134.313,506.4a167.46,167.46,0,0,0,29.349,16.673Z" transform="translate(898.396 17402.336)" fill="#786ead"/>
    <path id="Trazado_132424" data-name="Trazado 132424" d="M507.639,480.335a27.7,27.7,0,0,0-3.291-12.643,167.568,167.568,0,0,0,17.271-30.111l-103-41.9A55.915,55.915,0,0,1,395,419.43l43.194,102.445a167.577,167.577,0,0,0,28.4-16.475,27.882,27.882,0,0,0,41.077-25.065Z" transform="translate(760.879 17402.768)" fill="#786ead"/>
    <path id="Trazado_132425" data-name="Trazado 132425" d="M503.327,132.9a27.887,27.887,0,0,0-37.251-36.952A167.383,167.383,0,0,0,436,78.77L394.12,181.763A55.916,55.916,0,0,1,418.1,205.519l102.445-43.194A167.909,167.909,0,0,0,503.327,132.9Z" transform="translate(761.262 17540.813)" fill="#786ead"/>
    <path id="Trazado_132426" data-name="Trazado 132426" d="M372.528,269.812a104.2,104.2,0,0,0-26.267-69.3A104.59,104.59,0,0,0,192.273,342.034a104.6,104.6,0,0,0,180.255-72.221Z" transform="translate(860.629 17501.883)" fill="#aee6e6"/>
    <path id="Trazado_132427" data-name="Trazado 132427" d="M361.323,303.042A59.827,59.827,0,1,0,343.8,345.561a60.042,60.042,0,0,0,17.523-42.519Z" transform="translate(827.855 17469.275)" fill="#e8c85f"/>
    <path id="Trazado_881768" data-name="Trazado 881768" d="M53.98,0A53.98,53.98,0,1,1,0,53.98,53.98,53.98,0,0,1,53.98,0Z" transform="translate(1053.562 17773.15) rotate(-45)" fill="url(#linear-gradient)"/>
    <path id="Trazado_881769" data-name="Trazado 881769" d="M50,0A50,50,0,1,1,0,50,50,50,0,0,1,50,0Z" transform="translate(1059.197 17773.15) rotate(-45)" fill="url(#linear-gradient-2)"/>
    <path id="Trazado_132428" data-name="Trazado 132428" d="M274.006,348.623a3.866,3.866,0,0,1-1.236,2.579,4.007,4.007,0,0,1-2.76.909,3.719,3.719,0,0,1-3-1.338,5.384,5.384,0,0,1-1.129-3.584v-1.016a5.988,5.988,0,0,1,.525-2.585,3.951,3.951,0,0,1,1.484-1.693,4.188,4.188,0,0,1,2.258-.6,3.832,3.832,0,0,1,2.692.937,3.917,3.917,0,0,1,1.18,2.6h-1.394a3.037,3.037,0,0,0-.79-1.834,2.365,2.365,0,0,0-1.693-.564,2.489,2.489,0,0,0-2.094.988,4.515,4.515,0,0,0-.756,2.822v1.022a4.679,4.679,0,0,0,.717,2.732,2.325,2.325,0,0,0,2.009,1.016,2.675,2.675,0,0,0,1.778-.525,2.918,2.918,0,0,0,.824-1.829Z" transform="translate(817.124 17426.459)" fill="#786ead"/>
    <path id="Trazado_132429" data-name="Trazado 132429" d="M291.417,347.022a6.564,6.564,0,0,1-.519,2.7,3.951,3.951,0,0,1-1.479,1.767,4.109,4.109,0,0,1-2.258.6,3.951,3.951,0,0,1-3.708-2.354,6.282,6.282,0,0,1-.564-2.63v-.756a6.422,6.422,0,0,1,.531-2.692,3.917,3.917,0,0,1,3.708-2.4,4.1,4.1,0,0,1,2.258.615,3.951,3.951,0,0,1,1.49,1.772,6.626,6.626,0,0,1,.519,2.709Zm-1.383-.683a4.713,4.713,0,0,0-.751-2.878,2.483,2.483,0,0,0-2.111-1,2.455,2.455,0,0,0-2.077,1,4.656,4.656,0,0,0-.779,2.783v.779a4.741,4.741,0,0,0,.768,2.856,2.675,2.675,0,0,0,4.188.056,4.69,4.69,0,0,0,.762-2.822Z" transform="translate(809.714 17426.475)" fill="#786ead"/>
    <path id="Trazado_132430" data-name="Trazado 132430" d="M309.825,352.069h-1.4l-5.305-8.127v8.127h-1.4V341.52h1.4l5.322,8.173V341.52h1.383Z" transform="translate(801.511 17426.359)" fill="#786ead"/>
    <path id="Trazado_132431" data-name="Trazado 132431" d="M323.142,347.251a6.592,6.592,0,0,1-2.6-1.264,2.421,2.421,0,0,1-.813-1.851,2.54,2.54,0,0,1,.993-2.06,3.951,3.951,0,0,1,2.591-.818,4.284,4.284,0,0,1,1.936.423,3.155,3.155,0,0,1,1.321,1.157,2.974,2.974,0,0,1,.469,1.614h-1.4a1.93,1.93,0,0,0-.61-1.507,2.466,2.466,0,0,0-1.693-.564,2.574,2.574,0,0,0-1.609.452,1.53,1.53,0,0,0-.564,1.259,1.366,1.366,0,0,0,.564,1.095,5.305,5.305,0,0,0,1.863.813,8.6,8.6,0,0,1,2.06.818,3.212,3.212,0,0,1,1.1,1.039,2.676,2.676,0,0,1,.356,1.4,2.466,2.466,0,0,1-1,2.054,4.261,4.261,0,0,1-2.67.768,4.971,4.971,0,0,1-2.032-.412,3.431,3.431,0,0,1-1.451-1.129,2.782,2.782,0,0,1-.514-1.642h1.4a1.829,1.829,0,0,0,.706,1.513,3,3,0,0,0,1.891.564,2.743,2.743,0,0,0,1.693-.452,1.462,1.462,0,0,0,.564-1.225,1.422,1.422,0,0,0-.564-1.2A6.263,6.263,0,0,0,323.142,347.251Z" transform="translate(793.792 17426.477)" fill="#786ead"/>
    <path id="Trazado_132432" data-name="Trazado 132432" d="M343.314,341.52v7.174a3.387,3.387,0,0,1-.937,2.438,3.8,3.8,0,0,1-2.529,1.067h-.367a3.951,3.951,0,0,1-2.76-.931,3.341,3.341,0,0,1-1.044-2.574V341.52h1.377v7.145a2.421,2.421,0,0,0,.626,1.778,2.455,2.455,0,0,0,1.8.632,2.427,2.427,0,0,0,1.806-.632,2.4,2.4,0,0,0,.626-1.772V341.52Z" transform="translate(786.721 17426.359)" fill="#786ead"/>
    <path id="Trazado_132433" data-name="Trazado 132433" d="M354.895,341.52l3.448,8.607,3.449-8.607h1.8v10.549H362.2V347.96l.13-4.431-3.46,8.539h-1.067l-3.454-8.523.135,4.414v4.109H353.1V341.52Z" transform="translate(779.13 17426.359)" fill="#786ead"/>
    <path id="Trazado_132434" data-name="Trazado 132434" d="M377.614,352.069H376.22V341.52h1.394Z" transform="translate(769.059 17426.359)" fill="#786ead"/>
    <path id="Trazado_132435" data-name="Trazado 132435" d="M383.19,352.068V341.519h2.98a4.792,4.792,0,0,1,2.433.61,4.115,4.115,0,0,1,1.637,1.733,5.643,5.643,0,0,1,.564,2.574v.677a5.644,5.644,0,0,1-.564,2.613,4.029,4.029,0,0,1-1.648,1.727,5.079,5.079,0,0,1-2.483.615Zm1.394-9.409v8.269h1.462a3.194,3.194,0,0,0,2.506-1,4.148,4.148,0,0,0,.892-2.85v-.615a4.182,4.182,0,0,0-.847-2.794,2.98,2.98,0,0,0-2.393-1.01Z" transform="translate(766.023 17426.361)" fill="#786ead"/>
    <path id="Trazado_132436" data-name="Trazado 132436" d="M408.249,347.023a6.473,6.473,0,0,1-.525,2.7,3.95,3.95,0,0,1-1.479,1.767,4.092,4.092,0,0,1-2.229.6,3.951,3.951,0,0,1-3.7-2.354,6.209,6.209,0,0,1-.564-2.63v-.756a6.508,6.508,0,0,1,.525-2.692,4.154,4.154,0,0,1,5.943-1.789,3.894,3.894,0,0,1,1.49,1.772,6.535,6.535,0,0,1,.525,2.709Zm-1.388-.683a4.713,4.713,0,0,0-.751-2.878,2.483,2.483,0,0,0-2.105-1,2.45,2.45,0,0,0-2.077,1,4.578,4.578,0,0,0-.779,2.783v.779a4.741,4.741,0,0,0,.762,2.856,2.681,2.681,0,0,0,4.194.056,4.69,4.69,0,0,0,.756-2.822Z" transform="translate(758.811 17426.473)" fill="#786ead"/>
    <path id="Trazado_132437" data-name="Trazado 132437" d="M422.38,347.8H419.92v4.267h-1.4V341.513h3.494a4.143,4.143,0,0,1,2.743.813,2.924,2.924,0,0,1,.96,2.359,2.822,2.822,0,0,1-.536,1.693,3.166,3.166,0,0,1-1.479,1.095l2.478,4.476v.09h-1.5Zm-2.478-1.129h2.133a2.387,2.387,0,0,0,1.648-.536,1.8,1.8,0,0,0,.615-1.439,1.919,1.919,0,0,0-.564-1.5,2.449,2.449,0,0,0-1.693-.525H419.92Z" transform="translate(750.634 17426.367)" fill="#786ead"/>
    <path id="Trazado_132438" data-name="Trazado 132438" d="M393.274,202.846q.034-3.488-.045-6.97c-.034-1.535-.079-3.07-.152-4.606-.04-.858-.1-1.693-.152-2.574-.113-1.879-.248-3.759-.418-5.644-.045-.463-.079-.926-.124-1.383a194.083,194.083,0,0,0-30.015-86.456C304.4,5.18,184.015-20.907,93.958,37.08A194.1,194.1,0,0,0,5.143,191.727C.063,296.554,79.87,387.13,185.11,394.744c106.8,7.721,199.975-72.882,207.7-179.684.265-3.68.4-7.337.457-11.006C393.274,203.631,393.274,203.247,393.274,202.846Zm-193.953,163.6a164.654,164.654,0,0,1-99.24-33,13.849,13.849,0,0,0-2.325-2.308,163.9,163.9,0,0,1-34.993-37.172C33.482,251.255,27.076,198.9,41.084,152.27a165.405,165.405,0,0,1,78.272-96.118,13.772,13.772,0,0,0,3.144-2.382c74.925-39.215,169.006-15.38,215.643,57.056a165.287,165.287,0,0,1,20.223,45.017,12.682,12.682,0,0,0,.316,1.5,163.555,163.555,0,0,1,5.379,31.172c.051.728.079,1.456.124,2.184.062,1.05.124,2.094.164,3.144.056,1.349.09,2.7.113,4.052v.914a165.438,165.438,0,0,1-14.584,69.5,14.425,14.425,0,0,0-.627,1.727C322.892,326.869,265.227,366.484,199.321,366.445Z" transform="translate(930.798 17572.422)" fill="#6a5d99"/>
    <path id="Trazado_881766" data-name="Trazado 881766" d="M3.089-2.588h-1.5V0H.738V-6.4H2.856a2.507,2.507,0,0,1,1.663.492A1.771,1.771,0,0,1,5.1-4.474a1.723,1.723,0,0,1-.323,1.042,1.928,1.928,0,0,1-.9.664l1.5,2.716V0H4.478Zm-1.5-.69h1.3a1.462,1.462,0,0,0,1-.326,1.1,1.1,0,0,0,.371-.872A1.16,1.16,0,0,0,3.9-5.387a1.5,1.5,0,0,0-1.022-.321H1.586Zm8.231,1.6H7.137L6.535,0h-.87L8.108-6.4h.738L11.294,0h-.866Zm-2.426-.69H9.567L8.477-5.357ZM12.155,0V-6.4h1.806a2.908,2.908,0,0,1,1.477.369,2.5,2.5,0,0,1,.991,1.05,3.419,3.419,0,0,1,.354,1.564v.409a3.431,3.431,0,0,1-.349,1.586,2.457,2.457,0,0,1-1,1.046A3.093,3.093,0,0,1,13.926,0ZM13-5.708V-.69h.888A1.931,1.931,0,0,0,15.405-1.3a2.508,2.508,0,0,0,.543-1.729V-3.4a2.547,2.547,0,0,0-.512-1.7,1.822,1.822,0,0,0-1.452-.614ZM18.962,0h-.844V-6.4h.844Zm6.464-2.993a3.958,3.958,0,0,1-.316,1.641,2.4,2.4,0,0,1-.9,1.07A2.466,2.466,0,0,1,22.86.088a2.445,2.445,0,0,1-1.34-.371,2.454,2.454,0,0,1-.907-1.059,3.8,3.8,0,0,1-.332-1.593V-3.4a3.911,3.911,0,0,1,.321-1.63,2.445,2.445,0,0,1,.907-1.083,2.435,2.435,0,0,1,1.343-.376,2.48,2.48,0,0,1,1.356.371,2.392,2.392,0,0,1,.9,1.077A3.977,3.977,0,0,1,25.427-3.4Zm-.839-.413a2.869,2.869,0,0,0-.457-1.747,1.507,1.507,0,0,0-1.279-.609,1.491,1.491,0,0,0-1.259.609,2.81,2.81,0,0,0-.472,1.69v.47a2.873,2.873,0,0,0,.464,1.734,1.5,1.5,0,0,0,1.277.631,1.492,1.492,0,0,0,1.266-.6,2.857,2.857,0,0,0,.461-1.707Z" transform="translate(1018.403 17681.779)" fill="#fff"/>
    <path id="Trazado_881771" data-name="Trazado 881771" d="M5.449-2.03A2.354,2.354,0,0,1,4.7-.464,2.456,2.456,0,0,1,3.023.088,2.255,2.255,0,0,1,1.206-.725,3.271,3.271,0,0,1,.523-2.9v-.615A3.646,3.646,0,0,1,.842-5.084a2.38,2.38,0,0,1,.9-1.039A2.514,2.514,0,0,1,3.1-6.486a2.312,2.312,0,0,1,1.635.569,2.382,2.382,0,0,1,.716,1.575H4.6a1.838,1.838,0,0,0-.477-1.111A1.443,1.443,0,0,0,3.1-5.8a1.51,1.51,0,0,0-1.268.6,2.746,2.746,0,0,0-.459,1.7v.62a2.823,2.823,0,0,0,.435,1.658A1.406,1.406,0,0,0,3.023-.6,1.624,1.624,0,0,0,4.1-.921a1.768,1.768,0,0,0,.5-1.11Zm2,1.34h3.032V0H6.6V-6.4h.848ZM15.44-6.4v4.351a2.041,2.041,0,0,1-.569,1.481A2.293,2.293,0,0,1,13.34.079l-.224.009a2.4,2.4,0,0,1-1.674-.567,2.027,2.027,0,0,1-.633-1.56V-6.4h.835v4.333a1.463,1.463,0,0,0,.382,1.079,1.469,1.469,0,0,0,1.09.385,1.479,1.479,0,0,0,1.1-.382,1.461,1.461,0,0,0,.38-1.077V-6.4ZM16.772,0V-6.4h2.092a2.428,2.428,0,0,1,1.567.431,1.552,1.552,0,0,1,.525,1.274A1.3,1.3,0,0,1,20.7-3.9a1.652,1.652,0,0,1-.694.534,1.484,1.484,0,0,1,.82.552,1.583,1.583,0,0,1,.3.969,1.711,1.711,0,0,1-.558,1.354A2.308,2.308,0,0,1,18.991,0Zm.844-2.993v2.3h1.393A1.341,1.341,0,0,0,19.938-1a1.073,1.073,0,0,0,.341-.842q0-1.156-1.257-1.156Zm0-.677H18.89a1.336,1.336,0,0,0,.885-.277.93.93,0,0,0,.332-.753.915.915,0,0,0-.308-.769,1.511,1.511,0,0,0-.936-.24H17.616Zm8.376.712H23.219V-.69H26.44V0H22.375V-6.4H26.4v.69H23.219v2.061h2.773Zm3.384.105a3.967,3.967,0,0,1-1.58-.767A1.465,1.465,0,0,1,27.3-4.742a1.548,1.548,0,0,1,.6-1.25,2.4,2.4,0,0,1,1.571-.494,2.621,2.621,0,0,1,1.176.255,1.933,1.933,0,0,1,.8.7,1.8,1.8,0,0,1,.283.98h-.848a1.17,1.17,0,0,0-.369-.915A1.5,1.5,0,0,0,29.477-5.8a1.537,1.537,0,0,0-.973.275.918.918,0,0,0-.349.764.826.826,0,0,0,.332.663,3.254,3.254,0,0,0,1.129.5,5.24,5.24,0,0,1,1.248.495,1.894,1.894,0,0,1,.668.631,1.61,1.61,0,0,1,.218.848A1.5,1.5,0,0,1,31.142-.38a2.586,2.586,0,0,1-1.622.468,3.008,3.008,0,0,1-1.23-.253,2.071,2.071,0,0,1-.881-.692,1.689,1.689,0,0,1-.31-1h.848a1.1,1.1,0,0,0,.428.916A1.8,1.8,0,0,0,29.521-.6a1.658,1.658,0,0,0,1.024-.272.885.885,0,0,0,.356-.743.869.869,0,0,0-.33-.727A3.8,3.8,0,0,0,29.376-2.852Z" transform="translate(1015.403 17867.342)" fill="#fff"/>
    <path id="Trazado_881774" data-name="Trazado 881774" d="M5.449-2.03A2.354,2.354,0,0,1,4.7-.464,2.456,2.456,0,0,1,3.023.088,2.255,2.255,0,0,1,1.206-.725,3.271,3.271,0,0,1,.523-2.9v-.615A3.646,3.646,0,0,1,.842-5.084a2.38,2.38,0,0,1,.9-1.039A2.514,2.514,0,0,1,3.1-6.486a2.312,2.312,0,0,1,1.635.569,2.382,2.382,0,0,1,.716,1.575H4.6a1.838,1.838,0,0,0-.477-1.111A1.443,1.443,0,0,0,3.1-5.8a1.51,1.51,0,0,0-1.268.6,2.746,2.746,0,0,0-.459,1.7v.62a2.823,2.823,0,0,0,.435,1.658A1.406,1.406,0,0,0,3.023-.6,1.624,1.624,0,0,0,4.1-.921a1.768,1.768,0,0,0,.5-1.11Zm6.073-.962a3.958,3.958,0,0,1-.316,1.641,2.4,2.4,0,0,1-.9,1.07A2.466,2.466,0,0,1,8.956.088a2.445,2.445,0,0,1-1.34-.371,2.454,2.454,0,0,1-.907-1.059,3.8,3.8,0,0,1-.332-1.593V-3.4A3.911,3.911,0,0,1,6.7-5.027,2.445,2.445,0,0,1,7.6-6.111a2.435,2.435,0,0,1,1.343-.376,2.48,2.48,0,0,1,1.356.371,2.392,2.392,0,0,1,.9,1.077A3.977,3.977,0,0,1,11.522-3.4Zm-.839-.413a2.869,2.869,0,0,0-.457-1.747,1.507,1.507,0,0,0-1.279-.609,1.491,1.491,0,0,0-1.259.609,2.81,2.81,0,0,0-.472,1.69v.47a2.873,2.873,0,0,0,.464,1.734,1.5,1.5,0,0,0,1.277.631,1.492,1.492,0,0,0,1.266-.6,2.857,2.857,0,0,0,.461-1.707ZM17.706,0h-.848L13.636-4.931V0h-.848V-6.4h.848l3.23,4.953V-6.4h.839Zm6.205-2.03a2.354,2.354,0,0,1-.749,1.567,2.456,2.456,0,0,1-1.677.552,2.255,2.255,0,0,1-1.817-.813A3.271,3.271,0,0,1,18.984-2.9v-.615A3.646,3.646,0,0,1,19.3-5.084a2.38,2.38,0,0,1,.9-1.039,2.514,2.514,0,0,1,1.354-.363,2.312,2.312,0,0,1,1.635.569,2.382,2.382,0,0,1,.716,1.575h-.848a1.838,1.838,0,0,0-.477-1.111A1.443,1.443,0,0,0,21.56-5.8a1.51,1.51,0,0,0-1.268.6,2.746,2.746,0,0,0-.459,1.7v.62a2.823,2.823,0,0,0,.435,1.658A1.406,1.406,0,0,0,21.485-.6a1.624,1.624,0,0,0,1.079-.319,1.768,1.768,0,0,0,.5-1.11ZM29.566-6.4v4.351A2.041,2.041,0,0,1,29-.567a2.293,2.293,0,0,1-1.531.646l-.224.009a2.4,2.4,0,0,1-1.674-.567,2.027,2.027,0,0,1-.633-1.56V-6.4h.835v4.333a1.463,1.463,0,0,0,.382,1.079,1.469,1.469,0,0,0,1.09.385,1.479,1.479,0,0,0,1.1-.382,1.461,1.461,0,0,0,.38-1.077V-6.4Zm3.678,3.81h-1.5V0h-.848V-6.4h2.118a2.507,2.507,0,0,1,1.663.492,1.771,1.771,0,0,1,.582,1.433,1.723,1.723,0,0,1-.323,1.042,1.928,1.928,0,0,1-.9.664l1.5,2.716V0h-.905Zm-1.5-.69h1.3a1.462,1.462,0,0,0,1-.326,1.1,1.1,0,0,0,.371-.872,1.16,1.16,0,0,0-.354-.911,1.5,1.5,0,0,0-1.022-.321H31.742Zm6.583.426a3.967,3.967,0,0,1-1.58-.767,1.465,1.465,0,0,1-.494-1.123,1.548,1.548,0,0,1,.6-1.25,2.4,2.4,0,0,1,1.571-.494,2.621,2.621,0,0,1,1.176.255,1.933,1.933,0,0,1,.8.7,1.8,1.8,0,0,1,.283.98h-.848a1.17,1.17,0,0,0-.369-.915A1.5,1.5,0,0,0,38.426-5.8a1.537,1.537,0,0,0-.973.275.918.918,0,0,0-.349.764.826.826,0,0,0,.332.663,3.254,3.254,0,0,0,1.129.5,5.24,5.24,0,0,1,1.248.495,1.894,1.894,0,0,1,.668.631,1.61,1.61,0,0,1,.218.848A1.5,1.5,0,0,1,40.091-.38,2.586,2.586,0,0,1,38.47.088a3.008,3.008,0,0,1-1.23-.253,2.071,2.071,0,0,1-.881-.692,1.689,1.689,0,0,1-.31-1H36.9a1.1,1.1,0,0,0,.428.916A1.8,1.8,0,0,0,38.47-.6a1.658,1.658,0,0,0,1.024-.272.885.885,0,0,0,.356-.743.869.869,0,0,0-.33-.727A3.8,3.8,0,0,0,38.325-2.852ZM46.7-2.993a3.958,3.958,0,0,1-.316,1.641,2.4,2.4,0,0,1-.9,1.07,2.466,2.466,0,0,1-1.354.369,2.445,2.445,0,0,1-1.34-.371,2.454,2.454,0,0,1-.907-1.059,3.8,3.8,0,0,1-.332-1.593V-3.4a3.911,3.911,0,0,1,.321-1.63,2.445,2.445,0,0,1,.907-1.083,2.435,2.435,0,0,1,1.343-.376,2.48,2.48,0,0,1,1.356.371,2.392,2.392,0,0,1,.9,1.077A3.977,3.977,0,0,1,46.7-3.4Zm-.839-.413A2.869,2.869,0,0,0,45.4-5.153a1.507,1.507,0,0,0-1.279-.609,1.491,1.491,0,0,0-1.259.609,2.81,2.81,0,0,0-.472,1.69v.47a2.873,2.873,0,0,0,.464,1.734,1.5,1.5,0,0,0,1.277.631,1.492,1.492,0,0,0,1.266-.6,2.857,2.857,0,0,0,.461-1.707Zm3.99.554a3.967,3.967,0,0,1-1.58-.767,1.465,1.465,0,0,1-.494-1.123,1.548,1.548,0,0,1,.6-1.25,2.4,2.4,0,0,1,1.571-.494,2.621,2.621,0,0,1,1.176.255,1.933,1.933,0,0,1,.8.7,1.8,1.8,0,0,1,.283.98h-.848a1.17,1.17,0,0,0-.369-.915A1.5,1.5,0,0,0,49.953-5.8a1.537,1.537,0,0,0-.973.275.918.918,0,0,0-.349.764.826.826,0,0,0,.332.663,3.254,3.254,0,0,0,1.129.5,5.24,5.24,0,0,1,1.248.495,1.894,1.894,0,0,1,.668.631,1.61,1.61,0,0,1,.218.848A1.5,1.5,0,0,1,51.618-.38,2.586,2.586,0,0,1,50,.088a3.008,3.008,0,0,1-1.23-.253,2.071,2.071,0,0,1-.881-.692,1.689,1.689,0,0,1-.31-1h.848a1.1,1.1,0,0,0,.428.916A1.8,1.8,0,0,0,50-.6a1.658,1.658,0,0,0,1.024-.272.885.885,0,0,0,.356-.743.869.869,0,0,0-.33-.727A3.8,3.8,0,0,0,49.852-2.852Z" transform="translate(1199.744 17867.342)" fill="#fff"/>
    <path id="Trazado_881772" data-name="Trazado 881772" d="M.743,0V-6.4H2.834A2.428,2.428,0,0,1,4.4-5.968a1.552,1.552,0,0,1,.525,1.274,1.3,1.3,0,0,1-.255.793,1.652,1.652,0,0,1-.694.534,1.484,1.484,0,0,1,.82.552,1.583,1.583,0,0,1,.3.969A1.711,1.711,0,0,1,4.54-.492,2.308,2.308,0,0,1,2.962,0Zm.844-2.993v2.3H2.979A1.341,1.341,0,0,0,3.909-1a1.073,1.073,0,0,0,.341-.842q0-1.156-1.257-1.156Zm0-.677H2.861a1.336,1.336,0,0,0,.885-.277A.93.93,0,0,0,4.078-4.7a.915.915,0,0,0-.308-.769,1.511,1.511,0,0,0-.936-.24H1.586Zm9.681.677a3.958,3.958,0,0,1-.316,1.641,2.4,2.4,0,0,1-.9,1.07A2.466,2.466,0,0,1,8.7.088a2.445,2.445,0,0,1-1.34-.371,2.454,2.454,0,0,1-.907-1.059,3.8,3.8,0,0,1-.332-1.593V-3.4a3.911,3.911,0,0,1,.321-1.63A2.445,2.445,0,0,1,7.35-6.111a2.435,2.435,0,0,1,1.343-.376,2.48,2.48,0,0,1,1.356.371,2.392,2.392,0,0,1,.9,1.077A3.977,3.977,0,0,1,11.268-3.4Zm-.839-.413a2.869,2.869,0,0,0-.457-1.747,1.507,1.507,0,0,0-1.279-.609,1.491,1.491,0,0,0-1.259.609,2.81,2.81,0,0,0-.472,1.69v.47a2.873,2.873,0,0,0,.464,1.734A1.5,1.5,0,0,0,8.7-.628a1.492,1.492,0,0,0,1.266-.6,2.857,2.857,0,0,0,.461-1.707ZM17.451,0H16.6L13.381-4.931V0h-.848V-6.4h.848l3.23,4.953V-6.4h.839Zm6.42-2.993a3.958,3.958,0,0,1-.316,1.641,2.4,2.4,0,0,1-.9,1.07A2.466,2.466,0,0,1,21.3.088a2.445,2.445,0,0,1-1.34-.371,2.454,2.454,0,0,1-.907-1.059,3.8,3.8,0,0,1-.332-1.593V-3.4a3.911,3.911,0,0,1,.321-1.63,2.445,2.445,0,0,1,.907-1.083A2.435,2.435,0,0,1,21.3-6.486a2.48,2.48,0,0,1,1.356.371,2.392,2.392,0,0,1,.9,1.077A3.977,3.977,0,0,1,23.871-3.4Zm-.839-.413a2.869,2.869,0,0,0-.457-1.747A1.507,1.507,0,0,0,21.3-5.761a1.491,1.491,0,0,0-1.259.609,2.81,2.81,0,0,0-.472,1.69v.47a2.873,2.873,0,0,0,.464,1.734A1.5,1.5,0,0,0,21.3-.628a1.492,1.492,0,0,0,1.266-.6,2.857,2.857,0,0,0,.461-1.707Zm3.99.554a3.967,3.967,0,0,1-1.58-.767,1.465,1.465,0,0,1-.494-1.123,1.548,1.548,0,0,1,.6-1.25,2.4,2.4,0,0,1,1.571-.494,2.621,2.621,0,0,1,1.176.255,1.933,1.933,0,0,1,.8.7,1.8,1.8,0,0,1,.283.98h-.848a1.17,1.17,0,0,0-.369-.915A1.5,1.5,0,0,0,27.123-5.8a1.537,1.537,0,0,0-.973.275.918.918,0,0,0-.349.764.826.826,0,0,0,.332.663,3.254,3.254,0,0,0,1.129.5A5.24,5.24,0,0,1,28.51-3.1a1.894,1.894,0,0,1,.668.631,1.61,1.61,0,0,1,.218.848A1.5,1.5,0,0,1,28.789-.38a2.586,2.586,0,0,1-1.622.468,3.008,3.008,0,0,1-1.23-.253,2.071,2.071,0,0,1-.881-.692,1.689,1.689,0,0,1-.31-1h.848a1.1,1.1,0,0,0,.428.916A1.8,1.8,0,0,0,27.167-.6a1.658,1.658,0,0,0,1.024-.272.885.885,0,0,0,.356-.743.869.869,0,0,0-.33-.727A3.8,3.8,0,0,0,27.022-2.852Z" transform="translate(1111.715 17913.539)" fill="#fff"/>
    <path id="Trazado_881775" data-name="Trazado 881775" d="M15.248,7.744a2.616,2.616,0,0,1-.833,1.741,2.728,2.728,0,0,1-1.863.613,2.505,2.505,0,0,1-2.019-.9,3.634,3.634,0,0,1-.759-2.417V6.094a4.051,4.051,0,0,1,.354-1.743,2.644,2.644,0,0,1,1-1.155,2.794,2.794,0,0,1,1.5-.4,2.569,2.569,0,0,1,1.816.632,2.647,2.647,0,0,1,.8,1.75h-.942a2.043,2.043,0,0,0-.53-1.234,1.6,1.6,0,0,0-1.14-.382,1.677,1.677,0,0,0-1.409.665,3.051,3.051,0,0,0-.51,1.891V6.8A3.136,3.136,0,0,0,11.2,8.647a1.562,1.562,0,0,0,1.353.684,1.8,1.8,0,0,0,1.2-.354,1.964,1.964,0,0,0,.554-1.233ZM22,6.675A4.4,4.4,0,0,1,21.645,8.5a2.663,2.663,0,0,1-1,1.189,2.749,2.749,0,0,1-4-1.179,4.22,4.22,0,0,1-.369-1.77V6.226a4.346,4.346,0,0,1,.356-1.812,2.636,2.636,0,0,1,2.5-1.621,2.756,2.756,0,0,1,1.506.413,2.658,2.658,0,0,1,1,1.2A4.419,4.419,0,0,1,22,6.226Zm-.933-.459a3.188,3.188,0,0,0-.508-1.941A1.675,1.675,0,0,0,19.135,3.6a1.657,1.657,0,0,0-1.4.676,3.122,3.122,0,0,0-.525,1.877v.522A3.192,3.192,0,0,0,17.727,8.6a1.805,1.805,0,0,0,2.825.039,3.174,3.174,0,0,0,.513-1.9Zm4.946.908H24.34V10H23.4V2.891h2.354a2.786,2.786,0,0,1,1.848.547,1.968,1.968,0,0,1,.647,1.592,1.914,1.914,0,0,1-.359,1.157,2.142,2.142,0,0,1-1,.737l1.67,3.018V10H27.553Zm-1.67-.767h1.44A1.625,1.625,0,0,0,26.892,6a1.224,1.224,0,0,0,.413-.969,1.289,1.289,0,0,0-.393-1.013,1.664,1.664,0,0,0-1.135-.357H24.34Zm7.827.767H30.5V10h-.942V2.891h2.354a2.786,2.786,0,0,1,1.848.547A1.968,1.968,0,0,1,34.4,5.029a1.914,1.914,0,0,1-.359,1.157,2.142,2.142,0,0,1-1,.737l1.67,3.018V10H33.71ZM30.5,6.357h1.44A1.625,1.625,0,0,0,33.049,6a1.224,1.224,0,0,0,.413-.969,1.289,1.289,0,0,0-.393-1.013,1.664,1.664,0,0,0-1.135-.357H30.5Zm9.238.356H36.655v2.52h3.579V10H35.717V2.891h4.468v.767h-3.53v2.29h3.081Zm7.134-.039A4.4,4.4,0,0,1,46.518,8.5a2.663,2.663,0,0,1-1,1.189,2.749,2.749,0,0,1-4-1.179,4.22,4.22,0,0,1-.369-1.77V6.226a4.346,4.346,0,0,1,.356-1.812,2.636,2.636,0,0,1,2.5-1.621,2.756,2.756,0,0,1,1.506.413,2.658,2.658,0,0,1,1,1.2,4.419,4.419,0,0,1,.352,1.824Zm-.933-.459a3.188,3.188,0,0,0-.508-1.941A1.675,1.675,0,0,0,44.008,3.6a1.657,1.657,0,0,0-1.4.676,3.122,3.122,0,0,0-.525,1.877v.522A3.192,3.192,0,0,0,42.6,8.6a1.805,1.805,0,0,0,2.825.039,3.174,3.174,0,0,0,.513-1.9ZM9.052,20V12.891h2.007a3.231,3.231,0,0,1,1.641.41,2.774,2.774,0,0,1,1.1,1.167,3.8,3.8,0,0,1,.393,1.738v.454a3.812,3.812,0,0,1-.388,1.763A2.731,2.731,0,0,1,12.7,19.585,3.436,3.436,0,0,1,11.02,20Zm.938-6.343v5.576h.986a2.146,2.146,0,0,0,1.687-.674,2.786,2.786,0,0,0,.6-1.921v-.415a2.831,2.831,0,0,0-.569-1.884,2.024,2.024,0,0,0-1.614-.682ZM16.616,20h-.938V12.891h.938Zm4.321-2.876h-1.67V20h-.942V12.891h2.354a2.786,2.786,0,0,1,1.848.547,1.968,1.968,0,0,1,.647,1.592,1.914,1.914,0,0,1-.359,1.157,2.142,2.142,0,0,1-1,.737l1.67,3.018V20H22.48Zm-1.67-.767h1.44A1.625,1.625,0,0,0,21.818,16a1.224,1.224,0,0,0,.413-.969,1.289,1.289,0,0,0-.393-1.013,1.664,1.664,0,0,0-1.135-.357H19.267Zm9.238.356H25.424v2.52H29V20H24.487V12.891h4.468v.767h-3.53v2.29h3.081Zm6.895,1.03a2.616,2.616,0,0,1-.833,1.741A2.728,2.728,0,0,1,32.7,20.1a2.505,2.505,0,0,1-2.019-.9,3.634,3.634,0,0,1-.759-2.417v-.684a4.051,4.051,0,0,1,.354-1.743,2.644,2.644,0,0,1,1-1.155,2.794,2.794,0,0,1,1.5-.4,2.569,2.569,0,0,1,1.816.632,2.647,2.647,0,0,1,.8,1.75h-.942a2.043,2.043,0,0,0-.53-1.234,1.6,1.6,0,0,0-1.14-.382,1.677,1.677,0,0,0-1.409.665,3.051,3.051,0,0,0-.51,1.891V16.8a3.136,3.136,0,0,0,.483,1.842,1.562,1.562,0,0,0,1.353.684,1.8,1.8,0,0,0,1.2-.354,1.964,1.964,0,0,0,.554-1.233Zm6.05-4.087H39.165V20h-.933V13.657h-2.28v-.767h5.5Zm6.387,3.018a4.4,4.4,0,0,1-.352,1.824,2.663,2.663,0,0,1-1,1.189,2.749,2.749,0,0,1-4-1.179,4.22,4.22,0,0,1-.369-1.77v-.513a4.346,4.346,0,0,1,.356-1.812,2.636,2.636,0,0,1,2.5-1.621,2.756,2.756,0,0,1,1.506.413,2.658,2.658,0,0,1,1,1.2,4.419,4.419,0,0,1,.352,1.824Zm-.933-.459a3.188,3.188,0,0,0-.508-1.941,1.675,1.675,0,0,0-1.421-.676,1.657,1.657,0,0,0-1.4.676,3.122,3.122,0,0,0-.525,1.877v.522a3.192,3.192,0,0,0,.515,1.926,1.805,1.805,0,0,0,2.825.039,3.174,3.174,0,0,0,.513-1.9Z" transform="translate(1232.817 17757.547)" fill="#fff"/>
    <path id="Trazado_881770" data-name="Trazado 881770" d="M6.68,3.657H4.395V10H3.462V3.657H1.182V2.891h5.5Zm5.073,3.057H8.672v2.52h3.579V10H7.734V2.891H12.2v.767H8.672v2.29h3.081Zm3.76.117a4.408,4.408,0,0,1-1.755-.852,1.628,1.628,0,0,1-.549-1.248,1.72,1.72,0,0,1,.671-1.389,2.668,2.668,0,0,1,1.746-.549,2.913,2.913,0,0,1,1.306.283,2.148,2.148,0,0,1,.889.781,2,2,0,0,1,.315,1.089h-.942a1.3,1.3,0,0,0-.41-1.017,1.668,1.668,0,0,0-1.157-.37,1.708,1.708,0,0,0-1.082.306,1.02,1.02,0,0,0-.388.849.918.918,0,0,0,.369.736A3.616,3.616,0,0,0,15.779,6a5.822,5.822,0,0,1,1.387.55,2.1,2.1,0,0,1,.742.7,1.788,1.788,0,0,1,.242.942,1.661,1.661,0,0,1-.674,1.384,2.873,2.873,0,0,1-1.8.52,3.342,3.342,0,0,1-1.367-.281,2.3,2.3,0,0,1-.979-.769,1.877,1.877,0,0,1-.344-1.108h.942A1.224,1.224,0,0,0,14.4,8.958a2,2,0,0,0,1.272.374,1.843,1.843,0,0,0,1.138-.3.983.983,0,0,0,.4-.825.965.965,0,0,0-.366-.808A4.222,4.222,0,0,0,15.513,6.831Zm8.75-3.174H21.978V10h-.933V3.657h-2.28V2.891h5.5ZM26.323,10h-.937V2.891h.938Zm2.925-7.109,2.324,5.8,2.324-5.8h1.216V10h-.937V7.231l.088-2.988L31.929,10h-.718L28.882,4.258l.093,2.974V10h-.937V2.891ZM42.236,6.675A4.4,4.4,0,0,1,41.885,8.5a2.663,2.663,0,0,1-1,1.189,2.749,2.749,0,0,1-4-1.179,4.22,4.22,0,0,1-.369-1.77V6.226a4.346,4.346,0,0,1,.356-1.812,2.636,2.636,0,0,1,2.5-1.621,2.756,2.756,0,0,1,1.506.413,2.658,2.658,0,0,1,1,1.2,4.419,4.419,0,0,1,.352,1.824ZM41.3,6.216A3.188,3.188,0,0,0,40.8,4.275,1.675,1.675,0,0,0,39.375,3.6a1.657,1.657,0,0,0-1.4.676,3.122,3.122,0,0,0-.525,1.877v.522A3.192,3.192,0,0,0,37.966,8.6a1.805,1.805,0,0,0,2.825.039,3.174,3.174,0,0,0,.513-1.9ZM49.107,10h-.942L44.585,4.521V10h-.942V2.891h.942l3.589,5.5v-5.5h.933Zm2.671,0H50.84V2.891h.938ZM58.96,6.675A4.4,4.4,0,0,1,58.608,8.5a2.663,2.663,0,0,1-1,1.189,2.749,2.749,0,0,1-4-1.179,4.22,4.22,0,0,1-.369-1.77V6.226A4.346,4.346,0,0,1,53.6,4.414a2.636,2.636,0,0,1,2.5-1.621,2.756,2.756,0,0,1,1.506.413,2.658,2.658,0,0,1,1,1.2,4.419,4.419,0,0,1,.352,1.824Zm-.933-.459a3.188,3.188,0,0,0-.508-1.941A1.675,1.675,0,0,0,56.1,3.6a1.657,1.657,0,0,0-1.4.676,3.122,3.122,0,0,0-.525,1.877v.522A3.192,3.192,0,0,0,54.69,8.6a1.805,1.805,0,0,0,2.825.039,3.174,3.174,0,0,0,.513-1.9ZM62.842,10V2.891h2.007a3.231,3.231,0,0,1,1.641.41,2.774,2.774,0,0,1,1.1,1.167,3.8,3.8,0,0,1,.393,1.738V6.66A3.812,3.812,0,0,1,67.6,8.423a2.731,2.731,0,0,1-1.108,1.162A3.436,3.436,0,0,1,64.81,10Zm.938-6.343V9.233h.986a2.146,2.146,0,0,0,1.687-.674,2.786,2.786,0,0,0,.6-1.921V6.223a2.831,2.831,0,0,0-.569-1.884,2.024,2.024,0,0,0-1.614-.682Zm9.639,3.057H70.337v2.52h3.579V10H69.4V2.891h4.468v.767h-3.53v2.29h3.081Zm-55.149,10H15.188v2.52h3.579V20H14.251V12.891h4.468v.767h-3.53v2.29h3.081Zm3.984-1.1,1.7-2.725h1.1l-2.246,3.525L25.115,20H24l-1.748-2.773L20.5,20H19.387l2.3-3.584-2.251-3.525h1.1Zm4.888,1.6V20H26.2V12.891h2.622a2.634,2.634,0,0,1,1.829.6,2.02,2.02,0,0,1,.662,1.577,1.993,1.993,0,0,1-.647,1.594,2.752,2.752,0,0,1-1.853.559Zm0-.767h1.685a1.684,1.684,0,0,0,1.152-.355,1.3,1.3,0,0,0,.4-1.025,1.34,1.34,0,0,0-.4-1.017,1.578,1.578,0,0,0-1.1-.4H27.141Zm9.39.264H33.45v2.52h3.579V20H32.512V12.891H36.98v.767H33.45v2.29h3.081Zm4.272.41h-1.67V20h-.942V12.891h2.354a2.786,2.786,0,0,1,1.848.547,1.968,1.968,0,0,1,.647,1.592,1.914,1.914,0,0,1-.359,1.157,2.142,2.142,0,0,1-1,.737l1.67,3.018V20H42.346Zm-1.67-.767h1.44A1.625,1.625,0,0,0,41.685,16a1.224,1.224,0,0,0,.413-.969,1.289,1.289,0,0,0-.393-1.013,1.664,1.664,0,0,0-1.135-.357H39.133Zm9.741-2.7H46.589V20h-.933V13.657h-2.28v-.767h5.5Zm6.387,3.018A4.4,4.4,0,0,1,54.91,18.5a2.663,2.663,0,0,1-1,1.189,2.749,2.749,0,0,1-4-1.179,4.22,4.22,0,0,1-.369-1.77v-.513a4.346,4.346,0,0,1,.356-1.812,2.636,2.636,0,0,1,2.5-1.621,2.756,2.756,0,0,1,1.506.413,2.658,2.658,0,0,1,1,1.2,4.419,4.419,0,0,1,.352,1.824Zm-.933-.459a3.188,3.188,0,0,0-.508-1.941A1.675,1.675,0,0,0,52.4,13.6a1.657,1.657,0,0,0-1.4.676,3.122,3.122,0,0,0-.525,1.877v.522a3.192,3.192,0,0,0,.515,1.926,1.805,1.805,0,0,0,2.825.039,3.174,3.174,0,0,0,.513-1.9Zm4.434.615a4.408,4.408,0,0,1-1.755-.852,1.628,1.628,0,0,1-.549-1.248,1.72,1.72,0,0,1,.671-1.389,2.668,2.668,0,0,1,1.746-.549,2.913,2.913,0,0,1,1.306.283,2.148,2.148,0,0,1,.889.781,2,2,0,0,1,.315,1.089h-.942a1.3,1.3,0,0,0-.41-1.017,1.668,1.668,0,0,0-1.157-.37,1.708,1.708,0,0,0-1.082.306,1.02,1.02,0,0,0-.388.849.918.918,0,0,0,.369.736,3.616,3.616,0,0,0,1.255.55,5.823,5.823,0,0,1,1.387.55,2.1,2.1,0,0,1,.742.7,1.788,1.788,0,0,1,.242.942,1.661,1.661,0,0,1-.674,1.384,2.873,2.873,0,0,1-1.8.52,3.342,3.342,0,0,1-1.367-.281,2.3,2.3,0,0,1-.979-.769,1.877,1.877,0,0,1-.344-1.108h.942a1.224,1.224,0,0,0,.476,1.018,2,2,0,0,0,1.272.374,1.843,1.843,0,0,0,1.138-.3.983.983,0,0,0,.4-.825.965.965,0,0,0-.366-.808A4.222,4.222,0,0,0,58.762,16.831Z" transform="translate(1090.229 17627.654)" fill="#fff"/>
    <path id="Trazado_881773" data-name="Trazado 881773" d="M5.891,7.217V10H4.953V2.891H7.576a2.634,2.634,0,0,1,1.829.6,2.02,2.02,0,0,1,.662,1.577,1.993,1.993,0,0,1-.647,1.594,2.752,2.752,0,0,1-1.853.559Zm0-.767H7.576A1.684,1.684,0,0,0,8.728,6.1a1.3,1.3,0,0,0,.4-1.025,1.34,1.34,0,0,0-.4-1.017,1.578,1.578,0,0,0-1.1-.4H5.891Zm7.979.674H12.2V10h-.942V2.891h2.354a2.786,2.786,0,0,1,1.848.547,1.968,1.968,0,0,1,.647,1.592,1.914,1.914,0,0,1-.359,1.157,2.142,2.142,0,0,1-1,.737l1.67,3.018V10H15.412ZM12.2,6.357h1.44A1.625,1.625,0,0,0,14.751,6a1.224,1.224,0,0,0,.413-.969,1.289,1.289,0,0,0-.393-1.013,1.664,1.664,0,0,0-1.135-.357H12.2Zm10.688.317A4.4,4.4,0,0,1,22.536,8.5a2.663,2.663,0,0,1-1,1.189,2.749,2.749,0,0,1-4-1.179,4.22,4.22,0,0,1-.369-1.77V6.226a4.346,4.346,0,0,1,.356-1.812,2.636,2.636,0,0,1,2.5-1.621,2.756,2.756,0,0,1,1.506.413,2.658,2.658,0,0,1,1,1.2,4.419,4.419,0,0,1,.352,1.824Zm-.933-.459a3.188,3.188,0,0,0-.508-1.941A1.675,1.675,0,0,0,20.027,3.6a1.657,1.657,0,0,0-1.4.676A3.122,3.122,0,0,0,18.1,6.152v.522A3.192,3.192,0,0,0,18.618,8.6a1.805,1.805,0,0,0,2.825.039,3.174,3.174,0,0,0,.513-1.9Zm7.588,2.852a2.166,2.166,0,0,1-1.008.774,4.073,4.073,0,0,1-1.506.256,2.921,2.921,0,0,1-1.543-.408,2.716,2.716,0,0,1-1.042-1.16,4.005,4.005,0,0,1-.378-1.743v-.62a3.739,3.739,0,0,1,.75-2.49,2.612,2.612,0,0,1,2.107-.884,2.7,2.7,0,0,1,1.792.569,2.478,2.478,0,0,1,.83,1.614h-.937a1.55,1.55,0,0,0-1.68-1.416,1.66,1.66,0,0,0-1.428.662,3.233,3.233,0,0,0-.491,1.918v.582a3.03,3.03,0,0,0,.547,1.9,1.773,1.773,0,0,0,1.479.706,3.268,3.268,0,0,0,.923-.117,1.427,1.427,0,0,0,.654-.395V7.227H26.965V6.46h2.578Zm4.17-1.943h-1.67V10H31.1V2.891h2.354a2.786,2.786,0,0,1,1.848.547,1.968,1.968,0,0,1,.647,1.592,1.914,1.914,0,0,1-.359,1.157,2.142,2.142,0,0,1-1,.737l1.67,3.018V10H35.256Zm-1.67-.767h1.44A1.625,1.625,0,0,0,34.595,6a1.224,1.224,0,0,0,.413-.969,1.289,1.289,0,0,0-.393-1.013,1.664,1.664,0,0,0-1.135-.357H32.043ZM41.189,8.14H38.21L37.541,10h-.967l2.715-7.109h.82L42.829,10h-.962Zm-2.7-.767h2.417L39.7,4.048ZM45,2.891l2.324,5.8,2.324-5.8h1.216V10h-.937V7.231l.088-2.988L47.678,10H46.96L44.631,4.258l.093,2.974V10h-.937V2.891ZM56.531,8.14H53.552L52.883,10h-.967l2.715-7.109h.82L58.171,10h-.962Zm-2.7-.767h2.417L55.041,4.048Zm7.388-.542a4.408,4.408,0,0,1-1.755-.852,1.628,1.628,0,0,1-.549-1.248,1.72,1.72,0,0,1,.671-1.389,2.668,2.668,0,0,1,1.746-.549,2.913,2.913,0,0,1,1.306.283,2.148,2.148,0,0,1,.889.781,2,2,0,0,1,.315,1.089H62.9a1.3,1.3,0,0,0-.41-1.017,1.668,1.668,0,0,0-1.157-.37,1.708,1.708,0,0,0-1.082.306,1.02,1.02,0,0,0-.388.849.918.918,0,0,0,.369.736A3.616,3.616,0,0,0,61.489,6a5.823,5.823,0,0,1,1.387.55,2.1,2.1,0,0,1,.742.7,1.788,1.788,0,0,1,.242.942,1.661,1.661,0,0,1-.674,1.384,2.873,2.873,0,0,1-1.8.52,3.342,3.342,0,0,1-1.367-.281,2.3,2.3,0,0,1-.979-.769,1.877,1.877,0,0,1-.344-1.108h.942a1.224,1.224,0,0,0,.476,1.018,2,2,0,0,0,1.272.374,1.843,1.843,0,0,0,1.138-.3.983.983,0,0,0,.4-.825.965.965,0,0,0-.366-.808A4.222,4.222,0,0,0,61.223,6.831ZM28.887,20V12.891h2.007a3.231,3.231,0,0,1,1.641.41,2.774,2.774,0,0,1,1.1,1.167,3.8,3.8,0,0,1,.393,1.738v.454a3.812,3.812,0,0,1-.388,1.763,2.731,2.731,0,0,1-1.108,1.162A3.436,3.436,0,0,1,30.854,20Zm.938-6.343v5.576h.986a2.146,2.146,0,0,0,1.687-.674,2.786,2.786,0,0,0,.6-1.921v-.415a2.831,2.831,0,0,0-.569-1.884,2.024,2.024,0,0,0-1.614-.682Zm9.639,3.057H36.382v2.52h3.579V20H35.444V12.891h4.468v.767h-3.53v2.29h3.081ZM6.758,26.86H3.774V30H2.837V22.891h4.4v.767H3.774v2.437H6.758ZM9.37,30H8.432V22.891H9.37Zm1.714,0V22.891h2.007a3.231,3.231,0,0,1,1.641.41,2.774,2.774,0,0,1,1.1,1.167,3.8,3.8,0,0,1,.393,1.738v.454a3.812,3.812,0,0,1-.388,1.763,2.731,2.731,0,0,1-1.108,1.162A3.436,3.436,0,0,1,13.052,30Zm.938-6.343v5.576h.986a2.146,2.146,0,0,0,1.687-.674,2.786,2.786,0,0,0,.6-1.921v-.415a2.831,2.831,0,0,0-.569-1.884,2.024,2.024,0,0,0-1.614-.682Zm9.639,3.057H18.579v2.52h3.579V30H17.641V22.891h4.468v.767h-3.53v2.29H21.66Zm2.607,2.52h3.369V30H23.325V22.891h.942ZM29.712,30h-.937V22.891h.938Zm2.417-.767H36.2V30H31.02v-.7l3.9-5.64H31.084v-.767H36.04v.684ZM41.4,28.14H38.423L37.754,30h-.967L39.5,22.891h.82L43.042,30H42.08Zm-2.7-.767h2.417l-1.211-3.325Zm10.469.371a2.616,2.616,0,0,1-.833,1.741,2.728,2.728,0,0,1-1.863.613,2.505,2.505,0,0,1-2.019-.9,3.634,3.634,0,0,1-.759-2.417v-.684a4.051,4.051,0,0,1,.354-1.743,2.644,2.644,0,0,1,1-1.155,2.794,2.794,0,0,1,1.5-.4,2.569,2.569,0,0,1,1.816.632,2.647,2.647,0,0,1,.8,1.75h-.942a2.043,2.043,0,0,0-.53-1.234,1.6,1.6,0,0,0-1.14-.382,1.677,1.677,0,0,0-1.409.665,3.051,3.051,0,0,0-.51,1.891V26.8a3.136,3.136,0,0,0,.483,1.842,1.562,1.562,0,0,0,1.353.684,1.8,1.8,0,0,0,1.2-.354,1.964,1.964,0,0,0,.554-1.233ZM51.46,30h-.937V22.891h.938Zm7.183-3.325a4.4,4.4,0,0,1-.352,1.824,2.663,2.663,0,0,1-1,1.189,2.749,2.749,0,0,1-4-1.179,4.22,4.22,0,0,1-.369-1.77v-.513a4.346,4.346,0,0,1,.356-1.812,2.636,2.636,0,0,1,2.5-1.621,2.756,2.756,0,0,1,1.506.413,2.658,2.658,0,0,1,1,1.2,4.419,4.419,0,0,1,.352,1.824Zm-.933-.459a3.188,3.188,0,0,0-.508-1.941,1.675,1.675,0,0,0-1.421-.676,1.657,1.657,0,0,0-1.4.676,3.122,3.122,0,0,0-.525,1.877v.522a3.192,3.192,0,0,0,.515,1.926,1.805,1.805,0,0,0,2.825.039,3.174,3.174,0,0,0,.513-1.9Zm-1.47-5.239h1.094l-1.309,1.436-.728,0ZM65.513,30H64.57l-3.579-5.479V30h-.942V22.891h.942l3.589,5.5v-5.5h.933Z" transform="translate(1181.056 17653.047)" fill="#fff"/>
    <path id="Trazado_881767" data-name="Trazado 881767" d="M13.671,6.675A4.4,4.4,0,0,1,13.32,8.5a2.663,2.663,0,0,1-1,1.189,2.741,2.741,0,0,1-1.5.41,2.652,2.652,0,0,1-2.5-1.589,4.22,4.22,0,0,1-.369-1.77V6.226A4.346,4.346,0,0,1,8.31,4.414a2.636,2.636,0,0,1,2.5-1.621,2.756,2.756,0,0,1,1.506.413,2.658,2.658,0,0,1,1,1.2,4.419,4.419,0,0,1,.352,1.824Zm-.933-.459a3.188,3.188,0,0,0-.508-1.941A1.675,1.675,0,0,0,10.81,3.6a1.657,1.657,0,0,0-1.4.676,3.122,3.122,0,0,0-.525,1.877v.522A3.192,3.192,0,0,0,9.4,8.6a1.664,1.664,0,0,0,1.418.7,1.657,1.657,0,0,0,1.406-.662,3.174,3.174,0,0,0,.513-1.9ZM19,6.86H16.015V10h-.938V2.891h4.4v.767H16.015V6.094H19Zm5.625-.146H21.542v2.52h3.579V10H20.6V2.891h4.468v.767h-3.53v2.29h3.081Zm4.272.41h-1.67V10h-.942V2.891h2.354a2.786,2.786,0,0,1,1.848.547,1.968,1.968,0,0,1,.647,1.592,1.914,1.914,0,0,1-.359,1.157,2.142,2.142,0,0,1-1,.737l1.67,3.018V10H30.439Zm-1.67-.767h1.44A1.625,1.625,0,0,0,29.777,6a1.224,1.224,0,0,0,.413-.969A1.289,1.289,0,0,0,29.8,4.014a1.664,1.664,0,0,0-1.135-.357H27.226Zm9.741-2.7H34.682V10h-.933V3.657h-2.28V2.891h5.5ZM41.562,8.14H38.583L37.915,10h-.967l2.715-7.109h.82L43.2,10h-.962Zm-2.7-.767h2.417L40.073,4.048Zm7.388-.542A4.408,4.408,0,0,1,44.5,5.979a1.628,1.628,0,0,1-.549-1.248,1.72,1.72,0,0,1,.671-1.389,2.668,2.668,0,0,1,1.746-.549,2.913,2.913,0,0,1,1.306.283,2.148,2.148,0,0,1,.889.781,2,2,0,0,1,.315,1.089h-.942a1.3,1.3,0,0,0-.41-1.017,1.668,1.668,0,0,0-1.157-.37,1.708,1.708,0,0,0-1.082.306,1.02,1.02,0,0,0-.388.849.918.918,0,0,0,.369.736A3.616,3.616,0,0,0,46.52,6a5.823,5.823,0,0,1,1.387.55,2.1,2.1,0,0,1,.742.7,1.788,1.788,0,0,1,.242.942,1.661,1.661,0,0,1-.674,1.384,2.873,2.873,0,0,1-1.8.52,3.342,3.342,0,0,1-1.367-.281,2.3,2.3,0,0,1-.979-.769,1.877,1.877,0,0,1-.344-1.108h.942a1.224,1.224,0,0,0,.476,1.018,2,2,0,0,0,1.272.374,1.843,1.843,0,0,0,1.138-.3.983.983,0,0,0,.4-.825.965.965,0,0,0-.366-.808A4.222,4.222,0,0,0,46.254,6.831ZM15.683,20V12.891H17.69a3.231,3.231,0,0,1,1.641.41,2.774,2.774,0,0,1,1.1,1.167,3.8,3.8,0,0,1,.393,1.738v.454a3.812,3.812,0,0,1-.388,1.763,2.731,2.731,0,0,1-1.108,1.162A3.436,3.436,0,0,1,17.651,20Zm.938-6.343v5.576h.986a2.146,2.146,0,0,0,1.687-.674,2.786,2.786,0,0,0,.6-1.921v-.415a2.831,2.831,0,0,0-.569-1.884,2.024,2.024,0,0,0-1.614-.682Zm9.639,3.057H23.178v2.52h3.579V20H22.241V12.891h4.468v.767h-3.53v2.29h3.081Zm8.857-3.057H32.832V20H31.9V13.657h-2.28v-.767h5.5Zm3.486,5.1,2.031-5.864H41.66L39.023,20h-.83l-2.632-7.109h1.021Z" transform="translate(968.15 17757.547)" fill="#fff"/>
  </g>
</svg>
