<svg xmlns="http://www.w3.org/2000/svg" xmlns:xlink="http://www.w3.org/1999/xlink" width="397.371" height="398.076" viewBox="0 0 397.371 398.076">
  <defs>
    <linearGradient id="linear-gradient" y1="0.5" x2="1" y2="0.5" gradientUnits="objectBoundingBox">
      <stop offset="0" stop-color="#c4c0c3"/>
      <stop offset="0.47" stop-color="#e1dfe0"/>
      <stop offset="0.96" stop-color="#fff"/>
    </linearGradient>
    <linearGradient id="linear-gradient-2" x1="0.269" y1="0.025" x2="0.756" y2="1.027" xlink:href="#linear-gradient"/>
  </defs>
  <g id="Grupo_1104235" data-name="Grupo 1104235" transform="translate(-935.711 -18176.572)">
    <path id="Trazado_132629" data-name="Trazado 132629" d="M155.772,290.363,50.385,247.49a170.813,170.813,0,0,0-8.957,35.06,28.534,28.534,0,0,0,.86,54.042,171.448,171.448,0,0,0,9.02,32.253l104.815-44.2a57.241,57.241,0,0,1-.352-34.286Z" transform="translate(923.369 18068.006)" fill="#26aab7"/>
    <path id="Trazado_132630" data-name="Trazado 132630" d="M576.874,305.155a28.54,28.54,0,0,0-19.225-26.461,171.768,171.768,0,0,0-9.355-34.834l-104.844,44.2a57.172,57.172,0,0,1,.069,34.436l105.352,42.867a171.157,171.157,0,0,0,8.691-32.715,28.534,28.534,0,0,0,19.311-27.494Z" transform="translate(745.508 18069.539)" fill="#26aab7"/>
    <path id="Trazado_132631" data-name="Trazado 132631" d="M366.447,550.152l-44.2-104.832a57.212,57.212,0,0,1-34.188.156L245.19,550.857a171.225,171.225,0,0,0,33.033,8.662,28.54,28.54,0,0,0,54.232-.156A171.716,171.716,0,0,0,366.447,550.152Z" transform="translate(829.273 17984.422)" fill="#26aab7"/>
    <path id="Trazado_132632" data-name="Trazado 132632" d="M328.69,43.816a28.534,28.534,0,0,0-53.672.468,172.307,172.307,0,0,0-33.627,9.24l44.2,104.821a57.207,57.207,0,0,1,34.534-.271l42.9-105.364a170.6,170.6,0,0,0-34.326-8.893Z" transform="translate(830.879 18161.92)" fill="#26aab7"/>
    <path id="Trazado_132633" data-name="Trazado 132633" d="M162.7,81.17a172.134,172.134,0,0,0-30.988,18.382,28.528,28.528,0,0,0-37.248,38.115,170.987,170.987,0,0,0-17.025,30.07L182.81,210.6A57.247,57.247,0,0,1,206.9,186Z" transform="translate(900.149 18138.277)" fill="#7d6eb2"/>
    <path id="Trazado_132634" data-name="Trazado 132634" d="M208.485,421.378A57.172,57.172,0,0,1,184.121,397.4L79.3,441.6a171.514,171.514,0,0,0,17.6,29.955,28.528,28.528,0,0,0,38.692,38.115,171.375,171.375,0,0,0,30.03,17.065Z" transform="translate(899.363 18004.668)" fill="#7d6eb2"/>
    <path id="Trazado_132635" data-name="Trazado 132635" d="M510.25,483.018a28.382,28.382,0,0,0-3.367-12.936,171.2,171.2,0,0,0,17.671-30.8L419.162,396.4A57.229,57.229,0,0,1,395,420.707l44.167,104.821a171.82,171.82,0,0,0,29.054-16.851,28.528,28.528,0,0,0,42.03-25.652Z" transform="translate(765.978 18005.09)" fill="#7d6eb2"/>
    <path id="Trazado_132636" data-name="Trazado 132636" d="M505.859,134.887a28.528,28.528,0,0,0-38.115-37.809A170.938,170.938,0,0,0,436.993,79.5L394.12,184.893A57.172,57.172,0,0,1,418.658,209.2L523.479,165A171.59,171.59,0,0,0,505.859,134.887Z" transform="translate(766.35 18138.982)" fill="#7d6eb2"/>
    <path id="Trazado_132637" data-name="Trazado 132637" d="M364.108,305.164a61.214,61.214,0,1,0-17.929,43.5,61.434,61.434,0,0,0,17.929-43.5Z" transform="translate(830.942 18069.594)" fill="#e8c85f"/>
    <path id="Trazado_881775" data-name="Trazado 881775" d="M55.232,0A55.232,55.232,0,1,1,0,55.232,55.232,55.232,0,0,1,55.232,0Z" transform="translate(1056.292 18375.609) rotate(-45)" fill="url(#linear-gradient)"/>
    <path id="Trazado_881778" data-name="Trazado 881778" d="M51.154,0A51.154,51.154,0,1,1,0,51.154,51.154,51.154,0,0,1,51.154,0Z" transform="translate(1062.058 18375.609) rotate(-45)" fill="url(#linear-gradient-2)"/>
    <path id="Trazado_132638" data-name="Trazado 132638" d="M274.195,349.512a3.962,3.962,0,0,1-1.265,2.645,4.129,4.129,0,0,1-2.824.93,3.805,3.805,0,0,1-3.066-1.369,5.527,5.527,0,0,1-1.155-3.673v-1.034a6.174,6.174,0,0,1,.537-2.651,4.042,4.042,0,0,1,1.519-1.732,4.233,4.233,0,0,1,2.31-.612,3.892,3.892,0,0,1,2.755.959,4,4,0,0,1,1.207,2.656h-1.426a3.1,3.1,0,0,0-.808-1.871,2.42,2.42,0,0,0-1.733-.577,2.564,2.564,0,0,0-2.143,1.011,4.649,4.649,0,0,0-.774,2.887v1.045a4.805,4.805,0,0,0,.733,2.8,2.379,2.379,0,0,0,2.056,1.039,2.738,2.738,0,0,0,1.819-.537,3,3,0,0,0,.843-1.877Z" transform="translate(820.533 18028.068)" fill="#786ead"/>
    <path id="Trazado_132639" data-name="Trazado 132639" d="M291.661,347.884a6.761,6.761,0,0,1-.531,2.772,4.043,4.043,0,0,1-1.513,1.8,4.164,4.164,0,0,1-6.041-1.8,6.422,6.422,0,0,1-.578-2.685v-.78a6.561,6.561,0,0,1,.543-2.749A4.008,4.008,0,0,1,287.33,342a4.146,4.146,0,0,1,2.31.63,4.042,4.042,0,0,1,1.525,1.813,6.75,6.75,0,0,1,.5,2.755Zm-1.415-.693a4.856,4.856,0,0,0-.768-2.951,2.553,2.553,0,0,0-2.16-1.022,2.524,2.524,0,0,0-2.125,1.022,4.793,4.793,0,0,0-.8,2.853v.791a4.869,4.869,0,0,0,.785,2.928,2.737,2.737,0,0,0,4.285.058,4.81,4.81,0,0,0,.78-2.887Z" transform="translate(813.3 18028.076)" fill="#786ead"/>
    <path id="Trazado_132640" data-name="Trazado 132640" d="M310.013,353.038h-1.432l-5.428-8.316v8.316H301.72V342.25h1.432L308.6,350.6V342.25h1.415Z" transform="translate(805.39 18027.969)" fill="#786ead"/>
    <path id="Trazado_132641" data-name="Trazado 132641" d="M323.211,348.114a6.67,6.67,0,0,1-2.662-1.288,2.478,2.478,0,0,1-.832-1.894,2.61,2.61,0,0,1,1.016-2.114,4.042,4.042,0,0,1,2.651-.832,4.458,4.458,0,0,1,1.981.427,3.28,3.28,0,0,1,1.351,1.19,3.044,3.044,0,0,1,.479,1.652h-1.432a1.975,1.975,0,0,0-.647-1.53,2.523,2.523,0,0,0-1.732-.577,2.593,2.593,0,0,0-1.646.468,1.553,1.553,0,0,0-.578,1.288,1.386,1.386,0,0,0,.578,1.115,5.525,5.525,0,0,0,1.906.837,8.794,8.794,0,0,1,2.108.837,3.234,3.234,0,0,1,1.126,1.063,2.738,2.738,0,0,1,.364,1.432,2.518,2.518,0,0,1-1.022,2.1,4.325,4.325,0,0,1-2.732.791,5.093,5.093,0,0,1-2.079-.427,3.465,3.465,0,0,1-1.484-1.155,2.888,2.888,0,0,1-.526-1.681h1.432a1.854,1.854,0,0,0,.722,1.542,3.038,3.038,0,0,0,1.935.577,2.806,2.806,0,0,0,1.732-.462,1.5,1.5,0,0,0,.578-1.253,1.455,1.455,0,0,0-.577-1.224A6.389,6.389,0,0,0,323.211,348.114Z" transform="translate(797.919 18028.082)" fill="#786ead"/>
    <path id="Trazado_132642" data-name="Trazado 132642" d="M343.491,342.25v7.363a3.465,3.465,0,0,1-.959,2.5,3.893,3.893,0,0,1-2.587,1.091h-.375a4.043,4.043,0,0,1-2.824-.953,3.43,3.43,0,0,1-1.068-2.633V342.25h1.409v7.305a2.252,2.252,0,0,0,2.483,2.472,2.507,2.507,0,0,0,1.848-.647,2.472,2.472,0,0,0,.641-1.819V342.25Z" transform="translate(791.043 18027.969)" fill="#786ead"/>
    <path id="Trazado_132643" data-name="Trazado 132643" d="M354.936,342.25l3.528,8.8,3.529-8.8h1.842v10.788h-1.421v-4.2l.133-4.539-3.54,8.738h-1.091l-3.534-8.714.139,4.516v4.2H353.1V342.25Z" transform="translate(783.681 18027.969)" fill="#786ead"/>
    <path id="Trazado_132644" data-name="Trazado 132644" d="M377.646,353.038H376.22V342.25h1.426Z" transform="translate(773.913 18027.969)" fill="#786ead"/>
    <path id="Trazado_132645" data-name="Trazado 132645" d="M383.19,353.037V342.249h3.049a4.955,4.955,0,0,1,2.489.618,4.245,4.245,0,0,1,1.675,1.773,5.774,5.774,0,0,1,.577,2.639v.693a5.775,5.775,0,0,1-.577,2.674,4.106,4.106,0,0,1-1.686,1.732,5.163,5.163,0,0,1-2.541.629Zm1.426-9.627v8.466h1.5a3.268,3.268,0,0,0,2.564-1.022,4.262,4.262,0,0,0,.912-2.887V347.3a4.3,4.3,0,0,0-.866-2.887,3.084,3.084,0,0,0-2.449-1.034Z" transform="translate(770.968 18027.969)" fill="#786ead"/>
    <path id="Trazado_132646" data-name="Trazado 132646" d="M408.446,347.876a6.672,6.672,0,0,1-.537,2.772,4.043,4.043,0,0,1-1.513,1.8,4.164,4.164,0,0,1-6.07-1.79,6.353,6.353,0,0,1-.577-2.685v-.785a6.653,6.653,0,0,1,.537-2.749,4.25,4.25,0,0,1,6.081-1.831,3.984,3.984,0,0,1,1.525,1.813,6.658,6.658,0,0,1,.537,2.766Zm-1.421-.693a4.856,4.856,0,0,0-.768-2.951,2.547,2.547,0,0,0-2.154-1.022,2.518,2.518,0,0,0-2.125,1.022,4.718,4.718,0,0,0-.8,2.853v.791a4.868,4.868,0,0,0,.78,2.928,2.743,2.743,0,0,0,4.291.058,4.81,4.81,0,0,0,.774-2.887Z" transform="translate(763.972 18028.082)" fill="#786ead"/>
    <path id="Trazado_132647" data-name="Trazado 132647" d="M422.47,348.665h-2.518v4.366H418.52V342.244h3.575a4.267,4.267,0,0,1,2.807.826,3,3,0,0,1,.982,2.42,2.888,2.888,0,0,1-.549,1.732,3.275,3.275,0,0,1-1.513,1.12l2.535,4.58v.087h-1.53Zm-2.535-1.155h2.183a2.472,2.472,0,0,0,1.686-.549,1.854,1.854,0,0,0,.629-1.473,1.952,1.952,0,0,0-.577-1.536,2.506,2.506,0,0,0-1.733-.543h-2.171Z" transform="translate(756.041 18027.975)" fill="#786ead"/>
    <path id="Trazado_132648" data-name="Trazado 132648" d="M402.284,208.134q.035-3.569-.046-7.132c-.035-1.571-.081-3.142-.156-4.712-.04-.878-.1-1.732-.156-2.633-.116-1.923-.254-3.846-.427-5.775-.046-.474-.081-.947-.127-1.421A198.589,198.589,0,0,0,370.66,98.006C311.351,5.884,188.172-20.814,96.027,38.524A198.551,198.551,0,0,0,5.158,196.752c-5.2,107.264,76.46,199.94,184.14,207.73C298.571,412.371,393.91,329.91,401.81,220.643c.271-3.765.4-7.507.468-11.267C402.284,208.954,402.284,208.544,402.284,208.134ZM203.833,375.527a168.473,168.473,0,0,1-101.541-33.778,13.956,13.956,0,0,0-2.379-2.362,167.826,167.826,0,0,1-35.8-38.034C34.148,257.66,27.594,204.1,41.927,156.4a169.275,169.275,0,0,1,80.087-98.37,14.091,14.091,0,0,0,3.217-2.437c76.662-40.119,172.925-15.708,220.643,58.385a169.12,169.12,0,0,1,20.692,46.061,12.974,12.974,0,0,0,.323,1.536,167.286,167.286,0,0,1,5.5,31.889c.052.745.081,1.5.127,2.241.063,1.068.127,2.143.167,3.211.058,1.386.092,2.766.116,4.152V204a169.3,169.3,0,0,1-14.922,71.113,14.38,14.38,0,0,0-.641,1.767C330.27,335.033,271.267,375.567,203.833,375.527Z" transform="translate(930.788 18169.645)" fill="#6a5d99"/>
    <path id="Trazado_132649" data-name="Trazado 132649" d="M394.339,223.349q-.04-2.01-.127-4.014c-.04-.751-.092-1.5-.139-2.246q-.15-2.46-.364-4.909c-.035-.4-.069-.8-.11-1.207a169.074,169.074,0,0,0-26.155-75.334C316.937,57.187,212.012,34.451,133.56,84.964a169.161,169.161,0,0,0-77.4,134.764C51.74,311.077,121.282,390,212.982,396.638c93.057,6.734,174.259-63.507,180.987-156.576.237-3.205.346-6.4.4-9.592v-1.051C394.4,227.392,394.4,225.365,394.339,223.349ZM116.044,302.195a132,132,0,0,1,45.3-190.342,11.071,11.071,0,0,0,2.518-1.906c59.961-31.387,135.278-12.312,172.6,45.68a132.331,132.331,0,0,1,16.17,36.036,11.139,11.139,0,0,0,.254,1.2,130.449,130.449,0,0,1,4.3,24.948c.04.577.069,1.155.1,1.732.052.837.1,1.675.133,2.512.04,1.08.069,2.166.087,3.246v.733a132.506,132.506,0,0,1-11.625,55.63,10.734,10.734,0,0,0-.5,1.38c-21.107,45.5-67.261,77.2-120.015,77.171a131.8,131.8,0,0,1-79.434-26.426,11.232,11.232,0,0,0-1.86-1.842,131.414,131.414,0,0,1-28.032-29.753Z" transform="translate(909.223 18148.035)" fill="#aee6e6"/>
    <path id="Trazado_881781" data-name="Trazado 881781" d="M5.12,10H4.183V2.891H5.12ZM12.3,10h-.942L7.776,4.521V10H6.834V2.891h.942l3.589,5.5v-5.5H12.3Zm6.436-6.343H16.448V10h-.933V3.657h-2.28V2.891h5.5Zm5.073,3.057H20.726v2.52H24.3V10H19.788V2.891h4.468v.767h-3.53v2.29h3.081Zm4.272.41h-1.67V10h-.942V2.891H27.82a2.786,2.786,0,0,1,1.848.547,1.968,1.968,0,0,1,.647,1.592,1.914,1.914,0,0,1-.359,1.157,2.142,2.142,0,0,1-1,.737l1.67,3.018V10H29.622Zm-1.67-.767h1.44A1.625,1.625,0,0,0,28.96,6a1.224,1.224,0,0,0,.413-.969,1.289,1.289,0,0,0-.393-1.013,1.664,1.664,0,0,0-1.135-.357H26.409ZM35.555,8.14H32.576L31.907,10H30.94l2.715-7.109h.82L37.2,10h-.962Zm-2.7-.767h2.417L34.065,4.048Zm10.469.371A2.616,2.616,0,0,1,42.5,9.485a2.728,2.728,0,0,1-1.863.613,2.505,2.505,0,0,1-2.019-.9,3.634,3.634,0,0,1-.759-2.417V6.094a4.051,4.051,0,0,1,.354-1.743,2.644,2.644,0,0,1,1-1.155,2.794,2.794,0,0,1,1.5-.4,2.569,2.569,0,0,1,1.816.632,2.647,2.647,0,0,1,.8,1.75h-.942a2.043,2.043,0,0,0-.53-1.234,1.6,1.6,0,0,0-1.14-.382,1.677,1.677,0,0,0-1.409.665,3.051,3.051,0,0,0-.51,1.891V6.8a3.136,3.136,0,0,0,.483,1.842,1.562,1.562,0,0,0,1.353.684,1.8,1.8,0,0,0,1.2-.354,1.964,1.964,0,0,0,.554-1.233Zm6.509,0A2.616,2.616,0,0,1,49,9.485a2.728,2.728,0,0,1-1.863.613,2.505,2.505,0,0,1-2.019-.9,3.634,3.634,0,0,1-.759-2.417V6.094a4.051,4.051,0,0,1,.354-1.743,2.644,2.644,0,0,1,1-1.155,2.794,2.794,0,0,1,1.5-.4,2.569,2.569,0,0,1,1.816.632,2.647,2.647,0,0,1,.8,1.75h-.942a2.043,2.043,0,0,0-.53-1.234,1.6,1.6,0,0,0-1.14-.382,1.677,1.677,0,0,0-1.409.665,3.051,3.051,0,0,0-.51,1.891V6.8a3.136,3.136,0,0,0,.483,1.842,1.562,1.562,0,0,0,1.353.684,1.8,1.8,0,0,0,1.2-.354,1.964,1.964,0,0,0,.554-1.233ZM52.122,10h-.937V2.891h.938ZM59.3,6.675A4.4,4.4,0,0,1,58.953,8.5a2.663,2.663,0,0,1-1,1.189,2.749,2.749,0,0,1-4-1.179,4.22,4.22,0,0,1-.369-1.77V6.226a4.346,4.346,0,0,1,.356-1.812,2.636,2.636,0,0,1,2.5-1.621,2.756,2.756,0,0,1,1.506.413,2.658,2.658,0,0,1,1,1.2A4.419,4.419,0,0,1,59.3,6.226Zm-.933-.459a3.188,3.188,0,0,0-.508-1.941A1.675,1.675,0,0,0,56.443,3.6a1.657,1.657,0,0,0-1.4.676,3.122,3.122,0,0,0-.525,1.877v.522A3.192,3.192,0,0,0,55.035,8.6a1.805,1.805,0,0,0,2.825.039,3.174,3.174,0,0,0,.513-1.9ZM56.9.977H58L56.688,2.412l-.728,0ZM66.175,10h-.942L61.653,4.521V10h-.942V2.891h.942l3.589,5.5v-5.5h.933ZM18.855,18.755l2.031-5.864h1.025L19.275,20h-.83l-2.632-7.109h1.021ZM23.87,20h-.937V12.891h.938ZM29.6,18.14H26.619L25.95,20h-.967L27.7,12.891h.82L31.238,20h-.962Zm-2.7-.767h2.417l-1.211-3.325Zm9.3.386.137.938.2-.845,1.406-4.961h.791l1.372,4.961.2.859.151-.957,1.1-4.863H42.5L40.779,20h-.854L38.46,14.819l-.112-.542-.112.542L36.717,20h-.854l-1.719-7.109h.938Zm11.357-1.045H44.48v2.52H48.06V20H43.543V12.891h4.468v.767H44.48v2.29h3.081ZM49.227,20V12.891h2.324a2.7,2.7,0,0,1,1.741.479,1.725,1.725,0,0,1,.583,1.416,1.444,1.444,0,0,1-.283.881,1.836,1.836,0,0,1-.771.593,1.649,1.649,0,0,1,.911.613,1.759,1.759,0,0,1,.334,1.077,1.9,1.9,0,0,1-.62,1.5A2.564,2.564,0,0,1,51.692,20Zm.938-3.325v2.559h1.548a1.49,1.49,0,0,0,1.033-.339,1.192,1.192,0,0,0,.378-.935q0-1.284-1.4-1.284Zm0-.752H51.58a1.484,1.484,0,0,0,.984-.308,1.033,1.033,0,0,0,.369-.837,1.016,1.016,0,0,0-.342-.854,1.678,1.678,0,0,0-1.04-.267H50.164Z" transform="translate(1026.73 18302.162)" fill="#fff"/>
    <path id="Trazado_881779" data-name="Trazado 881779" d="M25.4,7.217V10h-.937V2.891h2.622a2.634,2.634,0,0,1,1.829.6,2.02,2.02,0,0,1,.662,1.577,1.993,1.993,0,0,1-.647,1.594,2.752,2.752,0,0,1-1.853.559Zm0-.767h1.685A1.684,1.684,0,0,0,28.24,6.1a1.3,1.3,0,0,0,.4-1.025,1.34,1.34,0,0,0-.4-1.017,1.578,1.578,0,0,0-1.1-.4H25.4ZM29.07,9.526a.566.566,0,0,1,.139-.391.53.53,0,0,1,.417-.156.546.546,0,0,1,.422.156.554.554,0,0,1,.144.391.524.524,0,0,1-.144.376.556.556,0,0,1-.422.151.5.5,0,0,1-.557-.527Zm8.184-2.852a4.391,4.391,0,0,1-.327,1.775,2.743,2.743,0,0,1-.918,1.165l1.27,1-.64.591-1.5-1.191a3.05,3.05,0,0,1-.742.088,2.652,2.652,0,0,1-2.5-1.589,4.22,4.22,0,0,1-.369-1.77V6.226a4.346,4.346,0,0,1,.356-1.812,2.636,2.636,0,0,1,2.5-1.621,2.753,2.753,0,0,1,1.511.415,2.677,2.677,0,0,1,1,1.194,4.385,4.385,0,0,1,.352,1.819Zm-.937-.459a3.226,3.226,0,0,0-.5-1.936,1.806,1.806,0,0,0-2.822,0,3.122,3.122,0,0,0-.525,1.877v.522a3.217,3.217,0,0,0,.51,1.924A1.8,1.8,0,0,0,35.8,8.64a3.174,3.174,0,0,0,.513-1.9Zm2.261,3.311a.566.566,0,0,1,.139-.391.53.53,0,0,1,.417-.156.546.546,0,0,1,.422.156.554.554,0,0,1,.144.391.524.524,0,0,1-.144.376.556.556,0,0,1-.422.151.5.5,0,0,1-.557-.527Zm5.361-2.4h-1.67V10h-.942V2.891H43.68a2.786,2.786,0,0,1,1.848.547,1.968,1.968,0,0,1,.647,1.592,1.914,1.914,0,0,1-.359,1.157,2.142,2.142,0,0,1-1,.737l1.67,3.018V10H45.481Zm-1.67-.767h1.44A1.625,1.625,0,0,0,44.82,6a1.224,1.224,0,0,0,.413-.969,1.289,1.289,0,0,0-.393-1.013A1.664,1.664,0,0,0,43.7,3.657H42.269Z" transform="translate(1099.964 18276.775)" fill="#fff"/>
    <path id="Trazado_881780" data-name="Trazado 881780" d="M12.46,6.714H9.379v2.52h3.579V10H8.441V2.891h4.468v.767H9.379v2.29H12.46Zm4.019,2.041L18.51,2.891h1.025L16.9,10h-.83L13.436,2.891h1.021Zm8.027-2.041H21.425v2.52H25V10H20.487V2.891h4.468v.767h-3.53v2.29h3.081ZM31.635,10h-.942L27.113,4.521V10h-.942V2.891h.942l3.589,5.5v-5.5h.933ZM38.07,3.657H35.785V10h-.933V3.657h-2.28V2.891h5.5Zm6.387,3.018A4.4,4.4,0,0,1,44.105,8.5a2.663,2.663,0,0,1-1,1.189,2.749,2.749,0,0,1-4-1.179,4.22,4.22,0,0,1-.369-1.77V6.226A4.346,4.346,0,0,1,39.1,4.414a2.636,2.636,0,0,1,2.5-1.621,2.756,2.756,0,0,1,1.506.413,2.658,2.658,0,0,1,1,1.2,4.419,4.419,0,0,1,.352,1.824Zm-.933-.459a3.188,3.188,0,0,0-.508-1.941A1.675,1.675,0,0,0,41.6,3.6a1.657,1.657,0,0,0-1.4.676,3.122,3.122,0,0,0-.525,1.877v.522A3.192,3.192,0,0,0,40.187,8.6a1.805,1.805,0,0,0,2.825.039,3.174,3.174,0,0,0,.513-1.9Zm4.434.615A4.408,4.408,0,0,1,46.2,5.979a1.628,1.628,0,0,1-.549-1.248,1.72,1.72,0,0,1,.671-1.389,2.668,2.668,0,0,1,1.746-.549,2.913,2.913,0,0,1,1.306.283,2.148,2.148,0,0,1,.889.781,2,2,0,0,1,.315,1.089h-.942a1.3,1.3,0,0,0-.41-1.017,1.668,1.668,0,0,0-1.157-.37,1.708,1.708,0,0,0-1.082.306,1.02,1.02,0,0,0-.388.849.918.918,0,0,0,.369.736A3.616,3.616,0,0,0,48.224,6a5.823,5.823,0,0,1,1.387.55,2.1,2.1,0,0,1,.742.7,1.788,1.788,0,0,1,.242.942,1.661,1.661,0,0,1-.674,1.384,2.873,2.873,0,0,1-1.8.52,3.342,3.342,0,0,1-1.367-.281,2.3,2.3,0,0,1-.979-.769,1.877,1.877,0,0,1-.344-1.108h.942a1.224,1.224,0,0,0,.476,1.018,2,2,0,0,0,1.272.374,1.843,1.843,0,0,0,1.138-.3.983.983,0,0,0,.4-.825.965.965,0,0,0-.366-.808A4.222,4.222,0,0,0,47.958,6.831ZM17.723,16.86H14.74V20H13.8V12.891h4.4v.767H14.74v2.437h2.983Zm5.625-.146H20.267v2.52h3.579V20H19.33V12.891H23.8v.767h-3.53v2.29h3.081Zm4.272.41h-1.67V20h-.942V12.891h2.354a2.786,2.786,0,0,1,1.848.547,1.968,1.968,0,0,1,.647,1.592,1.914,1.914,0,0,1-.359,1.157,2.142,2.142,0,0,1-1,.737l1.67,3.018V20H29.164Zm-1.67-.767h1.44A1.625,1.625,0,0,0,28.5,16a1.224,1.224,0,0,0,.413-.969,1.289,1.289,0,0,0-.393-1.013,1.664,1.664,0,0,0-1.135-.357H25.951ZM32.177,20h-.937V12.891h.937ZM37.9,18.14H34.926L34.257,20H33.29L36,12.891h.82L39.545,20h-.962Zm-2.7-.767h2.417l-1.211-3.325Zm7.388-.542a4.408,4.408,0,0,1-1.755-.852,1.628,1.628,0,0,1-.549-1.248,1.72,1.72,0,0,1,.671-1.389,2.668,2.668,0,0,1,1.746-.549,2.913,2.913,0,0,1,1.306.283,2.148,2.148,0,0,1,.889.781,2,2,0,0,1,.315,1.089h-.942a1.3,1.3,0,0,0-.41-1.017,1.668,1.668,0,0,0-1.157-.37,1.708,1.708,0,0,0-1.082.306,1.02,1.02,0,0,0-.388.849.918.918,0,0,0,.369.736,3.616,3.616,0,0,0,1.255.55,5.823,5.823,0,0,1,1.387.55,2.1,2.1,0,0,1,.742.7,1.788,1.788,0,0,1,.242.942,1.661,1.661,0,0,1-.674,1.384,2.873,2.873,0,0,1-1.8.52,3.342,3.342,0,0,1-1.367-.281,2.3,2.3,0,0,1-.979-.769,1.877,1.877,0,0,1-.344-1.108h.942a1.224,1.224,0,0,0,.476,1.018,2,2,0,0,0,1.272.374,1.843,1.843,0,0,0,1.138-.3.983.983,0,0,0,.4-.825.965.965,0,0,0-.366-.808A4.222,4.222,0,0,0,42.6,16.831Z" transform="translate(1105.822 18460.346)" fill="#fff"/>
    <path id="Trazado_881783" data-name="Trazado 881783" d="M9.124,7.744a2.616,2.616,0,0,1-.833,1.741,2.728,2.728,0,0,1-1.863.613,2.505,2.505,0,0,1-2.019-.9,3.634,3.634,0,0,1-.759-2.417V6.094A4.051,4.051,0,0,1,4,4.351a2.644,2.644,0,0,1,1-1.155,2.794,2.794,0,0,1,1.5-.4,2.569,2.569,0,0,1,1.816.632,2.647,2.647,0,0,1,.8,1.75H8.182a2.043,2.043,0,0,0-.53-1.234,1.6,1.6,0,0,0-1.14-.382A1.677,1.677,0,0,0,5.1,4.224a3.051,3.051,0,0,0-.51,1.891V6.8a3.136,3.136,0,0,0,.483,1.842,1.562,1.562,0,0,0,1.353.684,1.8,1.8,0,0,0,1.2-.354,1.964,1.964,0,0,0,.554-1.233Zm6.748-1.069A4.4,4.4,0,0,1,15.521,8.5a2.663,2.663,0,0,1-1,1.189,2.749,2.749,0,0,1-4-1.179,4.22,4.22,0,0,1-.369-1.77V6.226a4.346,4.346,0,0,1,.356-1.812,2.636,2.636,0,0,1,2.5-1.621,2.756,2.756,0,0,1,1.506.413,2.658,2.658,0,0,1,1,1.2,4.419,4.419,0,0,1,.352,1.824Zm-.933-.459a3.188,3.188,0,0,0-.508-1.941A1.675,1.675,0,0,0,13.011,3.6a1.657,1.657,0,0,0-1.4.676,3.122,3.122,0,0,0-.525,1.877v.522A3.192,3.192,0,0,0,11.6,8.6a1.664,1.664,0,0,0,1.418.7,1.657,1.657,0,0,0,1.406-.662,3.174,3.174,0,0,0,.513-1.9ZM22.742,10H21.8L18.221,4.521V10h-.942V2.891h.942l3.589,5.5v-5.5h.933Zm6.436-6.343H26.893V10H25.96V3.657H23.68V2.891h5.5Zm5.073,3.057H31.17v2.52h3.579V10H30.233V2.891H34.7v.767H31.17v2.29h3.081ZM41.38,10h-.942L36.859,4.521V10h-.942V2.891h.942l3.589,5.5v-5.5h.933Zm2.671,0h-.937V2.891h.938Zm1.714,0V2.891h2.007a3.231,3.231,0,0,1,1.641.41,2.774,2.774,0,0,1,1.1,1.167,3.8,3.8,0,0,1,.393,1.738V6.66a3.812,3.812,0,0,1-.388,1.763A2.731,2.731,0,0,1,49.41,9.585,3.436,3.436,0,0,1,47.733,10ZM46.7,3.657V9.233h.986a2.146,2.146,0,0,0,1.687-.674,2.786,2.786,0,0,0,.6-1.921V6.223a2.831,2.831,0,0,0-.569-1.884A2.024,2.024,0,0,0,47.8,3.657ZM57.791,6.675A4.4,4.4,0,0,1,57.44,8.5a2.663,2.663,0,0,1-1,1.189,2.749,2.749,0,0,1-4-1.179,4.22,4.22,0,0,1-.369-1.77V6.226a4.346,4.346,0,0,1,.356-1.812,2.636,2.636,0,0,1,2.5-1.621,2.756,2.756,0,0,1,1.506.413,2.658,2.658,0,0,1,1,1.2,4.419,4.419,0,0,1,.352,1.824Zm-.933-.459a3.188,3.188,0,0,0-.508-1.941A1.675,1.675,0,0,0,54.93,3.6a1.657,1.657,0,0,0-1.4.676,3.122,3.122,0,0,0-.525,1.877v.522A3.192,3.192,0,0,0,53.521,8.6a1.805,1.805,0,0,0,2.825.039,3.174,3.174,0,0,0,.513-1.9Zm4.434.615a4.408,4.408,0,0,1-1.755-.852,1.628,1.628,0,0,1-.549-1.248,1.72,1.72,0,0,1,.671-1.389A2.668,2.668,0,0,1,61.4,2.793a2.913,2.913,0,0,1,1.306.283,2.148,2.148,0,0,1,.889.781,2,2,0,0,1,.315,1.089h-.942a1.3,1.3,0,0,0-.41-1.017A1.668,1.668,0,0,0,61.4,3.56a1.708,1.708,0,0,0-1.082.306,1.02,1.02,0,0,0-.388.849.918.918,0,0,0,.369.736A3.616,3.616,0,0,0,61.558,6a5.823,5.823,0,0,1,1.387.55,2.1,2.1,0,0,1,.742.7,1.788,1.788,0,0,1,.242.942,1.661,1.661,0,0,1-.674,1.384,2.873,2.873,0,0,1-1.8.52,3.342,3.342,0,0,1-1.367-.281,2.3,2.3,0,0,1-.979-.769,1.877,1.877,0,0,1-.344-1.108h.942a1.224,1.224,0,0,0,.476,1.018,2,2,0,0,0,1.272.374,1.843,1.843,0,0,0,1.138-.3.983.983,0,0,0,.4-.825A.965.965,0,0,0,62.62,7.4,4.222,4.222,0,0,0,61.292,6.831ZM12.322,20h-.937V12.891h.938ZM19.5,20h-.942l-3.579-5.479V20h-.942V12.891h.942l3.589,5.5v-5.5H19.5Zm6.436-6.343H23.651V20h-.933V13.657h-2.28v-.767h5.5Zm5.073,3.057H27.928v2.52h3.579V20H26.99V12.891h4.468v.767h-3.53v2.29h3.081Zm4.272.41h-1.67V20h-.942V12.891h2.354a2.786,2.786,0,0,1,1.848.547,1.968,1.968,0,0,1,.647,1.592,1.914,1.914,0,0,1-.359,1.157,2.142,2.142,0,0,1-1,.737l1.67,3.018V20H36.824Zm-1.67-.767h1.44A1.625,1.625,0,0,0,36.163,16a1.224,1.224,0,0,0,.413-.969,1.289,1.289,0,0,0-.393-1.013,1.664,1.664,0,0,0-1.135-.357H33.612ZM44.3,20h-.942l-3.579-5.479V20h-.942V12.891h.942l3.589,5.5v-5.5H44.3Zm5.684-3.286H46.9v2.52h3.579V20H45.96V12.891h4.468v.767H46.9v2.29h3.081Zm6.675-3.057H54.368V20h-.933V13.657h-2.28v-.767h5.5Z" transform="translate(1003.296 18363.678)" fill="#fff"/>
    <path id="Trazado_881776" data-name="Trazado 881776" d="M10.5,8.169q.107-.781-.811-1.143l-.845-.308L8.561,6.6Q7.135,5.947,7.228,4.771a1.91,1.91,0,0,1,.405-1.045,2.306,2.306,0,0,1,.945-.7A3.031,3.031,0,0,1,9.83,2.793a2.5,2.5,0,0,1,1.15.288,1.852,1.852,0,0,1,.769.764,2.083,2.083,0,0,1,.234,1.106l-.923,0a1.273,1.273,0,0,0-.293-1.017,1.312,1.312,0,0,0-.977-.37,1.819,1.819,0,0,0-1.118.313,1.222,1.222,0,0,0-.518.881q-.1.729.894,1.106l.728.259.366.156a1.838,1.838,0,0,1,1.274,1.885A1.883,1.883,0,0,1,11.012,9.2a2.266,2.266,0,0,1-.955.676,3.291,3.291,0,0,1-1.3.225,2.712,2.712,0,0,1-1.223-.286A2,2,0,0,1,6.7,9.043a1.924,1.924,0,0,1-.254-1.108l.918,0A1.209,1.209,0,0,0,7.7,8.948a1.549,1.549,0,0,0,1.1.383,1.957,1.957,0,0,0,1.167-.308A1.2,1.2,0,0,0,10.5,8.169Zm3.213-.952L13.229,10h-.918l1.235-7.109,2.373,0a2.32,2.32,0,0,1,1.694.583,1.836,1.836,0,0,1,.513,1.55,2.213,2.213,0,0,1-.813,1.606,2.949,2.949,0,0,1-1.912.586Zm.132-.767,1.582,0a1.924,1.924,0,0,0,1.226-.376,1.5,1.5,0,0,0,.562-1.045,1.179,1.179,0,0,0-.249-.974,1.253,1.253,0,0,0-.952-.393l-1.685,0ZM21.085,10.1a2.276,2.276,0,0,1-1.179-.327,2.119,2.119,0,0,1-.789-.92A3.467,3.467,0,0,1,18.8,7.485a6.482,6.482,0,0,1,.132-1.46,5.007,5.007,0,0,1,.557-1.567,3.532,3.532,0,0,1,.962-1.118A2.769,2.769,0,0,1,22.2,2.793a2.1,2.1,0,0,1,1.641.72,3,3,0,0,1,.645,1.9,6.984,6.984,0,0,1-.1,1.3,5.4,5.4,0,0,1-.444,1.47,3.668,3.668,0,0,1-.813,1.138A2.8,2.8,0,0,1,21.085,10.1Zm2.5-4.463a2.464,2.464,0,0,0-.337-1.492,1.283,1.283,0,0,0-1.089-.549,1.852,1.852,0,0,0-1.169.352,2.662,2.662,0,0,0-.845,1.111,5.724,5.724,0,0,0-.417,1.873l-.015.317a2.485,2.485,0,0,0,.342,1.5,1.272,1.272,0,0,0,1.079.562A1.881,1.881,0,0,0,22.66,8.64,3.785,3.785,0,0,0,23.468,6.7,8.746,8.746,0,0,0,23.58,5.635ZM30.5,10h-.889L27.077,4.482,26.12,10H25.2l1.235-7.109h.889l2.544,5.542.962-5.542h.913Zm5.649-1.831q.107-.781-.811-1.143L34.5,6.719,34.215,6.6q-1.426-.649-1.333-1.826a1.91,1.91,0,0,1,.405-1.045,2.306,2.306,0,0,1,.945-.7,3.031,3.031,0,0,1,1.252-.232,2.5,2.5,0,0,1,1.15.288,1.852,1.852,0,0,1,.769.764,2.083,2.083,0,0,1,.234,1.106l-.923,0a1.273,1.273,0,0,0-.293-1.017,1.312,1.312,0,0,0-.977-.37,1.819,1.819,0,0,0-1.118.313,1.222,1.222,0,0,0-.518.881q-.1.729.894,1.106l.728.259.366.156a1.838,1.838,0,0,1,1.274,1.885A1.883,1.883,0,0,1,36.666,9.2a2.266,2.266,0,0,1-.955.676,3.291,3.291,0,0,1-1.3.225,2.712,2.712,0,0,1-1.223-.286,2,2,0,0,1-.842-.769A1.924,1.924,0,0,1,32.1,7.935l.918,0a1.209,1.209,0,0,0,.344,1.008,1.549,1.549,0,0,0,1.1.383,1.957,1.957,0,0,0,1.167-.308A1.2,1.2,0,0,0,36.154,8.169ZM40.573,10.1a2.276,2.276,0,0,1-1.179-.327,2.119,2.119,0,0,1-.789-.92,3.467,3.467,0,0,1-.317-1.365,6.482,6.482,0,0,1,.132-1.46,5.007,5.007,0,0,1,.557-1.567,3.532,3.532,0,0,1,.962-1.118,2.769,2.769,0,0,1,1.748-.547,2.1,2.1,0,0,1,1.641.72,3,3,0,0,1,.645,1.9,6.985,6.985,0,0,1-.1,1.3,5.4,5.4,0,0,1-.444,1.47,3.668,3.668,0,0,1-.813,1.138A2.8,2.8,0,0,1,40.573,10.1Zm2.5-4.463a2.464,2.464,0,0,0-.337-1.492,1.283,1.283,0,0,0-1.089-.549,1.852,1.852,0,0,0-1.169.352,2.661,2.661,0,0,0-.845,1.111,5.724,5.724,0,0,0-.417,1.873l-.015.317a2.485,2.485,0,0,0,.342,1.5,1.272,1.272,0,0,0,1.079.562,1.881,1.881,0,0,0,1.531-.667A3.785,3.785,0,0,0,42.955,6.7,8.745,8.745,0,0,0,43.068,5.635Zm4.673,1.494H46.1L45.6,10h-.923l1.235-7.109,2.139,0a2.384,2.384,0,0,1,1.7.567,1.769,1.769,0,0,1,.493,1.53,2.025,2.025,0,0,1-.486,1.178,2.654,2.654,0,0,1-1.15.767l1.1,3,0,.063h-.977Zm-1.509-.771,1.348,0a1.882,1.882,0,0,0,1.187-.374,1.454,1.454,0,0,0,.566-1,1.148,1.148,0,0,0-.244-.957,1.3,1.3,0,0,0-.967-.366l-1.421,0Z" transform="translate(1177.103 18302.162)" fill="#fff"/>
    <path id="Trazado_881774" data-name="Trazado 881774" d="M14.105,6.714H11.024v2.52H14.6V10H10.087V2.891h4.468v.767h-3.53v2.29h3.081ZM21.234,10h-.942L16.713,4.521V10H15.77V2.891h.942l3.589,5.5v-5.5h.933ZM27.67,3.657H25.385V10h-.933V3.657h-2.28V2.891h5.5Zm3.662,3.467h-1.67V10H28.72V2.891h2.354a2.786,2.786,0,0,1,1.848.547,1.968,1.968,0,0,1,.647,1.592,1.914,1.914,0,0,1-.359,1.157,2.142,2.142,0,0,1-1,.737l1.67,3.018V10H32.875Zm-1.67-.767H31.1A1.625,1.625,0,0,0,32.213,6a1.224,1.224,0,0,0,.413-.969,1.289,1.289,0,0,0-.393-1.013A1.664,1.664,0,0,0,31.1,3.657H29.662Zm9.238.356H35.819v2.52H39.4V10H34.882V2.891H39.35v.767h-3.53v2.29H38.9Zm6.675-3.057H43.29V10h-.933V3.657h-2.28V2.891h5.5Zm-.132,5.869a.566.566,0,0,1,.139-.391A.53.53,0,0,1,46,8.979a.546.546,0,0,1,.422.156.554.554,0,0,1,.144.391.524.524,0,0,1-.144.376.556.556,0,0,1-.422.151.5.5,0,0,1-.557-.527ZM9.682,16.714H6.6v2.52H10.18V20H5.663V12.891h4.468v.767H6.6v2.29H9.682Zm3.76.117a4.408,4.408,0,0,1-1.755-.852,1.628,1.628,0,0,1-.549-1.248,1.72,1.72,0,0,1,.671-1.389,2.668,2.668,0,0,1,1.746-.549,2.913,2.913,0,0,1,1.306.283,2.148,2.148,0,0,1,.889.781,2,2,0,0,1,.315,1.089h-.942a1.3,1.3,0,0,0-.41-1.017,1.668,1.668,0,0,0-1.157-.37,1.708,1.708,0,0,0-1.082.306,1.02,1.02,0,0,0-.388.849.918.918,0,0,0,.369.736,3.616,3.616,0,0,0,1.255.55,5.823,5.823,0,0,1,1.387.55,2.1,2.1,0,0,1,.742.7,1.788,1.788,0,0,1,.242.942,1.661,1.661,0,0,1-.674,1.384,2.873,2.873,0,0,1-1.8.52,3.342,3.342,0,0,1-1.367-.281,2.3,2.3,0,0,1-.979-.769,1.877,1.877,0,0,1-.344-1.108h.942a1.224,1.224,0,0,0,.476,1.018,2,2,0,0,0,1.272.374,1.843,1.843,0,0,0,1.138-.3.983.983,0,0,0,.4-.825.965.965,0,0,0-.366-.808A4.222,4.222,0,0,0,13.441,16.831Zm8.75-3.174H19.906V20h-.933V13.657h-2.28v-.767h5.5ZM24.252,20h-.937V12.891h.938Zm2.656-.767h3.369V20H25.966V12.891h.942Zm9.59-2.559a4.4,4.4,0,0,1-.352,1.824,2.663,2.663,0,0,1-1,1.189,2.749,2.749,0,0,1-4-1.179,4.22,4.22,0,0,1-.369-1.77v-.513a4.346,4.346,0,0,1,.356-1.812,2.636,2.636,0,0,1,2.5-1.621,2.756,2.756,0,0,1,1.506.413,2.658,2.658,0,0,1,1,1.2,4.419,4.419,0,0,1,.352,1.824Zm-.933-.459a3.188,3.188,0,0,0-.508-1.941,1.675,1.675,0,0,0-1.421-.676,1.657,1.657,0,0,0-1.4.676,3.122,3.122,0,0,0-.525,1.877v.522a3.192,3.192,0,0,0,.515,1.926,1.805,1.805,0,0,0,2.825.039,3.174,3.174,0,0,0,.513-1.9ZM40.38,20V12.891h2.007a3.231,3.231,0,0,1,1.641.41,2.774,2.774,0,0,1,1.1,1.167,3.8,3.8,0,0,1,.393,1.738v.454a3.812,3.812,0,0,1-.388,1.763,2.731,2.731,0,0,1-1.108,1.162A3.436,3.436,0,0,1,42.348,20Zm.938-6.343v5.576H42.3a2.146,2.146,0,0,0,1.687-.674,2.786,2.786,0,0,0,.6-1.921v-.415a2.831,2.831,0,0,0-.569-1.884,2.024,2.024,0,0,0-1.614-.682Zm9.639,3.057H47.875v2.52h3.579V20H46.937V12.891h4.468v.767h-3.53v2.29h3.081ZM20.465,28.755,22.5,22.891h1.025L20.885,30h-.83l-2.632-7.109h1.021ZM25.48,30h-.937V22.891h.938Zm1.714,0V22.891H29.2a3.231,3.231,0,0,1,1.641.41,2.774,2.774,0,0,1,1.1,1.167,3.8,3.8,0,0,1,.393,1.738v.454a3.812,3.812,0,0,1-.388,1.763,2.731,2.731,0,0,1-1.108,1.162A3.436,3.436,0,0,1,29.162,30Zm.938-6.343v5.576h.986a2.146,2.146,0,0,0,1.687-.674,2.786,2.786,0,0,0,.6-1.921v-.415a2.831,2.831,0,0,0-.569-1.884,2.024,2.024,0,0,0-1.614-.682Zm9.443,4.482H34.6L33.927,30H32.96l2.715-7.109h.82L39.215,30h-.962Zm-2.7-.767H37.3l-1.211-3.325Z" transform="translate(1200.537 18356.844)" fill="#fff"/>
    <path id="Trazado_881777" data-name="Trazado 881777" d="M13.185,3.657H10.9V10H9.967V3.657H7.687V2.891h5.5ZM17.779,8.14H14.8L14.132,10h-.967L15.88,2.891h.82L19.42,10h-.962Zm-2.7-.767H17.5L16.29,4.048Zm7.9-.249h-1.67V10h-.942V2.891h2.354a2.786,2.786,0,0,1,1.848.547,1.968,1.968,0,0,1,.647,1.592,1.914,1.914,0,0,1-.359,1.157,2.142,2.142,0,0,1-1,.737l1.67,3.018V10H24.527Zm-1.67-.767h1.44A1.625,1.625,0,0,0,23.866,6a1.224,1.224,0,0,0,.413-.969,1.289,1.289,0,0,0-.393-1.013,1.664,1.664,0,0,0-1.135-.357H21.314Zm8.2-3.467h.942V7.925a2.085,2.085,0,0,1-.613,1.6,2.287,2.287,0,0,1-1.633.576,2.351,2.351,0,0,1-1.65-.542,1.957,1.957,0,0,1-.591-1.519h.938a1.178,1.178,0,0,0,1.3,1.294,1.257,1.257,0,0,0,.94-.366,1.419,1.419,0,0,0,.364-1.025ZM36.07,6.714H32.989v2.52h3.579V10H32.052V2.891H36.52v.767h-3.53v2.29H36.07Zm6.675-3.057H40.46V10h-.933V3.657h-2.28V2.891h5.5ZM47.34,8.14H44.361L43.692,10h-.967L45.44,2.891h.82L48.98,10h-.962Zm-2.7-.767h2.417L45.851,4.048Zm7.388-.542a4.408,4.408,0,0,1-1.755-.852,1.628,1.628,0,0,1-.549-1.248A1.72,1.72,0,0,1,50.4,3.342a2.668,2.668,0,0,1,1.746-.549,2.913,2.913,0,0,1,1.306.283,2.148,2.148,0,0,1,.889.781,2,2,0,0,1,.315,1.089h-.942A1.3,1.3,0,0,0,53.3,3.93a1.668,1.668,0,0,0-1.157-.37,1.708,1.708,0,0,0-1.082.306,1.02,1.02,0,0,0-.388.849.918.918,0,0,0,.369.736A3.616,3.616,0,0,0,52.3,6a5.823,5.823,0,0,1,1.387.55,2.1,2.1,0,0,1,.742.7,1.788,1.788,0,0,1,.242.942A1.661,1.661,0,0,1,54,9.578a2.873,2.873,0,0,1-1.8.52,3.342,3.342,0,0,1-1.367-.281,2.3,2.3,0,0,1-.979-.769A1.877,1.877,0,0,1,49.5,7.939h.942a1.224,1.224,0,0,0,.476,1.018,2,2,0,0,0,1.272.374,1.843,1.843,0,0,0,1.138-.3.983.983,0,0,0,.4-.825A.965.965,0,0,0,53.36,7.4,4.222,4.222,0,0,0,52.032,6.831ZM17.3,16.86H14.313V20h-.937V12.891h4.4v.767H14.313v2.437H17.3Zm5.625-.146H19.84v2.52h3.579V20H18.9V12.891H23.37v.767H19.84v2.29h3.081Zm6.895,1.03a2.616,2.616,0,0,1-.833,1.741,2.728,2.728,0,0,1-1.863.613,2.505,2.505,0,0,1-2.019-.9,3.634,3.634,0,0,1-.759-2.417v-.684a4.051,4.051,0,0,1,.354-1.743,2.644,2.644,0,0,1,1-1.155,2.794,2.794,0,0,1,1.5-.4,2.569,2.569,0,0,1,1.816.632,2.647,2.647,0,0,1,.8,1.75h-.942a2.043,2.043,0,0,0-.53-1.234,1.6,1.6,0,0,0-1.14-.382,1.677,1.677,0,0,0-1.409.665,3.051,3.051,0,0,0-.51,1.891V16.8a3.136,3.136,0,0,0,.483,1.842,1.562,1.562,0,0,0,1.353.684,1.8,1.8,0,0,0,1.2-.354,1.964,1.964,0,0,0,.554-1.233ZM36.559,20h-.942V16.714H32.032V20h-.937V12.891h.937v3.057h3.584V12.891h.942Zm5.679-1.86H39.259L38.59,20h-.967l2.715-7.109h.82L43.878,20h-.962Zm-2.7-.767h2.417l-1.211-3.325Zm7.388-.542a4.408,4.408,0,0,1-1.755-.852,1.628,1.628,0,0,1-.549-1.248,1.72,1.72,0,0,1,.671-1.389,2.668,2.668,0,0,1,1.746-.549,2.913,2.913,0,0,1,1.306.283,2.148,2.148,0,0,1,.889.781,2,2,0,0,1,.315,1.089h-.942a1.3,1.3,0,0,0-.41-1.017,1.668,1.668,0,0,0-1.157-.37,1.708,1.708,0,0,0-1.082.306,1.02,1.02,0,0,0-.388.849.918.918,0,0,0,.369.736A3.616,3.616,0,0,0,47.2,16a5.823,5.823,0,0,1,1.387.55,2.1,2.1,0,0,1,.742.7,1.788,1.788,0,0,1,.242.942,1.661,1.661,0,0,1-.674,1.384,2.873,2.873,0,0,1-1.8.52,3.342,3.342,0,0,1-1.367-.281,2.3,2.3,0,0,1-.979-.769,1.877,1.877,0,0,1-.344-1.108h.942a1.224,1.224,0,0,0,.476,1.018,2,2,0,0,0,1.272.374,1.843,1.843,0,0,0,1.138-.3.983.983,0,0,0,.4-.825.965.965,0,0,0-.366-.808A4.222,4.222,0,0,0,46.93,16.831ZM7.867,26.714H4.786v2.52H8.365V30H3.849V22.891H8.316v.767H4.786v2.29H7.867Zm3.76.117a4.408,4.408,0,0,1-1.755-.852,1.628,1.628,0,0,1-.549-1.248,1.72,1.72,0,0,1,.671-1.389,2.668,2.668,0,0,1,1.746-.549,2.913,2.913,0,0,1,1.306.283,2.148,2.148,0,0,1,.889.781,2,2,0,0,1,.315,1.089h-.942a1.3,1.3,0,0,0-.41-1.017,1.668,1.668,0,0,0-1.157-.37,1.708,1.708,0,0,0-1.082.306,1.02,1.02,0,0,0-.388.849.918.918,0,0,0,.369.736,3.616,3.616,0,0,0,1.255.55,5.823,5.823,0,0,1,1.387.55,2.1,2.1,0,0,1,.742.7,1.788,1.788,0,0,1,.242.942,1.661,1.661,0,0,1-.674,1.384,2.873,2.873,0,0,1-1.8.52,3.342,3.342,0,0,1-1.367-.281,2.3,2.3,0,0,1-.979-.769A1.877,1.877,0,0,1,9.1,27.939h.942a1.224,1.224,0,0,0,.476,1.018,2,2,0,0,0,1.272.374,1.843,1.843,0,0,0,1.138-.3.983.983,0,0,0,.4-.825.965.965,0,0,0-.366-.808A4.222,4.222,0,0,0,11.627,26.831Zm4.775.386V30h-.937V22.891h2.622a2.634,2.634,0,0,1,1.829.6,2.02,2.02,0,0,1,.662,1.577,1.993,1.993,0,0,1-.647,1.594,2.752,2.752,0,0,1-1.853.559Zm0-.767h1.685a1.684,1.684,0,0,0,1.152-.355,1.3,1.3,0,0,0,.4-1.025,1.34,1.34,0,0,0-.4-1.017,1.578,1.578,0,0,0-1.1-.4H16.4Zm9.39.264H22.711v2.52H26.29V30H21.773V22.891h4.468v.767h-3.53v2.29h3.081Zm6.895,1.03a2.616,2.616,0,0,1-.833,1.741,2.728,2.728,0,0,1-1.863.613,2.505,2.505,0,0,1-2.019-.9,3.634,3.634,0,0,1-.759-2.417v-.684a4.051,4.051,0,0,1,.354-1.743,2.644,2.644,0,0,1,1-1.155,2.794,2.794,0,0,1,1.5-.4,2.569,2.569,0,0,1,1.816.632,2.647,2.647,0,0,1,.8,1.75h-.942a2.043,2.043,0,0,0-.53-1.234,1.6,1.6,0,0,0-1.14-.382,1.677,1.677,0,0,0-1.409.665,3.051,3.051,0,0,0-.51,1.891V26.8a3.136,3.136,0,0,0,.483,1.842,1.562,1.562,0,0,0,1.353.684,1.8,1.8,0,0,0,1.2-.354,1.964,1.964,0,0,0,.554-1.233ZM34.972,30h-.937V22.891h.938ZM40.7,28.14H37.721L37.052,30h-.967L38.8,22.891h.82L42.34,30h-.962ZM38,27.373h2.417L39.21,24.048Zm6.235,1.86h3.369V30H43.3V22.891h.942Zm8.457-2.52H49.615v2.52h3.579V30H48.678V22.891h4.468v.767h-3.53v2.29H52.7Zm3.76.117a4.408,4.408,0,0,1-1.755-.852,1.628,1.628,0,0,1-.549-1.248,1.72,1.72,0,0,1,.671-1.389,2.668,2.668,0,0,1,1.746-.549,2.913,2.913,0,0,1,1.306.283,2.148,2.148,0,0,1,.889.781,2,2,0,0,1,.315,1.089h-.942a1.3,1.3,0,0,0-.41-1.017,1.668,1.668,0,0,0-1.157-.37,1.708,1.708,0,0,0-1.082.306,1.02,1.02,0,0,0-.388.849.918.918,0,0,0,.369.736,3.616,3.616,0,0,0,1.255.55,5.823,5.823,0,0,1,1.387.55,2.1,2.1,0,0,1,.742.7,1.788,1.788,0,0,1,.242.942,1.661,1.661,0,0,1-.674,1.384,2.873,2.873,0,0,1-1.8.52,3.342,3.342,0,0,1-1.367-.281,2.3,2.3,0,0,1-.979-.769,1.877,1.877,0,0,1-.344-1.108h.942a1.224,1.224,0,0,0,.476,1.018,2,2,0,0,0,1.272.374,1.843,1.843,0,0,0,1.138-.3.983.983,0,0,0,.4-.825.965.965,0,0,0-.366-.808A4.222,4.222,0,0,0,56.456,26.831Z" transform="translate(1174.173 18423.24)" fill="#fff"/>
    <path id="Trazado_881782" data-name="Trazado 881782" d="M19.994,3.657H17.709V10h-.933V3.657H14.5V2.891h5.5ZM26.38,6.675A4.4,4.4,0,0,1,26.029,8.5a2.663,2.663,0,0,1-1,1.189,2.749,2.749,0,0,1-4-1.179,4.22,4.22,0,0,1-.369-1.77V6.226a4.346,4.346,0,0,1,.356-1.812,2.636,2.636,0,0,1,2.5-1.621,2.756,2.756,0,0,1,1.506.413,2.658,2.658,0,0,1,1,1.2,4.419,4.419,0,0,1,.352,1.824Zm-.933-.459a3.188,3.188,0,0,0-.508-1.941A1.675,1.675,0,0,0,23.519,3.6a1.657,1.657,0,0,0-1.4.676A3.122,3.122,0,0,0,21.6,6.152v.522A3.192,3.192,0,0,0,22.11,8.6a1.805,1.805,0,0,0,2.825.039,3.174,3.174,0,0,0,.513-1.9ZM29,2.891l2.324,5.8,2.324-5.8h1.216V10h-.937V7.231l.088-2.988L31.678,10H30.96L28.631,4.258l.093,2.974V10h-.937V2.891ZM40.531,8.14H37.552L36.883,10h-.967l2.715-7.109h.82L42.171,10h-.962Zm-2.7-.767h2.417L39.042,4.048Zm7.388-.542a4.408,4.408,0,0,1-1.755-.852,1.628,1.628,0,0,1-.549-1.248,1.72,1.72,0,0,1,.671-1.389,2.668,2.668,0,0,1,1.746-.549,2.913,2.913,0,0,1,1.306.283,2.148,2.148,0,0,1,.889.781,2,2,0,0,1,.315,1.089H46.9a1.3,1.3,0,0,0-.41-1.017,1.668,1.668,0,0,0-1.157-.37,1.708,1.708,0,0,0-1.082.306,1.02,1.02,0,0,0-.388.849.918.918,0,0,0,.369.736A3.616,3.616,0,0,0,45.489,6a5.823,5.823,0,0,1,1.387.55,2.1,2.1,0,0,1,.742.7,1.788,1.788,0,0,1,.242.942,1.661,1.661,0,0,1-.674,1.384,2.873,2.873,0,0,1-1.8.52,3.342,3.342,0,0,1-1.367-.281,2.3,2.3,0,0,1-.979-.769,1.877,1.877,0,0,1-.344-1.108h.942a1.224,1.224,0,0,0,.476,1.018,2,2,0,0,0,1.272.374,1.843,1.843,0,0,0,1.138-.3.983.983,0,0,0,.4-.825.965.965,0,0,0-.366-.808A4.222,4.222,0,0,0,45.223,6.831ZM6.441,17.217V20H5.5V12.891H8.126a2.634,2.634,0,0,1,1.829.6,2.02,2.02,0,0,1,.662,1.577,1.993,1.993,0,0,1-.647,1.594,2.752,2.752,0,0,1-1.853.559Zm0-.767H8.126A1.684,1.684,0,0,0,9.278,16.1a1.3,1.3,0,0,0,.4-1.025,1.34,1.34,0,0,0-.4-1.017,1.578,1.578,0,0,0-1.1-.4H6.441Zm10.376-3.56v4.834a2.268,2.268,0,0,1-.632,1.646,2.548,2.548,0,0,1-1.7.718l-.249.01a2.661,2.661,0,0,1-1.86-.63,2.253,2.253,0,0,1-.7-1.733V12.891H12.6v4.814a1.483,1.483,0,0,0,1.636,1.626,1.644,1.644,0,0,0,1.218-.425,1.623,1.623,0,0,0,.422-1.2V12.891ZM23.761,20h-.942l-3.579-5.479V20H18.3V12.891h.942l3.589,5.5v-5.5h.933ZM30.2,13.657H27.911V20h-.933V13.657H24.7v-.767h5.5Zm6.387,3.018a4.4,4.4,0,0,1-.352,1.824,2.663,2.663,0,0,1-1,1.189,2.749,2.749,0,0,1-4-1.179,4.22,4.22,0,0,1-.369-1.77v-.513a4.346,4.346,0,0,1,.356-1.812,2.636,2.636,0,0,1,2.5-1.621,2.756,2.756,0,0,1,1.506.413,2.658,2.658,0,0,1,1,1.2,4.419,4.419,0,0,1,.352,1.824Zm-.933-.459a3.188,3.188,0,0,0-.508-1.941,1.675,1.675,0,0,0-1.421-.676,1.657,1.657,0,0,0-1.4.676,3.122,3.122,0,0,0-.525,1.877v.522a3.192,3.192,0,0,0,.515,1.926,1.805,1.805,0,0,0,2.825.039,3.174,3.174,0,0,0,.513-1.9Zm4.434.615a4.408,4.408,0,0,1-1.755-.852,1.628,1.628,0,0,1-.549-1.248,1.72,1.72,0,0,1,.671-1.389,2.668,2.668,0,0,1,1.746-.549,2.913,2.913,0,0,1,1.306.283,2.148,2.148,0,0,1,.889.781,2,2,0,0,1,.315,1.089h-.942a1.3,1.3,0,0,0-.41-1.017,1.668,1.668,0,0,0-1.157-.37,1.708,1.708,0,0,0-1.082.306,1.02,1.02,0,0,0-.388.849.918.918,0,0,0,.369.736A3.616,3.616,0,0,0,40.35,16a5.823,5.823,0,0,1,1.387.55,2.1,2.1,0,0,1,.742.7,1.788,1.788,0,0,1,.242.942,1.661,1.661,0,0,1-.674,1.384,2.873,2.873,0,0,1-1.8.52,3.342,3.342,0,0,1-1.367-.281,2.3,2.3,0,0,1-.979-.769,1.877,1.877,0,0,1-.344-1.108H38.5a1.224,1.224,0,0,0,.476,1.018,2,2,0,0,0,1.272.374,1.843,1.843,0,0,0,1.138-.3.983.983,0,0,0,.4-.825.965.965,0,0,0-.366-.808A4.222,4.222,0,0,0,40.084,16.831ZM46.4,20V12.891H48.4a3.231,3.231,0,0,1,1.641.41,2.774,2.774,0,0,1,1.1,1.167,3.8,3.8,0,0,1,.393,1.738v.454a3.812,3.812,0,0,1-.388,1.763,2.731,2.731,0,0,1-1.108,1.162A3.436,3.436,0,0,1,48.365,20Zm.938-6.343v5.576h.986a2.146,2.146,0,0,0,1.687-.674,2.786,2.786,0,0,0,.6-1.921v-.415a2.831,2.831,0,0,0-.569-1.884,2.024,2.024,0,0,0-1.614-.682Zm9.639,3.057H53.893v2.52h3.579V20H52.955V12.891h4.468v.767h-3.53v2.29h3.081ZM18.856,28.755l2.031-5.864h1.025L19.276,30h-.83l-2.632-7.109h1.021Zm8.027-2.041H23.8v2.52h3.579V30H22.865V22.891h4.468v.767H23.8v2.29h3.081ZM34.012,30H33.07l-3.579-5.479V30h-.942V22.891h.942l3.589,5.5v-5.5h.933Zm6.436-6.343H38.163V30H37.23V23.657H34.95v-.767h5.5Zm4.595,4.482H42.064L41.4,30h-.967l2.715-7.109h.82L46.683,30h-.962Zm-2.7-.767h2.417l-1.211-3.325Z" transform="translate(1032.589 18424.217)" fill="#fff"/>
  </g>
</svg>
