<svg xmlns="http://www.w3.org/2000/svg" xmlns:xlink="http://www.w3.org/1999/xlink" width="397.371" height="398.076" viewBox="0 0 397.371 398.076">
  <defs>
    <linearGradient id="linear-gradient" y1="0.5" x2="1" y2="0.5" gradientUnits="objectBoundingBox">
      <stop offset="0" stop-color="#c4c0c3"/>
      <stop offset="0.47" stop-color="#e1dfe0"/>
      <stop offset="0.96" stop-color="#fff"/>
    </linearGradient>
    <linearGradient id="linear-gradient-2" x1="0.269" y1="0.025" x2="0.756" y2="1.027" xlink:href="#linear-gradient"/>
  </defs>
  <g id="figuras-16-16" transform="translate(-4.923 -6.928)">
    <g id="OBJECTS" transform="translate(4.923 6.928)">
      <path id="Trazado_132629" data-name="Trazado 132629" d="M155.772,290.363,50.385,247.49a170.813,170.813,0,0,0-8.957,35.06,28.534,28.534,0,0,0,.86,54.042,171.448,171.448,0,0,0,9.02,32.253l104.815-44.2a57.241,57.241,0,0,1-.352-34.286Z" transform="translate(-12.342 -108.567)" fill="#26aab7"/>
      <path id="Trazado_132630" data-name="Trazado 132630" d="M576.874,305.155a28.54,28.54,0,0,0-19.225-26.461,171.768,171.768,0,0,0-9.355-34.834l-104.844,44.2a57.172,57.172,0,0,1,.069,34.436l105.352,42.867a171.157,171.157,0,0,0,8.691-32.715,28.534,28.534,0,0,0,19.311-27.494Z" transform="translate(-190.203 -107.033)" fill="#26aab7"/>
      <path id="Trazado_132631" data-name="Trazado 132631" d="M366.447,550.152l-44.2-104.832a57.212,57.212,0,0,1-34.188.156L245.19,550.857a171.225,171.225,0,0,0,33.033,8.662,28.54,28.54,0,0,0,54.232-.156A171.716,171.716,0,0,0,366.447,550.152Z" transform="translate(-106.437 -192.151)" fill="#26aab7"/>
      <path id="Trazado_132632" data-name="Trazado 132632" d="M328.69,43.816a28.534,28.534,0,0,0-53.672.468,172.307,172.307,0,0,0-33.627,9.24l44.2,104.821a57.207,57.207,0,0,1,34.534-.271l42.9-105.364a170.6,170.6,0,0,0-34.326-8.893Z" transform="translate(-104.832 -14.652)" fill="#26aab7"/>
      <path id="Trazado_132633" data-name="Trazado 132633" d="M162.7,81.17a172.134,172.134,0,0,0-30.988,18.382,28.528,28.528,0,0,0-37.248,38.115,170.987,170.987,0,0,0-17.025,30.07L182.81,210.6A57.247,57.247,0,0,1,206.9,186Z" transform="translate(-35.562 -38.296)" fill="#7d6eb2"/>
      <path id="Trazado_132634" data-name="Trazado 132634" d="M208.485,421.378A57.172,57.172,0,0,1,184.121,397.4L79.3,441.6a171.514,171.514,0,0,0,17.6,29.955,28.528,28.528,0,0,0,38.692,38.115,171.375,171.375,0,0,0,30.03,17.065Z" transform="translate(-36.348 -171.905)" fill="#7d6eb2"/>
      <path id="Trazado_132635" data-name="Trazado 132635" d="M510.25,483.018a28.382,28.382,0,0,0-3.367-12.936,171.2,171.2,0,0,0,17.671-30.8L419.162,396.4A57.229,57.229,0,0,1,395,420.707l44.167,104.821a171.82,171.82,0,0,0,29.054-16.851,28.528,28.528,0,0,0,42.03-25.652Z" transform="translate(-169.733 -171.482)" fill="#7d6eb2"/>
      <path id="Trazado_132636" data-name="Trazado 132636" d="M505.859,134.887a28.528,28.528,0,0,0-38.115-37.809A170.938,170.938,0,0,0,436.993,79.5L394.12,184.893A57.172,57.172,0,0,1,418.658,209.2L523.479,165A171.59,171.59,0,0,0,505.859,134.887Z" transform="translate(-169.361 -37.59)" fill="#7d6eb2"/>
      <path id="Trazado_132637" data-name="Trazado 132637" d="M364.108,305.164a61.214,61.214,0,1,0-17.929,43.5,61.434,61.434,0,0,0,17.929-43.5Z" transform="translate(-104.768 -106.978)" fill="#e8c85f"/>
      <circle id="Elipse_4377" data-name="Elipse 4377" cx="55.232" cy="55.232" r="55.232" transform="translate(120.581 199.038) rotate(-45)" fill="url(#linear-gradient)"/>
      <circle id="Elipse_4378" data-name="Elipse 4378" cx="51.154" cy="51.154" r="51.154" transform="translate(126.347 199.038) rotate(-45)" fill="url(#linear-gradient-2)"/>
      <path id="Trazado_132638" data-name="Trazado 132638" d="M274.195,349.512a3.962,3.962,0,0,1-1.265,2.645,4.129,4.129,0,0,1-2.824.93,3.805,3.805,0,0,1-3.066-1.369,5.527,5.527,0,0,1-1.155-3.673v-1.034a6.174,6.174,0,0,1,.537-2.651,4.042,4.042,0,0,1,1.519-1.732,4.233,4.233,0,0,1,2.31-.612,3.892,3.892,0,0,1,2.755.959,4,4,0,0,1,1.207,2.656h-1.426a3.1,3.1,0,0,0-.808-1.871,2.42,2.42,0,0,0-1.733-.577,2.564,2.564,0,0,0-2.143,1.011,4.649,4.649,0,0,0-.774,2.887v1.045a4.805,4.805,0,0,0,.733,2.8,2.379,2.379,0,0,0,2.056,1.039,2.738,2.738,0,0,0,1.819-.537,3,3,0,0,0,.843-1.877Z" transform="translate(-115.178 -148.503)" fill="#786ead"/>
      <path id="Trazado_132639" data-name="Trazado 132639" d="M291.661,347.884a6.761,6.761,0,0,1-.531,2.772,4.043,4.043,0,0,1-1.513,1.8,4.164,4.164,0,0,1-6.041-1.8,6.422,6.422,0,0,1-.578-2.685v-.78a6.561,6.561,0,0,1,.543-2.749A4.008,4.008,0,0,1,287.33,342a4.146,4.146,0,0,1,2.31.63,4.042,4.042,0,0,1,1.525,1.813,6.75,6.75,0,0,1,.5,2.755Zm-1.415-.693a4.856,4.856,0,0,0-.768-2.951,2.553,2.553,0,0,0-2.16-1.022,2.524,2.524,0,0,0-2.125,1.022,4.793,4.793,0,0,0-.8,2.853v.791a4.869,4.869,0,0,0,.785,2.928,2.737,2.737,0,0,0,4.285.058,4.81,4.81,0,0,0,.78-2.887Z" transform="translate(-122.411 -148.497)" fill="#786ead"/>
      <path id="Trazado_132640" data-name="Trazado 132640" d="M310.013,353.038h-1.432l-5.428-8.316v8.316H301.72V342.25h1.432L308.6,350.6V342.25h1.415Z" transform="translate(-130.322 -148.604)" fill="#786ead"/>
      <path id="Trazado_132641" data-name="Trazado 132641" d="M323.211,348.114a6.67,6.67,0,0,1-2.662-1.288,2.478,2.478,0,0,1-.832-1.894,2.61,2.61,0,0,1,1.016-2.114,4.042,4.042,0,0,1,2.651-.832,4.458,4.458,0,0,1,1.981.427,3.28,3.28,0,0,1,1.351,1.19,3.044,3.044,0,0,1,.479,1.652h-1.432a1.975,1.975,0,0,0-.647-1.53,2.523,2.523,0,0,0-1.732-.577,2.593,2.593,0,0,0-1.646.468,1.553,1.553,0,0,0-.578,1.288,1.386,1.386,0,0,0,.578,1.115,5.525,5.525,0,0,0,1.906.837,8.794,8.794,0,0,1,2.108.837,3.234,3.234,0,0,1,1.126,1.063,2.738,2.738,0,0,1,.364,1.432,2.518,2.518,0,0,1-1.022,2.1,4.325,4.325,0,0,1-2.732.791,5.093,5.093,0,0,1-2.079-.427,3.465,3.465,0,0,1-1.484-1.155,2.888,2.888,0,0,1-.526-1.681h1.432a1.854,1.854,0,0,0,.722,1.542,3.038,3.038,0,0,0,1.935.577,2.806,2.806,0,0,0,1.732-.462,1.5,1.5,0,0,0,.578-1.253,1.455,1.455,0,0,0-.577-1.224A6.389,6.389,0,0,0,323.211,348.114Z" transform="translate(-137.791 -148.491)" fill="#786ead"/>
      <path id="Trazado_132642" data-name="Trazado 132642" d="M343.491,342.25v7.363a3.465,3.465,0,0,1-.959,2.5,3.893,3.893,0,0,1-2.587,1.091h-.375a4.043,4.043,0,0,1-2.824-.953,3.43,3.43,0,0,1-1.068-2.633V342.25h1.409v7.305a2.252,2.252,0,0,0,2.483,2.472,2.507,2.507,0,0,0,1.848-.647,2.472,2.472,0,0,0,.641-1.819V342.25Z" transform="translate(-144.668 -148.604)" fill="#786ead"/>
      <path id="Trazado_132643" data-name="Trazado 132643" d="M354.936,342.25l3.528,8.8,3.529-8.8h1.842v10.788h-1.421v-4.2l.133-4.539-3.54,8.738h-1.091l-3.534-8.714.139,4.516v4.2H353.1V342.25Z" transform="translate(-152.03 -148.604)" fill="#786ead"/>
      <path id="Trazado_132644" data-name="Trazado 132644" d="M377.646,353.038H376.22V342.25h1.426Z" transform="translate(-161.798 -148.604)" fill="#786ead"/>
      <path id="Trazado_132645" data-name="Trazado 132645" d="M383.19,353.037V342.249h3.049a4.955,4.955,0,0,1,2.489.618,4.245,4.245,0,0,1,1.675,1.773,5.774,5.774,0,0,1,.577,2.639v.693a5.775,5.775,0,0,1-.577,2.674,4.106,4.106,0,0,1-1.686,1.732,5.163,5.163,0,0,1-2.541.629Zm1.426-9.627v8.466h1.5a3.268,3.268,0,0,0,2.564-1.022,4.262,4.262,0,0,0,.912-2.887V347.3a4.3,4.3,0,0,0-.866-2.887,3.084,3.084,0,0,0-2.449-1.034Z" transform="translate(-164.743 -148.603)" fill="#786ead"/>
      <path id="Trazado_132646" data-name="Trazado 132646" d="M408.446,347.876a6.672,6.672,0,0,1-.537,2.772,4.043,4.043,0,0,1-1.513,1.8,4.164,4.164,0,0,1-6.07-1.79,6.353,6.353,0,0,1-.577-2.685v-.785a6.653,6.653,0,0,1,.537-2.749,4.25,4.25,0,0,1,6.081-1.831,3.984,3.984,0,0,1,1.525,1.813,6.658,6.658,0,0,1,.537,2.766Zm-1.421-.693a4.856,4.856,0,0,0-.768-2.951,2.547,2.547,0,0,0-2.154-1.022,2.518,2.518,0,0,0-2.125,1.022,4.718,4.718,0,0,0-.8,2.853v.791a4.868,4.868,0,0,0,.78,2.928,2.743,2.743,0,0,0,4.291.058,4.81,4.81,0,0,0,.774-2.887Z" transform="translate(-171.739 -148.489)" fill="#786ead"/>
      <path id="Trazado_132647" data-name="Trazado 132647" d="M422.47,348.665h-2.518v4.366H418.52V342.244h3.575a4.267,4.267,0,0,1,2.807.826,3,3,0,0,1,.982,2.42,2.888,2.888,0,0,1-.549,1.732,3.275,3.275,0,0,1-1.513,1.12l2.535,4.58v.087h-1.53Zm-2.535-1.155h2.183a2.472,2.472,0,0,0,1.686-.549,1.854,1.854,0,0,0,.629-1.473,1.952,1.952,0,0,0-.577-1.536,2.506,2.506,0,0,0-1.733-.543h-2.171Z" transform="translate(-179.67 -148.597)" fill="#786ead"/>
      <path id="Trazado_132648" data-name="Trazado 132648" d="M402.284,208.134q.035-3.569-.046-7.132c-.035-1.571-.081-3.142-.156-4.712-.04-.878-.1-1.732-.156-2.633-.116-1.923-.254-3.846-.427-5.775-.046-.474-.081-.947-.127-1.421A198.589,198.589,0,0,0,370.66,98.006C311.351,5.884,188.172-20.814,96.027,38.524A198.551,198.551,0,0,0,5.158,196.752c-5.2,107.264,76.46,199.94,184.14,207.73C298.571,412.371,393.91,329.91,401.81,220.643c.271-3.765.4-7.507.468-11.267C402.284,208.954,402.284,208.544,402.284,208.134ZM203.833,375.527a168.473,168.473,0,0,1-101.541-33.778,13.956,13.956,0,0,0-2.379-2.362,167.826,167.826,0,0,1-35.8-38.034C34.148,257.66,27.594,204.1,41.927,156.4a169.275,169.275,0,0,1,80.087-98.37,14.091,14.091,0,0,0,3.217-2.437c76.662-40.119,172.925-15.708,220.643,58.385a169.12,169.12,0,0,1,20.692,46.061,12.974,12.974,0,0,0,.323,1.536,167.286,167.286,0,0,1,5.5,31.889c.052.745.081,1.5.127,2.241.063,1.068.127,2.143.167,3.211.058,1.386.092,2.766.116,4.152V204a169.3,169.3,0,0,1-14.922,71.113,14.38,14.38,0,0,0-.641,1.767C330.27,335.033,271.267,375.567,203.833,375.527Z" transform="translate(-4.923 -6.928)" fill="#6a5d99"/>
      <path id="Trazado_132649" data-name="Trazado 132649" d="M394.339,223.349q-.04-2.01-.127-4.014c-.04-.751-.092-1.5-.139-2.246q-.15-2.46-.364-4.909c-.035-.4-.069-.8-.11-1.207a169.074,169.074,0,0,0-26.155-75.334C316.937,57.187,212.012,34.451,133.56,84.964a169.161,169.161,0,0,0-77.4,134.764C51.74,311.077,121.282,390,212.982,396.638c93.057,6.734,174.259-63.507,180.987-156.576.237-3.205.346-6.4.4-9.592v-1.051C394.4,227.392,394.4,225.365,394.339,223.349ZM116.044,302.195a132,132,0,0,1,45.3-190.342,11.071,11.071,0,0,0,2.518-1.906c59.961-31.387,135.278-12.312,172.6,45.68a132.331,132.331,0,0,1,16.17,36.036,11.139,11.139,0,0,0,.254,1.2,130.449,130.449,0,0,1,4.3,24.948c.04.577.069,1.155.1,1.732.052.837.1,1.675.133,2.512.04,1.08.069,2.166.087,3.246v.733a132.506,132.506,0,0,1-11.625,55.63,10.734,10.734,0,0,0-.5,1.38c-21.107,45.5-67.261,77.2-120.015,77.171a131.8,131.8,0,0,1-79.434-26.426,11.232,11.232,0,0,0-1.86-1.842,131.414,131.414,0,0,1-28.032-29.753Z" transform="translate(-26.488 -28.536)" fill="#aee6e6"/>
      <text id="INTERACCIÓN_VIA_WEB" data-name="INTERACCIÓN VIA WEB" transform="translate(91.02 125.59)" fill="#fff" font-size="10" font-family="Roboto-Regular, Roboto"><tspan x="-31.863" y="10">INTERACCIÓN </tspan><tspan x="-19.475" y="20">VIA WEB</tspan></text>
      <text id="P.O.P" transform="translate(164.253 100.203)" fill="#fff" font-size="10" font-family="Roboto-Regular, Roboto"><tspan x="-11.338" y="10">P.O.P</tspan></text>
      <text id="EVENTOS_FERIAS" data-name="EVENTOS
FERIAS" transform="translate(170.111 283.773)" fill="#fff" font-size="10" font-family="Roboto-Regular, Roboto"><tspan x="-21.677" y="10">EVENTOS</tspan><tspan x="-16.316" y="20">FERIAS</tspan></text>
      <text id="CONTENIDOS_INTERNET" data-name="CONTENIDOS INTERNET" transform="translate(67.585 187.106)" fill="#fff" font-size="10" font-family="Roboto-Regular, Roboto"><tspan x="-30.618" y="10">CONTENIDOS </tspan><tspan x="-23.196" y="20">INTERNET</tspan></text>
      <text id="SPONSOR" transform="translate(241.392 125.59)" fill="#fff" font-size="10" font-family="Roboto-Regular, Roboto"><tspan x="-22.605" y="10">SPONSOR</tspan></text>
      <text id="ENTRET._ESTILO_DE_VIDA" data-name="ENTRET.
ESTILO DE VIDA" transform="translate(264.826 180.271)" fill="#fff" font-size="10" font-family="Roboto-Regular, Roboto"><tspan x="-19.055" y="10">ENTRET.</tspan><tspan x="-23.479" y="20">ESTILO DE </tspan><tspan x="-11.03" y="30">VIDA</tspan></text>
      <text id="TARJETAS_FECHAS_ESPECIALES" data-name="TARJETAS FECHAS ESPECIALES" transform="translate(238.462 246.669)" fill="#fff" font-size="10" font-family="Roboto-Regular, Roboto"><tspan x="-23.799" y="10">TARJETAS </tspan><tspan x="-18.696" y="20">FECHAS </tspan><tspan x="-28.223" y="30">ESPECIALES</tspan></text>
      <text id="TOMAS_PUNTOS_DE_VENTE" data-name="TOMAS
PUNTOS DE VENTE" transform="translate(96.878 247.645)" fill="#fff" font-size="10" font-family="Roboto-Regular, Roboto"><tspan x="-16.99" y="10">TOMAS</tspan><tspan x="-26.567" y="20">PUNTOS DE </tspan><tspan x="-15.342" y="30">VENTE</tspan></text>
    </g>
  </g>
</svg>
