<svg xmlns="http://www.w3.org/2000/svg" xmlns:xlink="http://www.w3.org/1999/xlink" width="388.371" height="389.053" viewBox="0 0 388.371 389.053">
  <defs>
    <linearGradient id="linear-gradient" y1="0.5" x2="1" y2="0.5" gradientUnits="objectBoundingBox">
      <stop offset="0" stop-color="#c4c0c3"/>
      <stop offset="0.47" stop-color="#e1dfe0"/>
      <stop offset="0.96" stop-color="#fff"/>
    </linearGradient>
    <linearGradient id="linear-gradient-2" x1="0.269" y1="0.025" x2="0.756" y2="1.027" xlink:href="#linear-gradient"/>
  </defs>
  <g id="OBJECTS" transform="translate(-4.913 -6.203)">
    <path id="Trazado_132418" data-name="Trazado 132418" d="M152.751,288.662l-103-41.9A166.893,166.893,0,0,0,41,281.031a27.887,27.887,0,0,0,.841,52.817,167.679,167.679,0,0,0,8.816,31.522L153.1,322.176A55.961,55.961,0,0,1,152.751,288.662Z" transform="translate(-7.653 -104.785)" fill="#26aab7"/>
    <path id="Trazado_132419" data-name="Trazado 132419" d="M573.851,303.019a27.9,27.9,0,0,0-18.789-25.861,167.97,167.97,0,0,0-9.143-34.028L443.45,286.33a55.876,55.876,0,0,1,.068,33.656l102.965,41.9a167.219,167.219,0,0,0,8.494-31.968,27.9,27.9,0,0,0,18.874-26.894Z" transform="translate(-191.024 -103.204)" fill="#26aab7"/>
    <path id="Trazado_132420" data-name="Trazado 132420" d="M363.7,547.051,320.5,444.6a55.916,55.916,0,0,1-33.413.147L245.19,547.74a166.915,166.915,0,0,0,32.284,8.466,27.893,27.893,0,0,0,53-.152A167.828,167.828,0,0,0,363.7,547.051Z" transform="translate(-104.663 -190.963)" fill="#26aab7"/>
    <path id="Trazado_132421" data-name="Trazado 132421" d="M326.711,42.667a27.887,27.887,0,0,0-52.456.463,167.626,167.626,0,0,0-32.865,9.03L284.584,154.6a55.91,55.91,0,0,1,33.751-.265L360.26,51.359a167.493,167.493,0,0,0-33.548-8.692Z" transform="translate(-103.008 -7.963)" fill="#26aab7"/>
    <path id="Trazado_132422" data-name="Trazado 132422" d="M160.769,80.45A167.878,167.878,0,0,0,130.483,98.4a27.882,27.882,0,0,0-36.4,37.251A167.37,167.37,0,0,0,77.44,165.043L180.422,206.95a55.961,55.961,0,0,1,23.547-24.032Z" transform="translate(-31.592 -32.342)" fill="#786ead"/>
    <path id="Trazado_132423" data-name="Trazado 132423" d="M205.558,420.1a55.876,55.876,0,0,1-23.812-23.434L79.3,439.87a167.627,167.627,0,0,0,17.2,29.276A27.887,27.887,0,0,0,134.313,506.4a167.46,167.46,0,0,0,29.349,16.673Z" transform="translate(-32.402 -170.085)" fill="#786ead"/>
    <path id="Trazado_132424" data-name="Trazado 132424" d="M507.639,480.335a27.7,27.7,0,0,0-3.291-12.643,167.568,167.568,0,0,0,17.271-30.111l-103-41.9A55.915,55.915,0,0,1,395,419.43l43.194,102.445a167.577,167.577,0,0,0,28.4-16.475,27.882,27.882,0,0,0,41.077-25.065Z" transform="translate(-169.919 -169.654)" fill="#786ead"/>
    <path id="Trazado_132425" data-name="Trazado 132425" d="M503.327,132.9a27.887,27.887,0,0,0-37.251-36.952A167.383,167.383,0,0,0,436,78.77L394.12,181.763A55.916,55.916,0,0,1,418.1,205.519l102.445-43.194A167.909,167.909,0,0,0,503.327,132.9Z" transform="translate(-169.536 -31.61)" fill="#786ead"/>
    <path id="Trazado_132426" data-name="Trazado 132426" d="M372.528,269.812a104.2,104.2,0,0,0-26.267-69.3A104.59,104.59,0,0,0,192.273,342.034a104.6,104.6,0,0,0,180.255-72.221Z" transform="translate(-70.168 -70.539)" fill="#aee6e6"/>
    <path id="Trazado_132427" data-name="Trazado 132427" d="M361.323,303.042A59.827,59.827,0,1,0,343.8,345.561a60.042,60.042,0,0,0,17.523-42.519Z" transform="translate(-102.942 -103.147)" fill="#e8c85f"/>
    <circle id="Elipse_4369" data-name="Elipse 4369" cx="53.98" cy="53.98" r="53.98" transform="translate(122.764 200.729) rotate(-45)" fill="url(#linear-gradient)"/>
    <circle id="Elipse_4370" data-name="Elipse 4370" cx="49.995" cy="49.995" r="49.995" transform="translate(128.399 200.729) rotate(-45)" fill="url(#linear-gradient-2)"/>
    <path id="Trazado_132428" data-name="Trazado 132428" d="M274.006,348.623a3.866,3.866,0,0,1-1.236,2.579,4.007,4.007,0,0,1-2.76.909,3.719,3.719,0,0,1-3-1.338,5.384,5.384,0,0,1-1.129-3.584v-1.016a5.988,5.988,0,0,1,.525-2.585,3.951,3.951,0,0,1,1.484-1.693,4.188,4.188,0,0,1,2.258-.6,3.832,3.832,0,0,1,2.692.937,3.917,3.917,0,0,1,1.18,2.6h-1.394a3.037,3.037,0,0,0-.79-1.834,2.365,2.365,0,0,0-1.693-.564,2.489,2.489,0,0,0-2.094.988,4.515,4.515,0,0,0-.756,2.822v1.022a4.679,4.679,0,0,0,.717,2.732,2.325,2.325,0,0,0,2.009,1.016,2.675,2.675,0,0,0,1.778-.525,2.918,2.918,0,0,0,.824-1.829Z" transform="translate(-113.674 -145.963)" fill="#786ead"/>
    <path id="Trazado_132429" data-name="Trazado 132429" d="M291.417,347.022a6.564,6.564,0,0,1-.519,2.7,3.951,3.951,0,0,1-1.479,1.767,4.109,4.109,0,0,1-2.258.6,3.951,3.951,0,0,1-3.708-2.354,6.282,6.282,0,0,1-.564-2.63v-.756a6.422,6.422,0,0,1,.531-2.692,3.917,3.917,0,0,1,3.708-2.4,4.1,4.1,0,0,1,2.258.615,3.951,3.951,0,0,1,1.49,1.772,6.626,6.626,0,0,1,.519,2.709Zm-1.383-.683a4.713,4.713,0,0,0-.751-2.878,2.483,2.483,0,0,0-2.111-1,2.455,2.455,0,0,0-2.077,1,4.656,4.656,0,0,0-.779,2.783v.779a4.741,4.741,0,0,0,.768,2.856,2.675,2.675,0,0,0,4.188.056,4.69,4.69,0,0,0,.762-2.822Z" transform="translate(-121.084 -145.948)" fill="#786ead"/>
    <path id="Trazado_132430" data-name="Trazado 132430" d="M309.825,352.069h-1.4l-5.305-8.127v8.127h-1.4V341.52h1.4l5.322,8.173V341.52h1.383Z" transform="translate(-129.287 -146.062)" fill="#786ead"/>
    <path id="Trazado_132431" data-name="Trazado 132431" d="M323.142,347.251a6.592,6.592,0,0,1-2.6-1.264,2.421,2.421,0,0,1-.813-1.851,2.54,2.54,0,0,1,.993-2.06,3.951,3.951,0,0,1,2.591-.818,4.284,4.284,0,0,1,1.936.423,3.155,3.155,0,0,1,1.321,1.157,2.974,2.974,0,0,1,.469,1.614h-1.4a1.93,1.93,0,0,0-.61-1.507,2.466,2.466,0,0,0-1.693-.564,2.574,2.574,0,0,0-1.609.452,1.53,1.53,0,0,0-.564,1.259,1.366,1.366,0,0,0,.564,1.095,5.305,5.305,0,0,0,1.863.813,8.6,8.6,0,0,1,2.06.818,3.212,3.212,0,0,1,1.1,1.039,2.676,2.676,0,0,1,.356,1.4,2.466,2.466,0,0,1-1,2.054,4.261,4.261,0,0,1-2.67.768,4.971,4.971,0,0,1-2.032-.412,3.431,3.431,0,0,1-1.451-1.129,2.782,2.782,0,0,1-.514-1.642h1.4a1.829,1.829,0,0,0,.706,1.513,3,3,0,0,0,1.891.564,2.743,2.743,0,0,0,1.693-.452,1.462,1.462,0,0,0,.564-1.225,1.422,1.422,0,0,0-.564-1.2A6.263,6.263,0,0,0,323.142,347.251Z" transform="translate(-137.006 -145.946)" fill="#786ead"/>
    <path id="Trazado_132432" data-name="Trazado 132432" d="M343.314,341.52v7.174a3.387,3.387,0,0,1-.937,2.438,3.8,3.8,0,0,1-2.529,1.067h-.367a3.951,3.951,0,0,1-2.76-.931,3.341,3.341,0,0,1-1.044-2.574V341.52h1.377v7.145a2.421,2.421,0,0,0,.626,1.778,2.455,2.455,0,0,0,1.8.632,2.427,2.427,0,0,0,1.806-.632,2.4,2.4,0,0,0,.626-1.772V341.52Z" transform="translate(-144.077 -146.062)" fill="#786ead"/>
    <path id="Trazado_132433" data-name="Trazado 132433" d="M354.895,341.52l3.448,8.607,3.449-8.607h1.8v10.549H362.2V347.96l.13-4.431-3.46,8.539h-1.067l-3.454-8.523.135,4.414v4.109H353.1V341.52Z" transform="translate(-151.668 -146.062)" fill="#786ead"/>
    <path id="Trazado_132434" data-name="Trazado 132434" d="M377.614,352.069H376.22V341.52h1.394Z" transform="translate(-161.739 -146.062)" fill="#786ead"/>
    <path id="Trazado_132435" data-name="Trazado 132435" d="M383.19,352.068V341.519h2.98a4.792,4.792,0,0,1,2.433.61,4.115,4.115,0,0,1,1.637,1.733,5.643,5.643,0,0,1,.564,2.574v.677a5.644,5.644,0,0,1-.564,2.613,4.029,4.029,0,0,1-1.648,1.727,5.079,5.079,0,0,1-2.483.615Zm1.394-9.409v8.269h1.462a3.194,3.194,0,0,0,2.506-1,4.148,4.148,0,0,0,.892-2.85v-.615a4.182,4.182,0,0,0-.847-2.794,2.98,2.98,0,0,0-2.393-1.01Z" transform="translate(-164.775 -146.061)" fill="#786ead"/>
    <path id="Trazado_132436" data-name="Trazado 132436" d="M408.249,347.023a6.473,6.473,0,0,1-.525,2.7,3.95,3.95,0,0,1-1.479,1.767,4.092,4.092,0,0,1-2.229.6,3.951,3.951,0,0,1-3.7-2.354,6.209,6.209,0,0,1-.564-2.63v-.756a6.508,6.508,0,0,1,.525-2.692,4.154,4.154,0,0,1,5.943-1.789,3.894,3.894,0,0,1,1.49,1.772,6.535,6.535,0,0,1,.525,2.709Zm-1.388-.683a4.713,4.713,0,0,0-.751-2.878,2.483,2.483,0,0,0-2.105-1,2.45,2.45,0,0,0-2.077,1,4.578,4.578,0,0,0-.779,2.783v.779a4.741,4.741,0,0,0,.762,2.856,2.681,2.681,0,0,0,4.194.056,4.69,4.69,0,0,0,.756-2.822Z" transform="translate(-171.987 -145.949)" fill="#786ead"/>
    <path id="Trazado_132437" data-name="Trazado 132437" d="M422.38,347.8H419.92v4.267h-1.4V341.513h3.494a4.143,4.143,0,0,1,2.743.813,2.924,2.924,0,0,1,.96,2.359,2.822,2.822,0,0,1-.536,1.693,3.166,3.166,0,0,1-1.479,1.095l2.478,4.476v.09h-1.5Zm-2.478-1.129h2.133a2.387,2.387,0,0,0,1.648-.536,1.8,1.8,0,0,0,.615-1.439,1.919,1.919,0,0,0-.564-1.5,2.449,2.449,0,0,0-1.693-.525H419.92Z" transform="translate(-180.164 -146.055)" fill="#786ead"/>
    <path id="Trazado_132438" data-name="Trazado 132438" d="M393.274,202.846q.034-3.488-.045-6.97c-.034-1.535-.079-3.07-.152-4.606-.04-.858-.1-1.693-.152-2.574-.113-1.879-.248-3.759-.418-5.644-.045-.463-.079-.926-.124-1.383a194.083,194.083,0,0,0-30.015-86.456C304.4,5.18,184.015-20.907,93.958,37.08A194.1,194.1,0,0,0,5.143,191.727C.063,296.554,79.87,387.13,185.11,394.744c106.8,7.721,199.975-72.882,207.7-179.684.265-3.68.4-7.337.457-11.006C393.274,203.631,393.274,203.247,393.274,202.846Zm-193.953,163.6a164.654,164.654,0,0,1-99.24-33,13.849,13.849,0,0,0-2.325-2.308,163.9,163.9,0,0,1-34.993-37.172C33.482,251.255,27.076,198.9,41.084,152.27a165.405,165.405,0,0,1,78.272-96.118,13.772,13.772,0,0,0,3.144-2.382c74.925-39.215,169.006-15.38,215.643,57.056a165.287,165.287,0,0,1,20.223,45.017,12.682,12.682,0,0,0,.316,1.5,163.555,163.555,0,0,1,5.379,31.172c.051.728.079,1.456.124,2.184.062,1.05.124,2.094.164,3.144.056,1.349.09,2.7.113,4.052v.914a165.438,165.438,0,0,1-14.584,69.5,14.425,14.425,0,0,0-.627,1.727C322.892,326.869,265.227,366.484,199.321,366.445Z" transform="translate(0 0)" fill="#6a5d99"/>
    <text id="DR_RADIO" data-name="DR RADIO" transform="translate(83.556 104.761)" fill="#fff" font-size="9" font-family="Roboto-Regular, Roboto"><tspan x="0" y="0">DR RADIO</tspan></text>
    <text id="CLUBES" transform="translate(84.606 294.921)" fill="#fff" font-size="9" font-family="Roboto-Regular, Roboto"><tspan x="0" y="0">C</tspan><tspan y="0" letter-spacing="-0.03em">L</tspan><tspan y="0">UBES</tspan></text>
    <text id="CONCURSOS" transform="translate(268.947 294.921)" fill="#fff" font-size="9" font-family="Roboto-Regular, Roboto"><tspan x="0" y="0">CONCURSOS</tspan></text>
    <text id="BONOS" transform="translate(180.917 341.117)" fill="#fff" font-size="9" font-family="Roboto-Regular, Roboto"><tspan x="0" y="0">BONOS</tspan></text>
    <text id="CORREO_DIRECTO" data-name="CORREO
DIRECTO" transform="translate(302.019 185.124)" fill="#fff" font-size="10" font-family="Roboto-Regular, Roboto"><tspan x="-19.128" y="10">CORREO</tspan><tspan x="-20.095" y="20">DIRECTO</tspan></text>
    <text id="TESTIMONIO_DE_EXPERTOS" data-name="TESTIMONIO DE EXPERTOS" transform="translate(159.431 55.233)" fill="#fff" font-size="10" font-family="Roboto-Regular, Roboto"><tspan x="-36.658" y="10">TESTIMONIO DE </tspan><tspan x="-24.175" y="20">EXPERTOS</tspan></text>
    <text id="PROGRAMAS_DE_FIDELIZACIÓN" data-name="PROGRAMAS 
DE 
FIDELIZACIÓN" transform="translate(250.258 80.625)" fill="#fff" font-size="10" font-family="Roboto-Regular, Roboto"><tspan x="-30.054" y="10">PROGRAMAS </tspan><tspan x="-6.121" y="20">DE </tspan><tspan x="-32.17" y="30">FIDELIZACIÓN</tspan></text>
    <text id="OFERTAS_TV_DR_TV" data-name="OFERTAS TV
DR TV" transform="translate(37.353 185.124)" fill="#fff" font-size="10" font-family="Roboto-Regular, Roboto"><tspan x="-28.289" y="10">OFERTAS TV</tspan><tspan x="-13.701" y="20">DR TV</tspan></text>
  </g>
</svg>
