<svg xmlns="http://www.w3.org/2000/svg" width="67" height="59.184" viewBox="0 0 67 59.184">
  <g id="Grupo_1104238" data-name="Grupo 1104238" transform="translate(-180 -1188.408)">
    <g id="Grupo_1104117" data-name="Grupo 1104117" transform="translate(0 -2561.743)">
      <path id="_12068" data-name="12068" d="M66.039,71.828c-6.861-.947-14.108-.716-20.351,2.283C37.03,78.27,31.344,87.7,31.126,97.3s4.784,19.038,12.512,24.741a35.81,35.81,0,0,0,27.37,6.013c9.53-1.727,18.474-7.326,23.445-15.638,3.187-5.33,4.677-11.911,2.916-17.867a24.409,24.409,0,0,0-5.793-9.521A42.8,42.8,0,0,0,66.039,71.828Z" transform="translate(148.881 3680.691)" fill="#26aab7"/>
      <path id="Trazado_873155" data-name="Trazado 873155" d="M303.26,44.546a1.582,1.582,0,1,0-.106-2.456A1.573,1.573,0,0,0,303.26,44.546Z" transform="translate(138.287 4055.916) rotate(-90)" fill="#7d6eb2"/>
      <path id="Trazado_873156" data-name="Trazado 873156" d="M321.56,66.974a3.448,3.448,0,1,0-1.687-4.918A3.468,3.468,0,0,0,321.56,66.974Z" transform="translate(128.241 4079.581) rotate(-90)" fill="#ffd947"/>
      <circle id="Elipse_11521" data-name="Elipse 11521" cx="3.689" cy="3.689" r="3.689" transform="translate(237.702 3796.368) rotate(-90)" fill="none" stroke="#fff" stroke-linecap="round" stroke-linejoin="round" stroke-width="1.5"/>
    </g>
    <g id="breve" transform="translate(192.5 1198.257)">
      <g id="Grupo_1104119" data-name="Grupo 1104119" transform="translate(0.615 0.615)">
        <path id="Trazado_881506" data-name="Trazado 881506" d="M244.28,422.816v4.87l-2.3.155v-4.87Z" transform="translate(-222.745 -388.747)" fill="#5e6577"/>
        <path id="Trazado_881507" data-name="Trazado 881507" d="M7.5,139.638a.821.821,0,0,0,.82.82H47.449a.821.821,0,0,0,.82-.82V115.362a.821.821,0,0,0-.82-.82H8.32a.821.821,0,0,0-.82.82Z" transform="translate(-7.5 -105.761)" fill="#7d6eb2"/>
        <path id="Trazado_881508" data-name="Trazado 881508" d="M467.781,115.36v24.276a.821.821,0,0,1-.82.82H464.5V114.54h2.461A.821.821,0,0,1,467.781,115.36Z" transform="translate(-427.012 -105.759)" fill="#62529b"/>
        <path id="Trazado_881509" data-name="Trazado 881509" d="M139.3,478.767H117.8a.64.64,0,0,1-.64-.64,1.66,1.66,0,0,1,1.66-1.66h19.458a1.66,1.66,0,0,1,1.66,1.66A.64.64,0,0,1,139.3,478.767Z" transform="translate(-108.169 -437.997)" fill="#73788c"/>
        <path id="Trazado_881510" data-name="Trazado 881510" d="M98.822,40.953l-2.271.629H77.913l-3.241-.876-2.654.876H68.986V7.91a.41.41,0,0,1,.41-.41h25.72l3.6.432a.41.41,0,0,1,.41.41Z" transform="translate(-63.942 -7.5)" fill="#f3f9ff"/>
        <path id="Trazado_881511" data-name="Trazado 881511" d="M387.739,7.91V41.582h-3.117V9.323A1.822,1.822,0,0,0,382.8,7.5h4.529A.41.41,0,0,1,387.739,7.91Z" transform="translate(-352.014 -7.5)" fill="#f3f9ff"/>
        <path id="Trazado_881512" data-name="Trazado 881512" d="M111.672,164.055h-5.567a.164.164,0,0,1-.164-.164v-5.567a.164.164,0,0,1,.164-.164h5.567a.164.164,0,0,1,.164.164v5.567A.164.164,0,0,1,111.672,164.055Z" transform="translate(-97.866 -145.801)" fill="#ffd947"/>
        <g id="Grupo_1104118" data-name="Grupo 1104118" transform="translate(8.075 20.715)">
          <path id="Trazado_881513" data-name="Trazado 881513" d="M111.672,265.921h-5.567a.164.164,0,0,1-.164-.164V260.19a.164.164,0,0,1,.164-.164h5.567a.164.164,0,0,1,.164.164v5.567A.164.164,0,0,1,111.672,265.921Z" transform="translate(-105.941 -260.026)" fill="#d8dcec"/>
          <path id="Trazado_881514" data-name="Trazado 881514" d="M111.836,366.9h-5.9v-4.847a.164.164,0,0,1,.164-.164h5.567a.164.164,0,0,1,.164.164Z" transform="translate(-105.941 -353.536)" fill="#d8dcec"/>
        </g>
      </g>
      <g id="Grupo_1104120" data-name="Grupo 1104120" transform="translate(0)">
        <path id="Trazado_881515" data-name="Trazado 881515" d="M41.385,13.464A.615.615,0,0,0,42,12.848V10.217a1.437,1.437,0,0,0-1.436-1.435H36.956V.615A.615.615,0,0,0,36.341,0H5.659a.615.615,0,0,0-.615.615V8.782H1.436A1.437,1.437,0,0,0,0,10.217V34.493a1.437,1.437,0,0,0,1.436,1.435h17.8V38.47H16.021a.615.615,0,0,0,0,1.23H30.729a1.046,1.046,0,0,1,1.044,1.044.025.025,0,0,1-.025.025h-21.5a.025.025,0,0,1-.025-.025A1.046,1.046,0,0,1,11.271,39.7h1.917a.615.615,0,1,0,0-1.23H11.271A2.277,2.277,0,0,0,9,40.745,1.256,1.256,0,0,0,10.251,42h21.5A1.256,1.256,0,0,0,33,40.745a2.277,2.277,0,0,0-2.275-2.275H22.765V35.928h17.8A1.437,1.437,0,0,0,42,34.493V15.627a.615.615,0,0,0-1.23,0V34.493a.205.205,0,0,1-.205.2H36.956V31.122a.615.615,0,1,0-1.23,0V34.7H15.2V29.687a.615.615,0,0,0-.615-.615h-5.9a.615.615,0,0,0-.615.615V34.7h-1.8V17.652a.615.615,0,0,0-1.23,0V34.7H1.436a.205.205,0,0,1-.205-.2V10.217a.205.205,0,0,1,.205-.2H5.044V14.78a.615.615,0,1,0,1.23,0V1.23H35.726v27.02a.615.615,0,1,0,1.23,0V10.012h3.608a.205.205,0,0,1,.205.2v2.631a.615.615,0,0,0,.615.615ZM21.535,38.47h-1.07V35.928h1.07V38.47ZM9.306,30.3H13.97v4.4H9.306Z" transform="translate(0)" fill="#00223d"/>
        <path id="Trazado_881516" data-name="Trazado 881516" d="M105.567,139.156l.84-1.111a.615.615,0,0,0-.981-.742l-.659.872h-5.71a.615.615,0,0,0-.615.615v5.9a.615.615,0,0,0,.615.615h5.9a.615.615,0,0,0,.615-.615v-5.528Zm-5.9,4.913V139.4h4.165l-1.612,2.132-.594-.607a.615.615,0,1,0-.879.861l1.094,1.117a.615.615,0,0,0,.439.185h.039a.615.615,0,0,0,.451-.243l1.561-2.065v3.286H99.671Z" transform="translate(-90.366 -125.815)" fill="#00223d"/>
        <path id="Trazado_881517" data-name="Trazado 881517" d="M104.952,252.526h-5.9a.615.615,0,0,0-.615.615v5.9a.615.615,0,0,0,.615.615h5.9a.615.615,0,0,0,.615-.615v-5.9A.615.615,0,0,0,104.952,252.526Zm-.615,5.9H99.672v-4.665h4.665Z" transform="translate(-90.367 -231.811)" fill="#00223d"/>
        <path id="Trazado_881518" data-name="Trazado 881518" d="M229.094,165.5H214.63a.615.615,0,1,0,0,1.23h14.464a.615.615,0,0,0,0-1.23Z" transform="translate(-196.459 -151.926)" fill="#00223d"/>
        <path id="Trazado_881519" data-name="Trazado 881519" d="M214.63,208.912h6.976a.615.615,0,0,0,0-1.23H214.63a.615.615,0,0,0,0,1.23Z" transform="translate(-196.459 -190.646)" fill="#00223d"/>
        <path id="Trazado_881520" data-name="Trazado 881520" d="M229.094,271.117H214.63a.615.615,0,1,0,0,1.23h14.464a.615.615,0,1,0,0-1.23Z" transform="translate(-196.459 -248.877)" fill="#00223d"/>
        <path id="Trazado_881521" data-name="Trazado 881521" d="M214.63,314.527h6.976a.615.615,0,0,0,0-1.23H214.63a.615.615,0,0,0,0,1.23Z" transform="translate(-196.459 -287.597)" fill="#00223d"/>
        <path id="Trazado_881522" data-name="Trazado 881522" d="M214.63,389.916h14.464a.615.615,0,1,0,0-1.23H214.63a.615.615,0,1,0,0,1.23Z" transform="translate(-196.459 -356.802)" fill="#00223d"/>
        <path id="Trazado_881523" data-name="Trazado 881523" d="M263.607,46.89V41.936a.615.615,0,0,0-1.23,0V46.89a.615.615,0,1,0,1.23,0Z" transform="translate(-240.854 -37.931)" fill="#00223d"/>
        <path id="Trazado_881524" data-name="Trazado 881524" d="M359.388,42.551a.615.615,0,0,0,0-1.23H357.38a.615.615,0,0,0-.615.615V46.89a.615.615,0,1,0,1.23,0V44.982h1.233a.615.615,0,1,0,0-1.23H358v-1.2Z" transform="translate(-327.499 -37.931)" fill="#00223d"/>
        <path id="Trazado_881525" data-name="Trazado 881525" d="M300.815,42.551a.615.615,0,0,0,0-1.23h-2.087a.615.615,0,0,0-.615.615V46.89a.615.615,0,0,0,.615.615h2.087a.615.615,0,1,0,0-1.23h-1.472V45.028h1.239a.615.615,0,1,0,0-1.23h-1.239V42.551Z" transform="translate(-273.658 -37.931)" fill="#00223d"/>
        <path id="Trazado_881526" data-name="Trazado 881526" d="M123.812,41.321h-1.44a.615.615,0,0,0-.615.615V46.89a.615.615,0,0,0,.615.615h1.691a1.95,1.95,0,0,0,1.219-3.471,1.754,1.754,0,0,0-1.471-2.713Zm-.825,1.23h.825a.526.526,0,0,1,0,1.053h-.825Zm1.076,3.724h-1.076v-1.44h1.076a.72.72,0,0,1,0,1.44Z" transform="translate(-111.769 -37.931)" fill="#00223d"/>
        <path id="Trazado_881527" data-name="Trazado 881527" d="M194.664,46.89V45.475l1.6,1.821a.615.615,0,0,0,.925-.811l-1.256-1.432a1.922,1.922,0,0,0,1.409-1.829,1.942,1.942,0,0,0-1.976-1.9h-1.315a.615.615,0,0,0-.615.615V46.89a.615.615,0,0,0,1.23,0Zm0-4.339h.7a.679.679,0,1,1,0,1.351h-.7Z" transform="translate(-177.566 -37.931)" fill="#00223d"/>
      </g>
    </g>
  </g>
</svg>
