<svg xmlns="http://www.w3.org/2000/svg" width="67" height="59.184" viewBox="0 0 67 59.184">
  <g id="Grupo_1104249" data-name="Grupo 1104249" transform="translate(-180 -12092.018)">
    <g id="Grupo_1104207" data-name="Grupo 1104207" transform="translate(0 8341.866)">
      <path id="_12068" data-name="12068" d="M66.039,71.828c-6.861-.947-14.108-.716-20.351,2.283C37.03,78.27,31.344,87.7,31.126,97.3s4.784,19.038,12.512,24.741a35.81,35.81,0,0,0,27.37,6.013c9.53-1.727,18.474-7.326,23.445-15.638,3.187-5.33,4.677-11.911,2.916-17.867a24.409,24.409,0,0,0-5.793-9.521A42.8,42.8,0,0,0,66.039,71.828Z" transform="translate(148.881 3680.691)" fill="#26aab7"/>
      <path id="Trazado_873155" data-name="Trazado 873155" d="M303.26,44.546a1.582,1.582,0,1,0-.106-2.456A1.573,1.573,0,0,0,303.26,44.546Z" transform="translate(138.287 4055.916) rotate(-90)" fill="#7d6eb2"/>
      <path id="Trazado_873156" data-name="Trazado 873156" d="M321.56,66.974a3.448,3.448,0,1,0-1.687-4.918A3.468,3.468,0,0,0,321.56,66.974Z" transform="translate(128.241 4079.581) rotate(-90)" fill="#ffd947"/>
      <circle id="Elipse_11521" data-name="Elipse 11521" cx="3.689" cy="3.689" r="3.689" transform="translate(237.702 3796.368) rotate(-90)" fill="none" stroke="#fff" stroke-linecap="round" stroke-linejoin="round" stroke-width="1.5"/>
    </g>
    <g id="cuantitativo" transform="translate(193.933 12103.299)">
      <g id="Grupo_1104221" data-name="Grupo 1104221" transform="translate(0.631 0.631)">
        <g id="Grupo_1104208" data-name="Grupo 1104208" transform="translate(8.837 26.226)">
          <path id="Trazado_881704" data-name="Trazado 881704" d="M20.05,42.55v2.809H15V42.55a11.363,11.363,0,0,0,5.05,0Z" transform="translate(-15 -42.55)" fill="#deac2f"/>
        </g>
        <g id="Grupo_1104209" data-name="Grupo 1104209" transform="translate(8.837 29.035)">
          <path id="Trazado_881705" data-name="Trazado 881705" d="M20.05,47v7.574a1.266,1.266,0,0,1-1.262,1.262H16.262A1.266,1.266,0,0,1,15,54.574V47Z" transform="translate(-15 -47)" fill="#7d6eb2"/>
        </g>
        <g id="Grupo_1104210" data-name="Grupo 1104210" transform="translate(0 3.787)">
          <path id="Trazado_881706" data-name="Trazado 881706" d="M12.677,7.006A11.2,11.2,0,0,1,18.25,8.647l.006.013a3.808,3.808,0,0,0-1.793,1.875,8.827,8.827,0,1,0,4.336,5.2A3.8,3.8,0,0,0,22.978,14.3a11.41,11.41,0,0,1,.745,4.059,11.9,11.9,0,0,1-.069,1.262,11.4,11.4,0,0,1-8.767,9.815,11.363,11.363,0,0,1-5.05,0A11.361,11.361,0,0,1,12.361,7C12.469,7,12.57,7,12.677,7.006Z" transform="translate(-1 -7)" fill="#7d6eb2"/>
        </g>
        <g id="Grupo_1104211" data-name="Grupo 1104211" transform="translate(2.525 6.312)">
          <path id="Trazado_881707" data-name="Trazado 881707" d="M14.626,18.372a2.519,2.519,0,1,0,.473,1.464A2.505,2.505,0,0,0,14.626,18.372Zm3.705-2.645a3.784,3.784,0,0,0,3.08,1.584,3.564,3.564,0,0,0,.865-.1,8.839,8.839,0,1,1-4.336-5.2,3.783,3.783,0,0,0-.316,1.515,3.743,3.743,0,0,0,.707,2.2Z" transform="translate(-5 -11)" fill="#4fc1e9"/>
        </g>
        <g id="Grupo_1104212" data-name="Grupo 1104212" transform="translate(11.677)">
          <path id="Trazado_881708" data-name="Trazado 881708" d="M30.293,11.194a3.73,3.73,0,0,0,.252-1.357A3.79,3.79,0,0,0,26.759,6.05a3.658,3.658,0,0,0-1.679.4l-.006-.013A11.2,11.2,0,0,0,19.5,4.793,8.825,8.825,0,0,1,32.812,3.411a5.673,5.673,0,0,1,9.1,4.532,5.967,5.967,0,0,1-.044.675,4.416,4.416,0,0,1-.587,8.792h-10.8a11.9,11.9,0,0,0,.069-1.262A11.41,11.41,0,0,0,29.8,12.09,3.64,3.64,0,0,0,30.293,11.194Zm5.592.145a1.893,1.893,0,1,0,.972,1.654,1.89,1.89,0,0,0-.972-1.654Zm1.622-2.922a1.263,1.263,0,1,0-.65-1.1A1.277,1.277,0,0,0,37.508,8.416Z" transform="translate(-19.5 -1)" fill="#62529b"/>
        </g>
        <g id="Grupo_1104213" data-name="Grupo 1104213" transform="translate(7.574 12.624)">
          <path id="Trazado_881709" data-name="Trazado 881709" d="M17.576,22.06A2.521,2.521,0,1,1,15.525,21,2.518,2.518,0,0,1,17.576,22.06Z" transform="translate(-13 -21)" fill="#ffd947"/>
        </g>
        <g id="Grupo_1104214" data-name="Grupo 1104214" transform="translate(29.035 5.05)">
          <path id="Trazado_881710" data-name="Trazado 881710" d="M48.262,9A1.263,1.263,0,1,1,47,10.262,1.266,1.266,0,0,1,48.262,9Z" transform="translate(-47 -9)" fill="#ffd947"/>
        </g>
        <g id="Grupo_1104215" data-name="Grupo 1104215" transform="translate(25.248 10.099)">
          <path id="Trazado_881711" data-name="Trazado 881711" d="M43.815,17.24a1.893,1.893,0,1,1-.922-.24A1.886,1.886,0,0,1,43.815,17.24Z" transform="translate(-41 -17)" fill="#ffd947"/>
        </g>
        <g id="Grupo_1104216" data-name="Grupo 1104216" transform="translate(15.149 5.05)">
          <path id="Trazado_881712" data-name="Trazado 881712" d="M32.574,12.787a3.73,3.73,0,0,1-.252,1.357,3.64,3.64,0,0,1-.492.9,3.8,3.8,0,0,1-2.178,1.433,3.564,3.564,0,0,1-.865.1,3.784,3.784,0,0,1-3.08-1.584,3.743,3.743,0,0,1-.707-2.2A3.772,3.772,0,0,1,27.108,9.4,3.658,3.658,0,0,1,28.787,9,3.79,3.79,0,0,1,32.574,12.787Z" transform="translate(-25 -9)" fill="#ffd947"/>
        </g>
        <g id="Grupo_1104217" data-name="Grupo 1104217" transform="translate(18.929 15.085)">
          <path id="Trazado_881713" data-name="Trazado 881713" d="M48.67,24.9V45.792a.633.633,0,0,1-.631.631H31.628A.633.633,0,0,1,31,45.792V33.434l-.006-.006a11.281,11.281,0,0,0,3.724-7.2h10.8A4.394,4.394,0,0,0,48.67,24.9Zm-12.624,19v-5.05H33.521V43.9Zm5.05,0V36.325H38.571V43.9Zm2.525,0h2.525V33.8H43.62Z" transform="translate(-30.99 -24.9)" fill="#ffd947"/>
        </g>
        <g id="Grupo_1104218" data-name="Grupo 1104218" transform="translate(31.56 23.985)">
          <path id="Trazado_881714" data-name="Trazado 881714" d="M51,39h2.525V49.1H51Z" transform="translate(-51 -39)" fill="#59836b"/>
        </g>
        <g id="Grupo_1104219" data-name="Grupo 1104219" transform="translate(26.51 26.51)">
          <path id="Trazado_881715" data-name="Trazado 881715" d="M43,43h2.525v7.574H43Z" transform="translate(-43 -43)" fill="#59836b"/>
        </g>
        <g id="Grupo_1104220" data-name="Grupo 1104220" transform="translate(21.46 29.035)">
          <path id="Trazado_881716" data-name="Trazado 881716" d="M35,47h2.525v5.05H35Z" transform="translate(-35 -47)" fill="#59836b"/>
        </g>
      </g>
      <g id="Grupo_1104222" data-name="Grupo 1104222">
        <path id="Trazado_881717" data-name="Trazado 881717" d="M39.134,12.624a5.062,5.062,0,0,0-3.79-4.885c0-.056,0-.11,0-.164a6.319,6.319,0,0,0-6.312-6.312,6.24,6.24,0,0,0-3.365.978A9.432,9.432,0,0,0,12.01,3.788h-.018a11.985,11.985,0,0,0-3.156,23.55v9.9a1.9,1.9,0,0,0,1.894,1.894h2.525a1.9,1.9,0,0,0,1.894-1.894v-9.9a11.951,11.951,0,0,0,3.787-1.8V36.609A1.264,1.264,0,0,0,20.2,37.871H36.609a1.264,1.264,0,0,0,1.262-1.262V15.953a5.023,5.023,0,0,0,1.262-3.329ZM19.567,1.262A8.172,8.172,0,0,1,25.188,3.5l.388.365L26,3.545a5.03,5.03,0,0,1,8.045,4.629l-.074.618.617.082a3.785,3.785,0,0,1-.5,7.536H23.953c.011-.21.032-.418.032-.631a11.941,11.941,0,0,0-.682-3.965c.04-.062.079-.125.116-.19l1.858.715a2.488,2.488,0,0,0-.028.284A2.525,2.525,0,1,0,29.508,10.8l1.108-1.994a1.908,1.908,0,1,0-1.1-.615l-1.11,2a2.486,2.486,0,0,0-.631-.09,2.519,2.519,0,0,0-2.049,1.06l-1.851-.712a4.409,4.409,0,0,0-5.94-5.08,11.939,11.939,0,0,0-4.374-1.475,8.209,8.209,0,0,1,6.009-2.63ZM20.2,15.78a8.246,8.246,0,1,1-4.885-7.49,4.358,4.358,0,0,0,.332,3.2l-2.774,1.981a3.152,3.152,0,1,0,.738,1.024l2.771-1.979a4.4,4.4,0,0,0,3.188,1.367c.136,0,.271-.008.4-.02A8.232,8.232,0,0,1,20.2,15.78Zm-7.574,0a1.894,1.894,0,1,1-1.894-1.894A1.9,1.9,0,0,1,12.624,15.78Zm6.943-3.156a3.156,3.156,0,1,1,3.156-3.156A3.16,3.16,0,0,1,19.567,12.624Zm9.468,0a1.262,1.262,0,1,1-1.262-1.262A1.264,1.264,0,0,1,29.035,12.624ZM30.3,6.943a.631.631,0,1,1,.631.631A.632.632,0,0,1,30.3,6.943ZM1.262,15.78A10.725,10.725,0,0,1,16.68,6.131a4.433,4.433,0,0,0-.859,1.006A9.44,9.44,0,1,0,21.2,13.57a4.415,4.415,0,0,0,1.135-.663A10.731,10.731,0,1,1,1.262,15.78ZM13.255,37.871H10.73a.632.632,0,0,1-.631-.631V30.3h3.787V37.24A.632.632,0,0,1,13.255,37.871Zm.631-8.837H10.1V27.608a11.932,11.932,0,0,0,1.894.165,11.932,11.932,0,0,0,1.894-.165ZM20.2,36.609V24.5a11.959,11.959,0,0,0,3.622-6.828H34.084a5.012,5.012,0,0,0,2.525-.683V36.609Z" fill="#00223d"/>
        <path id="Trazado_881718" data-name="Trazado 881718" d="M44.1,48.1H42.837V40.525H39.05V48.1H37.787V43.05H34v6.312H47.886V38H44.1Zm-7.574,0H35.262V44.312h1.262Zm3.787-6.312h1.262V48.1H40.312Zm5.05-2.525h1.262V48.1H45.361Z" transform="translate(-12.54 -14.015)" fill="#00223d"/>
        <path id="Trazado_881719" data-name="Trazado 881719" d="M40,30h2.525v1.262H40Z" transform="translate(-14.752 -11.064)" fill="#00223d"/>
        <path id="Trazado_881720" data-name="Trazado 881720" d="M46,30h6.312v1.262H46Z" transform="translate(-16.965 -11.064)" fill="#00223d"/>
        <path id="Trazado_881721" data-name="Trazado 881721" d="M40,34h6.312v1.262H40Z" transform="translate(-14.752 -12.54)" fill="#00223d"/>
        <path id="Trazado_881722" data-name="Trazado 881722" d="M40,38h5.05v1.262H40Z" transform="translate(-14.752 -14.015)" fill="#00223d"/>
      </g>
    </g>
  </g>
</svg>
