<svg xmlns="http://www.w3.org/2000/svg" xmlns:xlink="http://www.w3.org/1999/xlink" width="612.117" height="608.854" viewBox="0 0 612.117 608.854">
  <defs>
    <clipPath id="clip-path">
      <rect id="Rectángulo_403028" data-name="Rectángulo 403028" width="612.117" height="608.853" fill="none"/>
    </clipPath>
    <clipPath id="clip-path-2">
      <path id="Trazado_881786" data-name="Trazado 881786" d="M220.376,310.851a85.916,85.916,0,1,0,171.832.007v-.007a85.916,85.916,0,0,0-171.832,0" fill="none"/>
    </clipPath>
    <linearGradient id="linear-gradient" x1="-0.76" y1="1.726" x2="-0.756" y2="1.726" gradientUnits="objectBoundingBox">
      <stop offset="0" stop-color="#fff"/>
      <stop offset="1" stop-color="#e4e4e4"/>
    </linearGradient>
    <clipPath id="clip-path-4">
      <path id="Trazado_881789" data-name="Trazado 881789" d="M307.364,238.163a72.272,72.272,0,1,0,.017,0Z" fill="none"/>
    </clipPath>
    <linearGradient id="linear-gradient-2" x1="-1.004" y1="1.96" x2="-0.999" y2="1.96" xlink:href="#linear-gradient"/>
    <clipPath id="clip-path-6">
      <rect id="Rectángulo_403033" data-name="Rectángulo 403033" width="69.723" height="38.162" transform="translate(274.763 292.291)" fill="none"/>
    </clipPath>
  </defs>
  <g id="Grupo_1104252" data-name="Grupo 1104252" transform="translate(-493.941 -11002.232)">
    <path id="Trazado_881790" data-name="Trazado 881790" d="M3.221-8.99l-.191,1A3.512,3.512,0,0,1,5.761-9.147a2.771,2.771,0,0,1,1.448.39A1.914,1.914,0,0,1,8.027-7.7a3.708,3.708,0,0,1,2.98-1.444,2.375,2.375,0,0,1,1.984.9A3.232,3.232,0,0,1,13.464-5.9L12.476,0H10.982l.979-5.918a3.127,3.127,0,0,0,0-.789Q11.8-7.836,10.484-7.861a2.269,2.269,0,0,0-1.49.51,2.361,2.361,0,0,0-.859,1.382L7.114,0H5.6l1-5.91A1.9,1.9,0,0,0,6.321-7.33a1.463,1.463,0,0,0-1.2-.515A2.46,2.46,0,0,0,2.889-6.566L1.751,0H.249L1.81-8.981ZM20.287,0a2.012,2.012,0,0,1-.058-.473l.025-.473A3.682,3.682,0,0,1,17.631.166,2.684,2.684,0,0,1,15.7-.585a2.274,2.274,0,0,1-.677-1.839,2.765,2.765,0,0,1,1.249-2.229,5.318,5.318,0,0,1,3.067-.8l1.569.008.1-.714A1.641,1.641,0,0,0,20.7-7.433a1.5,1.5,0,0,0-1.183-.486,2.317,2.317,0,0,0-1.365.378A1.607,1.607,0,0,0,17.423-6.5l-1.511.008a2.408,2.408,0,0,1,.614-1.4,3.574,3.574,0,0,1,1.386-.946,4.478,4.478,0,0,1,1.751-.32,2.978,2.978,0,0,1,2.183.851A2.639,2.639,0,0,1,22.5-6.134l-.73,4.449-.042.639a3.133,3.133,0,0,0,.1.9L21.814,0ZM17.93-1.162A2.62,2.62,0,0,0,19.3-1.507a3.458,3.458,0,0,0,1.108-1l.324-1.851L19.59-4.366a4.308,4.308,0,0,0-2.175.448,1.651,1.651,0,0,0-.855,1.27,1.286,1.286,0,0,0,.295,1.05A1.4,1.4,0,0,0,17.93-1.162Zm11.5-6.45-.706-.075a2.571,2.571,0,0,0-2.274,1.3L25.351,0h-1.5l1.561-8.981,1.453-.008-.224,1.046a2.685,2.685,0,0,1,2.25-1.22,2.756,2.756,0,0,1,.714.125Zm3.3,3.47L31.551-3.088,31.02,0h-1.5l2.216-12.75h1.5L31.908-5.13l.921-.93,3.188-2.922h1.951L33.842-5.155,36.681,0H35.038ZM41.836.166a3.238,3.238,0,0,1-2.623-1.237,4.256,4.256,0,0,1-.8-3.08l.042-.357a5.976,5.976,0,0,1,.793-2.44,4.611,4.611,0,0,1,1.59-1.664,3.709,3.709,0,0,1,2.025-.535,2.856,2.856,0,0,1,2.175.921A3.789,3.789,0,0,1,45.9-5.819,7.034,7.034,0,0,1,45.87-4.74l-.091.689H39.91a3.034,3.034,0,0,0,.4,2.075,1.907,1.907,0,0,0,1.648.888,3.2,3.2,0,0,0,2.457-1.2l.863.73A3.951,3.951,0,0,1,43.824-.278,4.129,4.129,0,0,1,41.836.166Zm.955-8.06a2.195,2.195,0,0,0-1.623.631,4.484,4.484,0,0,0-1.1,1.951l4.366.008.033-.133a2.457,2.457,0,0,0-.336-1.739A1.581,1.581,0,0,0,42.791-7.894Zm7.944-3.262-.382,2.175h1.635L51.78-7.794H50.153l-.938,5.586a1.948,1.948,0,0,0-.008.4.633.633,0,0,0,.706.647,4.3,4.3,0,0,0,.73-.083L50.527.008a4.087,4.087,0,0,1-1.1.149A1.569,1.569,0,0,1,48.086-.5a2.552,2.552,0,0,1-.349-1.731l.913-5.562H47.065l.208-1.187h1.585l.382-2.175ZM53.864,0H52.37L53.93-8.981h1.494ZM55.1-12.26a.822.822,0,0,1,.635.228.854.854,0,0,1,.253.643.9.9,0,0,1-.253.639.909.909,0,0,1-.635.266.828.828,0,0,1-.639-.224.812.812,0,0,1-.241-.631.942.942,0,0,1,.249-.647A.878.878,0,0,1,55.1-12.26ZM59.3-8.99l-.216,1.137a3.541,3.541,0,0,1,2.756-1.295,2.228,2.228,0,0,1,1.876.88,3.418,3.418,0,0,1,.448,2.382L63.186,0h-1.5l.988-5.9a3.147,3.147,0,0,0,.008-.755,1.241,1.241,0,0,0-1.37-1.186A2.828,2.828,0,0,0,58.936-6.4L57.823,0h-1.5l1.561-8.981Zm6.641,4.482a7.32,7.32,0,0,1,.793-2.552,4.146,4.146,0,0,1,1.444-1.6,3.348,3.348,0,0,1,1.864-.494A2.763,2.763,0,0,1,72.4-7.977l.3-1h1.378L72.582-.191a4.37,4.37,0,0,1-1.395,2.752,3.928,3.928,0,0,1-2.847.984,4.043,4.043,0,0,1-1.747-.432,3.322,3.322,0,0,1-1.316-1.137l.855-.921a2.57,2.57,0,0,0,2.15,1.237,2.576,2.576,0,0,0,1.814-.6A3.084,3.084,0,0,0,71.08-.1l.166-.8A3.4,3.4,0,0,1,68.681.166a2.641,2.641,0,0,1-1.457-.452,2.751,2.751,0,0,1-.959-1.237,5.056,5.056,0,0,1-.374-1.805A9.278,9.278,0,0,1,65.941-4.507Zm1.453.85A3.16,3.16,0,0,0,67.8-1.821a1.553,1.553,0,0,0,1.316.684,2.721,2.721,0,0,0,2.316-1.318l.706-4.12a1.887,1.887,0,0,0-1.8-1.277,2.331,2.331,0,0,0-2,.995,5.183,5.183,0,0,0-.926,2.777ZM79.58-4.565a5.261,5.261,0,0,1,.979-3.324,3.1,3.1,0,0,1,2.565-1.258,3.115,3.115,0,0,1,2.5,1.079V-12.75h1.536V0H85.747l-.075-.963A3.127,3.127,0,0,1,83.107.166a3.068,3.068,0,0,1-2.544-1.278,5.321,5.321,0,0,1-.984-3.337Zm1.536.174A3.984,3.984,0,0,0,81.746-2a2.039,2.039,0,0,0,1.743.863,2.24,2.24,0,0,0,2.133-1.312V-6.574a2.257,2.257,0,0,0-2.117-1.27,2.049,2.049,0,0,0-1.76.872A4.386,4.386,0,0,0,81.115-4.391ZM91.209,0H89.673V-8.981h1.536Zm-1.66-11.364a.917.917,0,0,1,.228-.631.857.857,0,0,1,.677-.257.87.87,0,0,1,.681.257.907.907,0,0,1,.232.631.877.877,0,0,1-.232.623.886.886,0,0,1-.681.249.872.872,0,0,1-.677-.249A.886.886,0,0,1,89.549-11.364ZM98.007-7.6a4.6,4.6,0,0,0-.755-.058A2.024,2.024,0,0,0,95.2-6.375V0H93.666V-8.981H95.16l.025,1.038a2.391,2.391,0,0,1,2.142-1.2,1.569,1.569,0,0,1,.681.116Zm4.98,7.77a3.924,3.924,0,0,1-2.972-1.2,4.452,4.452,0,0,1-1.146-3.208v-.282a5.39,5.39,0,0,1,.51-2.386,3.982,3.982,0,0,1,1.428-1.644,3.59,3.59,0,0,1,1.988-.594,3.364,3.364,0,0,1,2.723,1.154,5,5,0,0,1,.971,3.3v.639h-6.084a3.193,3.193,0,0,0,.776,2.146,2.44,2.44,0,0,0,1.888.818,2.675,2.675,0,0,0,1.378-.332,3.462,3.462,0,0,0,.988-.88l.938.73A3.772,3.772,0,0,1,102.988.166ZM102.8-7.886a2.048,2.048,0,0,0-1.561.677,3.288,3.288,0,0,0-.78,1.9h4.5v-.116a2.925,2.925,0,0,0-.631-1.814A1.928,1.928,0,0,0,102.8-7.886Zm9.073,6.8a2.212,2.212,0,0,0,1.436-.5,1.752,1.752,0,0,0,.681-1.245h1.453a2.785,2.785,0,0,1-.531,1.469A3.5,3.5,0,0,1,113.6-.249a3.772,3.772,0,0,1-1.731.415,3.7,3.7,0,0,1-2.918-1.224,4.877,4.877,0,0,1-1.083-3.349v-.257A5.407,5.407,0,0,1,108.35-7a3.667,3.667,0,0,1,1.382-1.585,3.926,3.926,0,0,1,2.129-.564,3.6,3.6,0,0,1,2.511.9,3.234,3.234,0,0,1,1.067,2.349h-1.453a2.116,2.116,0,0,0-.66-1.432,2.053,2.053,0,0,0-1.465-.56,2.149,2.149,0,0,0-1.814.843,3.957,3.957,0,0,0-.643,2.436v.291a3.878,3.878,0,0,0,.639,2.391A2.16,2.16,0,0,0,111.87-1.087Zm7.379-10.069v2.175h1.677v1.187h-1.677v5.577a1.247,1.247,0,0,0,.224.81.943.943,0,0,0,.764.27,3.718,3.718,0,0,0,.73-.1V0a4.478,4.478,0,0,1-1.179.165,1.912,1.912,0,0,1-1.552-.623,2.675,2.675,0,0,1-.523-1.768v-5.57h-1.635V-8.981h1.635v-2.175Zm2.9,6.583a5.3,5.3,0,0,1,.519-2.374,3.87,3.87,0,0,1,1.444-1.627,3.932,3.932,0,0,1,2.113-.573,3.788,3.788,0,0,1,2.968,1.27A4.886,4.886,0,0,1,130.322-4.5v.108a5.351,5.351,0,0,1-.5,2.353,3.813,3.813,0,0,1-1.436,1.623,3.977,3.977,0,0,1-2.146.581,3.778,3.778,0,0,1-2.959-1.27,4.861,4.861,0,0,1-1.133-3.362Zm1.544.183a3.842,3.842,0,0,0,.693,2.4,2.218,2.218,0,0,0,1.855.9A2.2,2.2,0,0,0,128.1-2a4.2,4.2,0,0,0,.689-2.569,3.836,3.836,0,0,0-.7-2.395,2.23,2.23,0,0,0-1.864-.917,2.205,2.205,0,0,0-1.834.9A4.17,4.17,0,0,0,123.69-4.391Z" transform="translate(895.629 11209.643) rotate(-47)" fill="#fff"/>
    <g id="Grupo_1104237" data-name="Grupo 1104237" transform="translate(493.941 11002.232)" clip-path="url(#clip-path)">
      <path id="Trazado_881766" data-name="Trazado 881766" d="M340.786,72.037c5.49-.023,7.6-4.051,4.776-8.949L311.006,3.682c-2.859-4.909-7.5-4.921-10.329.032L266.5,63.329c-2.818,4.926-.646,8.944,4.824,8.929A10.19,10.19,0,0,1,281.33,82.541l.353,123.85a10.339,10.339,0,0,0,10.342,10.286l28.9-.086a10.357,10.357,0,0,0,10.286-10.361l-.35-123.838a10.181,10.181,0,0,1,9.932-10.354Z" fill="#7d6eb2"/>
      <path id="Trazado_881767" data-name="Trazado 881767" d="M433.642,106.546c5.025,2.212,8.588-.611,8-6.233l-7.406-68.325c-.615-5.647-4.85-7.546-9.449-4.172L369.319,68.375c-4.578,3.355-4.228,7.908.776,10.12a10.19,10.19,0,0,1,4.959,13.464L325,205.245a10.339,10.339,0,0,0,5.264,13.6L356.7,230.522a10.357,10.357,0,0,0,13.611-5.281l50.05-113.274a10.18,10.18,0,0,1,13.284-5.419Z" fill="#26aab7"/>
      <path id="Trazado_881768" data-name="Trazado 881768" d="M504.436,175.84c3.691,4.064,8.094,2.935,9.846-2.439l21.025-65.431c1.735-5.408-1.362-8.865-6.935-7.654L461.2,114.807c-5.546,1.2-7.079,5.5-3.407,9.56a10.19,10.19,0,0,1-.946,14.317l-91.8,83.134a10.339,10.339,0,0,0-.724,14.568l19.4,21.416a10.357,10.357,0,0,0,14.582.712l91.8-83.124a10.182,10.182,0,0,1,14.341.452Z" fill="#aee6e6"/>
      <path id="Trazado_881769" data-name="Trazado 881769" d="M540.924,267.937c1.719,5.214,6.2,5.974,9.987,1.777l45.82-51.223c3.785-4.235,2.362-8.653-3.222-9.813L526.25,194.6c-5.556-1.158-8.706,2.149-7,7.347a10.191,10.191,0,0,1-6.688,12.695L394.882,253.244a10.339,10.339,0,0,0-6.587,13.014l9.011,27.455a10.358,10.358,0,0,0,13.033,6.581l117.668-38.6a10.181,10.181,0,0,1,12.917,6.246Z" fill="#7d6eb2"/>
      <path id="Trazado_881770" data-name="Trazado 881770" d="M536.8,366.914c-.551,5.462,3.235,7.979,8.4,5.685l62.693-28.157c5.18-2.33,5.677-6.944,1.047-10.275l-55.716-40.223c-4.6-3.317-8.827-1.578-9.384,3.865a10.191,10.191,0,0,1-11.273,8.877l-123.208-12.6a10.338,10.338,0,0,0-11.31,9.21l-2.935,28.746a10.358,10.358,0,0,0,9.228,11.313l123.2,12.6a10.182,10.182,0,0,1,9.259,10.96Z" fill="#26aab7"/>
      <path id="Trazado_881771" data-name="Trazado 881771" d="M492.772,455.655c-2.725,4.766-.29,8.605,5.362,8.611l68.726-.224c5.679-.021,8.011-4.034,5.136-8.961l-34.539-59.407c-2.857-4.9-7.423-5.031-10.145-.286a10.191,10.191,0,0,1-13.909,3.525L405.97,337.293a10.339,10.339,0,0,0-14.079,3.814l-14.373,25.067a10.357,10.357,0,0,0,3.829,14.088l107.422,61.616a10.18,10.18,0,0,1,4,13.778Z" fill="#aee6e6"/>
      <path id="Trazado_881772" data-name="Trazado 881772" d="M416.457,518.818c-4.428,3.246-3.765,7.743,1.4,10.047l62.874,27.749c5.2,2.291,8.96-.427,8.337-6.1l-7.39-68.319c-.616-5.642-4.734-7.616-9.151-4.388a10.19,10.19,0,0,1-14.14-2.437L385.3,375.383a10.339,10.339,0,0,0-14.412-2.242L347.562,390.2a10.358,10.358,0,0,0-2.232,14.428L418.4,504.6a10.181,10.181,0,0,1-1.949,14.214Z" fill="#7d6eb2"/>
      <path id="Trazado_881773" data-name="Trazado 881773" d="M321.049,545.479c-5.365,1.164-6.589,5.542-2.811,9.747l46.152,50.923c3.817,4.207,8.359,3.254,10.1-2.179l21.037-65.418c1.733-5.405-1.227-8.883-6.575-7.731a10.19,10.19,0,0,1-11.926-7.978l-26.1-121.07a10.34,10.34,0,0,0-12.255-7.911l-28.246,6.092a10.357,10.357,0,0,0-7.907,12.273l26.09,121.059a10.18,10.18,0,0,1-7.562,12.192Z" fill="#26aab7"/>
      <path id="Trazado_881774" data-name="Trazado 881774" d="M223.048,531.03c-5.375-1.119-8.274,2.383-6.532,7.761l21.45,65.292c1.775,5.4,6.312,6.373,10.11,2.116L293.9,554.993c3.781-4.233,2.492-8.614-2.862-9.737a10.189,10.189,0,0,1-7.65-12.139l25.4-121.217a10.338,10.338,0,0,0-7.977-12.211l-28.282-5.924a10.358,10.358,0,0,0-12.215,8l-25.4,121.205a10.182,10.182,0,0,1-11.868,8.063Z" fill="#aee6e6"/>
      <path id="Trazado_881775" data-name="Trazado 881775" d="M139.394,477.969c-4.455-3.208-8.528-1.188-9.124,4.433l-6.961,68.372c-.573,5.651,3.175,8.389,8.374,6.045l62.692-28.14c5.175-2.329,5.78-6.856,1.345-10.06a10.19,10.19,0,0,1-2.051-14.2l72.512-100.4a10.339,10.339,0,0,0-2.321-14.4L240.432,372.7a10.358,10.358,0,0,0-14.411,2.336L153.514,475.428a10.18,10.18,0,0,1-14.121,2.539Z" fill="#7d6eb2"/>
      <path id="Trazado_881776" data-name="Trazado 881776" d="M84.554,395.47c-2.765-4.743-7.307-4.554-10.138.339L40.247,455.438c-2.822,4.93-.512,8.955,5.192,8.929l68.717-.208c5.675-.023,8.069-3.913,5.321-8.643a10.19,10.19,0,0,1,3.9-13.808l107.081-62.23a10.34,10.34,0,0,0,3.736-14.1L219.674,340.4a10.356,10.356,0,0,0-14.115-3.727L98.487,398.892a10.181,10.181,0,0,1-13.933-3.424Z" fill="#26aab7"/>
      <path id="Trazado_881777" data-name="Trazado 881777" d="M68.013,297.8c-.6-5.458-4.823-7.132-9.4-3.814L3.145,334.562c-4.583,3.356-4.11,7.973,1.112,10.269l62.861,27.76c5.193,2.287,8.962-.293,8.376-5.732a10.19,10.19,0,0,1,9.18-11.027l123.135-13.3a10.338,10.338,0,0,0,9.148-11.36l-3.1-28.728a10.359,10.359,0,0,0-11.38-9.147L79.349,306.593A10.181,10.181,0,0,1,68.014,297.8Z" fill="#aee6e6"/>
      <path id="Trazado_881778" data-name="Trazado 881778" d="M92.626,201.843c1.674-5.229-1.5-8.477-7.036-7.308L18.414,209.043c-5.552,1.2-7,5.612-3.162,9.833L61.388,269.8c3.814,4.2,8.307,3.379,9.983-1.829a10.191,10.191,0,0,1,12.872-6.339l117.9,37.936a10.338,10.338,0,0,0,12.978-6.657l8.848-27.508a10.357,10.357,0,0,0-6.675-12.984L99.406,214.487a10.182,10.182,0,0,1-6.778-12.646Z" fill="#7d6eb2"/>
      <path id="Trazado_881779" data-name="Trazado 881779" d="M154.141,124.195c3.656-4.1,2.073-8.357-3.455-9.538l-67.27-14.07c-5.56-1.16-8.675,2.281-6.887,7.7l21.433,65.29c1.775,5.391,6.214,6.465,9.864,2.39a10.189,10.189,0,0,1,14.337-.556l92.275,82.61a10.341,10.341,0,0,0,14.564-.8l19.271-21.531a10.359,10.359,0,0,0-.817-14.577l-92.264-82.6a10.181,10.181,0,0,1-1.049-14.309Z" fill="#26aab7"/>
      <path id="Trazado_881780" data-name="Trazado 881780" d="M241.92,78.279c5.006-2.254,5.293-6.791.723-10.118L186.912,27.946c-4.608-3.321-8.853-1.445-9.423,4.23l-6.976,68.363c-.57,5.646,3.048,8.434,8.04,6.195a10.19,10.19,0,0,1,13.324,5.324l50.7,113a10.34,10.34,0,0,0,13.632,5.19l26.362-11.831a10.359,10.359,0,0,0,5.183-13.649L237.06,91.778a10.182,10.182,0,0,1,4.862-13.5Z" fill="#aee6e6"/>
      <path id="Trazado_881781" data-name="Trazado 881781" d="M410.915,310.079c0,56.9-46.751,103.038-104.409,103.038S202.088,366.974,202.088,310.079s46.751-103.038,104.418-103.038,104.409,46.126,104.409,103.038" fill="#b0b0b0"/>
      <path id="Trazado_881782" data-name="Trazado 881782" d="M410,311c0,56.9-46.751,103.038-104.409,103.038S201.161,367.894,201.161,311,247.9,207.958,305.569,207.958,410,254.089,410,311" fill="#d3aa46"/>
      <path id="Trazado_881783" data-name="Trazado 881783" d="M410.915,310.079c0,56.9-46.751,103.038-104.409,103.038S202.088,366.974,202.088,310.079s46.751-103.038,104.418-103.038,104.409,46.126,104.409,103.038" fill="#e8c85f"/>
      <path id="Trazado_881784" data-name="Trazado 881784" d="M392.208,310.858a85.916,85.916,0,1,1,0-.006Z" fill="#e4e4e4"/>
      <path id="Trazado_881785" data-name="Trazado 881785" d="M393.647,309.409a86.106,86.106,0,1,0,0,.017Z" fill="#fff"/>
    </g>
    <g id="Grupo_1104239" data-name="Grupo 1104239" transform="translate(493.941 11002.232)" clip-path="url(#clip-path-2)">
      <rect id="Rectángulo_403029" data-name="Rectángulo 403029" width="243.01" height="243.01" transform="translate(134.458 310.733) rotate(-44.96)" fill="url(#linear-gradient)"/>
    </g>
    <g id="Grupo_1104241" data-name="Grupo 1104241" transform="translate(493.941 11002.232)" clip-path="url(#clip-path)">
      <circle id="Elipse_11849" data-name="Elipse 11849" cx="72.261" cy="72.261" r="72.261" transform="translate(233.725 382.5) rotate(-89.854)" fill="#7f7f7f"/>
      <path id="Trazado_881787" data-name="Trazado 881787" d="M379.645,310.424a72.271,72.271,0,1,1-72.28-72.261h.016A72.272,72.272,0,0,1,379.645,310.424Z" fill="#e4e4e4"/>
      <path id="Trazado_881788" data-name="Trazado 881788" d="M380.873,309.2a72.261,72.261,0,1,1-72.252-72.271h.02A72.26,72.26,0,0,1,380.873,309.2" fill="#fff"/>
    </g>
    <g id="Grupo_1104243" data-name="Grupo 1104243" transform="translate(493.941 11002.232)" clip-path="url(#clip-path-4)">
      <rect id="Rectángulo_403031" data-name="Rectángulo 403031" width="204.424" height="204.424" transform="translate(162.825 310.436) rotate(-45)" fill="url(#linear-gradient-2)"/>
    </g>
    <g id="Grupo_1104251" data-name="Grupo 1104251" transform="translate(493.941 11002.232)" clip-path="url(#clip-path)">
      <g id="Grupo_1104250" data-name="Grupo 1104250" style="isolation: isolate">
        <g id="Grupo_1104249" data-name="Grupo 1104249">
          <g id="Grupo_1104248" data-name="Grupo 1104248" clip-path="url(#clip-path-6)">
            <g id="Grupo_1104247" data-name="Grupo 1104247" style="isolation: isolate">
              <g id="Grupo_1104246" data-name="Grupo 1104246">
                <g id="Grupo_1104245" data-name="Grupo 1104245" clip-path="url(#clip-path-6)">
                  <text id="_360_" data-name="360°" transform="translate(274.764 321.272)" fill="#3a277b" font-size="33.877" font-family="Roboto-Regular, Roboto"><tspan x="0" y="0">360°</tspan></text>
                </g>
              </g>
            </g>
          </g>
        </g>
      </g>
    </g>
    <path id="Trazado_881791" data-name="Trazado 881791" d="M4.6.156A3.693,3.693,0,0,1,1.8-.973,4.19,4.19,0,0,1,.727-3.992v-.266A5.073,5.073,0,0,1,1.207-6.5,3.748,3.748,0,0,1,2.551-8.051a3.378,3.378,0,0,1,1.871-.559A3.166,3.166,0,0,1,6.984-7.523,4.7,4.7,0,0,1,7.9-4.414v.6H2.172a3,3,0,0,0,.73,2.02,2.3,2.3,0,0,0,1.777.77,2.517,2.517,0,0,0,1.3-.312,3.259,3.259,0,0,0,.93-.828l.883.688A3.55,3.55,0,0,1,4.6.156Zm-.18-7.578a1.928,1.928,0,0,0-1.469.637A3.1,3.1,0,0,0,2.219-5H6.453v-.109a2.753,2.753,0,0,0-.594-1.707A1.815,1.815,0,0,0,4.422-7.422Zm7.74,5.461,2.094-6.492h1.477L12.7,0H11.6L8.537-8.453h1.477ZM20.433.156a3.693,3.693,0,0,1-2.8-1.129,4.19,4.19,0,0,1-1.078-3.02v-.266a5.073,5.073,0,0,1,.48-2.246,3.748,3.748,0,0,1,1.344-1.547,3.378,3.378,0,0,1,1.871-.559,3.166,3.166,0,0,1,2.563,1.086,4.7,4.7,0,0,1,.914,3.109v.6H18a3,3,0,0,0,.73,2.02,2.3,2.3,0,0,0,1.777.77,2.517,2.517,0,0,0,1.3-.312,3.259,3.259,0,0,0,.93-.828l.883.688A3.55,3.55,0,0,1,20.433.156Zm-.18-7.578a1.928,1.928,0,0,0-1.469.637A3.1,3.1,0,0,0,18.05-5h4.234v-.109a2.753,2.753,0,0,0-.594-1.707A1.815,1.815,0,0,0,20.253-7.422Zm6.516-1.031.047,1.063a3.08,3.08,0,0,1,2.531-1.219q2.68,0,2.7,3.023V0H30.6V-5.594a1.946,1.946,0,0,0-.418-1.352,1.675,1.675,0,0,0-1.277-.437,2.086,2.086,0,0,0-1.234.375,2.546,2.546,0,0,0-.828.984V0H25.4V-8.453ZM36.191-10.5v2.047h1.578v1.117H36.191v5.249a1.173,1.173,0,0,0,.211.763.888.888,0,0,0,.719.254,3.5,3.5,0,0,0,.688-.094V0A4.215,4.215,0,0,1,36.7.156,1.8,1.8,0,0,1,35.238-.43a2.517,2.517,0,0,1-.492-1.664V-7.336H33.206V-8.453h1.539V-10.5Zm2.567,6.2a4.993,4.993,0,0,1,.488-2.234A3.643,3.643,0,0,1,40.605-8.07a3.7,3.7,0,0,1,1.988-.539,3.565,3.565,0,0,1,2.793,1.2,4.6,4.6,0,0,1,1.066,3.18v.1a5.036,5.036,0,0,1-.473,2.215A3.589,3.589,0,0,1,44.628-.391a3.743,3.743,0,0,1-2.02.547,3.556,3.556,0,0,1-2.785-1.2A4.575,4.575,0,0,1,38.757-4.2Zm1.453.172a3.616,3.616,0,0,0,.652,2.258,2.088,2.088,0,0,0,1.746.852,2.075,2.075,0,0,0,1.75-.863A3.955,3.955,0,0,0,45.007-4.3a3.61,3.61,0,0,0-.66-2.254,2.1,2.1,0,0,0-1.754-.863,2.075,2.075,0,0,0-1.727.852A3.925,3.925,0,0,0,40.21-4.133ZM53.187-2.242a1.064,1.064,0,0,0-.441-.91,4.249,4.249,0,0,0-1.539-.559,7.277,7.277,0,0,1-1.742-.562,2.479,2.479,0,0,1-.953-.781A1.869,1.869,0,0,1,48.2-6.133a2.193,2.193,0,0,1,.879-1.758,3.432,3.432,0,0,1,2.246-.719,3.532,3.532,0,0,1,2.332.742,2.357,2.357,0,0,1,.895,1.9H53.1a1.3,1.3,0,0,0-.5-1.023,1.888,1.888,0,0,0-1.27-.43,1.976,1.976,0,0,0-1.234.344,1.082,1.082,0,0,0-.445.9.877.877,0,0,0,.414.789,5.1,5.1,0,0,0,1.5.508,7.8,7.8,0,0,1,1.754.578,2.558,2.558,0,0,1,1,.809,1.988,1.988,0,0,1,.324,1.152,2.163,2.163,0,0,1-.906,1.816,3.8,3.8,0,0,1-2.352.684,4.257,4.257,0,0,1-1.8-.359,2.922,2.922,0,0,1-1.223-1A2.42,2.42,0,0,1,47.914-2.6h1.445a1.5,1.5,0,0,0,.582,1.152,2.258,2.258,0,0,0,1.434.426,2.331,2.331,0,0,0,1.316-.332A1.02,1.02,0,0,0,53.187-2.242Z" transform="translate(805.516 11161.92) rotate(-90)" fill="#fff"/>
    <path id="Trazado_881792" data-name="Trazado 881792" d="M3.055-10.5v2.047H4.633v1.117H3.055v5.249a1.173,1.173,0,0,0,.211.763.888.888,0,0,0,.719.254,3.5,3.5,0,0,0,.687-.094V0A4.215,4.215,0,0,1,3.562.156,1.8,1.8,0,0,1,2.1-.43a2.517,2.517,0,0,1-.492-1.664V-7.336H.07V-8.453H1.609V-10.5ZM9.109-1.961,11.2-8.453H12.68L9.648,0h-1.1L5.484-8.453H6.961Z" transform="translate(872.374 11161.919) rotate(-66)" fill="#fff"/>
    <path id="Trazado_881793" data-name="Trazado 881793" d="M8.749-4.391a5.378,5.378,0,0,1-.938,3.3A3.006,3.006,0,0,1,5.271.166,3.294,3.294,0,0,1,2.7-.872V3.453H1.162V-8.981h1.4l.075,1A3.163,3.163,0,0,1,5.246-9.147a3.063,3.063,0,0,1,2.561,1.22,5.437,5.437,0,0,1,.942,3.4ZM7.213-4.565a3.968,3.968,0,0,0-.647-2.4,2.086,2.086,0,0,0-1.776-.88A2.257,2.257,0,0,0,2.7-6.607v4.292A2.262,2.262,0,0,0,4.806-1.087a2.076,2.076,0,0,0,1.756-.876A4.332,4.332,0,0,0,7.213-4.565ZM16.245-.888A3.262,3.262,0,0,1,13.613.166a2.792,2.792,0,0,1-2.187-.834,3.611,3.611,0,0,1-.76-2.469V-8.981H12.2v5.8q0,2.042,1.66,2.042A2.3,2.3,0,0,0,16.2-2.449V-8.981h1.536V0H16.278Zm5.279-8.093.05,1.129a3.273,3.273,0,0,1,2.689-1.295q2.847,0,2.872,3.212V0H25.6V-5.943a2.068,2.068,0,0,0-.444-1.436A1.78,1.78,0,0,0,23.8-7.844a2.216,2.216,0,0,0-1.312.4,2.706,2.706,0,0,0-.88,1.046V0H20.071V-8.981Zm10.011-2.175v2.175h1.677v1.187H31.535v5.577a1.247,1.247,0,0,0,.224.81.943.943,0,0,0,.764.27,3.718,3.718,0,0,0,.73-.1V0a4.478,4.478,0,0,1-1.179.165,1.912,1.912,0,0,1-1.552-.623A2.675,2.675,0,0,1,30-2.225v-5.57H28.364V-8.981H30v-2.175Zm2.744,6.583A5.3,5.3,0,0,1,34.8-6.948a3.87,3.87,0,0,1,1.444-1.627,3.932,3.932,0,0,1,2.113-.573,3.788,3.788,0,0,1,2.968,1.27A4.886,4.886,0,0,1,42.455-4.5v.108a5.351,5.351,0,0,1-.5,2.353A3.813,3.813,0,0,1,40.517-.415a3.977,3.977,0,0,1-2.146.581A3.778,3.778,0,0,1,35.412-1.1a4.861,4.861,0,0,1-1.133-3.362Zm1.544.183a3.842,3.842,0,0,0,.693,2.4,2.218,2.218,0,0,0,1.855.9A2.2,2.2,0,0,0,40.23-2a4.2,4.2,0,0,0,.689-2.569,3.836,3.836,0,0,0-.7-2.395,2.23,2.23,0,0,0-1.864-.917,2.205,2.205,0,0,0-1.834.9A4.17,4.17,0,0,0,35.823-4.391Zm12.393-.174A5.261,5.261,0,0,1,49.2-7.89,3.1,3.1,0,0,1,51.76-9.147a3.115,3.115,0,0,1,2.5,1.079V-12.75h1.536V0H54.383l-.075-.963A3.127,3.127,0,0,1,51.744.166,3.068,3.068,0,0,1,49.2-1.112a5.321,5.321,0,0,1-.984-3.337Zm1.536.174A3.984,3.984,0,0,0,50.382-2a2.039,2.039,0,0,0,1.743.863,2.24,2.24,0,0,0,2.133-1.312V-6.574a2.257,2.257,0,0,0-2.117-1.27,2.049,2.049,0,0,0-1.76.872A4.386,4.386,0,0,0,49.751-4.391ZM61.9.166a3.924,3.924,0,0,1-2.972-1.2,4.452,4.452,0,0,1-1.146-3.208v-.282A5.39,5.39,0,0,1,58.3-6.91a3.982,3.982,0,0,1,1.428-1.644,3.59,3.59,0,0,1,1.988-.594,3.364,3.364,0,0,1,2.723,1.154,5,5,0,0,1,.971,3.3v.639H59.322A3.193,3.193,0,0,0,60.1-1.905a2.44,2.44,0,0,0,1.888.818,2.675,2.675,0,0,0,1.378-.332,3.462,3.462,0,0,0,.988-.88l.938.73A3.772,3.772,0,0,1,61.9.166Zm-.191-8.052a2.048,2.048,0,0,0-1.561.677,3.288,3.288,0,0,0-.78,1.9h4.5v-.116a2.925,2.925,0,0,0-.631-1.814A1.928,1.928,0,0,0,61.713-7.886Zm12.642,5.8,2.225-6.9h1.569L74.928,0h-1.17L70.5-8.981h1.569ZM83.126.166a3.924,3.924,0,0,1-2.972-1.2,4.452,4.452,0,0,1-1.146-3.208v-.282a5.39,5.39,0,0,1,.51-2.386,3.982,3.982,0,0,1,1.428-1.644,3.59,3.59,0,0,1,1.988-.594,3.364,3.364,0,0,1,2.723,1.154,5,5,0,0,1,.971,3.3v.639H80.544a3.193,3.193,0,0,0,.776,2.146,2.44,2.44,0,0,0,1.888.818,2.675,2.675,0,0,0,1.378-.332,3.462,3.462,0,0,0,.988-.88l.938.73A3.772,3.772,0,0,1,83.126.166Zm-.191-8.052a2.048,2.048,0,0,0-1.561.677,3.288,3.288,0,0,0-.78,1.9h4.5v-.116a2.925,2.925,0,0,0-.631-1.814A1.928,1.928,0,0,0,82.935-7.886Zm6.923-1.1.05,1.129A3.273,3.273,0,0,1,92.6-9.147q2.847,0,2.872,3.212V0H93.934V-5.943a2.068,2.068,0,0,0-.444-1.436,1.78,1.78,0,0,0-1.357-.465,2.216,2.216,0,0,0-1.312.4,2.706,2.706,0,0,0-.88,1.046V0H88.405V-8.981Zm10.011-2.175v2.175h1.677v1.187H99.869v5.577a1.247,1.247,0,0,0,.224.81.943.943,0,0,0,.764.27,3.718,3.718,0,0,0,.73-.1V0a4.478,4.478,0,0,1-1.179.165,1.912,1.912,0,0,1-1.552-.623,2.675,2.675,0,0,1-.523-1.768v-5.57H96.7V-8.981h1.635v-2.175ZM108.883,0a3.226,3.226,0,0,1-.216-.946A3.426,3.426,0,0,1,106.111.166a3.17,3.17,0,0,1-2.179-.751,2.43,2.43,0,0,1-.851-1.905,2.539,2.539,0,0,1,1.067-2.179,5.029,5.029,0,0,1,3-.776h1.494v-.706a1.725,1.725,0,0,0-.481-1.282,1.935,1.935,0,0,0-1.419-.477,2.239,2.239,0,0,0-1.378.415,1.223,1.223,0,0,0-.556,1h-1.544a2.119,2.119,0,0,1,.477-1.3,3.258,3.258,0,0,1,1.295-.992,4.356,4.356,0,0,1,1.8-.365,3.551,3.551,0,0,1,2.432.776,2.8,2.8,0,0,1,.913,2.137V-2.1a5.054,5.054,0,0,0,.315,1.967V0Zm-2.548-1.17a2.7,2.7,0,0,0,1.37-.374,2.259,2.259,0,0,0,.938-.971V-4.358h-1.2q-2.822,0-2.822,1.652a1.4,1.4,0,0,0,.481,1.129A1.85,1.85,0,0,0,106.335-1.17Z" transform="translate(897.256 11233.69) rotate(-42)" fill="#3a277b"/>
    <path id="Trazado_881797" data-name="Trazado 881797" d="M.656-3.76a4.348,4.348,0,0,1,.8-2.752A2.558,2.558,0,0,1,3.576-7.534a2.545,2.545,0,0,1,2.113.957L5.75-7.4H6.905v7.22a3.01,3.01,0,0,1-.851,2.263,3.141,3.141,0,0,1-2.287.827A3.8,3.8,0,0,1,2.2,2.571a2.7,2.7,0,0,1-1.169-.937L1.689.875A2.473,2.473,0,0,0,3.678,1.88a1.938,1.938,0,0,0,1.439-.52A1.986,1.986,0,0,0,5.634-.1V-.738A2.6,2.6,0,0,1,3.562.137,2.527,2.527,0,0,1,1.46-.909,4.571,4.571,0,0,1,.656-3.76Zm1.272.144a3.317,3.317,0,0,0,.513,1.966,1.666,1.666,0,0,0,1.436.714A1.853,1.853,0,0,0,5.634-2.024V-5.4A1.874,1.874,0,0,0,3.89-6.461a1.681,1.681,0,0,0-1.443.718A3.613,3.613,0,0,0,1.928-3.617ZM11.883.137A3.232,3.232,0,0,1,9.435-.851a3.667,3.667,0,0,1-.944-2.643v-.232a4.439,4.439,0,0,1,.42-1.966,3.28,3.28,0,0,1,1.176-1.354,2.957,2.957,0,0,1,1.637-.489,2.771,2.771,0,0,1,2.243.95,4.115,4.115,0,0,1,.8,2.721v.526H9.757A2.63,2.63,0,0,0,10.4-1.569,2.009,2.009,0,0,0,11.951-.9a2.2,2.2,0,0,0,1.135-.273,2.852,2.852,0,0,0,.814-.725l.773.6A3.106,3.106,0,0,1,11.883.137ZM11.726-6.5a1.687,1.687,0,0,0-1.285.557A2.708,2.708,0,0,0,9.8-4.376H13.5v-.1a2.409,2.409,0,0,0-.52-1.494A1.588,1.588,0,0,0,11.726-6.5Zm8.813,4.533a.931.931,0,0,0-.386-.8,3.718,3.718,0,0,0-1.347-.489,6.368,6.368,0,0,1-1.525-.492,2.169,2.169,0,0,1-.834-.684,1.635,1.635,0,0,1-.27-.944,1.919,1.919,0,0,1,.769-1.538,3,3,0,0,1,1.966-.629,3.091,3.091,0,0,1,2.041.65,2.063,2.063,0,0,1,.783,1.661H20.463a1.142,1.142,0,0,0-.441-.9A1.652,1.652,0,0,0,18.911-6.5a1.729,1.729,0,0,0-1.08.3.947.947,0,0,0-.39.786.767.767,0,0,0,.362.691,4.458,4.458,0,0,0,1.309.444,6.822,6.822,0,0,1,1.535.506,2.239,2.239,0,0,1,.872.708A1.74,1.74,0,0,1,21.8-2.051a1.893,1.893,0,0,1-.793,1.59,3.327,3.327,0,0,1-2.058.6A3.725,3.725,0,0,1,17.38-.178a2.558,2.558,0,0,1-1.07-.879,2.118,2.118,0,0,1-.386-1.22h1.265A1.31,1.31,0,0,0,17.7-1.268,1.976,1.976,0,0,0,18.952-.9,2.04,2.04,0,0,0,20.1-1.186.893.893,0,0,0,20.539-1.962Zm4.629-7.227V-7.4h1.381v.978H25.167v4.593a1.027,1.027,0,0,0,.185.667.777.777,0,0,0,.629.222,3.062,3.062,0,0,0,.6-.082V0a3.689,3.689,0,0,1-.971.136,1.575,1.575,0,0,1-1.279-.513A2.2,2.2,0,0,1,23.9-1.832V-6.42H22.556V-7.4H23.9V-9.189ZM29.4,0H28.135V-7.4H29.4ZM28.032-9.36a.755.755,0,0,1,.188-.52.706.706,0,0,1,.557-.212.717.717,0,0,1,.561.212.747.747,0,0,1,.191.52.722.722,0,0,1-.191.513.73.73,0,0,1-.561.205.719.719,0,0,1-.557-.205A.73.73,0,0,1,28.032-9.36Zm3.056,5.593a4.369,4.369,0,0,1,.427-1.955,3.188,3.188,0,0,1,1.19-1.34,3.238,3.238,0,0,1,1.74-.472,3.12,3.12,0,0,1,2.444,1.046,4.025,4.025,0,0,1,.933,2.783v.089a4.408,4.408,0,0,1-.414,1.938A3.141,3.141,0,0,1,36.226-.342a3.276,3.276,0,0,1-1.767.479A3.112,3.112,0,0,1,32.021-.909a4,4,0,0,1-.933-2.769Zm1.272.15a3.165,3.165,0,0,0,.571,1.976A1.827,1.827,0,0,0,34.459-.9a1.816,1.816,0,0,0,1.532-.755,3.461,3.461,0,0,0,.567-2.116A3.159,3.159,0,0,0,35.98-5.74,1.837,1.837,0,0,0,34.445-6.5a1.816,1.816,0,0,0-1.511.745A3.435,3.435,0,0,0,32.36-3.617ZM35.02-10.5h1.532l-1.832,2.01L33.7-8.5Zm5.586,3.1.041.93a2.7,2.7,0,0,1,2.215-1.067q2.345,0,2.366,2.646V0H43.962V-4.9A1.7,1.7,0,0,0,43.6-6.078a1.466,1.466,0,0,0-1.118-.383,1.826,1.826,0,0,0-1.08.328,2.229,2.229,0,0,0-.725.861V0H39.409V-7.4ZM50.294-3.76A4.334,4.334,0,0,1,51.1-6.5a2.551,2.551,0,0,1,2.113-1.036,2.566,2.566,0,0,1,2.058.889V-10.5h1.265V0H55.374l-.062-.793A2.576,2.576,0,0,1,53.2.137,2.527,2.527,0,0,1,51.1-.916a4.383,4.383,0,0,1-.81-2.749Zm1.265.144a3.281,3.281,0,0,0,.52,1.969,1.68,1.68,0,0,0,1.436.711,1.845,1.845,0,0,0,1.757-1.08v-3.4a1.859,1.859,0,0,0-1.743-1.046,1.688,1.688,0,0,0-1.449.718A3.613,3.613,0,0,0,51.558-3.617ZM61.568.137A3.232,3.232,0,0,1,59.12-.851a3.667,3.667,0,0,1-.944-2.643v-.232a4.439,4.439,0,0,1,.42-1.966,3.28,3.28,0,0,1,1.176-1.354,2.957,2.957,0,0,1,1.637-.489,2.771,2.771,0,0,1,2.243.95,4.115,4.115,0,0,1,.8,2.721v.526H59.442a2.63,2.63,0,0,0,.639,1.767A2.009,2.009,0,0,0,61.636-.9a2.2,2.2,0,0,0,1.135-.273,2.852,2.852,0,0,0,.814-.725l.773.6A3.107,3.107,0,0,1,61.568.137ZM61.411-6.5a1.687,1.687,0,0,0-1.285.557,2.708,2.708,0,0,0-.643,1.562h3.706v-.1a2.409,2.409,0,0,0-.52-1.494A1.588,1.588,0,0,0,61.411-6.5ZM72.35-.9a1.822,1.822,0,0,0,1.183-.41,1.443,1.443,0,0,0,.561-1.026h1.2a2.294,2.294,0,0,1-.438,1.21,2.882,2.882,0,0,1-1.077.916A3.107,3.107,0,0,1,72.35.137a3.047,3.047,0,0,1-2.4-1.008,4.017,4.017,0,0,1-.892-2.759v-.212a4.454,4.454,0,0,1,.4-1.921A3.02,3.02,0,0,1,70.589-7.07a3.234,3.234,0,0,1,1.754-.465,2.967,2.967,0,0,1,2.068.745,2.663,2.663,0,0,1,.879,1.935h-1.2a1.743,1.743,0,0,0-.544-1.179A1.691,1.691,0,0,0,72.343-6.5a1.77,1.77,0,0,0-1.494.694,3.259,3.259,0,0,0-.53,2.007v.239a3.194,3.194,0,0,0,.526,1.969A1.779,1.779,0,0,0,72.35-.9Zm4.027-2.872A4.37,4.37,0,0,1,76.8-5.723a3.188,3.188,0,0,1,1.19-1.34,3.238,3.238,0,0,1,1.74-.472,3.12,3.12,0,0,1,2.444,1.046,4.025,4.025,0,0,1,.933,2.783v.089A4.408,4.408,0,0,1,82.7-1.679,3.141,3.141,0,0,1,81.515-.342a3.276,3.276,0,0,1-1.767.479A3.112,3.112,0,0,1,77.31-.909a4,4,0,0,1-.933-2.769Zm1.272.15a3.165,3.165,0,0,0,.571,1.976A1.827,1.827,0,0,0,79.748-.9a1.816,1.816,0,0,0,1.532-.755,3.461,3.461,0,0,0,.567-2.116,3.159,3.159,0,0,0-.578-1.972A1.837,1.837,0,0,0,79.734-6.5a1.816,1.816,0,0,0-1.511.745A3.435,3.435,0,0,0,77.649-3.617ZM85.894-7.4l.041.93A2.7,2.7,0,0,1,88.15-7.534q2.345,0,2.366,2.646V0H89.251V-4.9a1.7,1.7,0,0,0-.366-1.183,1.466,1.466,0,0,0-1.118-.383,1.826,1.826,0,0,0-1.08.328,2.229,2.229,0,0,0-.725.861V0H84.7V-7.4ZM96.731-1.962a.931.931,0,0,0-.386-.8A3.718,3.718,0,0,0,95-3.248a6.368,6.368,0,0,1-1.525-.492,2.169,2.169,0,0,1-.834-.684,1.635,1.635,0,0,1-.27-.944,1.919,1.919,0,0,1,.769-1.538A3,3,0,0,1,95.1-7.534a3.091,3.091,0,0,1,2.041.65,2.063,2.063,0,0,1,.783,1.661H96.656a1.142,1.142,0,0,0-.441-.9A1.652,1.652,0,0,0,95.1-6.5a1.729,1.729,0,0,0-1.08.3.947.947,0,0,0-.39.786A.767.767,0,0,0,94-4.718a4.458,4.458,0,0,0,1.309.444,6.822,6.822,0,0,1,1.535.506,2.239,2.239,0,0,1,.872.708A1.74,1.74,0,0,1,98-2.051,1.893,1.893,0,0,1,97.2-.462a3.327,3.327,0,0,1-2.058.6,3.725,3.725,0,0,1-1.573-.315,2.558,2.558,0,0,1-1.07-.879,2.118,2.118,0,0,1-.386-1.22h1.265a1.31,1.31,0,0,0,.509,1.008A1.976,1.976,0,0,0,95.145-.9,2.04,2.04,0,0,0,96.3-1.186.893.893,0,0,0,96.731-1.962Zm7.48,1.231a2.687,2.687,0,0,1-2.167.868,2.3,2.3,0,0,1-1.8-.687,2.974,2.974,0,0,1-.626-2.034V-7.4h1.265v4.779q0,1.682,1.367,1.682a1.893,1.893,0,0,0,1.928-1.08V-7.4h1.265V0h-1.2ZM108.552-7.4l.034.82a2.732,2.732,0,0,1,2.195-.957,2.115,2.115,0,0,1,2.113,1.19,2.8,2.8,0,0,1,.961-.861,2.837,2.837,0,0,1,1.4-.328q2.434,0,2.475,2.578V0h-1.265V-4.882a1.7,1.7,0,0,0-.362-1.186,1.6,1.6,0,0,0-1.217-.393,1.677,1.677,0,0,0-1.169.42,1.706,1.706,0,0,0-.54,1.132V0H111.9V-4.847a1.411,1.411,0,0,0-1.579-1.614,1.692,1.692,0,0,0-1.7,1.06V0h-1.265V-7.4ZM121.009,0h-1.265V-7.4h1.265Zm-1.367-9.36a.755.755,0,0,1,.188-.52.706.706,0,0,1,.557-.212.717.717,0,0,1,.561.212.747.747,0,0,1,.191.52.722.722,0,0,1-.191.513.73.73,0,0,1-.561.205.719.719,0,0,1-.557-.205A.73.73,0,0,1,119.642-9.36Zm3.084,5.6a4.334,4.334,0,0,1,.807-2.738,2.551,2.551,0,0,1,2.113-1.036,2.566,2.566,0,0,1,2.058.889V-10.5h1.265V0h-1.162l-.062-.793a2.576,2.576,0,0,1-2.113.93,2.527,2.527,0,0,1-2.1-1.053,4.383,4.383,0,0,1-.81-2.749Zm1.265.144a3.281,3.281,0,0,0,.52,1.969,1.68,1.68,0,0,0,1.436.711,1.845,1.845,0,0,0,1.757-1.08v-3.4a1.859,1.859,0,0,0-1.743-1.046,1.688,1.688,0,0,0-1.449.718A3.613,3.613,0,0,0,123.99-3.617Zm6.6-.15a4.37,4.37,0,0,1,.427-1.955,3.188,3.188,0,0,1,1.19-1.34,3.238,3.238,0,0,1,1.74-.472A3.12,3.12,0,0,1,136.4-6.488a4.025,4.025,0,0,1,.933,2.783v.089a4.408,4.408,0,0,1-.414,1.938,3.141,3.141,0,0,1-1.183,1.337,3.276,3.276,0,0,1-1.767.479,3.112,3.112,0,0,1-2.437-1.046,4,4,0,0,1-.933-2.769Zm1.272.15a3.165,3.165,0,0,0,.571,1.976,1.827,1.827,0,0,0,1.528.745,1.816,1.816,0,0,0,1.531-.755,3.461,3.461,0,0,0,.567-2.116,3.159,3.159,0,0,0-.578-1.972,1.837,1.837,0,0,0-1.535-.755,1.816,1.816,0,0,0-1.511.745A3.435,3.435,0,0,0,131.867-3.617Zm10.625-2.646a3.791,3.791,0,0,0-.622-.048,1.667,1.667,0,0,0-1.689,1.06V0h-1.265V-7.4h1.231l.021.855a1.97,1.97,0,0,1,1.764-.991,1.292,1.292,0,0,1,.561.1Zm3.976,6.4a3.232,3.232,0,0,1-2.448-.988,3.667,3.667,0,0,1-.944-2.643v-.232a4.439,4.439,0,0,1,.42-1.966,3.28,3.28,0,0,1,1.176-1.354,2.957,2.957,0,0,1,1.637-.489,2.771,2.771,0,0,1,2.243.95,4.115,4.115,0,0,1,.8,2.721v.526h-5.012a2.63,2.63,0,0,0,.639,1.767,2.009,2.009,0,0,0,1.555.673,2.2,2.2,0,0,0,1.135-.273,2.852,2.852,0,0,0,.814-.725l.773.6A3.107,3.107,0,0,1,146.468.137ZM146.311-6.5a1.687,1.687,0,0,0-1.285.557,2.708,2.708,0,0,0-.643,1.562h3.706v-.1a2.409,2.409,0,0,0-.52-1.494A1.588,1.588,0,0,0,146.311-6.5Zm8.813,4.533a.931.931,0,0,0-.386-.8,3.718,3.718,0,0,0-1.347-.489,6.368,6.368,0,0,1-1.525-.492,2.169,2.169,0,0,1-.834-.684,1.635,1.635,0,0,1-.27-.944,1.919,1.919,0,0,1,.769-1.538,3,3,0,0,1,1.966-.629,3.091,3.091,0,0,1,2.041.65,2.063,2.063,0,0,1,.783,1.661h-1.272a1.142,1.142,0,0,0-.441-.9A1.652,1.652,0,0,0,153.5-6.5a1.729,1.729,0,0,0-1.08.3.947.947,0,0,0-.39.786.767.767,0,0,0,.362.691,4.458,4.458,0,0,0,1.309.444,6.822,6.822,0,0,1,1.535.506,2.239,2.239,0,0,1,.872.708,1.74,1.74,0,0,1,.284,1.008,1.893,1.893,0,0,1-.793,1.59,3.327,3.327,0,0,1-2.058.6,3.725,3.725,0,0,1-1.573-.315,2.558,2.558,0,0,1-1.07-.879,2.118,2.118,0,0,1-.386-1.22h1.265a1.31,1.31,0,0,0,.509,1.008,1.976,1.976,0,0,0,1.255.373,2.04,2.04,0,0,0,1.152-.291A.893.893,0,0,0,155.124-1.962Z" transform="matrix(0.951, -0.309, 0.309, 0.951, 911.949, 11271.609)" fill="#fff"/>
    <path id="Trazado_881798" data-name="Trazado 881798" d="M.909-4.041a10.571,10.571,0,0,1,.414-2.967A8.62,8.62,0,0,1,2.557-9.592a5.25,5.25,0,0,1,1.7-1.641l.26.834A5.445,5.445,0,0,0,2.882-8.061a10.137,10.137,0,0,0-.7,3.521l-.007.581A10.19,10.19,0,0,0,3.138.622,5.471,5.471,0,0,0,4.519,2.441l-.26.773a5.419,5.419,0,0,1-1.737-1.7A9.5,9.5,0,0,1,.909-4.041ZM6.167,0V-6.42H5V-7.4H6.167v-.629a2.57,2.57,0,0,1,.708-1.928,2.744,2.744,0,0,1,2-.691,6.022,6.022,0,0,1,1.935.417L10.6-9.162A4.382,4.382,0,0,0,8.97-9.5,1.592,1.592,0,0,0,7.8-9.138a1.508,1.508,0,0,0-.359,1.1V-7.4H8.95v.978H7.439V0Zm5.271,0H10.167V-7.4h1.272Zm1.75-3.76A4.334,4.334,0,0,1,14-6.5a2.551,2.551,0,0,1,2.113-1.036,2.566,2.566,0,0,1,2.058.889V-10.5h1.265V0H18.269l-.062-.793a2.576,2.576,0,0,1-2.113.93A2.527,2.527,0,0,1,14-.916a4.383,4.383,0,0,1-.81-2.749Zm1.265.144a3.281,3.281,0,0,0,.52,1.969,1.68,1.68,0,0,0,1.436.711,1.845,1.845,0,0,0,1.757-1.08v-3.4a1.859,1.859,0,0,0-1.743-1.046,1.688,1.688,0,0,0-1.449.718A3.613,3.613,0,0,0,14.454-3.617ZM24.463.137a3.232,3.232,0,0,1-2.448-.988,3.667,3.667,0,0,1-.944-2.643v-.232a4.439,4.439,0,0,1,.42-1.966,3.28,3.28,0,0,1,1.176-1.354,2.957,2.957,0,0,1,1.637-.489,2.771,2.771,0,0,1,2.243.95,4.115,4.115,0,0,1,.8,2.721v.526H22.337a2.63,2.63,0,0,0,.639,1.767A2.009,2.009,0,0,0,24.531-.9a2.2,2.2,0,0,0,1.135-.273,2.852,2.852,0,0,0,.814-.725l.773.6A3.106,3.106,0,0,1,24.463.137ZM24.306-6.5a1.687,1.687,0,0,0-1.285.557,2.708,2.708,0,0,0-.643,1.562h3.706v-.1a2.409,2.409,0,0,0-.52-1.494A1.588,1.588,0,0,0,24.306-6.5ZM30.186,0H28.921V-10.5h1.265Zm3.4,0H32.319V-7.4h1.265ZM32.216-9.36a.755.755,0,0,1,.188-.52.706.706,0,0,1,.557-.212.717.717,0,0,1,.561.212.747.747,0,0,1,.191.52.722.722,0,0,1-.191.513.73.73,0,0,1-.561.205.719.719,0,0,1-.557-.205A.73.73,0,0,1,32.216-9.36ZM36.8-1.032h4.328V0H35.252V-.93l4.082-5.422h-4.02V-7.4H40.92v.9ZM47.114,0a2.657,2.657,0,0,1-.178-.779,2.822,2.822,0,0,1-2.106.916,2.611,2.611,0,0,1-1.795-.619,2,2,0,0,1-.7-1.569,2.091,2.091,0,0,1,.879-1.795,4.142,4.142,0,0,1,2.472-.639h1.231v-.581a1.421,1.421,0,0,0-.4-1.056,1.594,1.594,0,0,0-1.169-.393,1.844,1.844,0,0,0-1.135.342,1.007,1.007,0,0,0-.458.827H42.486a1.746,1.746,0,0,1,.393-1.07,2.683,2.683,0,0,1,1.067-.817,3.588,3.588,0,0,1,1.48-.3,2.925,2.925,0,0,1,2,.639,2.306,2.306,0,0,1,.752,1.761v3.4a4.163,4.163,0,0,0,.26,1.62V0Zm-2.1-.964a2.223,2.223,0,0,0,1.128-.308,1.861,1.861,0,0,0,.773-.8V-3.589h-.991q-2.325,0-2.325,1.361a1.151,1.151,0,0,0,.4.93A1.524,1.524,0,0,0,45.015-.964ZM53.131-.9a1.822,1.822,0,0,0,1.183-.41,1.443,1.443,0,0,0,.561-1.026h1.2a2.294,2.294,0,0,1-.438,1.21,2.882,2.882,0,0,1-1.077.916,3.107,3.107,0,0,1-1.426.342,3.047,3.047,0,0,1-2.4-1.008,4.017,4.017,0,0,1-.892-2.759v-.212a4.454,4.454,0,0,1,.4-1.921A3.02,3.02,0,0,1,51.37-7.07a3.234,3.234,0,0,1,1.754-.465,2.967,2.967,0,0,1,2.068.745,2.663,2.663,0,0,1,.879,1.935h-1.2a1.743,1.743,0,0,0-.544-1.179A1.691,1.691,0,0,0,53.124-6.5,1.77,1.77,0,0,0,51.63-5.8a3.259,3.259,0,0,0-.53,2.007v.239a3.194,3.194,0,0,0,.526,1.969A1.779,1.779,0,0,0,53.131-.9Zm5.736.9H57.6V-7.4h1.265ZM57.5-9.36a.755.755,0,0,1,.188-.52.706.706,0,0,1,.557-.212.717.717,0,0,1,.561.212A.747.747,0,0,1,59-9.36a.722.722,0,0,1-.191.513.73.73,0,0,1-.561.205.719.719,0,0,1-.557-.205A.73.73,0,0,1,57.5-9.36Zm3.056,5.593a4.37,4.37,0,0,1,.427-1.955,3.188,3.188,0,0,1,1.19-1.34,3.238,3.238,0,0,1,1.74-.472,3.12,3.12,0,0,1,2.444,1.046,4.025,4.025,0,0,1,.933,2.783v.089a4.408,4.408,0,0,1-.414,1.938A3.141,3.141,0,0,1,65.694-.342a3.276,3.276,0,0,1-1.767.479A3.112,3.112,0,0,1,61.489-.909a4,4,0,0,1-.933-2.769Zm1.272.15A3.165,3.165,0,0,0,62.4-1.641,1.827,1.827,0,0,0,63.927-.9a1.816,1.816,0,0,0,1.532-.755,3.461,3.461,0,0,0,.567-2.116,3.159,3.159,0,0,0-.578-1.972A1.837,1.837,0,0,0,63.913-6.5,1.816,1.816,0,0,0,62.4-5.75,3.435,3.435,0,0,0,61.828-3.617Zm2.66-6.885h1.532l-1.832,2.01-1.019,0Zm5.586,3.1.041.93a2.7,2.7,0,0,1,2.215-1.067q2.345,0,2.366,2.646V0H73.43V-4.9a1.7,1.7,0,0,0-.366-1.183,1.466,1.466,0,0,0-1.118-.383,1.826,1.826,0,0,0-1.08.328,2.229,2.229,0,0,0-.725.861V0H68.877V-7.4Zm9.449,3.425a10.576,10.576,0,0,1-.4,2.923A8.643,8.643,0,0,1,77.9,1.532a5.362,5.362,0,0,1-1.726,1.682l-.267-.773A5.5,5.5,0,0,0,77.6-.065a10.841,10.841,0,0,0,.653-3.771v-.219a11.255,11.255,0,0,0-.3-2.67,9.011,9.011,0,0,0-.838-2.212,5.109,5.109,0,0,0-1.207-1.525l.267-.773a5.341,5.341,0,0,1,1.72,1.668,8.661,8.661,0,0,1,1.224,2.578A10.82,10.82,0,0,1,79.522-3.972Z" transform="matrix(0.951, -0.309, 0.309, 0.951, 942.662, 11278.002)" fill="#fff"/>
    <path id="Trazado_881799" data-name="Trazado 881799" d="M8.234-4.133a5.062,5.062,0,0,1-.883,3.109A2.829,2.829,0,0,1,4.961.156,3.1,3.1,0,0,1,2.539-.82V3.25H1.094v-11.7h1.32l.07.938A2.977,2.977,0,0,1,4.938-8.609a2.882,2.882,0,0,1,2.41,1.148,5.117,5.117,0,0,1,.887,3.2ZM6.789-4.3A3.735,3.735,0,0,0,6.18-6.555a1.963,1.963,0,0,0-1.672-.828A2.125,2.125,0,0,0,2.539-6.219V-2.18A2.129,2.129,0,0,0,4.523-1.023a1.954,1.954,0,0,0,1.652-.824A4.077,4.077,0,0,0,6.789-4.3Zm8.5,3.461a3.07,3.07,0,0,1-2.477.992,2.628,2.628,0,0,1-2.059-.785,3.4,3.4,0,0,1-.715-2.324v-5.5h1.445v5.461q0,1.922,1.563,1.922A2.163,2.163,0,0,0,15.25-2.3V-8.453H16.7V0H15.32Zm4.969-7.617L20.3-7.391a3.08,3.08,0,0,1,2.531-1.219q2.68,0,2.7,3.023V0H24.094V-5.594a1.946,1.946,0,0,0-.418-1.352A1.675,1.675,0,0,0,22.4-7.383a2.086,2.086,0,0,0-1.234.375,2.546,2.546,0,0,0-.828.984V0H18.891V-8.453ZM29.68-10.5v2.047h1.578v1.117H29.68v5.249a1.173,1.173,0,0,0,.211.763.888.888,0,0,0,.719.254,3.5,3.5,0,0,0,.688-.094V0a4.215,4.215,0,0,1-1.109.155A1.8,1.8,0,0,1,28.727-.43a2.517,2.517,0,0,1-.492-1.664V-7.336H26.7V-8.453h1.539V-10.5Zm2.583,6.2a4.993,4.993,0,0,1,.488-2.234A3.643,3.643,0,0,1,34.11-8.07,3.7,3.7,0,0,1,36.1-8.609a3.565,3.565,0,0,1,2.793,1.2,4.6,4.6,0,0,1,1.066,3.18v.1a5.036,5.036,0,0,1-.473,2.215A3.589,3.589,0,0,1,38.133-.391a3.743,3.743,0,0,1-2.02.547,3.556,3.556,0,0,1-2.785-1.2A4.575,4.575,0,0,1,32.262-4.2Zm1.453.172a3.616,3.616,0,0,0,.652,2.258,2.088,2.088,0,0,0,1.746.852,2.075,2.075,0,0,0,1.75-.863A3.955,3.955,0,0,0,38.512-4.3a3.61,3.61,0,0,0-.66-2.254A2.1,2.1,0,0,0,36.1-7.422a2.075,2.075,0,0,0-1.727.852A3.925,3.925,0,0,0,33.715-4.133ZM45.38-4.3A4.952,4.952,0,0,1,46.3-7.426a2.915,2.915,0,0,1,2.414-1.184,2.932,2.932,0,0,1,2.352,1.016V-12h1.445V0H51.184l-.07-.906A2.943,2.943,0,0,1,48.7.156a2.887,2.887,0,0,1-2.395-1.2,5.008,5.008,0,0,1-.926-3.141Zm1.445.164a3.749,3.749,0,0,0,.594,2.25,1.92,1.92,0,0,0,1.641.813A2.109,2.109,0,0,0,51.067-2.3V-6.188a2.125,2.125,0,0,0-1.992-1.2,1.929,1.929,0,0,0-1.656.82A4.128,4.128,0,0,0,46.825-4.133ZM58.262.156a3.693,3.693,0,0,1-2.8-1.129,4.19,4.19,0,0,1-1.078-3.02v-.266a5.073,5.073,0,0,1,.48-2.246,3.748,3.748,0,0,1,1.344-1.547,3.378,3.378,0,0,1,1.871-.559,3.166,3.166,0,0,1,2.563,1.086,4.7,4.7,0,0,1,.914,3.109v.6H55.833a3,3,0,0,0,.73,2.02,2.3,2.3,0,0,0,1.777.77,2.517,2.517,0,0,0,1.3-.313,3.259,3.259,0,0,0,.93-.828l.883.688A3.55,3.55,0,0,1,58.262.156Zm-.18-7.578a1.928,1.928,0,0,0-1.469.637A3.1,3.1,0,0,0,55.88-5h4.234v-.109a2.753,2.753,0,0,0-.594-1.707A1.815,1.815,0,0,0,58.083-7.422Zm11.9,5.461,2.094-6.492h1.477L70.52,0h-1.1L66.356-8.453h1.477ZM78.236.156a3.693,3.693,0,0,1-2.8-1.129,4.19,4.19,0,0,1-1.078-3.02v-.266a5.072,5.072,0,0,1,.48-2.246,3.748,3.748,0,0,1,1.344-1.547,3.378,3.378,0,0,1,1.871-.559,3.166,3.166,0,0,1,2.563,1.086,4.7,4.7,0,0,1,.914,3.109v.6H75.807a3,3,0,0,0,.73,2.02,2.3,2.3,0,0,0,1.777.77,2.517,2.517,0,0,0,1.3-.313,3.259,3.259,0,0,0,.93-.828l.883.688A3.55,3.55,0,0,1,78.236.156Zm-.18-7.578a1.928,1.928,0,0,0-1.469.637A3.1,3.1,0,0,0,75.854-5h4.234v-.109a2.753,2.753,0,0,0-.594-1.707A1.815,1.815,0,0,0,78.057-7.422Zm6.516-1.031.047,1.063a3.08,3.08,0,0,1,2.531-1.219q2.68,0,2.7,3.023V0H88.408V-5.594a1.946,1.946,0,0,0-.418-1.352,1.675,1.675,0,0,0-1.277-.438,2.086,2.086,0,0,0-1.234.375,2.546,2.546,0,0,0-.828.984V0H83.205V-8.453ZM93.994-10.5v2.047h1.578v1.117H93.994v5.249a1.173,1.173,0,0,0,.211.763.888.888,0,0,0,.719.254,3.5,3.5,0,0,0,.688-.094V0A4.215,4.215,0,0,1,94.5.156,1.8,1.8,0,0,1,93.041-.43a2.517,2.517,0,0,1-.492-1.664V-7.336H91.01V-8.453h1.539V-10.5ZM102.479,0a3.036,3.036,0,0,1-.2-.891A3.225,3.225,0,0,1,99.869.156a2.984,2.984,0,0,1-2.051-.707,2.287,2.287,0,0,1-.8-1.793,2.39,2.39,0,0,1,1-2.051,4.733,4.733,0,0,1,2.824-.73h1.406v-.664A1.623,1.623,0,0,0,101.8-7a1.821,1.821,0,0,0-1.336-.449,2.108,2.108,0,0,0-1.3.391,1.151,1.151,0,0,0-.523.945H97.19a2,2,0,0,1,.449-1.223,3.066,3.066,0,0,1,1.219-.934,4.1,4.1,0,0,1,1.691-.344,3.342,3.342,0,0,1,2.289.73,2.635,2.635,0,0,1,.859,2.012v3.891a4.757,4.757,0,0,0,.3,1.852V0Zm-2.4-1.1a2.54,2.54,0,0,0,1.289-.352,2.127,2.127,0,0,0,.883-.914V-4.1h-1.133q-2.656,0-2.656,1.555a1.316,1.316,0,0,0,.453,1.063A1.742,1.742,0,0,0,100.08-1.1Z" transform="translate(924.033 11327.146) rotate(6)" fill="#fff"/>
    <path id="Trazado_881801" data-name="Trazado 881801" d="M8.749-4.391a5.378,5.378,0,0,1-.938,3.3A3.006,3.006,0,0,1,5.271.166,3.294,3.294,0,0,1,2.7-.872V3.453H1.162V-8.981h1.4l.075,1A3.163,3.163,0,0,1,5.246-9.147a3.063,3.063,0,0,1,2.561,1.22,5.437,5.437,0,0,1,.942,3.4ZM7.213-4.565a3.968,3.968,0,0,0-.647-2.4,2.086,2.086,0,0,0-1.776-.88A2.257,2.257,0,0,0,2.7-6.607v4.291A2.262,2.262,0,0,0,4.806-1.087a2.076,2.076,0,0,0,1.756-.876A4.332,4.332,0,0,0,7.213-4.565ZM16.245,0a3.226,3.226,0,0,1-.216-.946A3.426,3.426,0,0,1,13.472.166a3.17,3.17,0,0,1-2.179-.751,2.43,2.43,0,0,1-.851-1.905,2.539,2.539,0,0,1,1.067-2.179,5.029,5.029,0,0,1,3-.776H16v-.706a1.725,1.725,0,0,0-.481-1.282A1.935,1.935,0,0,0,14.1-7.911a2.239,2.239,0,0,0-1.378.415,1.223,1.223,0,0,0-.556,1H10.625a2.119,2.119,0,0,1,.477-1.3A3.258,3.258,0,0,1,12.4-8.782a4.356,4.356,0,0,1,1.8-.365,3.551,3.551,0,0,1,2.432.776,2.8,2.8,0,0,1,.913,2.137V-2.1a5.054,5.054,0,0,0,.315,1.967V0ZM13.7-1.17a2.7,2.7,0,0,0,1.37-.374A2.259,2.259,0,0,0,16-2.515V-4.358H14.8q-2.822,0-2.822,1.652a1.4,1.4,0,0,0,.481,1.129A1.85,1.85,0,0,0,13.7-1.17Zm8.334-9.986v2.175h1.677v1.187H22.03v5.577a1.247,1.247,0,0,0,.224.81.943.943,0,0,0,.764.27,3.718,3.718,0,0,0,.73-.1V0A4.478,4.478,0,0,1,22.57.166a1.912,1.912,0,0,1-1.552-.623,2.675,2.675,0,0,1-.523-1.768v-5.57H18.859V-8.981h1.635v-2.175ZM29.841-7.6a4.6,4.6,0,0,0-.755-.058,2.024,2.024,0,0,0-2.05,1.287V0H25.5V-8.981h1.494l.025,1.038a2.391,2.391,0,0,1,2.142-1.2,1.569,1.569,0,0,1,.681.116Zm.668,3.03a5.3,5.3,0,0,1,.519-2.374,3.87,3.87,0,0,1,1.444-1.627,3.932,3.932,0,0,1,2.113-.573,3.788,3.788,0,0,1,2.968,1.27A4.886,4.886,0,0,1,38.686-4.5v.108a5.351,5.351,0,0,1-.5,2.353A3.813,3.813,0,0,1,36.748-.415,3.977,3.977,0,0,1,34.6.166,3.778,3.778,0,0,1,31.643-1.1,4.861,4.861,0,0,1,30.51-4.466Zm1.544.183a3.842,3.842,0,0,0,.693,2.4,2.218,2.218,0,0,0,1.855.9A2.2,2.2,0,0,0,36.461-2a4.2,4.2,0,0,0,.689-2.569,3.836,3.836,0,0,0-.7-2.395,2.23,2.23,0,0,0-1.864-.917,2.205,2.205,0,0,0-1.834.9A4.17,4.17,0,0,0,32.054-4.391Zm12.161,3.3a2.212,2.212,0,0,0,1.436-.5,1.752,1.752,0,0,0,.681-1.245h1.453a2.785,2.785,0,0,1-.531,1.469A3.5,3.5,0,0,1,45.945-.249a3.772,3.772,0,0,1-1.731.415A3.7,3.7,0,0,1,41.3-1.058a4.877,4.877,0,0,1-1.083-3.349v-.257A5.407,5.407,0,0,1,40.695-7a3.667,3.667,0,0,1,1.382-1.585,3.926,3.926,0,0,1,2.129-.564,3.6,3.6,0,0,1,2.511.9,3.234,3.234,0,0,1,1.067,2.349H46.331a2.116,2.116,0,0,0-.66-1.432,2.053,2.053,0,0,0-1.465-.56,2.149,2.149,0,0,0-1.814.843,3.957,3.957,0,0,0-.643,2.436v.291a3.878,3.878,0,0,0,.639,2.391A2.16,2.16,0,0,0,44.214-1.087ZM51.179,0H49.643V-8.981h1.536Zm-1.66-11.364a.917.917,0,0,1,.228-.631.857.857,0,0,1,.677-.257.87.87,0,0,1,.681.257.907.907,0,0,1,.232.631.877.877,0,0,1-.232.623.886.886,0,0,1-.681.249.872.872,0,0,1-.677-.249A.886.886,0,0,1,49.518-11.364Zm5.57,2.382.05,1.129a3.273,3.273,0,0,1,2.689-1.295q2.847,0,2.872,3.212V0H59.164V-5.943a2.068,2.068,0,0,0-.444-1.436,1.78,1.78,0,0,0-1.357-.465,2.216,2.216,0,0,0-1.312.4,2.706,2.706,0,0,0-.88,1.046V0H53.636V-8.981ZM64.684,0H63.148V-8.981h1.536Zm-1.66-11.364a.917.917,0,0,1,.228-.631.857.857,0,0,1,.677-.257.87.87,0,0,1,.681.257.907.907,0,0,1,.232.631.877.877,0,0,1-.232.623.886.886,0,0,1-.681.249.872.872,0,0,1-.677-.249A.886.886,0,0,1,63.024-11.364Zm3.71,6.79a5.3,5.3,0,0,1,.519-2.374A3.87,3.87,0,0,1,68.7-8.575a3.932,3.932,0,0,1,2.113-.573,3.788,3.788,0,0,1,2.968,1.27A4.886,4.886,0,0,1,74.91-4.5v.108a5.351,5.351,0,0,1-.5,2.353A3.813,3.813,0,0,1,72.972-.415a3.977,3.977,0,0,1-2.146.581A3.778,3.778,0,0,1,67.867-1.1a4.861,4.861,0,0,1-1.133-3.362Zm1.544.183a3.842,3.842,0,0,0,.693,2.4,2.218,2.218,0,0,0,1.855.9A2.2,2.2,0,0,0,72.686-2a4.2,4.2,0,0,0,.689-2.569,3.836,3.836,0,0,0-.7-2.395,2.23,2.23,0,0,0-1.864-.917,2.205,2.205,0,0,0-1.834.9A4.17,4.17,0,0,0,68.278-4.391ZM82.066-2.382a1.131,1.131,0,0,0-.469-.967,4.514,4.514,0,0,0-1.635-.594,7.731,7.731,0,0,1-1.851-.6,2.633,2.633,0,0,1-1.013-.83,1.986,1.986,0,0,1-.328-1.146A2.33,2.33,0,0,1,77.7-8.384a3.647,3.647,0,0,1,2.386-.764,3.753,3.753,0,0,1,2.478.789,2.5,2.5,0,0,1,.95,2.017H81.974a1.386,1.386,0,0,0-.535-1.087,2.006,2.006,0,0,0-1.349-.457,2.1,2.1,0,0,0-1.312.365,1.15,1.15,0,0,0-.473.955.932.932,0,0,0,.44.838,5.413,5.413,0,0,0,1.59.54,8.283,8.283,0,0,1,1.864.614,2.718,2.718,0,0,1,1.058.859A2.112,2.112,0,0,1,83.6-2.49a2.3,2.3,0,0,1-.963,1.93,4.039,4.039,0,0,1-2.5.726,4.523,4.523,0,0,1-1.909-.382,3.105,3.105,0,0,1-1.3-1.067,2.571,2.571,0,0,1-.469-1.482H78a1.59,1.59,0,0,0,.618,1.224,2.4,2.4,0,0,0,1.523.452,2.476,2.476,0,0,0,1.4-.353A1.084,1.084,0,0,0,82.066-2.382Z" transform="translate(910.184 11378.877) rotate(30)" fill="#3a277b"/>
    <path id="Trazado_881803" data-name="Trazado 881803" d="M5.18-7.156a4.331,4.331,0,0,0-.711-.055A1.9,1.9,0,0,0,2.539-6V0H1.094V-8.453H2.5l.023.977A2.251,2.251,0,0,1,4.539-8.609,1.477,1.477,0,0,1,5.18-8.5ZM9.723.156a3.693,3.693,0,0,1-2.8-1.129,4.19,4.19,0,0,1-1.078-3.02v-.266A5.073,5.073,0,0,1,6.329-6.5,3.748,3.748,0,0,1,7.672-8.051a3.378,3.378,0,0,1,1.871-.559,3.166,3.166,0,0,1,2.563,1.086,4.7,4.7,0,0,1,.914,3.109v.6H7.294a3,3,0,0,0,.73,2.02,2.3,2.3,0,0,0,1.777.77,2.517,2.517,0,0,0,1.3-.313,3.259,3.259,0,0,0,.93-.828l.883.688A3.55,3.55,0,0,1,9.723.156Zm-.18-7.578a1.928,1.928,0,0,0-1.469.637A3.1,3.1,0,0,0,7.34-5h4.234v-.109a2.753,2.753,0,0,0-.594-1.707A1.815,1.815,0,0,0,9.544-7.422ZM16.262,0H14.817V-12h1.445Zm7.531,0a3.036,3.036,0,0,1-.2-.891A3.225,3.225,0,0,1,21.184.156a2.984,2.984,0,0,1-2.051-.707,2.288,2.288,0,0,1-.8-1.793,2.39,2.39,0,0,1,1-2.051,4.733,4.733,0,0,1,2.824-.73h1.406v-.664A1.623,1.623,0,0,0,23.114-7a1.821,1.821,0,0,0-1.336-.449,2.108,2.108,0,0,0-1.3.391,1.151,1.151,0,0,0-.523.945H18.5a2,2,0,0,1,.449-1.223,3.066,3.066,0,0,1,1.219-.934,4.1,4.1,0,0,1,1.691-.344,3.342,3.342,0,0,1,2.289.73,2.635,2.635,0,0,1,.859,2.012v3.891a4.757,4.757,0,0,0,.3,1.852V0ZM21.4-1.1a2.54,2.54,0,0,0,1.289-.352,2.127,2.127,0,0,0,.883-.914V-4.1H22.434q-2.656,0-2.656,1.555a1.316,1.316,0,0,0,.453,1.063A1.742,1.742,0,0,0,21.4-1.1Zm9.273.078a2.082,2.082,0,0,0,1.352-.469,1.649,1.649,0,0,0,.641-1.172h1.367a2.621,2.621,0,0,1-.5,1.383A3.293,3.293,0,0,1,32.3-.234a3.55,3.55,0,0,1-1.629.391A3.482,3.482,0,0,1,27.922-1,4.59,4.59,0,0,1,26.9-4.148v-.242a5.089,5.089,0,0,1,.453-2.2,3.451,3.451,0,0,1,1.3-1.492,3.7,3.7,0,0,1,2-.531,3.39,3.39,0,0,1,2.363.852,3.043,3.043,0,0,1,1,2.211H32.661a1.992,1.992,0,0,0-.621-1.348,1.932,1.932,0,0,0-1.379-.527,2.023,2.023,0,0,0-1.707.793,3.724,3.724,0,0,0-.605,2.293v.273a3.65,3.65,0,0,0,.6,2.25A2.033,2.033,0,0,0,30.669-1.023ZM37.223,0H35.778V-8.453h1.445ZM35.661-10.7a.863.863,0,0,1,.215-.594.807.807,0,0,1,.637-.242.819.819,0,0,1,.641.242.854.854,0,0,1,.219.594.826.826,0,0,1-.219.586.834.834,0,0,1-.641.234.821.821,0,0,1-.637-.234A.834.834,0,0,1,35.661-10.7ZM39.153-4.3a4.993,4.993,0,0,1,.488-2.234A3.643,3.643,0,0,1,41-8.07a3.7,3.7,0,0,1,1.988-.539,3.565,3.565,0,0,1,2.793,1.2,4.6,4.6,0,0,1,1.066,3.18v.1a5.036,5.036,0,0,1-.473,2.215A3.589,3.589,0,0,1,45.024-.391,3.743,3.743,0,0,1,43,.156a3.556,3.556,0,0,1-2.785-1.2A4.576,4.576,0,0,1,39.153-4.2Zm1.453.172a3.616,3.616,0,0,0,.652,2.258A2.088,2.088,0,0,0,43-1.023a2.075,2.075,0,0,0,1.75-.863A3.955,3.955,0,0,0,45.4-4.3a3.61,3.61,0,0,0-.66-2.254,2.1,2.1,0,0,0-1.754-.863,2.075,2.075,0,0,0-1.727.852A3.925,3.925,0,0,0,40.606-4.133Zm9.422-4.32.047,1.063a3.08,3.08,0,0,1,2.531-1.219q2.68,0,2.7,3.023V0H53.864V-5.594a1.946,1.946,0,0,0-.418-1.352,1.675,1.675,0,0,0-1.277-.438,2.086,2.086,0,0,0-1.234.375,2.546,2.546,0,0,0-.828.984V0H48.661V-8.453ZM61,.156A3.693,3.693,0,0,1,58.2-.973a4.19,4.19,0,0,1-1.078-3.02v-.266A5.073,5.073,0,0,1,57.6-6.5a3.748,3.748,0,0,1,1.344-1.547,3.378,3.378,0,0,1,1.871-.559A3.166,3.166,0,0,1,63.38-7.523a4.7,4.7,0,0,1,.914,3.109v.6H58.567a3,3,0,0,0,.73,2.02,2.3,2.3,0,0,0,1.777.77,2.517,2.517,0,0,0,1.3-.313,3.259,3.259,0,0,0,.93-.828l.883.688A3.55,3.55,0,0,1,61,.156Zm-.18-7.578a1.928,1.928,0,0,0-1.469.637A3.1,3.1,0,0,0,58.614-5h4.234v-.109a2.753,2.753,0,0,0-.594-1.707A1.815,1.815,0,0,0,60.817-7.422Zm10.07,5.18a1.064,1.064,0,0,0-.441-.91,4.249,4.249,0,0,0-1.539-.559,7.277,7.277,0,0,1-1.742-.563,2.479,2.479,0,0,1-.953-.781A1.869,1.869,0,0,1,65.9-6.133a2.193,2.193,0,0,1,.879-1.758,3.432,3.432,0,0,1,2.246-.719,3.532,3.532,0,0,1,2.332.742,2.357,2.357,0,0,1,.895,1.9H70.8a1.3,1.3,0,0,0-.5-1.023,1.888,1.888,0,0,0-1.27-.43,1.976,1.976,0,0,0-1.234.344,1.082,1.082,0,0,0-.445.9.877.877,0,0,0,.414.789,5.094,5.094,0,0,0,1.5.508,7.8,7.8,0,0,1,1.754.578,2.559,2.559,0,0,1,1,.809,1.988,1.988,0,0,1,.324,1.152,2.163,2.163,0,0,1-.906,1.816,3.8,3.8,0,0,1-2.352.684,4.257,4.257,0,0,1-1.8-.359,2.922,2.922,0,0,1-1.223-1A2.42,2.42,0,0,1,65.614-2.6h1.445a1.5,1.5,0,0,0,.582,1.152,2.258,2.258,0,0,0,1.434.426,2.331,2.331,0,0,0,1.316-.332A1.02,1.02,0,0,0,70.887-2.242Zm14.43-1.891a5.062,5.062,0,0,1-.883,3.109A2.829,2.829,0,0,1,82.044.156,3.1,3.1,0,0,1,79.622-.82V3.25H78.177v-11.7H79.5l.07.938A2.977,2.977,0,0,1,82.02-8.609a2.882,2.882,0,0,1,2.41,1.148,5.117,5.117,0,0,1,.887,3.2ZM83.872-4.3a3.735,3.735,0,0,0-.609-2.258,1.963,1.963,0,0,0-1.672-.828,2.125,2.125,0,0,0-1.969,1.164V-2.18a2.129,2.129,0,0,0,1.984,1.156,1.954,1.954,0,0,0,1.652-.824A4.077,4.077,0,0,0,83.872-4.3Zm8.5,3.461A3.07,3.07,0,0,1,89.9.156a2.628,2.628,0,0,1-2.059-.785,3.4,3.4,0,0,1-.715-2.324v-5.5h1.445v5.461q0,1.922,1.563,1.922a2.163,2.163,0,0,0,2.2-1.234V-8.453h1.445V0H92.4ZM91.2-12h1.75L90.856-9.7l-1.164,0Zm11.93,7.867a5.026,5.026,0,0,1-.891,3.113A2.846,2.846,0,0,1,99.848.156,2.947,2.947,0,0,1,97.372-.977L97.3,0H95.973V-12h1.445v4.477a2.93,2.93,0,0,1,2.414-1.086,2.863,2.863,0,0,1,2.418,1.164,5.177,5.177,0,0,1,.879,3.188ZM101.684-4.3a3.906,3.906,0,0,0-.57-2.281,1.888,1.888,0,0,0-1.641-.8,2.122,2.122,0,0,0-2.055,1.328V-2.4a2.181,2.181,0,0,0,2.07,1.328,1.878,1.878,0,0,0,1.617-.8A4.153,4.153,0,0,0,101.684-4.3ZM106.52,0h-1.445V-12h1.445ZM110.4,0h-1.445V-8.453H110.4Zm-1.563-10.7a.863.863,0,0,1,.215-.594.807.807,0,0,1,.637-.242.819.819,0,0,1,.641.242.854.854,0,0,1,.219.594.826.826,0,0,1-.219.586.834.834,0,0,1-.641.234.821.821,0,0,1-.637-.234A.834.834,0,0,1,108.841-10.7Zm7.266,9.672a2.082,2.082,0,0,0,1.352-.469,1.649,1.649,0,0,0,.641-1.172h1.367a2.621,2.621,0,0,1-.5,1.383,3.293,3.293,0,0,1-1.23,1.047,3.55,3.55,0,0,1-1.629.391A3.482,3.482,0,0,1,113.36-1a4.59,4.59,0,0,1-1.02-3.152v-.242a5.089,5.089,0,0,1,.453-2.2,3.451,3.451,0,0,1,1.3-1.492,3.7,3.7,0,0,1,2-.531,3.39,3.39,0,0,1,2.363.852,3.043,3.043,0,0,1,1,2.211H118.1a1.992,1.992,0,0,0-.621-1.348,1.932,1.932,0,0,0-1.379-.527,2.023,2.023,0,0,0-1.707.793,3.724,3.724,0,0,0-.605,2.293v.273a3.65,3.65,0,0,0,.6,2.25A2.033,2.033,0,0,0,116.106-1.023ZM126.309,0a3.036,3.036,0,0,1-.2-.891A3.225,3.225,0,0,1,123.7.156a2.984,2.984,0,0,1-2.051-.707,2.287,2.287,0,0,1-.8-1.793,2.39,2.39,0,0,1,1-2.051,4.733,4.733,0,0,1,2.824-.73h1.406v-.664A1.623,1.623,0,0,0,125.63-7a1.821,1.821,0,0,0-1.336-.449,2.108,2.108,0,0,0-1.3.391,1.151,1.151,0,0,0-.523.945H121.02a2,2,0,0,1,.449-1.223,3.066,3.066,0,0,1,1.219-.934,4.1,4.1,0,0,1,1.691-.344,3.342,3.342,0,0,1,2.289.73,2.635,2.635,0,0,1,.859,2.012v3.891a4.757,4.757,0,0,0,.3,1.852V0Zm-2.4-1.1a2.54,2.54,0,0,0,1.289-.352,2.127,2.127,0,0,0,.883-.914V-4.1H124.95q-2.656,0-2.656,1.555a1.316,1.316,0,0,0,.453,1.063A1.742,1.742,0,0,0,123.911-1.1Zm10.8-1.141a1.064,1.064,0,0,0-.441-.91,4.249,4.249,0,0,0-1.539-.559,7.277,7.277,0,0,1-1.742-.563,2.479,2.479,0,0,1-.953-.781,1.869,1.869,0,0,1-.309-1.078,2.193,2.193,0,0,1,.879-1.758,3.433,3.433,0,0,1,2.246-.719,3.532,3.532,0,0,1,2.332.742,2.357,2.357,0,0,1,.895,1.9H134.63a1.3,1.3,0,0,0-.5-1.023,1.888,1.888,0,0,0-1.27-.43,1.976,1.976,0,0,0-1.234.344,1.082,1.082,0,0,0-.445.9.877.877,0,0,0,.414.789,5.1,5.1,0,0,0,1.5.508,7.8,7.8,0,0,1,1.754.578,2.558,2.558,0,0,1,1,.809,1.988,1.988,0,0,1,.324,1.152,2.163,2.163,0,0,1-.906,1.816A3.8,3.8,0,0,1,132.9.156a4.257,4.257,0,0,1-1.8-.359,2.922,2.922,0,0,1-1.223-1,2.42,2.42,0,0,1-.441-1.395h1.445a1.5,1.5,0,0,0,.582,1.152,2.258,2.258,0,0,0,1.434.426,2.331,2.331,0,0,0,1.316-.332A1.02,1.02,0,0,0,134.716-2.242Z" transform="matrix(0.588, 0.809, -0.809, 0.588, 870.106, 11418.476)" fill="#fff"/>
    <path id="Trazado_881806" data-name="Trazado 881806" d="M5.18-7.156a4.331,4.331,0,0,0-.711-.055A1.9,1.9,0,0,0,2.539-6V0H1.094V-8.453H2.5l.023.977A2.251,2.251,0,0,1,4.539-8.609,1.477,1.477,0,0,1,5.18-8.5ZM11.11,0a3.036,3.036,0,0,1-.2-.891A3.225,3.225,0,0,1,8.5.156,2.984,2.984,0,0,1,6.45-.551a2.287,2.287,0,0,1-.8-1.793,2.39,2.39,0,0,1,1-2.051,4.733,4.733,0,0,1,2.824-.73h1.406v-.664A1.623,1.623,0,0,0,10.43-7a1.821,1.821,0,0,0-1.336-.449,2.108,2.108,0,0,0-1.3.391,1.151,1.151,0,0,0-.523.945H5.821A2,2,0,0,1,6.27-7.332a3.066,3.066,0,0,1,1.219-.934A4.1,4.1,0,0,1,9.18-8.609a3.342,3.342,0,0,1,2.289.73,2.635,2.635,0,0,1,.859,2.012v3.891a4.757,4.757,0,0,0,.3,1.852V0Zm-2.4-1.1A2.54,2.54,0,0,0,10-1.453a2.127,2.127,0,0,0,.883-.914V-4.1H9.751q-2.656,0-2.656,1.555a1.316,1.316,0,0,0,.453,1.063A1.742,1.742,0,0,0,8.712-1.1Zm5.531-3.2a4.952,4.952,0,0,1,.922-3.129,2.915,2.915,0,0,1,2.414-1.184A2.932,2.932,0,0,1,19.93-7.594V-12h1.445V0H20.048l-.07-.906A2.943,2.943,0,0,1,17.563.156a2.887,2.887,0,0,1-2.395-1.2,5.008,5.008,0,0,1-.926-3.141Zm1.445.164a3.749,3.749,0,0,0,.594,2.25,1.92,1.92,0,0,0,1.641.813A2.108,2.108,0,0,0,19.93-2.3V-6.188a2.125,2.125,0,0,0-1.992-1.2,1.929,1.929,0,0,0-1.656.82A4.128,4.128,0,0,0,15.688-4.133ZM25.188,0H23.743V-8.453h1.445ZM23.626-10.7a.863.863,0,0,1,.215-.594.807.807,0,0,1,.637-.242.819.819,0,0,1,.641.242.854.854,0,0,1,.219.594.826.826,0,0,1-.219.586.834.834,0,0,1-.641.234.821.821,0,0,1-.637-.234A.834.834,0,0,1,23.626-10.7ZM27.118-4.3a4.993,4.993,0,0,1,.488-2.234A3.643,3.643,0,0,1,28.966-8.07a3.7,3.7,0,0,1,1.988-.539,3.565,3.565,0,0,1,2.793,1.2,4.6,4.6,0,0,1,1.066,3.18v.1a5.036,5.036,0,0,1-.473,2.215A3.589,3.589,0,0,1,32.989-.391a3.743,3.743,0,0,1-2.02.547,3.556,3.556,0,0,1-2.785-1.2A4.575,4.575,0,0,1,27.118-4.2Zm1.453.172a3.616,3.616,0,0,0,.652,2.258,2.088,2.088,0,0,0,1.746.852,2.075,2.075,0,0,0,1.75-.863A3.955,3.955,0,0,0,33.368-4.3a3.61,3.61,0,0,0-.66-2.254,2.1,2.1,0,0,0-1.754-.863,2.075,2.075,0,0,0-1.727.852A3.925,3.925,0,0,0,28.571-4.133Z" transform="matrix(0.208, 0.978, -0.978, 0.208, 827.067, 11470.275)" fill="#fff"/>
    <path id="Trazado_881805" data-name="Trazado 881805" d="M8.749-4.391a5.378,5.378,0,0,1-.938,3.3A3.006,3.006,0,0,1,5.271.166,3.294,3.294,0,0,1,2.7-.872V3.453H1.162V-8.981h1.4l.075,1A3.163,3.163,0,0,1,5.246-9.147a3.063,3.063,0,0,1,2.561,1.22,5.437,5.437,0,0,1,.942,3.4ZM7.213-4.565a3.968,3.968,0,0,0-.647-2.4,2.086,2.086,0,0,0-1.776-.88A2.257,2.257,0,0,0,2.7-6.607v4.292A2.262,2.262,0,0,0,4.806-1.087a2.076,2.076,0,0,0,1.756-.876A4.332,4.332,0,0,0,7.213-4.565ZM15.041-7.6a4.6,4.6,0,0,0-.755-.058,2.024,2.024,0,0,0-2.05,1.287V0H10.7V-8.981h1.494l.025,1.038a2.391,2.391,0,0,1,2.142-1.2,1.569,1.569,0,0,1,.681.116Zm.685,3.03a5.3,5.3,0,0,1,.519-2.374A3.87,3.87,0,0,1,17.69-8.575,3.932,3.932,0,0,1,19.8-9.147a3.788,3.788,0,0,1,2.968,1.27A4.886,4.886,0,0,1,23.9-4.5v.108a5.351,5.351,0,0,1-.5,2.353A3.813,3.813,0,0,1,21.964-.415a3.977,3.977,0,0,1-2.146.581A3.778,3.778,0,0,1,16.859-1.1a4.861,4.861,0,0,1-1.133-3.362Zm1.544.183a3.842,3.842,0,0,0,.693,2.4,2.218,2.218,0,0,0,1.855.9A2.2,2.2,0,0,0,21.678-2a4.2,4.2,0,0,0,.689-2.569,3.836,3.836,0,0,0-.7-2.395A2.23,2.23,0,0,0,19.8-7.886a2.205,2.205,0,0,0-1.834.9A4.17,4.17,0,0,0,17.27-4.391Zm10-4.59.042,1a3.317,3.317,0,0,1,2.665-1.162A2.568,2.568,0,0,1,32.544-7.7,3.4,3.4,0,0,1,33.71-8.749a3.445,3.445,0,0,1,1.7-.4q2.955,0,3,3.129V0H36.877V-5.927a2.062,2.062,0,0,0-.44-1.44,1.937,1.937,0,0,0-1.478-.477,2.036,2.036,0,0,0-1.419.51,2.071,2.071,0,0,0-.656,1.374V0H31.34V-5.885a1.713,1.713,0,0,0-1.917-1.959,2.055,2.055,0,0,0-2.067,1.287V0H25.82V-8.981ZM40.322-4.574a5.3,5.3,0,0,1,.519-2.374,3.87,3.87,0,0,1,1.444-1.627A3.932,3.932,0,0,1,44.4-9.147a3.788,3.788,0,0,1,2.968,1.27A4.886,4.886,0,0,1,48.5-4.5v.108A5.351,5.351,0,0,1,48-2.038,3.813,3.813,0,0,1,46.56-.415a3.977,3.977,0,0,1-2.146.581A3.778,3.778,0,0,1,41.455-1.1a4.861,4.861,0,0,1-1.133-3.362Zm1.544.183a3.842,3.842,0,0,0,.693,2.4,2.218,2.218,0,0,0,1.855.9A2.2,2.2,0,0,0,46.273-2a4.2,4.2,0,0,0,.689-2.569,3.836,3.836,0,0,0-.7-2.395A2.23,2.23,0,0,0,44.4-7.886a2.205,2.205,0,0,0-1.834.9A4.17,4.17,0,0,0,41.866-4.391Zm12.161,3.3a2.212,2.212,0,0,0,1.436-.5,1.752,1.752,0,0,0,.681-1.245H57.6a2.785,2.785,0,0,1-.531,1.469A3.5,3.5,0,0,1,55.757-.249a3.772,3.772,0,0,1-1.731.415,3.7,3.7,0,0,1-2.918-1.224,4.877,4.877,0,0,1-1.083-3.349v-.257A5.407,5.407,0,0,1,50.507-7a3.667,3.667,0,0,1,1.382-1.585,3.926,3.926,0,0,1,2.129-.564,3.6,3.6,0,0,1,2.511.9A3.234,3.234,0,0,1,57.6-5.894H56.143a2.116,2.116,0,0,0-.66-1.432,2.053,2.053,0,0,0-1.465-.56,2.149,2.149,0,0,0-1.814.843,3.957,3.957,0,0,0-.643,2.436v.291A3.878,3.878,0,0,0,52.2-1.926,2.16,2.16,0,0,0,54.026-1.087ZM60.991,0H59.455V-8.981h1.536ZM59.33-11.364a.917.917,0,0,1,.228-.631.857.857,0,0,1,.677-.257.87.87,0,0,1,.681.257.907.907,0,0,1,.232.631.877.877,0,0,1-.232.623.886.886,0,0,1-.681.249.872.872,0,0,1-.677-.249A.886.886,0,0,1,59.33-11.364Zm3.71,6.79a5.3,5.3,0,0,1,.519-2.374A3.87,3.87,0,0,1,65-8.575a3.932,3.932,0,0,1,2.113-.573,3.788,3.788,0,0,1,2.968,1.27A4.886,4.886,0,0,1,71.217-4.5v.108a5.351,5.351,0,0,1-.5,2.353A3.813,3.813,0,0,1,69.279-.415a3.977,3.977,0,0,1-2.146.581A3.778,3.778,0,0,1,64.174-1.1a4.861,4.861,0,0,1-1.133-3.362Zm1.544.183a3.842,3.842,0,0,0,.693,2.4,2.218,2.218,0,0,0,1.855.9A2.2,2.2,0,0,0,68.992-2a4.2,4.2,0,0,0,.689-2.569,3.836,3.836,0,0,0-.7-2.395,2.23,2.23,0,0,0-1.864-.917,2.205,2.205,0,0,0-1.834.9A4.17,4.17,0,0,0,64.585-4.391ZM74.6-8.981l.05,1.129a3.273,3.273,0,0,1,2.689-1.295q2.847,0,2.872,3.212V0H78.671V-5.943a2.068,2.068,0,0,0-.444-1.436,1.78,1.78,0,0,0-1.357-.465,2.216,2.216,0,0,0-1.312.4,2.706,2.706,0,0,0-.88,1.046V0H73.143V-8.981ZM86.25.166a3.924,3.924,0,0,1-2.972-1.2,4.452,4.452,0,0,1-1.146-3.208v-.282a5.39,5.39,0,0,1,.51-2.386,3.982,3.982,0,0,1,1.428-1.644,3.59,3.59,0,0,1,1.988-.594,3.364,3.364,0,0,1,2.723,1.154,5,5,0,0,1,.971,3.3v.639H83.668a3.193,3.193,0,0,0,.776,2.146,2.44,2.44,0,0,0,1.888.818,2.675,2.675,0,0,0,1.378-.332A3.462,3.462,0,0,0,88.7-2.3l.938.73A3.772,3.772,0,0,1,86.25.166Zm-.191-8.052a2.048,2.048,0,0,0-1.561.677,3.288,3.288,0,0,0-.78,1.9h4.5v-.116a2.925,2.925,0,0,0-.631-1.814A1.929,1.929,0,0,0,86.059-7.886Zm10.7,5.5a1.131,1.131,0,0,0-.469-.967,4.514,4.514,0,0,0-1.635-.594,7.731,7.731,0,0,1-1.851-.6,2.633,2.633,0,0,1-1.013-.83,1.986,1.986,0,0,1-.328-1.146A2.33,2.33,0,0,1,92.4-8.384a3.647,3.647,0,0,1,2.386-.764,3.753,3.753,0,0,1,2.478.789,2.5,2.5,0,0,1,.95,2.017H96.667a1.386,1.386,0,0,0-.535-1.087,2.006,2.006,0,0,0-1.349-.457,2.1,2.1,0,0,0-1.312.365A1.15,1.15,0,0,0,93-6.566a.932.932,0,0,0,.44.838,5.413,5.413,0,0,0,1.59.54,8.283,8.283,0,0,1,1.864.614,2.718,2.718,0,0,1,1.058.859,2.112,2.112,0,0,1,.344,1.224,2.3,2.3,0,0,1-.963,1.93,4.039,4.039,0,0,1-2.5.726,4.523,4.523,0,0,1-1.909-.382,3.105,3.105,0,0,1-1.3-1.067,2.571,2.571,0,0,1-.469-1.482h1.536A1.59,1.59,0,0,0,93.31-1.54a2.4,2.4,0,0,0,1.523.452,2.476,2.476,0,0,0,1.4-.353A1.084,1.084,0,0,0,96.759-2.382Z" transform="translate(753.828 11540.418) rotate(-78)" fill="#3a277b"/>
    <path id="Trazado_881804" data-name="Trazado 881804" d="M.75-4.3a4.968,4.968,0,0,1,.914-3.145A2.923,2.923,0,0,1,4.086-8.609,2.908,2.908,0,0,1,6.5-7.516l.07-.938h1.32V-.2a3.439,3.439,0,0,1-.973,2.586A3.589,3.589,0,0,1,4.3,3.328a4.348,4.348,0,0,1-1.789-.391A3.08,3.08,0,0,1,1.18,1.867L1.93,1A2.826,2.826,0,0,0,4.2,2.148a2.214,2.214,0,0,0,1.645-.594,2.269,2.269,0,0,0,.59-1.672V-.844a2.971,2.971,0,0,1-2.367,1,2.887,2.887,0,0,1-2.4-1.2A5.224,5.224,0,0,1,.75-4.3ZM2.2-4.133a3.79,3.79,0,0,0,.586,2.246A1.9,1.9,0,0,0,4.43-1.07,2.117,2.117,0,0,0,6.438-2.313V-6.172A2.142,2.142,0,0,0,4.445-7.383a1.921,1.921,0,0,0-1.648.82A4.128,4.128,0,0,0,2.2-4.133Zm13.086,3.3a3.07,3.07,0,0,1-2.477.992,2.628,2.628,0,0,1-2.059-.785,3.4,3.4,0,0,1-.715-2.324v-5.5h1.445v5.461q0,1.922,1.563,1.922A2.163,2.163,0,0,0,15.25-2.3V-8.453H16.7V0H15.32ZM22.4.156A3.693,3.693,0,0,1,19.6-.973a4.19,4.19,0,0,1-1.078-3.02v-.266A5.073,5.073,0,0,1,19-6.5a3.748,3.748,0,0,1,1.344-1.547,3.378,3.378,0,0,1,1.871-.559,3.166,3.166,0,0,1,2.563,1.086A4.7,4.7,0,0,1,25.7-4.414v.6H19.969a3,3,0,0,0,.73,2.02,2.3,2.3,0,0,0,1.777.77,2.517,2.517,0,0,0,1.3-.313,3.259,3.259,0,0,0,.93-.828l.883.688A3.55,3.55,0,0,1,22.4.156Zm-.18-7.578a1.928,1.928,0,0,0-1.469.637A3.1,3.1,0,0,0,20.016-5H24.25v-.109a2.753,2.753,0,0,0-.594-1.707A1.815,1.815,0,0,0,22.219-7.422Zm9.234.266a4.331,4.331,0,0,0-.711-.055A1.9,1.9,0,0,0,28.813-6V0H27.367V-8.453h1.406l.023.977a2.251,2.251,0,0,1,2.016-1.133,1.477,1.477,0,0,1,.641.109Zm5.414,0a4.331,4.331,0,0,0-.711-.055A1.9,1.9,0,0,0,34.227-6V0H32.781V-8.453h1.406l.023.977a2.251,2.251,0,0,1,2.016-1.133,1.477,1.477,0,0,1,.641.109ZM39.766,0H38.32V-8.453h1.445ZM38.2-10.7a.863.863,0,0,1,.215-.594.807.807,0,0,1,.637-.242.819.819,0,0,1,.641.242.854.854,0,0,1,.219.594.826.826,0,0,1-.219.586.834.834,0,0,1-.641.234.821.821,0,0,1-.637-.234A.834.834,0,0,1,38.2-10.7ZM43.649,0H42.2V-12h1.445Zm3.883,0H46.086V-12h1.445Zm7.531,0a3.036,3.036,0,0,1-.2-.891A3.225,3.225,0,0,1,52.453.156,2.984,2.984,0,0,1,50.4-.551a2.287,2.287,0,0,1-.8-1.793,2.39,2.39,0,0,1,1-2.051,4.733,4.733,0,0,1,2.824-.73h1.406v-.664A1.623,1.623,0,0,0,54.383-7a1.821,1.821,0,0,0-1.336-.449,2.108,2.108,0,0,0-1.3.391,1.151,1.151,0,0,0-.523.945H49.774a2,2,0,0,1,.449-1.223,3.066,3.066,0,0,1,1.219-.934,4.1,4.1,0,0,1,1.691-.344,3.342,3.342,0,0,1,2.289.73,2.635,2.635,0,0,1,.859,2.012v3.891a4.757,4.757,0,0,0,.3,1.852V0Zm-2.4-1.1a2.54,2.54,0,0,0,1.289-.352,2.127,2.127,0,0,0,.883-.914V-4.1H53.7q-2.656,0-2.656,1.555A1.316,1.316,0,0,0,51.5-1.484,1.742,1.742,0,0,0,52.664-1.1Z" transform="matrix(0.588, -0.809, 0.809, 0.588, 675.427, 11486.233)" fill="#fff"/>
    <path id="Trazado_881802" data-name="Trazado 881802" d="M2.664,0H1.219V-8.453H2.664ZM1.1-10.7a.863.863,0,0,1,.215-.594.807.807,0,0,1,.637-.242.819.819,0,0,1,.641.242.854.854,0,0,1,.219.594.826.826,0,0,1-.219.586.834.834,0,0,1-.641.234.821.821,0,0,1-.637-.234A.834.834,0,0,1,1.1-10.7ZM6.344-8.453l.047,1.063A3.08,3.08,0,0,1,8.922-8.609q2.68,0,2.7,3.023V0H10.18V-5.594a1.946,1.946,0,0,0-.418-1.352,1.675,1.675,0,0,0-1.277-.437,2.086,2.086,0,0,0-1.234.375,2.546,2.546,0,0,0-.828.984V0H4.977V-8.453ZM15.766-10.5v2.047h1.578v1.117H15.766v5.249a1.173,1.173,0,0,0,.211.763.888.888,0,0,0,.719.254,3.5,3.5,0,0,0,.688-.094V0a4.215,4.215,0,0,1-1.109.155A1.8,1.8,0,0,1,14.812-.43a2.517,2.517,0,0,1-.492-1.664V-7.336H12.781V-8.453H14.32V-10.5ZM22.539.156a3.693,3.693,0,0,1-2.8-1.129,4.19,4.19,0,0,1-1.078-3.02v-.266a5.073,5.073,0,0,1,.48-2.246,3.748,3.748,0,0,1,1.344-1.547,3.378,3.378,0,0,1,1.871-.559,3.166,3.166,0,0,1,2.563,1.086,4.7,4.7,0,0,1,.914,3.109v.6H20.109a3,3,0,0,0,.73,2.02,2.3,2.3,0,0,0,1.777.77,2.517,2.517,0,0,0,1.3-.312,3.259,3.259,0,0,0,.93-.828l.883.687A3.55,3.55,0,0,1,22.539.156Zm-.18-7.578a1.928,1.928,0,0,0-1.469.637A3.1,3.1,0,0,0,20.156-5h4.234v-.109A2.753,2.753,0,0,0,23.8-6.816,1.815,1.815,0,0,0,22.359-7.422Zm9.234.266a4.331,4.331,0,0,0-.711-.055A1.9,1.9,0,0,0,28.953-6V0H27.508V-8.453h1.406l.023.977a2.251,2.251,0,0,1,2.016-1.133,1.477,1.477,0,0,1,.641.109ZM37.508,0a3.036,3.036,0,0,1-.2-.891A3.225,3.225,0,0,1,34.9.156a2.984,2.984,0,0,1-2.051-.707,2.287,2.287,0,0,1-.8-1.793,2.39,2.39,0,0,1,1-2.051,4.733,4.733,0,0,1,2.824-.73h1.406v-.664A1.623,1.623,0,0,0,36.828-7a1.821,1.821,0,0,0-1.336-.449,2.107,2.107,0,0,0-1.3.391,1.151,1.151,0,0,0-.523.945H32.219a2,2,0,0,1,.449-1.223,3.066,3.066,0,0,1,1.219-.934,4.1,4.1,0,0,1,1.691-.344,3.342,3.342,0,0,1,2.289.73,2.635,2.635,0,0,1,.859,2.012v3.891a4.757,4.757,0,0,0,.3,1.852V0Zm-2.4-1.1A2.54,2.54,0,0,0,36.4-1.453a2.127,2.127,0,0,0,.883-.914V-4.1H36.149q-2.656,0-2.656,1.555a1.316,1.316,0,0,0,.453,1.062A1.742,1.742,0,0,0,35.11-1.1Zm9.273.078a2.082,2.082,0,0,0,1.352-.469,1.649,1.649,0,0,0,.641-1.172h1.367a2.621,2.621,0,0,1-.5,1.383,3.293,3.293,0,0,1-1.23,1.047,3.55,3.55,0,0,1-1.629.391A3.482,3.482,0,0,1,41.637-1a4.59,4.59,0,0,1-1.02-3.152v-.242a5.089,5.089,0,0,1,.453-2.2,3.451,3.451,0,0,1,1.3-1.492,3.7,3.7,0,0,1,2-.531,3.39,3.39,0,0,1,2.363.852,3.043,3.043,0,0,1,1,2.211H46.375a1.992,1.992,0,0,0-.621-1.348,1.932,1.932,0,0,0-1.379-.527,2.023,2.023,0,0,0-1.707.793,3.724,3.724,0,0,0-.605,2.293v.273a3.65,3.65,0,0,0,.6,2.25A2.033,2.033,0,0,0,44.383-1.023ZM51.328-10.5v2.047h1.578v1.117H51.328v5.249a1.173,1.173,0,0,0,.211.763.888.888,0,0,0,.719.254,3.5,3.5,0,0,0,.688-.094V0a4.215,4.215,0,0,1-1.109.155A1.8,1.8,0,0,1,50.375-.43a2.517,2.517,0,0,1-.492-1.664V-7.336H48.344V-8.453h1.539V-10.5ZM56.164,0H54.719V-8.453h1.445ZM54.6-10.7a.863.863,0,0,1,.215-.594.807.807,0,0,1,.637-.242.819.819,0,0,1,.641.242.854.854,0,0,1,.219.594.826.826,0,0,1-.219.586.834.834,0,0,1-.641.234.821.821,0,0,1-.637-.234A.834.834,0,0,1,54.6-10.7Zm6.664,8.734L63.36-8.453h1.477L61.8,0H60.7L57.641-8.453h1.477ZM65.615-4.3A4.993,4.993,0,0,1,66.1-6.539,3.643,3.643,0,0,1,67.463-8.07a3.7,3.7,0,0,1,1.988-.539,3.565,3.565,0,0,1,2.793,1.2,4.6,4.6,0,0,1,1.066,3.18v.1a5.036,5.036,0,0,1-.473,2.215A3.589,3.589,0,0,1,71.486-.391a3.743,3.743,0,0,1-2.02.547,3.556,3.556,0,0,1-2.785-1.2A4.575,4.575,0,0,1,65.615-4.2Zm1.453.172a3.616,3.616,0,0,0,.652,2.258,2.088,2.088,0,0,0,1.746.852,2.075,2.075,0,0,0,1.75-.863A3.955,3.955,0,0,0,71.865-4.3a3.61,3.61,0,0,0-.66-2.254,2.1,2.1,0,0,0-1.754-.863,2.075,2.075,0,0,0-1.727.852A3.925,3.925,0,0,0,67.068-4.133Z" transform="translate(608.128 11424.606) rotate(-30)" fill="#fff"/>
    <path id="Trazado_881800" data-name="Trazado 881800" d="M6.707,0a3.226,3.226,0,0,1-.216-.946A3.426,3.426,0,0,1,3.935.166,3.17,3.17,0,0,1,1.756-.585,2.43,2.43,0,0,1,.9-2.49,2.539,2.539,0,0,1,1.971-4.669a5.029,5.029,0,0,1,3-.776H6.466v-.706a1.725,1.725,0,0,0-.481-1.282,1.935,1.935,0,0,0-1.419-.477A2.239,2.239,0,0,0,3.188-7.5a1.223,1.223,0,0,0-.556,1H1.087a2.119,2.119,0,0,1,.477-1.3A3.258,3.258,0,0,1,2.86-8.782a4.356,4.356,0,0,1,1.8-.365,3.551,3.551,0,0,1,2.432.776A2.8,2.8,0,0,1,8-6.234V-2.1A5.054,5.054,0,0,0,8.317-.133V0ZM4.159-1.17a2.7,2.7,0,0,0,1.37-.374,2.259,2.259,0,0,0,.938-.971V-4.358h-1.2q-2.822,0-2.822,1.652a1.4,1.4,0,0,0,.481,1.129A1.85,1.85,0,0,0,4.159-1.17Zm9.853.083a2.212,2.212,0,0,0,1.436-.5,1.752,1.752,0,0,0,.681-1.245h1.453a2.785,2.785,0,0,1-.531,1.469A3.5,3.5,0,0,1,15.742-.249a3.772,3.772,0,0,1-1.731.415,3.7,3.7,0,0,1-2.918-1.224,4.877,4.877,0,0,1-1.083-3.349v-.257A5.407,5.407,0,0,1,10.492-7a3.667,3.667,0,0,1,1.382-1.585A3.926,3.926,0,0,1,14-9.147a3.6,3.6,0,0,1,2.511.9,3.234,3.234,0,0,1,1.067,2.349H16.128a2.116,2.116,0,0,0-.66-1.432A2.053,2.053,0,0,0,14-7.886a2.149,2.149,0,0,0-1.814.843,3.957,3.957,0,0,0-.643,2.436v.291a3.878,3.878,0,0,0,.639,2.391A2.16,2.16,0,0,0,14.012-1.087Zm10.841.2A3.262,3.262,0,0,1,22.221.166a2.792,2.792,0,0,1-2.187-.834,3.611,3.611,0,0,1-.76-2.469V-8.981H20.81v5.8q0,2.042,1.66,2.042a2.3,2.3,0,0,0,2.341-1.312V-8.981h1.536V0H24.886ZM32.406.166a3.924,3.924,0,0,1-2.972-1.2,4.452,4.452,0,0,1-1.146-3.208v-.282A5.39,5.39,0,0,1,28.8-6.91a3.982,3.982,0,0,1,1.428-1.644,3.59,3.59,0,0,1,1.988-.594,3.364,3.364,0,0,1,2.723,1.154,5,5,0,0,1,.971,3.3v.639H29.825A3.193,3.193,0,0,0,30.6-1.905a2.44,2.44,0,0,0,1.888.818,2.675,2.675,0,0,0,1.378-.332,3.462,3.462,0,0,0,.988-.88l.938.73A3.772,3.772,0,0,1,32.406.166Zm-.191-8.052a2.048,2.048,0,0,0-1.561.677,3.288,3.288,0,0,0-.78,1.9h4.5v-.116a2.925,2.925,0,0,0-.631-1.814A1.928,1.928,0,0,0,32.215-7.886Zm9.812.282a4.6,4.6,0,0,0-.755-.058,2.024,2.024,0,0,0-2.05,1.287V0H37.686V-8.981H39.18L39.2-7.944a2.391,2.391,0,0,1,2.142-1.2,1.569,1.569,0,0,1,.681.116Zm.744,3.038A5.261,5.261,0,0,1,43.75-7.89a3.1,3.1,0,0,1,2.565-1.258,3.115,3.115,0,0,1,2.5,1.079V-12.75h1.536V0H48.938l-.075-.963A3.127,3.127,0,0,1,46.3.166a3.068,3.068,0,0,1-2.544-1.278,5.321,5.321,0,0,1-.984-3.337Zm1.536.174A3.984,3.984,0,0,0,44.937-2a2.039,2.039,0,0,0,1.743.863,2.24,2.24,0,0,0,2.133-1.312V-6.574A2.257,2.257,0,0,0,46.7-7.844a2.049,2.049,0,0,0-1.76.872A4.386,4.386,0,0,0,44.306-4.391Zm8.019-.183a5.3,5.3,0,0,1,.519-2.374,3.87,3.87,0,0,1,1.444-1.627A3.932,3.932,0,0,1,56.4-9.147a3.788,3.788,0,0,1,2.968,1.27A4.886,4.886,0,0,1,60.5-4.5v.108A5.351,5.351,0,0,1,60-2.038,3.813,3.813,0,0,1,58.563-.415a3.977,3.977,0,0,1-2.146.581A3.778,3.778,0,0,1,53.458-1.1a4.861,4.861,0,0,1-1.133-3.362Zm1.544.183a3.842,3.842,0,0,0,.693,2.4,2.218,2.218,0,0,0,1.855.9A2.2,2.2,0,0,0,58.277-2a4.2,4.2,0,0,0,.689-2.569,3.836,3.836,0,0,0-.7-2.395A2.23,2.23,0,0,0,56.4-7.886a2.205,2.205,0,0,0-1.834.9A4.17,4.17,0,0,0,53.869-4.391ZM67.657-2.382a1.13,1.13,0,0,0-.469-.967,4.514,4.514,0,0,0-1.635-.594,7.731,7.731,0,0,1-1.851-.6,2.633,2.633,0,0,1-1.013-.83,1.986,1.986,0,0,1-.328-1.146,2.33,2.33,0,0,1,.934-1.868,3.647,3.647,0,0,1,2.386-.764,3.753,3.753,0,0,1,2.478.789,2.5,2.5,0,0,1,.95,2.017H67.565a1.386,1.386,0,0,0-.535-1.087,2.006,2.006,0,0,0-1.349-.457,2.1,2.1,0,0,0-1.312.365,1.15,1.15,0,0,0-.473.955.932.932,0,0,0,.44.838,5.413,5.413,0,0,0,1.59.54,8.283,8.283,0,0,1,1.864.614,2.718,2.718,0,0,1,1.058.859,2.112,2.112,0,0,1,.344,1.224,2.3,2.3,0,0,1-.963,1.93,4.039,4.039,0,0,1-2.5.726,4.523,4.523,0,0,1-1.909-.382,3.105,3.105,0,0,1-1.3-1.067,2.571,2.571,0,0,1-.469-1.482h1.536a1.59,1.59,0,0,0,.618,1.224,2.4,2.4,0,0,0,1.523.452,2.476,2.476,0,0,0,1.4-.353A1.084,1.084,0,0,0,67.657-2.382Z" transform="translate(578.075 11338.404) rotate(-6)" fill="#3a277b"/>
    <path id="Trazado_881794" data-name="Trazado 881794" d="M4.6.156A3.693,3.693,0,0,1,1.8-.973,4.19,4.19,0,0,1,.727-3.992v-.266A5.073,5.073,0,0,1,1.207-6.5,3.748,3.748,0,0,1,2.551-8.051a3.378,3.378,0,0,1,1.871-.559A3.166,3.166,0,0,1,6.984-7.523,4.7,4.7,0,0,1,7.9-4.414v.6H2.172a3,3,0,0,0,.73,2.02,2.3,2.3,0,0,0,1.777.77,2.517,2.517,0,0,0,1.3-.313,3.259,3.259,0,0,0,.93-.828l.883.688A3.55,3.55,0,0,1,4.6.156Zm-.18-7.578a1.928,1.928,0,0,0-1.469.637A3.1,3.1,0,0,0,2.219-5H6.453v-.109a2.753,2.753,0,0,0-.594-1.707A1.815,1.815,0,0,0,4.422-7.422Zm7.984,2.055,1.875-3.086h1.688L13.2-4.273,16.055,0H14.383L12.43-3.164,10.477,0H8.8l2.852-4.273L8.883-8.453h1.672ZM19.461-10.5v2.047h1.578v1.117H19.461v5.249a1.173,1.173,0,0,0,.211.763.888.888,0,0,0,.719.254,3.5,3.5,0,0,0,.688-.094V0a4.215,4.215,0,0,1-1.109.155A1.8,1.8,0,0,1,18.508-.43a2.517,2.517,0,0,1-.492-1.664V-7.336H16.477V-8.453h1.539V-10.5ZM26.234.156a3.693,3.693,0,0,1-2.8-1.129,4.19,4.19,0,0,1-1.078-3.02v-.266A5.073,5.073,0,0,1,22.84-6.5a3.748,3.748,0,0,1,1.344-1.547,3.378,3.378,0,0,1,1.871-.559,3.166,3.166,0,0,1,2.563,1.086,4.7,4.7,0,0,1,.914,3.109v.6H23.8a3,3,0,0,0,.73,2.02,2.3,2.3,0,0,0,1.777.77,2.517,2.517,0,0,0,1.3-.313,3.259,3.259,0,0,0,.93-.828l.883.688A3.55,3.55,0,0,1,26.234.156Zm-.18-7.578a1.928,1.928,0,0,0-1.469.637A3.1,3.1,0,0,0,23.852-5h4.234v-.109a2.753,2.753,0,0,0-.594-1.707A1.815,1.815,0,0,0,26.055-7.422Zm9.234.266a4.331,4.331,0,0,0-.711-.055A1.9,1.9,0,0,0,32.648-6V0H31.2V-8.453h1.406l.023.977a2.251,2.251,0,0,1,2.016-1.133,1.477,1.477,0,0,1,.641.109ZM38.188,0H36.742V-8.453h1.445ZM36.625-10.7a.863.863,0,0,1,.215-.594.807.807,0,0,1,.637-.242.819.819,0,0,1,.641.242.854.854,0,0,1,.219.594.826.826,0,0,1-.219.586.834.834,0,0,1-.641.234.821.821,0,0,1-.637-.234A.834.834,0,0,1,36.625-10.7ZM40.117-4.3a4.993,4.993,0,0,1,.488-2.234A3.643,3.643,0,0,1,41.965-8.07a3.7,3.7,0,0,1,1.988-.539,3.565,3.565,0,0,1,2.793,1.2,4.6,4.6,0,0,1,1.066,3.18v.1a5.036,5.036,0,0,1-.473,2.215A3.589,3.589,0,0,1,45.988-.391a3.743,3.743,0,0,1-2.02.547,3.556,3.556,0,0,1-2.785-1.2A4.575,4.575,0,0,1,40.117-4.2Zm1.453.172a3.616,3.616,0,0,0,.652,2.258,2.088,2.088,0,0,0,1.746.852,2.075,2.075,0,0,0,1.75-.863A3.955,3.955,0,0,0,46.367-4.3a3.61,3.61,0,0,0-.66-2.254,2.1,2.1,0,0,0-1.754-.863,2.075,2.075,0,0,0-1.727.852A3.925,3.925,0,0,0,41.57-4.133ZM53.711-7.156A4.331,4.331,0,0,0,53-7.211,1.9,1.9,0,0,0,51.07-6V0H49.625V-8.453h1.406l.023.977A2.251,2.251,0,0,1,53.07-8.609a1.477,1.477,0,0,1,.641.109ZM58.238.156a3.693,3.693,0,0,1-2.8-1.129,4.19,4.19,0,0,1-1.078-3.02v-.266a5.073,5.073,0,0,1,.48-2.246,3.748,3.748,0,0,1,1.344-1.547,3.378,3.378,0,0,1,1.871-.559,3.166,3.166,0,0,1,2.563,1.086,4.7,4.7,0,0,1,.914,3.109v.6H55.809a3,3,0,0,0,.73,2.02,2.3,2.3,0,0,0,1.777.77,2.517,2.517,0,0,0,1.3-.313,3.259,3.259,0,0,0,.93-.828l.883.688A3.55,3.55,0,0,1,58.238.156Zm-.18-7.578a1.928,1.928,0,0,0-1.469.637A3.1,3.1,0,0,0,55.856-5H60.09v-.109A2.753,2.753,0,0,0,59.5-6.816,1.815,1.815,0,0,0,58.059-7.422Zm10.07,5.18a1.064,1.064,0,0,0-.441-.91,4.249,4.249,0,0,0-1.539-.559,7.277,7.277,0,0,1-1.742-.563,2.479,2.479,0,0,1-.953-.781,1.869,1.869,0,0,1-.309-1.078,2.193,2.193,0,0,1,.879-1.758,3.432,3.432,0,0,1,2.246-.719,3.532,3.532,0,0,1,2.332.742,2.357,2.357,0,0,1,.895,1.9H68.043a1.3,1.3,0,0,0-.5-1.023,1.888,1.888,0,0,0-1.27-.43,1.976,1.976,0,0,0-1.234.344,1.082,1.082,0,0,0-.445.9A.877.877,0,0,0,65-5.391a5.1,5.1,0,0,0,1.5.508,7.8,7.8,0,0,1,1.754.578,2.558,2.558,0,0,1,1,.809,1.988,1.988,0,0,1,.324,1.152,2.163,2.163,0,0,1-.906,1.816,3.8,3.8,0,0,1-2.352.684A4.257,4.257,0,0,1,64.52-.2a2.922,2.922,0,0,1-1.223-1A2.42,2.42,0,0,1,62.856-2.6H64.3a1.5,1.5,0,0,0,.582,1.152,2.258,2.258,0,0,0,1.434.426,2.331,2.331,0,0,0,1.316-.332A1.02,1.02,0,0,0,68.129-2.242Z" transform="matrix(0.951, 0.309, -0.309, 0.951, 582.079, 11244.582)" fill="#fff"/>
    <path id="Trazado_881795" data-name="Trazado 881795" d="M8.234-4.133a5.062,5.062,0,0,1-.883,3.109A2.829,2.829,0,0,1,4.961.156,3.1,3.1,0,0,1,2.539-.82V3.25H1.094v-11.7h1.32l.07.938A2.977,2.977,0,0,1,4.937-8.609a2.882,2.882,0,0,1,2.41,1.148,5.117,5.117,0,0,1,.887,3.2ZM6.789-4.3A3.735,3.735,0,0,0,6.18-6.555a1.963,1.963,0,0,0-1.672-.828A2.125,2.125,0,0,0,2.539-6.219V-2.18A2.129,2.129,0,0,0,4.523-1.023a1.954,1.954,0,0,0,1.652-.824A4.077,4.077,0,0,0,6.789-4.3Zm7.367-2.859a4.331,4.331,0,0,0-.711-.055A1.9,1.9,0,0,0,11.516-6V0H10.07V-8.453h1.406l.023.977a2.251,2.251,0,0,1,2.016-1.133,1.477,1.477,0,0,1,.641.109ZM18.7.156A3.693,3.693,0,0,1,15.9-.973a4.19,4.19,0,0,1-1.078-3.02v-.266a5.073,5.073,0,0,1,.48-2.246,3.748,3.748,0,0,1,1.344-1.547,3.378,3.378,0,0,1,1.871-.559,3.166,3.166,0,0,1,2.563,1.086A4.7,4.7,0,0,1,22-4.414v.6H16.27A3,3,0,0,0,17-1.793a2.3,2.3,0,0,0,1.777.77,2.517,2.517,0,0,0,1.3-.312A3.259,3.259,0,0,0,21-2.164l.883.687A3.55,3.55,0,0,1,18.7.156Zm-.18-7.578a1.928,1.928,0,0,0-1.469.637A3.1,3.1,0,0,0,16.317-5h4.234v-.109a2.753,2.753,0,0,0-.594-1.707A1.815,1.815,0,0,0,18.52-7.422Zm6.516-1.031.047,1.063a3.08,3.08,0,0,1,2.531-1.219q2.68,0,2.7,3.023V0H28.872V-5.594a1.946,1.946,0,0,0-.418-1.352,1.675,1.675,0,0,0-1.277-.437,2.086,2.086,0,0,0-1.234.375,2.546,2.546,0,0,0-.828.984V0H23.668V-8.453ZM37.418-2.242a1.064,1.064,0,0,0-.441-.91,4.249,4.249,0,0,0-1.539-.559A7.277,7.277,0,0,1,33.7-4.273a2.479,2.479,0,0,1-.953-.781,1.869,1.869,0,0,1-.309-1.078,2.193,2.193,0,0,1,.879-1.758,3.432,3.432,0,0,1,2.246-.719,3.532,3.532,0,0,1,2.332.742,2.357,2.357,0,0,1,.895,1.9H37.333a1.3,1.3,0,0,0-.5-1.023,1.888,1.888,0,0,0-1.27-.43,1.976,1.976,0,0,0-1.234.344,1.082,1.082,0,0,0-.445.9.877.877,0,0,0,.414.789,5.1,5.1,0,0,0,1.5.508,7.8,7.8,0,0,1,1.754.578,2.558,2.558,0,0,1,1,.809,1.988,1.988,0,0,1,.324,1.152,2.163,2.163,0,0,1-.906,1.816,3.8,3.8,0,0,1-2.352.684,4.257,4.257,0,0,1-1.8-.359,2.922,2.922,0,0,1-1.223-1A2.42,2.42,0,0,1,32.145-2.6H33.59a1.5,1.5,0,0,0,.582,1.152,2.258,2.258,0,0,0,1.434.426,2.331,2.331,0,0,0,1.316-.332A1.02,1.02,0,0,0,37.418-2.242ZM45.965,0a3.036,3.036,0,0,1-.2-.891A3.225,3.225,0,0,1,43.356.156a2.984,2.984,0,0,1-2.051-.707,2.287,2.287,0,0,1-.8-1.793,2.39,2.39,0,0,1,1-2.051,4.733,4.733,0,0,1,2.824-.73h1.406v-.664A1.623,1.623,0,0,0,45.286-7a1.821,1.821,0,0,0-1.336-.449,2.107,2.107,0,0,0-1.3.391,1.151,1.151,0,0,0-.523.945H40.676a2,2,0,0,1,.449-1.223,3.066,3.066,0,0,1,1.219-.934,4.1,4.1,0,0,1,1.691-.344,3.342,3.342,0,0,1,2.289.73,2.635,2.635,0,0,1,.859,2.012v3.891a4.757,4.757,0,0,0,.3,1.852V0Zm-2.4-1.1a2.54,2.54,0,0,0,1.289-.352,2.127,2.127,0,0,0,.883-.914V-4.1H44.606q-2.656,0-2.656,1.555A1.316,1.316,0,0,0,42.4-1.484,1.742,1.742,0,0,0,43.567-1.1Z" transform="matrix(0.743, 0.669, -0.669, 0.743, 639.156, 11170.608)" fill="#fff"/>
    <path id="Trazado_881796" data-name="Trazado 881796" d="M4.765-1.087a2.212,2.212,0,0,0,1.436-.5,1.752,1.752,0,0,0,.681-1.245H8.334A2.785,2.785,0,0,1,7.8-1.361,3.5,3.5,0,0,1,6.5-.249,3.772,3.772,0,0,1,4.765.166,3.7,3.7,0,0,1,1.847-1.058,4.877,4.877,0,0,1,.764-4.408v-.257A5.407,5.407,0,0,1,1.245-7,3.667,3.667,0,0,1,2.627-8.583a3.926,3.926,0,0,1,2.129-.564,3.6,3.6,0,0,1,2.511.9A3.234,3.234,0,0,1,8.334-5.894H6.881a2.116,2.116,0,0,0-.66-1.432,2.053,2.053,0,0,0-1.465-.56,2.149,2.149,0,0,0-1.814.843A3.957,3.957,0,0,0,2.3-4.607v.291a3.878,3.878,0,0,0,.639,2.391A2.16,2.16,0,0,0,4.765-1.087ZM11.729,0H10.193V-8.981h1.536Zm-1.66-11.364a.917.917,0,0,1,.228-.631.857.857,0,0,1,.677-.257.87.87,0,0,1,.681.257.907.907,0,0,1,.232.631.877.877,0,0,1-.232.623.886.886,0,0,1-.681.249.872.872,0,0,1-.677-.249A.886.886,0,0,1,10.069-11.364Zm5.57,2.382.05,1.129a3.273,3.273,0,0,1,2.689-1.295q2.847,0,2.872,3.212V0H19.714V-5.943a2.068,2.068,0,0,0-.444-1.436,1.78,1.78,0,0,0-1.357-.465,2.216,2.216,0,0,0-1.312.4,2.706,2.706,0,0,0-.88,1.046V0H14.186V-8.981ZM27.293.166a3.924,3.924,0,0,1-2.972-1.2,4.452,4.452,0,0,1-1.146-3.208v-.282a5.39,5.39,0,0,1,.51-2.386,3.982,3.982,0,0,1,1.428-1.644A3.59,3.59,0,0,1,27.1-9.147a3.364,3.364,0,0,1,2.723,1.154,5,5,0,0,1,.971,3.3v.639H24.711a3.193,3.193,0,0,0,.776,2.146,2.44,2.44,0,0,0,1.888.818,2.675,2.675,0,0,0,1.378-.332,3.462,3.462,0,0,0,.988-.88l.938.73A3.772,3.772,0,0,1,27.293.166ZM27.1-7.886a2.048,2.048,0,0,0-1.561.677,3.288,3.288,0,0,0-.78,1.9h4.5v-.116a2.925,2.925,0,0,0-.631-1.814A1.929,1.929,0,0,0,27.1-7.886Z" transform="matrix(0.407, 0.914, -0.914, 0.407, 714.317, 11127.502)" fill="#3a277b"/>
  </g>
</svg>
