<svg xmlns="http://www.w3.org/2000/svg" width="820.333" height="485.75" viewBox="0 0 820.333 485.75">
  <g id="Grupo_1104236" data-name="Grupo 1104236" transform="translate(-390 -399)">
    <path id="Trazado_881786" data-name="Trazado 881786" d="M34,0H366a34,34,0,0,1,0,68H34A34,34,0,0,1,34,0Z" transform="translate(600.333 399)" fill="#7d6eb2"/>
    <path id="Trazado_881787" data-name="Trazado 881787" d="M-83.208-4.814a5.193,5.193,0,0,1-.8,2.622A4.833,4.833,0,0,1-86.064-.43,7,7,0,0,1-89.087.2,5.584,5.584,0,0,1-93.5-1.631a7.54,7.54,0,0,1-1.611-5.156v-.7a8.607,8.607,0,0,1,.728-3.657,5.513,5.513,0,0,1,2.095-2.422,5.844,5.844,0,0,1,3.164-.854,6.129,6.129,0,0,1,4.16,1.362,5.383,5.383,0,0,1,1.787,3.755H-86.6a2.547,2.547,0,0,0-.654-1.865,2.691,2.691,0,0,0-1.875-.566A2.048,2.048,0,0,0-91-10.781a6.151,6.151,0,0,0-.625,3.057v1.006a6.806,6.806,0,0,0,.571,3.252,2.091,2.091,0,0,0,1.968.977,2.632,2.632,0,0,0,1.807-.557,2.363,2.363,0,0,0,.664-1.768ZM-75.786,0A3.716,3.716,0,0,1-76.1-.947,3.06,3.06,0,0,1-78.638.2a3.749,3.749,0,0,1-2.539-.9,2.875,2.875,0,0,1-1.045-2.271,2.955,2.955,0,0,1,1.27-2.6,6.468,6.468,0,0,1,3.691-.879h1.016v-.559q0-1.462-1.26-1.462a1.03,1.03,0,0,0-1.172,1.158h-3.291a2.95,2.95,0,0,1,1.3-2.487,5.479,5.479,0,0,1,3.325-.956,4.8,4.8,0,0,1,3.193.986,3.429,3.429,0,0,1,1.2,2.705v4.678A4.79,4.79,0,0,0-72.5-.166V0Zm-2.061-2.148a1.836,1.836,0,0,0,1.021-.264,1.653,1.653,0,0,0,.581-.6V-4.7H-77.2q-1.719,0-1.719,1.543a.942.942,0,0,0,.3.728A1.1,1.1,0,0,0-77.847-2.148Zm9.834-8.418.107,1.24a3.633,3.633,0,0,1,3.018-1.436A2.675,2.675,0,0,1-62.183-9.17a3.516,3.516,0,0,1,3.105-1.592q3.213,0,3.3,3.887V0h-3.3V-6.67a2.014,2.014,0,0,0-.273-1.182,1.164,1.164,0,0,0-1-.371,1.559,1.559,0,0,0-1.455.869l.01.137V0h-3.3V-6.65a2.117,2.117,0,0,0-.264-1.2,1.161,1.161,0,0,0-1.006-.371,1.578,1.578,0,0,0-1.445.869V0H-71.1V-10.566Zm23.926,5.361A6.372,6.372,0,0,1-45.2-1.274,3.554,3.554,0,0,1-48.188.2,3.046,3.046,0,0,1-50.581-.869V4.063h-3.291V-10.566H-50.8l.1.977a3.046,3.046,0,0,1,2.49-1.172,3.582,3.582,0,0,1,3.037,1.44,6.45,6.45,0,0,1,1.084,3.96Zm-3.291-.205q0-2.812-1.641-2.812a1.549,1.549,0,0,0-1.562.84v4.16A1.6,1.6,0,0,0-49-2.344q1.572,0,1.621-2.715ZM-36.685,0A3.716,3.716,0,0,1-37-.947,3.06,3.06,0,0,1-39.536.2a3.749,3.749,0,0,1-2.539-.9A2.875,2.875,0,0,1-43.12-2.979a2.955,2.955,0,0,1,1.27-2.6,6.468,6.468,0,0,1,3.691-.879h1.016v-.559q0-1.462-1.26-1.462a1.03,1.03,0,0,0-1.172,1.158h-3.291a2.95,2.95,0,0,1,1.3-2.487,5.479,5.479,0,0,1,3.325-.956,4.8,4.8,0,0,1,3.193.986,3.429,3.429,0,0,1,1.2,2.705v4.678a4.79,4.79,0,0,0,.449,2.227V0Zm-2.061-2.148a1.836,1.836,0,0,0,1.021-.264,1.653,1.653,0,0,0,.581-.6V-4.7H-38.1q-1.719,0-1.719,1.543a.942.942,0,0,0,.3.728A1.1,1.1,0,0,0-38.745-2.148ZM-29-10.566l.107,1.24a3.583,3.583,0,0,1,3.018-1.436,3.015,3.015,0,0,1,2.466.986,4.7,4.7,0,0,1,.845,2.969V0h-3.3V-6.67a1.783,1.783,0,0,0-.322-1.177,1.491,1.491,0,0,0-1.172-.376,1.569,1.569,0,0,0-1.436.762V0h-3.291V-10.566Zm5.459-4.355a2.847,2.847,0,0,1-.649,1.89,2.015,2.015,0,0,1-1.606.776,3.169,3.169,0,0,1-1.436-.41,2.994,2.994,0,0,0-1.279-.41.733.733,0,0,0-.532.215.892.892,0,0,0-.22.664l-1.826-.1a2.863,2.863,0,0,1,.649-1.875,1.992,1.992,0,0,1,1.6-.791,3.3,3.3,0,0,1,1.279.361,7.856,7.856,0,0,0,1,.41,1.934,1.934,0,0,0,.444.049.746.746,0,0,0,.537-.217.9.9,0,0,0,.225-.671ZM-14.79,0A3.716,3.716,0,0,1-15.1-.947,3.06,3.06,0,0,1-17.642.2a3.749,3.749,0,0,1-2.539-.9,2.875,2.875,0,0,1-1.045-2.271,2.955,2.955,0,0,1,1.27-2.6,6.468,6.468,0,0,1,3.691-.879h1.016v-.559q0-1.462-1.26-1.462a1.03,1.03,0,0,0-1.172,1.158h-3.291a2.95,2.95,0,0,1,1.3-2.487,5.479,5.479,0,0,1,3.325-.956,4.8,4.8,0,0,1,3.193.986,3.429,3.429,0,0,1,1.2,2.705v4.678A4.79,4.79,0,0,0-11.5-.166V0Zm-2.061-2.148a1.836,1.836,0,0,0,1.021-.264,1.653,1.653,0,0,0,.581-.6V-4.7h-.957q-1.719,0-1.719,1.543a.942.942,0,0,0,.3.728A1.1,1.1,0,0,0-16.851-2.148ZM4.663-5.205A6.372,6.372,0,0,1,3.555-1.274,3.554,3.554,0,0,1,.562.2,3.046,3.046,0,0,1-1.831-.869V4.063H-5.122V-10.566h3.076l.1.977a3.046,3.046,0,0,1,2.49-1.172,3.582,3.582,0,0,1,3.037,1.44,6.45,6.45,0,0,1,1.084,3.96ZM1.372-5.41q0-2.812-1.641-2.812a1.549,1.549,0,0,0-1.562.84v4.16a1.6,1.6,0,0,0,1.582.879q1.572,0,1.621-2.715ZM12.407-1.143A3.393,3.393,0,0,1,9.585.2,3.328,3.328,0,0,1,6.953-.815,4.251,4.251,0,0,1,6.06-3.721v-6.846H9.351V-3.7a1.183,1.183,0,0,0,1.318,1.357,1.72,1.72,0,0,0,1.611-.811v-7.412h3.311V0H12.5ZM27.2-5.2A6.44,6.44,0,0,1,26.128-1.2,3.6,3.6,0,0,1,23.1.2a3.122,3.122,0,0,1-2.6-1.279L20.366,0H17.417V-15h3.291v5.283a3.013,3.013,0,0,1,2.373-1.045,3.6,3.6,0,0,1,3.047,1.416A6.473,6.473,0,0,1,27.2-5.361Zm-3.3-.21A4.3,4.3,0,0,0,23.5-7.574a1.366,1.366,0,0,0-1.245-.648,1.576,1.576,0,0,0-1.543.848v4.192a1.585,1.585,0,0,0,1.563.838,1.4,1.4,0,0,0,1.475-1.131A8.121,8.121,0,0,0,23.9-5.405ZM32.124,0h-3.3V-15h3.3Zm5.5,0h-3.3V-10.566h3.3Zm-3.5-13.291a1.469,1.469,0,0,1,.508-1.152,1.916,1.916,0,0,1,1.318-.449,1.916,1.916,0,0,1,1.318.449,1.469,1.469,0,0,1,.508,1.152,1.469,1.469,0,0,1-.508,1.152,1.916,1.916,0,0,1-1.318.449,1.916,1.916,0,0,1-1.318-.449A1.469,1.469,0,0,1,34.126-13.291Zm9.99,10.947A1.464,1.464,0,0,0,45.19-2.72a1.379,1.379,0,0,0,.371-1.05h3.086A3.653,3.653,0,0,1,47.4-.918,4.631,4.631,0,0,1,44.194.2,4.689,4.689,0,0,1,40.562-1.25a5.7,5.7,0,0,1-1.328-4v-.137a6.436,6.436,0,0,1,.591-2.827,4.3,4.3,0,0,1,1.7-1.885,5.081,5.081,0,0,1,2.637-.659,4.573,4.573,0,0,1,3.271,1.143,4.053,4.053,0,0,1,1.211,3.1H45.562a1.807,1.807,0,0,0-.4-1.26,1.382,1.382,0,0,0-1.074-.439q-1.279,0-1.494,1.631a11.507,11.507,0,0,0-.068,1.426,4.52,4.52,0,0,0,.381,2.207A1.319,1.319,0,0,0,44.116-2.344ZM53.511,0h-3.3V-10.566h3.3Zm-3.5-13.291a1.469,1.469,0,0,1,.508-1.152,1.916,1.916,0,0,1,1.318-.449,1.916,1.916,0,0,1,1.318.449,1.469,1.469,0,0,1,.508,1.152,1.469,1.469,0,0,1-.508,1.152,1.916,1.916,0,0,1-1.318.449,1.916,1.916,0,0,1-1.318-.449A1.469,1.469,0,0,1,50.015-13.291Zm9.355.1v2.627h1.738v2.285H59.37v4.834a1.234,1.234,0,0,0,.215.83,1.152,1.152,0,0,0,.85.234,4.828,4.828,0,0,0,.82-.059V-.088A6.074,6.074,0,0,1,59.4.2a3.448,3.448,0,0,1-2.51-.8,3.282,3.282,0,0,1-.811-2.432V-8.281H54.731v-2.285h1.348v-2.627ZM68.354,0a3.716,3.716,0,0,1-.312-.947A3.06,3.06,0,0,1,65.5.2a3.749,3.749,0,0,1-2.539-.9,2.875,2.875,0,0,1-1.045-2.271,2.955,2.955,0,0,1,1.27-2.6,6.468,6.468,0,0,1,3.691-.879H67.9v-.559q0-1.462-1.26-1.462a1.03,1.03,0,0,0-1.172,1.158H62.173a2.95,2.95,0,0,1,1.3-2.487,5.479,5.479,0,0,1,3.325-.956A4.8,4.8,0,0,1,70-9.775,3.429,3.429,0,0,1,71.2-7.07v4.678a4.79,4.79,0,0,0,.449,2.227V0ZM66.294-2.148a1.836,1.836,0,0,0,1.021-.264,1.653,1.653,0,0,0,.581-.6V-4.7h-.957q-1.719,0-1.719,1.543a.942.942,0,0,0,.3.728A1.1,1.1,0,0,0,66.294-2.148ZM79.409-7.588l-1.084-.078a1.947,1.947,0,0,0-1.992.977V0H73.042V-10.566h3.086l.107,1.357a2.548,2.548,0,0,1,2.314-1.553,3.209,3.209,0,0,1,.918.117ZM84.067,0h-3.3V-10.566h3.3Zm-3.5-13.291a1.469,1.469,0,0,1,.508-1.152,1.916,1.916,0,0,1,1.318-.449,1.916,1.916,0,0,1,1.318.449,1.469,1.469,0,0,1,.508,1.152,1.469,1.469,0,0,1-.508,1.152,1.916,1.916,0,0,1-1.318.449,1.916,1.916,0,0,1-1.318-.449A1.469,1.469,0,0,1,80.571-13.291ZM92.046,0a3.716,3.716,0,0,1-.312-.947A3.06,3.06,0,0,1,89.194.2a3.749,3.749,0,0,1-2.539-.9A2.875,2.875,0,0,1,85.61-2.979a2.955,2.955,0,0,1,1.27-2.6,6.468,6.468,0,0,1,3.691-.879h1.016v-.559q0-1.462-1.26-1.462a1.03,1.03,0,0,0-1.172,1.158H85.864a2.95,2.95,0,0,1,1.3-2.487,5.479,5.479,0,0,1,3.325-.956,4.8,4.8,0,0,1,3.193.986,3.429,3.429,0,0,1,1.2,2.705v4.678a4.79,4.79,0,0,0,.449,2.227V0ZM89.985-2.148a1.836,1.836,0,0,0,1.021-.264,1.653,1.653,0,0,0,.581-.6V-4.7H90.63q-1.719,0-1.719,1.543a.942.942,0,0,0,.3.728A1.1,1.1,0,0,0,89.985-2.148Z" transform="translate(800.333 439)" fill="#fff"/>
    <path id="Trazado_874028" data-name="Trazado 874028" d="M-12431-9251v-334h526.666v238.342" transform="translate(12967.665 10081)" fill="none" stroke="#7d6eb2" stroke-width="2"/>
    <path id="Trazado_881785" data-name="Trazado 881785" d="M0,0V29" transform="translate(800.833 467.5)" fill="none" stroke="#7d6eb2" stroke-width="2"/>
    <path id="Trazado_881781" data-name="Trazado 881781" d="M10,0H285a10,10,0,0,1,10,10V33a10,10,0,0,1-10,10H10A10,10,0,0,1,0,33V10A10,10,0,0,1,10,0Z" transform="translate(390 529)" fill="#26aab7"/>
    <path id="Trazado_881782" data-name="Trazado 881782" d="M10,0H285a10,10,0,0,1,10,10V33a10,10,0,0,1-10,10H10A10,10,0,0,1,0,33V10A10,10,0,0,1,10,0Z" transform="translate(915.333 529)" fill="#26aab7"/>
    <path id="Trazado_881783" data-name="Trazado 881783" d="M-125.793-4.93h-4.5v3.047h5.281V0h-7.625V-11.375h7.609v1.9h-5.266v2.711h4.5Zm6.586,2.594a.727.727,0,0,0-.41-.652,4.659,4.659,0,0,0-1.316-.426q-3.016-.633-3.016-2.562a2.323,2.323,0,0,1,.934-1.879,3.766,3.766,0,0,1,2.441-.754A4.053,4.053,0,0,1-118-7.852a2.388,2.388,0,0,1,.965,1.969h-2.258a1.092,1.092,0,0,0-.312-.8A1.322,1.322,0,0,0-120.582-7a1.351,1.351,0,0,0-.883.258.814.814,0,0,0-.312.656.7.7,0,0,0,.355.605,3.657,3.657,0,0,0,1.2.4A9.8,9.8,0,0,1-118.8-4.7a2.336,2.336,0,0,1,1.789,2.273A2.2,2.2,0,0,1-118-.559a4.28,4.28,0,0,1-2.562.715,4.47,4.47,0,0,1-1.887-.379,3.166,3.166,0,0,1-1.293-1.039,2.414,2.414,0,0,1-.469-1.426h2.141a1.179,1.179,0,0,0,.445.922,1.766,1.766,0,0,0,1.109.32,1.635,1.635,0,0,0,.98-.246A.766.766,0,0,0-119.207-2.336Zm6.352-8.2v2.078h1.445V-6.8h-1.445v4.219a1.007,1.007,0,0,0,.18.672.9.9,0,0,0,.688.2,3.6,3.6,0,0,0,.664-.055V-.047a4.648,4.648,0,0,1-1.367.2,2.156,2.156,0,0,1-2.422-2.4V-6.8h-1.234V-8.453h1.234v-2.078Zm7.453,4.2a6.134,6.134,0,0,0-.812-.062,1.654,1.654,0,0,0-1.68.867V0h-2.258V-8.453h2.133l.063,1.008a2.092,2.092,0,0,1,1.883-1.164,2.366,2.366,0,0,1,.7.1Zm6.148,5.477A2.831,2.831,0,0,1-101.566.156a2.67,2.67,0,0,1-2.074-.781,3.335,3.335,0,0,1-.73-2.289V-8.453h2.258v5.467q0,1.322,1.2,1.322a1.63,1.63,0,0,0,1.578-.8V-8.453h2.266V0h-2.125Zm7.406-.8a1.481,1.481,0,0,0,1.016-.344,1.2,1.2,0,0,0,.406-.914h2.117a2.9,2.9,0,0,1-.469,1.574A3.093,3.093,0,0,1-90.039-.238a3.949,3.949,0,0,1-1.77.395A3.67,3.67,0,0,1-94.668-1,4.56,4.56,0,0,1-95.715-4.18v-.148a4.508,4.508,0,0,1,1.039-3.117,3.627,3.627,0,0,1,2.852-1.164,3.555,3.555,0,0,1,2.543.9,3.2,3.2,0,0,1,.973,2.4h-2.117a1.551,1.551,0,0,0-.406-1.072,1.354,1.354,0,0,0-1.031-.412,1.36,1.36,0,0,0-1.191.575,3.333,3.333,0,0,0-.4,1.866v.235a3.375,3.375,0,0,0,.4,1.878A1.377,1.377,0,0,0-91.848-1.664Zm7.531-8.867v2.078h1.445V-6.8h-1.445v4.219a1.007,1.007,0,0,0,.18.672.9.9,0,0,0,.688.2,3.6,3.6,0,0,0,.664-.055V-.047a4.648,4.648,0,0,1-1.367.2,2.156,2.156,0,0,1-2.422-2.4V-6.8h-1.234V-8.453h1.234v-2.078Zm7.766,9.672A2.831,2.831,0,0,1-78.863.156a2.67,2.67,0,0,1-2.074-.781,3.335,3.335,0,0,1-.73-2.289V-8.453h2.258v5.467q0,1.322,1.2,1.322a1.63,1.63,0,0,0,1.578-.8V-8.453h2.266V0h-2.125Zm8.641-5.477a6.134,6.134,0,0,0-.812-.062,1.654,1.654,0,0,0-1.68.867V0H-72.66V-8.453h2.133l.063,1.008a2.092,2.092,0,0,1,1.883-1.164,2.366,2.366,0,0,1,.7.1ZM-62.16,0a2.507,2.507,0,0,1-.227-.758A2.732,2.732,0,0,1-64.52.156a3,3,0,0,1-2.059-.719,2.312,2.312,0,0,1-.816-1.812,2.389,2.389,0,0,1,1-2.062,4.915,4.915,0,0,1,2.879-.727h1.039v-.484a1.393,1.393,0,0,0-.3-.937,1.183,1.183,0,0,0-.949-.352,1.345,1.345,0,0,0-.895.273.929.929,0,0,0-.324.75h-2.258a2.268,2.268,0,0,1,.453-1.359,3,3,0,0,1,1.281-.98,4.669,4.669,0,0,1,1.859-.355,3.689,3.689,0,0,1,2.48.785,2.747,2.747,0,0,1,.918,2.207v3.664a4.041,4.041,0,0,0,.336,1.82V0Zm-1.867-1.57a1.945,1.945,0,0,0,.922-.223,1.462,1.462,0,0,0,.625-.6V-3.844h-.844q-1.7,0-1.8,1.172l-.008.133a.9.9,0,0,0,.3.7A1.153,1.153,0,0,0-64.027-1.57Zm9.18-2.719a5.094,5.094,0,0,1,.887-3.148,2.877,2.877,0,0,1,2.426-1.172,2.589,2.589,0,0,1,2.039.922V-12h2.266V0H-49.27l-.109-.9A2.657,2.657,0,0,1-51.551.156,2.869,2.869,0,0,1-53.945-1.02,5.258,5.258,0,0,1-54.848-4.289Zm2.258.168A3.337,3.337,0,0,0-52.176-2.3a1.349,1.349,0,0,0,1.2.634A1.511,1.511,0,0,0-49.5-2.548V-5.889a1.489,1.489,0,0,0-1.461-.884Q-52.59-6.773-52.59-4.121Zm11,4.277A4.15,4.15,0,0,1-44.617-.984a4.054,4.054,0,0,1-1.168-3.039v-.219a5.106,5.106,0,0,1,.492-2.277A3.612,3.612,0,0,1-43.9-8.066a3.914,3.914,0,0,1,2.059-.543,3.508,3.508,0,0,1,2.73,1.094,4.444,4.444,0,0,1,1,3.1v.922H-43.5a2.1,2.1,0,0,0,.66,1.328,2,2,0,0,0,1.395.5A2.437,2.437,0,0,0-39.4-2.609l1.109,1.242A3.389,3.389,0,0,1-39.668-.246,4.511,4.511,0,0,1-41.59.156Zm-.258-6.945a1.411,1.411,0,0,0-1.09.455,2.357,2.357,0,0,0-.535,1.3h3.141v-.181a1.681,1.681,0,0,0-.406-1.165A1.456,1.456,0,0,0-41.848-6.789ZM-30.465,0H-32.73V-12h2.266Zm6.758,0a2.507,2.507,0,0,1-.227-.758,2.732,2.732,0,0,1-2.133.914,3,3,0,0,1-2.059-.719,2.312,2.312,0,0,1-.816-1.812,2.389,2.389,0,0,1,1-2.062,4.915,4.915,0,0,1,2.879-.727h1.039v-.484a1.393,1.393,0,0,0-.3-.937,1.183,1.183,0,0,0-.949-.352,1.345,1.345,0,0,0-.895.273.929.929,0,0,0-.324.75h-2.258A2.268,2.268,0,0,1-28.3-7.273a3,3,0,0,1,1.281-.98,4.669,4.669,0,0,1,1.859-.355,3.689,3.689,0,0,1,2.48.785,2.747,2.747,0,0,1,.918,2.207v3.664a4.041,4.041,0,0,0,.336,1.82V0Zm-1.867-1.57a1.945,1.945,0,0,0,.922-.223,1.462,1.462,0,0,0,.625-.6V-3.844h-.844q-1.7,0-1.8,1.172l-.008.133a.9.9,0,0,0,.3.7A1.153,1.153,0,0,0-25.574-1.57Zm13.047-.094a1.481,1.481,0,0,0,1.016-.344,1.2,1.2,0,0,0,.406-.914h2.117a2.9,2.9,0,0,1-.469,1.574A3.093,3.093,0,0,1-10.719-.238a3.949,3.949,0,0,1-1.77.395A3.67,3.67,0,0,1-15.348-1,4.56,4.56,0,0,1-16.395-4.18v-.148a4.508,4.508,0,0,1,1.039-3.117A3.627,3.627,0,0,1-12.5-8.609a3.555,3.555,0,0,1,2.543.9,3.2,3.2,0,0,1,.973,2.4h-2.117a1.551,1.551,0,0,0-.406-1.072,1.354,1.354,0,0,0-1.031-.412,1.36,1.36,0,0,0-1.191.575,3.333,3.333,0,0,0-.4,1.866v.235a3.375,3.375,0,0,0,.4,1.878A1.377,1.377,0,0,0-12.527-1.664ZM-2.8,0a2.507,2.507,0,0,1-.227-.758A2.732,2.732,0,0,1-5.16.156,3,3,0,0,1-7.219-.562a2.312,2.312,0,0,1-.816-1.812,2.389,2.389,0,0,1,1-2.062A4.915,4.915,0,0,1-4.16-5.164h1.039v-.484a1.393,1.393,0,0,0-.3-.937,1.183,1.183,0,0,0-.949-.352,1.345,1.345,0,0,0-.895.273.929.929,0,0,0-.324.75H-7.848a2.268,2.268,0,0,1,.453-1.359,3,3,0,0,1,1.281-.98,4.669,4.669,0,0,1,1.859-.355,3.689,3.689,0,0,1,2.48.785A2.747,2.747,0,0,1-.855-5.617v3.664A4.041,4.041,0,0,0-.52-.133V0ZM-4.668-1.57a1.945,1.945,0,0,0,.922-.223,1.462,1.462,0,0,0,.625-.6V-3.844h-.844q-1.7,0-1.8,1.172l-.008.133a.9.9,0,0,0,.3.7A1.153,1.153,0,0,0-4.668-1.57ZM3-8.453l.07.945a2.971,2.971,0,0,1,2.43-1.1A2.255,2.255,0,0,1,7.738-7.32a2.9,2.9,0,0,1,2.539-1.289,2.521,2.521,0,0,1,2.047.8A3.681,3.681,0,0,1,13-5.4V0H10.73V-5.391a1.61,1.61,0,0,0-.281-1.051,1.246,1.246,0,0,0-.992-.332A1.409,1.409,0,0,0,8.051-5.8L8.059,0H5.8V-5.383a1.59,1.59,0,0,0-.289-1.062,1.259,1.259,0,0,0-.984-.328,1.463,1.463,0,0,0-1.391.8V0H.879V-8.453Zm19.344,4.3a5.07,5.07,0,0,1-.887,3.129A2.843,2.843,0,0,1,19.059.156a2.633,2.633,0,0,1-2.07-.891V3.25H14.73v-11.7h2.094l.078.828a2.654,2.654,0,0,1,2.141-.984,2.862,2.862,0,0,1,2.43,1.156,5.207,5.207,0,0,1,.867,3.188Zm-2.258-.164a3.327,3.327,0,0,0-.418-1.82,1.361,1.361,0,0,0-1.215-.641,1.478,1.478,0,0,0-1.461.813V-2.5a1.5,1.5,0,0,0,1.477.836Q20.082-1.664,20.082-4.312ZM28.637,0a2.507,2.507,0,0,1-.227-.758,2.732,2.732,0,0,1-2.133.914,3,3,0,0,1-2.059-.719A2.312,2.312,0,0,1,23.4-2.375a2.389,2.389,0,0,1,1-2.062,4.915,4.915,0,0,1,2.879-.727h1.039v-.484a1.393,1.393,0,0,0-.3-.937,1.183,1.183,0,0,0-.949-.352,1.345,1.345,0,0,0-.895.273.929.929,0,0,0-.324.75H23.59a2.268,2.268,0,0,1,.453-1.359,3,3,0,0,1,1.281-.98,4.669,4.669,0,0,1,1.859-.355,3.689,3.689,0,0,1,2.48.785,2.747,2.747,0,0,1,.918,2.207v3.664a4.041,4.041,0,0,0,.336,1.82V0ZM26.77-1.57a1.945,1.945,0,0,0,.922-.223,1.462,1.462,0,0,0,.625-.6V-3.844h-.844q-1.7,0-1.8,1.172l-.008.133a.9.9,0,0,0,.3.7A1.153,1.153,0,0,0,26.77-1.57Zm7.625-6.883.07.977a2.951,2.951,0,0,1,2.43-1.133,2.453,2.453,0,0,1,2,.789,3.682,3.682,0,0,1,.672,2.359V0H37.309V-5.406A1.465,1.465,0,0,0,37-6.449a1.4,1.4,0,0,0-1.039-.324,1.553,1.553,0,0,0-1.43.813V0H32.27V-8.453ZM38.879-11.9a2.187,2.187,0,0,1-.516,1.48,1.6,1.6,0,0,1-1.258.6,1.908,1.908,0,0,1-.527-.066,3.539,3.539,0,0,1-.637-.285,3.435,3.435,0,0,0-.586-.27,1.432,1.432,0,0,0-.391-.051.627.627,0,0,0-.465.2.759.759,0,0,0-.191.555L33-9.82a2.22,2.22,0,0,1,.512-1.477,1.578,1.578,0,0,1,1.254-.609,1.614,1.614,0,0,1,.441.059,4.861,4.861,0,0,1,.676.285,4.392,4.392,0,0,0,.648.273,1.48,1.48,0,0,0,.375.047.659.659,0,0,0,.473-.191.728.728,0,0,0,.2-.551ZM46.176,0a2.507,2.507,0,0,1-.227-.758,2.732,2.732,0,0,1-2.133.914,3,3,0,0,1-2.059-.719,2.312,2.312,0,0,1-.816-1.812,2.389,2.389,0,0,1,1-2.062,4.915,4.915,0,0,1,2.879-.727h1.039v-.484a1.393,1.393,0,0,0-.3-.937,1.183,1.183,0,0,0-.949-.352,1.345,1.345,0,0,0-.895.273.929.929,0,0,0-.324.75H41.129a2.268,2.268,0,0,1,.453-1.359,3,3,0,0,1,1.281-.98,4.669,4.669,0,0,1,1.859-.355,3.689,3.689,0,0,1,2.48.785,2.747,2.747,0,0,1,.918,2.207v3.664a4.041,4.041,0,0,0,.336,1.82V0ZM44.309-1.57a1.945,1.945,0,0,0,.922-.223,1.462,1.462,0,0,0,.625-.6V-3.844h-.844q-1.7,0-1.8,1.172l-.008.133a.9.9,0,0,0,.3.7A1.153,1.153,0,0,0,44.309-1.57ZM61.449-4.148a5.07,5.07,0,0,1-.887,3.129A2.843,2.843,0,0,1,58.168.156,2.633,2.633,0,0,1,56.1-.734V3.25H53.84v-11.7h2.094l.078.828a2.654,2.654,0,0,1,2.141-.984,2.862,2.862,0,0,1,2.43,1.156,5.207,5.207,0,0,1,.867,3.188Zm-2.258-.164a3.327,3.327,0,0,0-.418-1.82,1.361,1.361,0,0,0-1.215-.641,1.479,1.479,0,0,0-1.461.813V-2.5a1.5,1.5,0,0,0,1.477.836Q59.191-1.664,59.191-4.312ZM67.91-.859A2.831,2.831,0,0,1,65.6.156a2.67,2.67,0,0,1-2.074-.781,3.335,3.335,0,0,1-.73-2.289V-8.453h2.258v5.467q0,1.322,1.2,1.322a1.63,1.63,0,0,0,1.578-.8V-8.453H70.1V0H67.973ZM79.418-4.148A5.119,5.119,0,0,1,78.551-.98,2.872,2.872,0,0,1,76.129.156,2.639,2.639,0,0,1,73.934-.9l-.1.9H71.8V-12h2.258v4.3a2.571,2.571,0,0,1,2.055-.914,2.9,2.9,0,0,1,2.426,1.137,5.126,5.126,0,0,1,.879,3.2ZM77.16-4.312a3.363,3.363,0,0,0-.406-1.871,1.374,1.374,0,0,0-1.211-.59,1.489,1.489,0,0,0-1.484.883v3.336a1.509,1.509,0,0,0,1.5.891A1.394,1.394,0,0,0,77-2.742,5.562,5.562,0,0,0,77.16-4.312ZM83.191,0H80.926V-12h2.266Zm4.242,0H85.168V-8.453h2.266Zm-2.4-10.641a1.112,1.112,0,0,1,.34-.836A1.277,1.277,0,0,1,86.3-11.8a1.28,1.28,0,0,1,.922.328,1.105,1.105,0,0,1,.344.836,1.108,1.108,0,0,1-.348.844,1.283,1.283,0,0,1-.918.328,1.283,1.283,0,0,1-.918-.328A1.108,1.108,0,0,1,85.035-10.641Zm7.773,8.977a1.481,1.481,0,0,0,1.016-.344,1.2,1.2,0,0,0,.406-.914h2.117a2.9,2.9,0,0,1-.469,1.574A3.093,3.093,0,0,1,94.617-.238a3.949,3.949,0,0,1-1.77.395A3.67,3.67,0,0,1,89.988-1,4.56,4.56,0,0,1,88.941-4.18v-.148A4.508,4.508,0,0,1,89.98-7.445a3.627,3.627,0,0,1,2.852-1.164,3.555,3.555,0,0,1,2.543.9,3.2,3.2,0,0,1,.973,2.4H94.23a1.551,1.551,0,0,0-.406-1.072,1.354,1.354,0,0,0-1.031-.412,1.36,1.36,0,0,0-1.191.575,3.333,3.333,0,0,0-.4,1.866v.235a3.375,3.375,0,0,0,.4,1.878A1.377,1.377,0,0,0,92.809-1.664ZM100.02,0H97.754V-8.453h2.266Zm-2.4-10.641a1.112,1.112,0,0,1,.34-.836,1.277,1.277,0,0,1,.926-.328,1.28,1.28,0,0,1,.922.328,1.105,1.105,0,0,1,.344.836A1.108,1.108,0,0,1,99.8-9.8a1.283,1.283,0,0,1-.918.328,1.283,1.283,0,0,1-.918-.328A1.108,1.108,0,0,1,97.621-10.641Zm6.961.109v2.078h1.445V-6.8h-1.445v4.219a1.007,1.007,0,0,0,.18.672.9.9,0,0,0,.688.2,3.6,3.6,0,0,0,.664-.055V-.047a4.648,4.648,0,0,1-1.367.2,2.156,2.156,0,0,1-2.422-2.4V-6.8H101.09V-8.453h1.234v-2.078ZM112.184,0a2.507,2.507,0,0,1-.227-.758,2.732,2.732,0,0,1-2.133.914,3,3,0,0,1-2.059-.719,2.312,2.312,0,0,1-.816-1.812,2.389,2.389,0,0,1,1-2.062,4.915,4.915,0,0,1,2.879-.727h1.039v-.484a1.393,1.393,0,0,0-.3-.937,1.183,1.183,0,0,0-.949-.352,1.345,1.345,0,0,0-.895.273.929.929,0,0,0-.324.75h-2.258a2.268,2.268,0,0,1,.453-1.359,3,3,0,0,1,1.281-.98,4.669,4.669,0,0,1,1.859-.355,3.689,3.689,0,0,1,2.48.785,2.747,2.747,0,0,1,.918,2.207v3.664a4.041,4.041,0,0,0,.336,1.82V0Zm-1.867-1.57a1.945,1.945,0,0,0,.922-.223,1.462,1.462,0,0,0,.625-.6V-3.844h-.844q-1.7,0-1.8,1.172l-.008.133a.9.9,0,0,0,.3.7A1.153,1.153,0,0,0,110.316-1.57Zm10.3-4.766A6.134,6.134,0,0,0,119.8-6.4a1.654,1.654,0,0,0-1.68.867V0h-2.258V-8.453H118l.063,1.008a2.092,2.092,0,0,1,1.883-1.164,2.366,2.366,0,0,1,.7.1ZM124.082,0h-2.266V-8.453h2.266Zm-2.4-10.641a1.112,1.112,0,0,1,.34-.836,1.277,1.277,0,0,1,.926-.328,1.28,1.28,0,0,1,.922.328,1.105,1.105,0,0,1,.344.836,1.108,1.108,0,0,1-.348.844,1.283,1.283,0,0,1-.918.328,1.283,1.283,0,0,1-.918-.328A1.108,1.108,0,0,1,121.684-10.641ZM130.84,0a2.507,2.507,0,0,1-.227-.758,2.732,2.732,0,0,1-2.133.914,3,3,0,0,1-2.059-.719,2.312,2.312,0,0,1-.816-1.812,2.389,2.389,0,0,1,1-2.062,4.915,4.915,0,0,1,2.879-.727h1.039v-.484a1.393,1.393,0,0,0-.3-.937,1.183,1.183,0,0,0-.949-.352,1.345,1.345,0,0,0-.895.273.929.929,0,0,0-.324.75h-2.258a2.268,2.268,0,0,1,.453-1.359,3,3,0,0,1,1.281-.98,4.669,4.669,0,0,1,1.859-.355,3.689,3.689,0,0,1,2.48.785,2.747,2.747,0,0,1,.918,2.207v3.664a4.041,4.041,0,0,0,.336,1.82V0Zm-1.867-1.57a1.945,1.945,0,0,0,.922-.223,1.462,1.462,0,0,0,.625-.6V-3.844h-.844q-1.7,0-1.8,1.172l-.008.133a.9.9,0,0,0,.3.7A1.153,1.153,0,0,0,128.973-1.57Z" transform="translate(538 556)" fill="#12263f"/>
    <path id="Trazado_881784" data-name="Trazado 881784" d="M-72.809-11.375l2.922,8.25,2.906-8.25H-63.9V0h-2.352V-3.109l.234-5.367L-69.09,0H-70.7l-3.062-8.469.234,5.359V0h-2.344V-11.375ZM-62.355-4.3a5.013,5.013,0,0,1,.484-2.242A3.546,3.546,0,0,1-60.477-8.07a4.069,4.069,0,0,1,2.113-.539A3.849,3.849,0,0,1-55.57-7.562a4.2,4.2,0,0,1,1.207,2.844l.016.578A4.418,4.418,0,0,1-55.434-1.02,3.775,3.775,0,0,1-58.348.156a3.793,3.793,0,0,1-2.918-1.172A4.5,4.5,0,0,1-62.355-4.2Zm2.258.16A3.16,3.16,0,0,0-59.645-2.3a1.5,1.5,0,0,0,1.3.638,1.5,1.5,0,0,0,1.281-.63,3.457,3.457,0,0,0,.461-2.015,3.128,3.128,0,0,0-.461-1.831,1.5,1.5,0,0,0-1.3-.649,1.474,1.474,0,0,0-1.281.646A3.516,3.516,0,0,0-60.1-4.144Zm6.789-.145a5.094,5.094,0,0,1,.887-3.148A2.877,2.877,0,0,1-50-8.609a2.589,2.589,0,0,1,2.039.922V-12h2.266V0H-47.73l-.109-.9A2.657,2.657,0,0,1-50.012.156,2.869,2.869,0,0,1-52.406-1.02,5.258,5.258,0,0,1-53.309-4.289Zm2.258.168A3.337,3.337,0,0,0-50.637-2.3a1.349,1.349,0,0,0,1.2.634,1.511,1.511,0,0,0,1.477-.884V-5.889a1.489,1.489,0,0,0-1.461-.884Q-51.051-6.773-51.051-4.121Zm11,4.277A4.15,4.15,0,0,1-43.078-.984a4.054,4.054,0,0,1-1.168-3.039v-.219a5.106,5.106,0,0,1,.492-2.277,3.612,3.612,0,0,1,1.395-1.547A3.914,3.914,0,0,1-40.3-8.609a3.508,3.508,0,0,1,2.73,1.094,4.444,4.444,0,0,1,1,3.1v.922h-5.383a2.1,2.1,0,0,0,.66,1.328,2,2,0,0,0,1.395.5,2.437,2.437,0,0,0,2.039-.945l1.109,1.242A3.389,3.389,0,0,1-38.129-.246,4.511,4.511,0,0,1-40.051.156Zm-.258-6.945a1.411,1.411,0,0,0-1.09.455,2.357,2.357,0,0,0-.535,1.3h3.141v-.181A1.681,1.681,0,0,0-39.2-6.377,1.456,1.456,0,0,0-40.309-6.789ZM-32.91,0h-2.266V-12h2.266ZM-31.4-4.3a5.013,5.013,0,0,1,.484-2.242A3.546,3.546,0,0,1-29.523-8.07a4.069,4.069,0,0,1,2.113-.539,3.849,3.849,0,0,1,2.793,1.047A4.2,4.2,0,0,1-23.41-4.719l.016.578A4.418,4.418,0,0,1-24.48-1.02,3.775,3.775,0,0,1-27.395.156a3.793,3.793,0,0,1-2.918-1.172A4.5,4.5,0,0,1-31.4-4.2Zm2.258.16A3.16,3.16,0,0,0-28.691-2.3a1.5,1.5,0,0,0,1.3.638,1.5,1.5,0,0,0,1.281-.63,3.457,3.457,0,0,0,.461-2.015,3.128,3.128,0,0,0-.461-1.831,1.5,1.5,0,0,0-1.3-.649,1.474,1.474,0,0,0-1.281.646A3.516,3.516,0,0,0-29.145-4.144Zm11.719,1.808a.727.727,0,0,0-.41-.652,4.659,4.659,0,0,0-1.316-.426q-3.016-.633-3.016-2.562a2.323,2.323,0,0,1,.934-1.879,3.766,3.766,0,0,1,2.441-.754,4.053,4.053,0,0,1,2.574.758,2.388,2.388,0,0,1,.965,1.969h-2.258a1.092,1.092,0,0,0-.312-.8A1.322,1.322,0,0,0-18.8-7a1.351,1.351,0,0,0-.883.258A.814.814,0,0,0-20-6.086a.7.7,0,0,0,.355.605,3.657,3.657,0,0,0,1.2.4A9.8,9.8,0,0,1-17.02-4.7,2.336,2.336,0,0,1-15.23-2.43a2.2,2.2,0,0,1-.992,1.871,4.28,4.28,0,0,1-2.562.715,4.47,4.47,0,0,1-1.887-.379,3.166,3.166,0,0,1-1.293-1.039,2.414,2.414,0,0,1-.469-1.426h2.141a1.179,1.179,0,0,0,.445.922,1.766,1.766,0,0,0,1.109.32,1.635,1.635,0,0,0,.98-.246A.766.766,0,0,0-17.426-2.336Zm7.281-1.953a5.094,5.094,0,0,1,.887-3.148A2.877,2.877,0,0,1-6.832-8.609a2.589,2.589,0,0,1,2.039.922V-12h2.266V0H-4.566l-.109-.9A2.657,2.657,0,0,1-6.848.156,2.869,2.869,0,0,1-9.242-1.02,5.258,5.258,0,0,1-10.145-4.289Zm2.258.168A3.337,3.337,0,0,0-7.473-2.3a1.349,1.349,0,0,0,1.2.634,1.511,1.511,0,0,0,1.477-.884V-5.889a1.489,1.489,0,0,0-1.461-.884Q-7.887-6.773-7.887-4.121Zm11,4.277A4.15,4.15,0,0,1,.086-.984,4.054,4.054,0,0,1-1.082-4.023v-.219A5.106,5.106,0,0,1-.59-6.52,3.612,3.612,0,0,1,.8-8.066a3.914,3.914,0,0,1,2.059-.543,3.508,3.508,0,0,1,2.73,1.094,4.444,4.444,0,0,1,1,3.1v.922H1.207a2.1,2.1,0,0,0,.66,1.328,2,2,0,0,0,1.395.5A2.437,2.437,0,0,0,5.3-2.609L6.41-1.367A3.389,3.389,0,0,1,5.035-.246,4.511,4.511,0,0,1,3.113.156ZM2.855-6.789a1.411,1.411,0,0,0-1.09.455,2.357,2.357,0,0,0-.535,1.3H4.371v-.181a1.681,1.681,0,0,0-.406-1.165A1.456,1.456,0,0,0,2.855-6.789ZM15.371-1.664a1.481,1.481,0,0,0,1.016-.344,1.2,1.2,0,0,0,.406-.914H18.91a2.9,2.9,0,0,1-.469,1.574A3.093,3.093,0,0,1,17.18-.238a3.949,3.949,0,0,1-1.77.395A3.67,3.67,0,0,1,12.551-1,4.56,4.56,0,0,1,11.5-4.18v-.148a4.508,4.508,0,0,1,1.039-3.117,3.627,3.627,0,0,1,2.852-1.164,3.555,3.555,0,0,1,2.543.9,3.2,3.2,0,0,1,.973,2.4H16.793a1.551,1.551,0,0,0-.406-1.072,1.354,1.354,0,0,0-1.031-.412,1.36,1.36,0,0,0-1.191.575,3.333,3.333,0,0,0-.4,1.866v.235a3.375,3.375,0,0,0,.4,1.878A1.377,1.377,0,0,0,15.371-1.664ZM25.1,0a2.507,2.507,0,0,1-.227-.758,2.732,2.732,0,0,1-2.133.914A3,3,0,0,1,20.68-.562a2.312,2.312,0,0,1-.816-1.812,2.389,2.389,0,0,1,1-2.062,4.915,4.915,0,0,1,2.879-.727h1.039v-.484a1.393,1.393,0,0,0-.3-.937,1.183,1.183,0,0,0-.949-.352,1.345,1.345,0,0,0-.895.273.929.929,0,0,0-.324.75H20.051A2.268,2.268,0,0,1,20.5-7.273a3,3,0,0,1,1.281-.98,4.669,4.669,0,0,1,1.859-.355,3.689,3.689,0,0,1,2.48.785,2.747,2.747,0,0,1,.918,2.207v3.664a4.041,4.041,0,0,0,.336,1.82V0ZM23.23-1.57a1.945,1.945,0,0,0,.922-.223,1.462,1.462,0,0,0,.625-.6V-3.844h-.844q-1.7,0-1.8,1.172l-.008.133a.9.9,0,0,0,.3.7A1.153,1.153,0,0,0,23.23-1.57Zm7.664-6.883.07.945a2.971,2.971,0,0,1,2.43-1.1A2.255,2.255,0,0,1,35.637-7.32a2.9,2.9,0,0,1,2.539-1.289,2.521,2.521,0,0,1,2.047.8,3.681,3.681,0,0,1,.672,2.41V0H38.629V-5.391a1.61,1.61,0,0,0-.281-1.051,1.246,1.246,0,0,0-.992-.332,1.409,1.409,0,0,0-1.406.969L35.957,0H33.7V-5.383a1.59,1.59,0,0,0-.289-1.062,1.259,1.259,0,0,0-.984-.328,1.463,1.463,0,0,0-1.391.8V0H28.777V-8.453Zm19.344,4.3a5.07,5.07,0,0,1-.887,3.129A2.843,2.843,0,0,1,46.957.156a2.633,2.633,0,0,1-2.07-.891V3.25H42.629v-11.7h2.094l.078.828a2.654,2.654,0,0,1,2.141-.984,2.862,2.862,0,0,1,2.43,1.156,5.207,5.207,0,0,1,.867,3.188ZM47.98-4.312a3.327,3.327,0,0,0-.418-1.82,1.361,1.361,0,0,0-1.215-.641,1.479,1.479,0,0,0-1.461.813V-2.5a1.5,1.5,0,0,0,1.477.836Q47.98-1.664,47.98-4.312ZM56.535,0a2.507,2.507,0,0,1-.227-.758,2.732,2.732,0,0,1-2.133.914,3,3,0,0,1-2.059-.719A2.312,2.312,0,0,1,51.3-2.375a2.389,2.389,0,0,1,1-2.062,4.915,4.915,0,0,1,2.879-.727h1.039v-.484a1.393,1.393,0,0,0-.3-.937,1.183,1.183,0,0,0-.949-.352,1.345,1.345,0,0,0-.895.273.929.929,0,0,0-.324.75H51.488a2.268,2.268,0,0,1,.453-1.359,3,3,0,0,1,1.281-.98,4.669,4.669,0,0,1,1.859-.355,3.689,3.689,0,0,1,2.48.785,2.747,2.747,0,0,1,.918,2.207v3.664a4.041,4.041,0,0,0,.336,1.82V0ZM54.668-1.57a1.945,1.945,0,0,0,.922-.223,1.462,1.462,0,0,0,.625-.6V-3.844h-.844q-1.7,0-1.8,1.172l-.008.133a.9.9,0,0,0,.3.7A1.153,1.153,0,0,0,54.668-1.57Zm7.625-6.883.07.977a2.951,2.951,0,0,1,2.43-1.133,2.453,2.453,0,0,1,2,.789,3.682,3.682,0,0,1,.672,2.359V0H65.207V-5.406a1.465,1.465,0,0,0-.312-1.043,1.4,1.4,0,0,0-1.039-.324,1.553,1.553,0,0,0-1.43.813V0H60.168V-8.453ZM66.777-11.9a2.187,2.187,0,0,1-.516,1.48A1.6,1.6,0,0,1,65-9.82a1.908,1.908,0,0,1-.527-.066,3.539,3.539,0,0,1-.637-.285,3.435,3.435,0,0,0-.586-.27,1.432,1.432,0,0,0-.391-.051.627.627,0,0,0-.465.2.759.759,0,0,0-.191.555L60.895-9.82a2.22,2.22,0,0,1,.512-1.477,1.578,1.578,0,0,1,1.254-.609,1.614,1.614,0,0,1,.441.059,4.861,4.861,0,0,1,.676.285,4.392,4.392,0,0,0,.648.273,1.48,1.48,0,0,0,.375.047.659.659,0,0,0,.473-.191.728.728,0,0,0,.2-.551ZM74.074,0a2.507,2.507,0,0,1-.227-.758,2.732,2.732,0,0,1-2.133.914,3,3,0,0,1-2.059-.719,2.312,2.312,0,0,1-.816-1.812,2.389,2.389,0,0,1,1-2.062,4.915,4.915,0,0,1,2.879-.727h1.039v-.484a1.393,1.393,0,0,0-.3-.937,1.183,1.183,0,0,0-.949-.352,1.345,1.345,0,0,0-.895.273.929.929,0,0,0-.324.75H69.027a2.268,2.268,0,0,1,.453-1.359,3,3,0,0,1,1.281-.98,4.669,4.669,0,0,1,1.859-.355,3.689,3.689,0,0,1,2.48.785,2.747,2.747,0,0,1,.918,2.207v3.664a4.041,4.041,0,0,0,.336,1.82V0ZM72.207-1.57a1.945,1.945,0,0,0,.922-.223,1.462,1.462,0,0,0,.625-.6V-3.844H72.91q-1.7,0-1.8,1.172l-.008.133a.9.9,0,0,0,.3.7A1.153,1.153,0,0,0,72.207-1.57Z" transform="translate(1063.333 556)" fill="#12263f"/>
    <path id="Trazado_881777" data-name="Trazado 881777" d="M10,0H170a10,10,0,0,1,10,10V24.5a10,10,0,0,1-10,10H10a10,10,0,0,1-10-10V10A10,10,0,0,1,10,0Z" transform="translate(448 607.25)" fill="#aee6e6"/>
    <path id="Trazado_881767" data-name="Trazado 881767" d="M10,0H170a10,10,0,0,1,10,10V24.5a10,10,0,0,1-10,10H10a10,10,0,0,1-10-10V10A10,10,0,0,1,10,0Z" transform="translate(448 727.25)" fill="#aee6e6"/>
    <path id="Trazado_881768" data-name="Trazado 881768" d="M10,0H170a10,10,0,0,1,10,10V24.5a10,10,0,0,1-10,10H10a10,10,0,0,1-10-10V10A10,10,0,0,1,10,0Z" transform="translate(448 775.25)" fill="#aee6e6"/>
    <path id="Trazado_881778" data-name="Trazado 881778" d="M10,0H171a10,10,0,0,1,10,10V24.5a10,10,0,0,1-10,10H10a10,10,0,0,1-10-10V10A10,10,0,0,1,10,0Z" transform="translate(972.333 607.25)" fill="#aee6e6"/>
    <path id="Trazado_881769" data-name="Trazado 881769" d="M10,0H170a10,10,0,0,1,10,10V51.5a10,10,0,0,1-10,10H10a10,10,0,0,1-10-10V10A10,10,0,0,1,10,0Z" transform="translate(448 655.25)" fill="#aee6e6"/>
    <path id="Trazado_881765" data-name="Trazado 881765" d="M10,0H170a10,10,0,0,1,10,10V51.5a10,10,0,0,1-10,10H10a10,10,0,0,1-10-10V10A10,10,0,0,1,10,0Z" transform="translate(448 823.25)" fill="#aee6e6"/>
    <path id="Trazado_881770" data-name="Trazado 881770" d="M10,0H171a10,10,0,0,1,10,10V24.5a10,10,0,0,1-10,10H10a10,10,0,0,1-10-10V10A10,10,0,0,1,10,0Z" transform="translate(972.333 655.25)" fill="#aee6e6"/>
    <path id="Trazado_881771" data-name="Trazado 881771" d="M10,0H171a10,10,0,0,1,10,10V24.5a10,10,0,0,1-10,10H10a10,10,0,0,1-10-10V10A10,10,0,0,1,10,0Z" transform="translate(972.333 703.25)" fill="#aee6e6"/>
    <path id="Trazado_881779" data-name="Trazado 881779" d="M-16.906-4.93h-4.5v3.047h5.281V0H-23.75V-11.375h7.609v1.9h-5.266v2.711h4.5ZM-12.516,0h-2.266V-12h2.266ZM.711-4.133A5.026,5.026,0,0,1-.18-1.02,2.846,2.846,0,0,1-2.57.156,2.947,2.947,0,0,1-5.047-.977L-5.117,0H-6.445V-12H-5v4.477A2.93,2.93,0,0,1-2.586-8.609,2.863,2.863,0,0,1-.168-7.445,5.177,5.177,0,0,1,.711-4.258ZM-.734-4.3A3.906,3.906,0,0,0-1.3-6.578a1.888,1.888,0,0,0-1.641-.8A2.122,2.122,0,0,0-5-6.055V-2.4A2.181,2.181,0,0,0-2.93-1.07a1.878,1.878,0,0,0,1.617-.8A4.153,4.153,0,0,0-.734-4.3ZM6.617-7.156a4.331,4.331,0,0,0-.711-.055A1.9,1.9,0,0,0,3.977-6V0H2.531V-8.453H3.938l.023.977A2.251,2.251,0,0,1,5.977-8.609a1.477,1.477,0,0,1,.641.109ZM9.516,0H8.07V-8.453H9.516ZM7.953-10.7a.863.863,0,0,1,.215-.594.807.807,0,0,1,.637-.242.819.819,0,0,1,.641.242.854.854,0,0,1,.219.594.826.826,0,0,1-.219.586.834.834,0,0,1-.641.234.821.821,0,0,1-.637-.234A.834.834,0,0,1,7.953-10.7ZM15.336.156a3.693,3.693,0,0,1-2.8-1.129,4.19,4.19,0,0,1-1.078-3.02v-.266a5.073,5.073,0,0,1,.48-2.246,3.748,3.748,0,0,1,1.344-1.547,3.378,3.378,0,0,1,1.871-.559,3.166,3.166,0,0,1,2.563,1.086,4.7,4.7,0,0,1,.914,3.109v.6H12.906a3,3,0,0,0,.73,2.02,2.3,2.3,0,0,0,1.777.77,2.517,2.517,0,0,0,1.3-.312,3.259,3.259,0,0,0,.93-.828l.883.688A3.55,3.55,0,0,1,15.336.156Zm-.18-7.578a1.928,1.928,0,0,0-1.469.637A3.1,3.1,0,0,0,12.953-5h4.234v-.109a2.753,2.753,0,0,0-.594-1.707A1.815,1.815,0,0,0,15.156-7.422ZM21.016,0V-7.336H19.68V-8.453h1.336V-9.32a2.878,2.878,0,0,1,.727-2.1,2.745,2.745,0,0,1,2.055-.742,3.816,3.816,0,0,1,.992.132l-.078,1.165a4.151,4.151,0,0,0-.781-.07,1.41,1.41,0,0,0-1.086.411,1.669,1.669,0,0,0-.383,1.18v.893h1.8v1.117h-1.8V0Z" transform="translate(538 630)" fill="#12263f"/>
    <path id="Trazado_881772" data-name="Trazado 881772" d="M-65.258-1.883h4.977V0H-67.6V-11.375h2.344ZM-56.648,0h-2.258V-8.453h2.258Zm-.664-11.883h2.461l-2.164,2.422h-1.836Zm4.688,3.43.07.977a2.951,2.951,0,0,1,2.43-1.133,2.453,2.453,0,0,1,2,.789,3.682,3.682,0,0,1,.672,2.359V0h-2.258V-5.406a1.465,1.465,0,0,0-.312-1.043,1.4,1.4,0,0,0-1.039-.324,1.553,1.553,0,0,0-1.43.813V0H-54.75V-8.453ZM-41.852.156A4.15,4.15,0,0,1-44.879-.984a4.054,4.054,0,0,1-1.168-3.039v-.219a5.106,5.106,0,0,1,.492-2.277A3.612,3.612,0,0,1-44.16-8.066,3.914,3.914,0,0,1-42.1-8.609a3.508,3.508,0,0,1,2.73,1.094,4.444,4.444,0,0,1,1,3.1v.922h-5.383a2.1,2.1,0,0,0,.66,1.328,2,2,0,0,0,1.395.5,2.437,2.437,0,0,0,2.039-.945l1.109,1.242A3.389,3.389,0,0,1-39.93-.246,4.511,4.511,0,0,1-41.852.156Zm-.258-6.945a1.411,1.411,0,0,0-1.09.455,2.357,2.357,0,0,0-.535,1.3h3.141v-.181A1.681,1.681,0,0,0-41-6.377,1.456,1.456,0,0,0-42.109-6.789ZM-32.2,0a2.507,2.507,0,0,1-.227-.758,2.732,2.732,0,0,1-2.133.914,3,3,0,0,1-2.059-.719,2.312,2.312,0,0,1-.816-1.812,2.389,2.389,0,0,1,1-2.062,4.915,4.915,0,0,1,2.879-.727h1.039v-.484a1.393,1.393,0,0,0-.3-.937,1.183,1.183,0,0,0-.949-.352,1.345,1.345,0,0,0-.895.273.929.929,0,0,0-.324.75h-2.258a2.268,2.268,0,0,1,.453-1.359,3,3,0,0,1,1.281-.98,4.669,4.669,0,0,1,1.859-.355,3.689,3.689,0,0,1,2.48.785,2.747,2.747,0,0,1,.918,2.207v3.664a4.041,4.041,0,0,0,.336,1.82V0Zm-1.867-1.57a1.945,1.945,0,0,0,.922-.223,1.462,1.462,0,0,0,.625-.6V-3.844h-.844q-1.7,0-1.8,1.172l-.008.133a.9.9,0,0,0,.3.7A1.153,1.153,0,0,0-34.062-1.57Zm9.18-2.719A5.094,5.094,0,0,1-24-7.437,2.877,2.877,0,0,1-21.57-8.609a2.589,2.589,0,0,1,2.039.922V-12h2.266V0H-19.3l-.109-.9A2.657,2.657,0,0,1-21.586.156,2.869,2.869,0,0,1-23.98-1.02,5.258,5.258,0,0,1-24.883-4.289Zm2.258.168A3.337,3.337,0,0,0-22.211-2.3a1.349,1.349,0,0,0,1.2.634,1.511,1.511,0,0,0,1.477-.884V-5.889a1.489,1.489,0,0,0-1.461-.884Q-22.625-6.773-22.625-4.121Zm11,4.277A4.15,4.15,0,0,1-14.652-.984,4.054,4.054,0,0,1-15.82-4.023v-.219a5.106,5.106,0,0,1,.492-2.277,3.612,3.612,0,0,1,1.395-1.547,3.914,3.914,0,0,1,2.059-.543,3.508,3.508,0,0,1,2.73,1.094,4.444,4.444,0,0,1,1,3.1v.922h-5.383a2.1,2.1,0,0,0,.66,1.328,2,2,0,0,0,1.395.5,2.437,2.437,0,0,0,2.039-.945l1.109,1.242A3.389,3.389,0,0,1-9.7-.246,4.511,4.511,0,0,1-11.625.156Zm-.258-6.945a1.411,1.411,0,0,0-1.09.455,2.357,2.357,0,0,0-.535,1.3h3.141v-.181a1.681,1.681,0,0,0-.406-1.165A1.456,1.456,0,0,0-11.883-6.789ZM4.727-4.148A5.07,5.07,0,0,1,3.84-1.02,2.843,2.843,0,0,1,1.445.156,2.633,2.633,0,0,1-.625-.734V3.25H-2.883v-11.7H-.789l.078.828A2.654,2.654,0,0,1,1.43-8.609a2.862,2.862,0,0,1,2.43,1.156,5.207,5.207,0,0,1,.867,3.188ZM2.469-4.312a3.327,3.327,0,0,0-.418-1.82A1.361,1.361,0,0,0,.836-6.773a1.478,1.478,0,0,0-1.461.813V-2.5a1.5,1.5,0,0,0,1.477.836Q2.469-1.664,2.469-4.312Zm8.406-2.023a6.134,6.134,0,0,0-.812-.062,1.654,1.654,0,0,0-1.68.867V0H6.125V-8.453H8.258L8.32-7.445A2.092,2.092,0,0,1,10.2-8.609a2.366,2.366,0,0,1,.7.1ZM11.328-4.3a5.013,5.013,0,0,1,.484-2.242A3.546,3.546,0,0,1,13.207-8.07a4.069,4.069,0,0,1,2.113-.539,3.849,3.849,0,0,1,2.793,1.047A4.2,4.2,0,0,1,19.32-4.719l.016.578A4.418,4.418,0,0,1,18.25-1.02,3.775,3.775,0,0,1,15.336.156a3.793,3.793,0,0,1-2.918-1.172A4.5,4.5,0,0,1,11.328-4.2Zm2.258.16A3.16,3.16,0,0,0,14.039-2.3a1.5,1.5,0,0,0,1.3.638,1.5,1.5,0,0,0,1.281-.63,3.457,3.457,0,0,0,.461-2.015,3.128,3.128,0,0,0-.461-1.831,1.5,1.5,0,0,0-1.3-.649,1.474,1.474,0,0,0-1.281.646A3.516,3.516,0,0,0,13.586-4.144Zm6.789-.145a5.094,5.094,0,0,1,.887-3.148,2.877,2.877,0,0,1,2.426-1.172,2.589,2.589,0,0,1,2.039.922V-12h2.266V0H25.953l-.109-.9A2.657,2.657,0,0,1,23.672.156,2.869,2.869,0,0,1,21.277-1.02,5.258,5.258,0,0,1,20.375-4.289Zm2.258.168A3.337,3.337,0,0,0,23.047-2.3a1.349,1.349,0,0,0,1.2.634,1.511,1.511,0,0,0,1.477-.884V-5.889a1.489,1.489,0,0,0-1.461-.884Q22.633-6.773,22.633-4.121ZM34.8-.859A2.831,2.831,0,0,1,32.492.156a2.67,2.67,0,0,1-2.074-.781,3.335,3.335,0,0,1-.73-2.289V-8.453h2.258v5.467q0,1.322,1.2,1.322a1.63,1.63,0,0,0,1.578-.8V-8.453h2.266V0H34.867Zm7.406-.8a1.481,1.481,0,0,0,1.016-.344,1.2,1.2,0,0,0,.406-.914H45.75a2.9,2.9,0,0,1-.469,1.574A3.093,3.093,0,0,1,44.02-.238a3.949,3.949,0,0,1-1.77.395A3.67,3.67,0,0,1,39.391-1,4.56,4.56,0,0,1,38.344-4.18v-.148a4.508,4.508,0,0,1,1.039-3.117,3.627,3.627,0,0,1,2.852-1.164,3.555,3.555,0,0,1,2.543.9,3.2,3.2,0,0,1,.973,2.4H43.633a1.551,1.551,0,0,0-.406-1.072A1.354,1.354,0,0,0,42.2-6.789,1.36,1.36,0,0,0,41-6.214a3.333,3.333,0,0,0-.4,1.866v.235A3.375,3.375,0,0,0,41-2.235,1.377,1.377,0,0,0,42.211-1.664Zm7.531-8.867v2.078h1.445V-6.8H49.742v4.219a1.007,1.007,0,0,0,.18.672.9.9,0,0,0,.688.2,3.6,3.6,0,0,0,.664-.055V-.047a4.648,4.648,0,0,1-1.367.2,2.156,2.156,0,0,1-2.422-2.4V-6.8H46.25V-8.453h1.234v-2.078ZM51.859-4.3a5.013,5.013,0,0,1,.484-2.242A3.546,3.546,0,0,1,53.738-8.07a4.069,4.069,0,0,1,2.113-.539,3.849,3.849,0,0,1,2.793,1.047,4.2,4.2,0,0,1,1.207,2.844l.016.578A4.418,4.418,0,0,1,58.781-1.02,3.775,3.775,0,0,1,55.867.156a3.793,3.793,0,0,1-2.918-1.172A4.5,4.5,0,0,1,51.859-4.2Zm2.258.16A3.16,3.16,0,0,0,54.57-2.3a1.5,1.5,0,0,0,1.3.638,1.5,1.5,0,0,0,1.281-.63,3.457,3.457,0,0,0,.461-2.015,3.128,3.128,0,0,0-.461-1.831,1.5,1.5,0,0,0-1.3-.649,1.474,1.474,0,0,0-1.281.646A3.516,3.516,0,0,0,54.117-4.144ZM65.836-2.336a.727.727,0,0,0-.41-.652,4.659,4.659,0,0,0-1.316-.426q-3.016-.633-3.016-2.562a2.323,2.323,0,0,1,.934-1.879,3.766,3.766,0,0,1,2.441-.754,4.053,4.053,0,0,1,2.574.758,2.388,2.388,0,0,1,.965,1.969H65.75a1.092,1.092,0,0,0-.312-.8A1.322,1.322,0,0,0,64.461-7a1.351,1.351,0,0,0-.883.258.814.814,0,0,0-.312.656.7.7,0,0,0,.355.605,3.657,3.657,0,0,0,1.2.4,9.8,9.8,0,0,1,1.422.379A2.336,2.336,0,0,1,68.031-2.43a2.2,2.2,0,0,1-.992,1.871,4.28,4.28,0,0,1-2.562.715A4.47,4.47,0,0,1,62.59-.223,3.166,3.166,0,0,1,61.3-1.262a2.414,2.414,0,0,1-.469-1.426h2.141a1.179,1.179,0,0,0,.445.922,1.766,1.766,0,0,0,1.109.32,1.635,1.635,0,0,0,.98-.246A.766.766,0,0,0,65.836-2.336Z" transform="translate(538 750)" fill="#12263f"/>
    <path id="Trazado_881773" data-name="Trazado 881773" d="M-58.344-11.375l2.922,8.25,2.906-8.25h3.078V0h-2.352V-3.109l.234-5.367L-54.625,0h-1.609L-59.3-8.469l.234,5.359V0h-2.344V-11.375ZM-43.648.156A4.15,4.15,0,0,1-46.676-.984a4.054,4.054,0,0,1-1.168-3.039v-.219a5.106,5.106,0,0,1,.492-2.277,3.612,3.612,0,0,1,1.395-1.547A3.914,3.914,0,0,1-43.9-8.609a3.508,3.508,0,0,1,2.73,1.094,4.444,4.444,0,0,1,1,3.1v.922h-5.383a2.1,2.1,0,0,0,.66,1.328,2,2,0,0,0,1.395.5,2.437,2.437,0,0,0,2.039-.945l1.109,1.242A3.389,3.389,0,0,1-41.727-.246,4.511,4.511,0,0,1-43.648.156Zm-.258-6.945A1.411,1.411,0,0,0-45-6.334a2.357,2.357,0,0,0-.535,1.3h3.141v-.181A1.681,1.681,0,0,0-42.8-6.377,1.456,1.456,0,0,0-43.906-6.789Zm9.766.453a6.134,6.134,0,0,0-.812-.062,1.654,1.654,0,0,0-1.68.867V0h-2.258V-8.453h2.133l.063,1.008a2.092,2.092,0,0,1,1.883-1.164,2.366,2.366,0,0,1,.7.1Zm4.453,4.672a1.481,1.481,0,0,0,1.016-.344,1.2,1.2,0,0,0,.406-.914h2.117a2.9,2.9,0,0,1-.469,1.574A3.093,3.093,0,0,1-27.879-.238a3.949,3.949,0,0,1-1.77.395A3.67,3.67,0,0,1-32.508-1,4.56,4.56,0,0,1-33.555-4.18v-.148a4.508,4.508,0,0,1,1.039-3.117,3.627,3.627,0,0,1,2.852-1.164,3.555,3.555,0,0,1,2.543.9,3.2,3.2,0,0,1,.973,2.4h-2.117a1.551,1.551,0,0,0-.406-1.072A1.354,1.354,0,0,0-29.7-6.789a1.36,1.36,0,0,0-1.191.575,3.333,3.333,0,0,0-.4,1.866v.235a3.375,3.375,0,0,0,.4,1.878A1.377,1.377,0,0,0-29.687-1.664ZM-19.961,0a2.507,2.507,0,0,1-.227-.758A2.732,2.732,0,0,1-22.32.156a3,3,0,0,1-2.059-.719A2.312,2.312,0,0,1-25.2-2.375a2.389,2.389,0,0,1,1-2.062,4.915,4.915,0,0,1,2.879-.727h1.039v-.484a1.393,1.393,0,0,0-.3-.937,1.183,1.183,0,0,0-.949-.352,1.345,1.345,0,0,0-.895.273.929.929,0,0,0-.324.75h-2.258a2.268,2.268,0,0,1,.453-1.359,3,3,0,0,1,1.281-.98,4.669,4.669,0,0,1,1.859-.355,3.689,3.689,0,0,1,2.48.785,2.747,2.747,0,0,1,.918,2.207v3.664a4.041,4.041,0,0,0,.336,1.82V0Zm-1.867-1.57a1.945,1.945,0,0,0,.922-.223,1.462,1.462,0,0,0,.625-.6V-3.844h-.844q-1.7,0-1.8,1.172l-.008.133a.9.9,0,0,0,.3.7A1.153,1.153,0,0,0-21.828-1.57Zm5.2-2.719a5.094,5.094,0,0,1,.887-3.148A2.877,2.877,0,0,1-13.32-8.609a2.589,2.589,0,0,1,2.039.922V-12h2.266V0h-2.039l-.109-.9A2.657,2.657,0,0,1-13.336.156,2.869,2.869,0,0,1-15.73-1.02,5.258,5.258,0,0,1-16.633-4.289Zm2.258.168A3.337,3.337,0,0,0-13.961-2.3a1.349,1.349,0,0,0,1.2.634,1.511,1.511,0,0,0,1.477-.884V-5.889a1.489,1.489,0,0,0-1.461-.884Q-14.375-6.773-14.375-4.121ZM-7.617-4.3a5.013,5.013,0,0,1,.484-2.242A3.546,3.546,0,0,1-5.738-8.07a4.069,4.069,0,0,1,2.113-.539A3.849,3.849,0,0,1-.832-7.562,4.2,4.2,0,0,1,.375-4.719l.016.578A4.418,4.418,0,0,1-.7-1.02,3.775,3.775,0,0,1-3.609.156,3.793,3.793,0,0,1-6.527-1.016,4.5,4.5,0,0,1-7.617-4.2Zm2.258.16A3.16,3.16,0,0,0-4.906-2.3a1.5,1.5,0,0,0,1.3.638,1.5,1.5,0,0,0,1.281-.63,3.457,3.457,0,0,0,.461-2.015A3.128,3.128,0,0,0-2.328-6.14a1.5,1.5,0,0,0-1.3-.649,1.474,1.474,0,0,0-1.281.646A3.516,3.516,0,0,0-5.359-4.144ZM5.414-4.3A5.013,5.013,0,0,1,5.9-6.547,3.546,3.546,0,0,1,7.293-8.07a4.069,4.069,0,0,1,2.113-.539A3.849,3.849,0,0,1,12.2-7.562a4.2,4.2,0,0,1,1.207,2.844l.016.578A4.418,4.418,0,0,1,12.336-1.02,3.775,3.775,0,0,1,9.422.156,3.793,3.793,0,0,1,6.5-1.016,4.5,4.5,0,0,1,5.414-4.2Zm2.258.16A3.16,3.16,0,0,0,8.125-2.3a1.5,1.5,0,0,0,1.3.638,1.5,1.5,0,0,0,1.281-.63,3.457,3.457,0,0,0,.461-2.015A3.128,3.128,0,0,0,10.7-6.14a1.5,1.5,0,0,0-1.3-.649,1.474,1.474,0,0,0-1.281.646A3.516,3.516,0,0,0,7.672-4.144Zm14.758,0A5.119,5.119,0,0,1,21.563-.98,2.872,2.872,0,0,1,19.141.156,2.639,2.639,0,0,1,16.945-.9l-.1.9H14.813V-12H17.07v4.3a2.571,2.571,0,0,1,2.055-.914,2.9,2.9,0,0,1,2.426,1.137,5.126,5.126,0,0,1,.879,3.2Zm-2.258-.164a3.363,3.363,0,0,0-.406-1.871,1.374,1.374,0,0,0-1.211-.59,1.489,1.489,0,0,0-1.484.883v3.336a1.509,1.509,0,0,0,1.5.891,1.394,1.394,0,0,0,1.438-1.078A5.562,5.562,0,0,0,20.172-4.312Zm6.039-4.141V.461a3.024,3.024,0,0,1-.742,2.176,2.821,2.821,0,0,1-2.141.777,4.591,4.591,0,0,1-1.117-.133V1.492a4.238,4.238,0,0,0,.711.07q1.023,0,1.023-1.086v-8.93Zm-2.445-2.187a1.112,1.112,0,0,1,.34-.836,1.277,1.277,0,0,1,.926-.328,1.277,1.277,0,0,1,.926.328,1.112,1.112,0,0,1,.34.836,1.108,1.108,0,0,1-.348.844,1.283,1.283,0,0,1-.918.328,1.283,1.283,0,0,1-.918-.328A1.108,1.108,0,0,1,23.766-10.641Zm8.1,10.8A4.15,4.15,0,0,1,28.84-.984a4.054,4.054,0,0,1-1.168-3.039v-.219a5.106,5.106,0,0,1,.492-2.277,3.612,3.612,0,0,1,1.395-1.547,3.914,3.914,0,0,1,2.059-.543,3.508,3.508,0,0,1,2.73,1.094,4.444,4.444,0,0,1,1,3.1v.922H29.961a2.1,2.1,0,0,0,.66,1.328,2,2,0,0,0,1.395.5,2.437,2.437,0,0,0,2.039-.945l1.109,1.242A3.389,3.389,0,0,1,33.789-.246,4.511,4.511,0,0,1,31.867.156Zm-.258-6.945a1.411,1.411,0,0,0-1.09.455,2.357,2.357,0,0,0-.535,1.3h3.141v-.181a1.681,1.681,0,0,0-.406-1.165A1.456,1.456,0,0,0,31.609-6.789Zm7.719-3.742v2.078h1.445V-6.8H39.328v4.219a1.007,1.007,0,0,0,.18.672.9.9,0,0,0,.688.2,3.6,3.6,0,0,0,.664-.055V-.047a4.648,4.648,0,0,1-1.367.2,2.156,2.156,0,0,1-2.422-2.4V-6.8H35.836V-8.453H37.07v-2.078ZM44.414,0H42.148V-8.453h2.266Zm-2.4-10.641a1.112,1.112,0,0,1,.34-.836,1.277,1.277,0,0,1,.926-.328,1.28,1.28,0,0,1,.922.328,1.105,1.105,0,0,1,.344.836A1.108,1.108,0,0,1,44.2-9.8a1.283,1.283,0,0,1-.918.328,1.283,1.283,0,0,1-.918-.328A1.108,1.108,0,0,1,42.016-10.641Zm7.422,7.883,1.57-5.7h2.359L50.516,0H48.359L45.508-8.453h2.359ZM53.891-4.3a5.013,5.013,0,0,1,.484-2.242A3.546,3.546,0,0,1,55.77-8.07a4.069,4.069,0,0,1,2.113-.539,3.849,3.849,0,0,1,2.793,1.047,4.2,4.2,0,0,1,1.207,2.844l.016.578A4.418,4.418,0,0,1,60.813-1.02,3.775,3.775,0,0,1,57.9.156,3.793,3.793,0,0,1,54.98-1.016,4.5,4.5,0,0,1,53.891-4.2Zm2.258.16A3.16,3.16,0,0,0,56.6-2.3a1.5,1.5,0,0,0,1.3.638,1.5,1.5,0,0,0,1.281-.63,3.457,3.457,0,0,0,.461-2.015A3.128,3.128,0,0,0,59.18-6.14a1.5,1.5,0,0,0-1.3-.649,1.474,1.474,0,0,0-1.281.646A3.516,3.516,0,0,0,56.148-4.144Z" transform="translate(538 798)" fill="#12263f"/>
    <path id="Trazado_881780" data-name="Trazado 881780" d="M-41.8-11.375l2.922,8.25,2.906-8.25h3.078V0h-2.352V-3.109l.234-5.367L-38.078,0h-1.609L-42.75-8.469l.234,5.359V0h-2.344V-11.375ZM-31.344-4.3a5.013,5.013,0,0,1,.484-2.242A3.546,3.546,0,0,1-29.465-8.07a4.069,4.069,0,0,1,2.113-.539,3.849,3.849,0,0,1,2.793,1.047,4.2,4.2,0,0,1,1.207,2.844l.016.578A4.418,4.418,0,0,1-24.422-1.02,3.775,3.775,0,0,1-27.336.156a3.793,3.793,0,0,1-2.918-1.172A4.5,4.5,0,0,1-31.344-4.2Zm2.258.16A3.16,3.16,0,0,0-28.633-2.3a1.5,1.5,0,0,0,1.3.638,1.5,1.5,0,0,0,1.281-.63,3.457,3.457,0,0,0,.461-2.015,3.128,3.128,0,0,0-.461-1.831,1.5,1.5,0,0,0-1.3-.649,1.474,1.474,0,0,0-1.281.646A3.516,3.516,0,0,0-29.086-4.144Zm6.789-.145a5.094,5.094,0,0,1,.887-3.148,2.877,2.877,0,0,1,2.426-1.172,2.589,2.589,0,0,1,2.039.922V-12h2.266V0h-2.039l-.109-.9A2.657,2.657,0,0,1-19,.156,2.869,2.869,0,0,1-21.395-1.02,5.258,5.258,0,0,1-22.3-4.289Zm2.258.168A3.337,3.337,0,0,0-19.625-2.3a1.349,1.349,0,0,0,1.2.634,1.511,1.511,0,0,0,1.477-.884V-5.889a1.489,1.489,0,0,0-1.461-.884Q-20.039-6.773-20.039-4.121Zm11,4.277A4.15,4.15,0,0,1-12.066-.984a4.054,4.054,0,0,1-1.168-3.039v-.219a5.106,5.106,0,0,1,.492-2.277,3.612,3.612,0,0,1,1.395-1.547,3.914,3.914,0,0,1,2.059-.543,3.508,3.508,0,0,1,2.73,1.094,4.444,4.444,0,0,1,1,3.1v.922h-5.383a2.1,2.1,0,0,0,.66,1.328,2,2,0,0,0,1.395.5,2.437,2.437,0,0,0,2.039-.945l1.109,1.242A3.389,3.389,0,0,1-7.117-.246,4.511,4.511,0,0,1-9.039.156ZM-9.3-6.789a1.411,1.411,0,0,0-1.09.455,2.357,2.357,0,0,0-.535,1.3h3.141v-.181a1.681,1.681,0,0,0-.406-1.165A1.456,1.456,0,0,0-9.3-6.789ZM-1.9,0H-4.164V-12H-1.9ZM-.391-4.3A5.013,5.013,0,0,1,.094-6.547,3.546,3.546,0,0,1,1.488-8.07,4.069,4.069,0,0,1,3.6-8.609,3.849,3.849,0,0,1,6.395-7.562,4.2,4.2,0,0,1,7.6-4.719l.016.578A4.418,4.418,0,0,1,6.531-1.02,3.775,3.775,0,0,1,3.617.156,3.793,3.793,0,0,1,.7-1.016,4.5,4.5,0,0,1-.391-4.2Zm2.258.16A3.16,3.16,0,0,0,2.32-2.3a1.5,1.5,0,0,0,1.3.638A1.5,1.5,0,0,0,4.9-2.294a3.457,3.457,0,0,0,.461-2.015A3.128,3.128,0,0,0,4.9-6.14a1.5,1.5,0,0,0-1.3-.649,1.474,1.474,0,0,0-1.281.646A3.516,3.516,0,0,0,1.867-4.144ZM15.2-6.687h1.2a1.7,1.7,0,0,0,1.273-.43,1.574,1.574,0,0,0,.414-1.141,1.392,1.392,0,0,0-.41-1.07,1.59,1.59,0,0,0-1.129-.383,1.666,1.666,0,0,0-1.086.355,1.137,1.137,0,0,0-.437.926H12.766a2.777,2.777,0,0,1,.48-1.6,3.2,3.2,0,0,1,1.344-1.105,4.485,4.485,0,0,1,1.9-.4,4.253,4.253,0,0,1,2.828.863,2.945,2.945,0,0,1,1.023,2.379,2.394,2.394,0,0,1-.477,1.438,3.1,3.1,0,0,1-1.25,1.008,2.826,2.826,0,0,1,1.434,1.031,2.8,2.8,0,0,1,.473,1.625,2.994,2.994,0,0,1-1.105,2.43,4.445,4.445,0,0,1-2.926.914,4.214,4.214,0,0,1-2.785-.9,2.934,2.934,0,0,1-1.082-2.375h2.258a1.308,1.308,0,0,0,.48,1.047,1.771,1.771,0,0,0,1.184.406,1.779,1.779,0,0,0,1.262-.426,1.47,1.47,0,0,0,.457-1.129q0-1.7-1.875-1.7H15.2Zm13.008-4.8v1.859h-.219a3.836,3.836,0,0,0-2.465.8A3.238,3.238,0,0,0,24.4-6.687a3.075,3.075,0,0,1,2.289-.922,2.9,2.9,0,0,1,2.359,1.063,4.259,4.259,0,0,1,.875,2.8,4.19,4.19,0,0,1-.48,2.008,3.446,3.446,0,0,1-1.359,1.4,3.949,3.949,0,0,1-1.988.5,3.689,3.689,0,0,1-2.9-1.25A4.852,4.852,0,0,1,22.086-4.43v-.812a7.3,7.3,0,0,1,.7-3.27,5.127,5.127,0,0,1,2.008-2.2,5.884,5.884,0,0,1,3.035-.785ZM26-5.789a1.8,1.8,0,0,0-.992.285,1.715,1.715,0,0,0-.656.753v.686A3.04,3.04,0,0,0,24.8-2.3a1.439,1.439,0,0,0,1.25.635,1.423,1.423,0,0,0,1.176-.573,2.337,2.337,0,0,0,.449-1.485,2.333,2.333,0,0,0-.453-1.5A1.477,1.477,0,0,0,26-5.789ZM38.914-4.7a5.762,5.762,0,0,1-.977,3.609A3.409,3.409,0,0,1,35.078.156,3.433,3.433,0,0,1,32.234-1.07a5.594,5.594,0,0,1-1.008-3.516V-6.68a5.687,5.687,0,0,1,.988-3.617,3.434,3.434,0,0,1,2.848-1.234,3.437,3.437,0,0,1,2.844,1.223A5.576,5.576,0,0,1,38.914-6.8Zm-2.258-2.3a4.165,4.165,0,0,0-.387-2.061,1.307,1.307,0,0,0-1.207-.645,1.284,1.284,0,0,0-1.176.614,3.9,3.9,0,0,0-.4,1.92v2.768a4.372,4.372,0,0,0,.379,2.068,1.29,1.29,0,0,0,1.215.676,1.268,1.268,0,0,0,1.2-.649A4.268,4.268,0,0,0,36.656-4.3Zm3.992-2.37a2.077,2.077,0,0,1,.633-1.523,2.041,2.041,0,0,1,1.492-.633,2,2,0,0,1,1.473.629,2.093,2.093,0,0,1,.621,1.527,2.041,2.041,0,0,1-.621,1.512,2.025,2.025,0,0,1-1.473.613,2.082,2.082,0,0,1-1.484-.613A2.01,2.01,0,0,1,40.648-9.375Zm2.125.969a.913.913,0,0,0,.684-.277.953.953,0,0,0,.27-.691,1.011,1.011,0,0,0-.27-.7.883.883,0,0,0-.684-.3.92.92,0,0,0-.7.3.988.988,0,0,0-.281.7.929.929,0,0,0,.285.688A.948.948,0,0,0,42.773-8.406Z" transform="translate(1063.333 630)" fill="#12263f"/>
    <path id="Trazado_881774" data-name="Trazado 881774" d="M-54.578,0V-11.375h3.5a5.315,5.315,0,0,1,2.684.676,4.712,4.712,0,0,1,1.848,1.922,5.928,5.928,0,0,1,.664,2.832v.523a5.945,5.945,0,0,1-.652,2.82,4.672,4.672,0,0,1-1.84,1.914A5.355,5.355,0,0,1-51.055,0Zm2.344-9.477v7.594H-51.1a2.545,2.545,0,0,0,2.1-.9,4.06,4.06,0,0,0,.742-2.57v-.6a4.124,4.124,0,0,0-.719-2.629,2.537,2.537,0,0,0-2.1-.895Zm11.8,9.633A4.15,4.15,0,0,1-43.465-.984a4.054,4.054,0,0,1-1.168-3.039v-.219a5.106,5.106,0,0,1,.492-2.277,3.612,3.612,0,0,1,1.395-1.547,3.914,3.914,0,0,1,2.059-.543,3.508,3.508,0,0,1,2.73,1.094,4.444,4.444,0,0,1,1,3.1v.922h-5.383a2.1,2.1,0,0,0,.66,1.328,2,2,0,0,0,1.395.5,2.437,2.437,0,0,0,2.039-.945l1.109,1.242A3.389,3.389,0,0,1-38.516-.246,4.511,4.511,0,0,1-40.437.156ZM-40.7-6.789a1.411,1.411,0,0,0-1.09.455,2.357,2.357,0,0,0-.535,1.3h3.141v-.181a1.681,1.681,0,0,0-.406-1.165A1.456,1.456,0,0,0-40.7-6.789ZM-31.1-2.336a.727.727,0,0,0-.41-.652,4.659,4.659,0,0,0-1.316-.426q-3.016-.633-3.016-2.562a2.323,2.323,0,0,1,.934-1.879,3.766,3.766,0,0,1,2.441-.754,4.053,4.053,0,0,1,2.574.758,2.388,2.388,0,0,1,.965,1.969h-2.258a1.092,1.092,0,0,0-.312-.8A1.322,1.322,0,0,0-32.477-7a1.351,1.351,0,0,0-.883.258.814.814,0,0,0-.312.656.7.7,0,0,0,.355.605,3.657,3.657,0,0,0,1.2.4A9.8,9.8,0,0,1-30.7-4.7,2.336,2.336,0,0,1-28.906-2.43,2.2,2.2,0,0,1-29.9-.559a4.28,4.28,0,0,1-2.562.715,4.47,4.47,0,0,1-1.887-.379,3.166,3.166,0,0,1-1.293-1.039,2.414,2.414,0,0,1-.469-1.426h2.141a1.179,1.179,0,0,0,.445.922,1.766,1.766,0,0,0,1.109.32,1.635,1.635,0,0,0,.98-.246A.766.766,0,0,0-31.1-2.336Zm7.164.672a1.481,1.481,0,0,0,1.016-.344,1.2,1.2,0,0,0,.406-.914H-20.4a2.9,2.9,0,0,1-.469,1.574A3.093,3.093,0,0,1-22.129-.238,3.949,3.949,0,0,1-23.9.156,3.67,3.67,0,0,1-26.758-1,4.56,4.56,0,0,1-27.8-4.18v-.148a4.508,4.508,0,0,1,1.039-3.117,3.627,3.627,0,0,1,2.852-1.164,3.555,3.555,0,0,1,2.543.9A3.2,3.2,0,0,1-20.4-5.3h-2.117a1.551,1.551,0,0,0-.406-1.072,1.354,1.354,0,0,0-1.031-.412,1.36,1.36,0,0,0-1.191.575,3.333,3.333,0,0,0-.4,1.866v.235a3.375,3.375,0,0,0,.4,1.878A1.377,1.377,0,0,0-23.937-1.664Zm9.578-4.672a6.134,6.134,0,0,0-.812-.062,1.654,1.654,0,0,0-1.68.867V0h-2.258V-8.453h2.133l.063,1.008a2.092,2.092,0,0,1,1.883-1.164,2.366,2.366,0,0,1,.7.1ZM-10.891,0h-2.266V-8.453h2.266Zm-2.4-10.641a1.112,1.112,0,0,1,.34-.836,1.277,1.277,0,0,1,.926-.328,1.28,1.28,0,0,1,.922.328,1.105,1.105,0,0,1,.344.836,1.108,1.108,0,0,1-.348.844,1.283,1.283,0,0,1-.918.328,1.283,1.283,0,0,1-.918-.328A1.108,1.108,0,0,1-13.289-10.641ZM-1.422-4.148A5.07,5.07,0,0,1-2.309-1.02,2.843,2.843,0,0,1-4.7.156a2.633,2.633,0,0,1-2.07-.891V3.25H-9.031v-11.7h2.094l.078.828a2.654,2.654,0,0,1,2.141-.984,2.862,2.862,0,0,1,2.43,1.156,5.207,5.207,0,0,1,.867,3.188ZM-3.68-4.312A3.327,3.327,0,0,0-4.1-6.133a1.361,1.361,0,0,0-1.215-.641,1.478,1.478,0,0,0-1.461.813V-2.5A1.5,1.5,0,0,0-5.3-1.664Q-3.68-1.664-3.68-4.312ZM3.492-1.664a1.481,1.481,0,0,0,1.016-.344,1.2,1.2,0,0,0,.406-.914H7.031a2.9,2.9,0,0,1-.469,1.574A3.093,3.093,0,0,1,5.3-.238a3.949,3.949,0,0,1-1.77.395A3.67,3.67,0,0,1,.672-1,4.56,4.56,0,0,1-.375-4.18v-.148A4.508,4.508,0,0,1,.664-7.445,3.627,3.627,0,0,1,3.516-8.609a3.555,3.555,0,0,1,2.543.9,3.2,3.2,0,0,1,.973,2.4H4.914a1.551,1.551,0,0,0-.406-1.072,1.354,1.354,0,0,0-1.031-.412,1.36,1.36,0,0,0-1.191.575,3.333,3.333,0,0,0-.4,1.866v.235a3.375,3.375,0,0,0,.4,1.878A1.377,1.377,0,0,0,3.492-1.664ZM10.7,0H8.438V-8.453H10.7ZM8.3-10.641a1.112,1.112,0,0,1,.34-.836A1.277,1.277,0,0,1,9.57-11.8a1.28,1.28,0,0,1,.922.328,1.105,1.105,0,0,1,.344.836,1.108,1.108,0,0,1-.348.844,1.283,1.283,0,0,1-.918.328A1.283,1.283,0,0,1,8.652-9.8,1.108,1.108,0,0,1,8.3-10.641ZM12.211-4.3A5.013,5.013,0,0,1,12.7-6.547,3.546,3.546,0,0,1,14.09-8.07,4.069,4.069,0,0,1,16.2-8.609,3.849,3.849,0,0,1,19-7.562,4.2,4.2,0,0,1,20.2-4.719l.016.578A4.418,4.418,0,0,1,19.133-1.02,3.775,3.775,0,0,1,16.219.156,3.793,3.793,0,0,1,13.3-1.016,4.5,4.5,0,0,1,12.211-4.2Zm2.258.16A3.16,3.16,0,0,0,14.922-2.3a1.5,1.5,0,0,0,1.3.638,1.5,1.5,0,0,0,1.281-.63,3.457,3.457,0,0,0,.461-2.015A3.128,3.128,0,0,0,17.5-6.14a1.5,1.5,0,0,0-1.3-.649,1.474,1.474,0,0,0-1.281.646A3.516,3.516,0,0,0,14.469-4.144ZM16.648-12h2.461L16.945-9.578H15.109Zm7.039,3.547.07.977a2.951,2.951,0,0,1,2.43-1.133,2.453,2.453,0,0,1,2,.789,3.682,3.682,0,0,1,.672,2.359V0H26.6V-5.406a1.465,1.465,0,0,0-.312-1.043,1.4,1.4,0,0,0-1.039-.324,1.553,1.553,0,0,0-1.43.813V0H21.563V-8.453ZM34.2-4.289a5.094,5.094,0,0,1,.887-3.148,2.877,2.877,0,0,1,2.426-1.172,2.589,2.589,0,0,1,2.039.922V-12H41.82V0H39.781l-.109-.9A2.657,2.657,0,0,1,37.5.156,2.869,2.869,0,0,1,35.105-1.02,5.258,5.258,0,0,1,34.2-4.289Zm2.258.168A3.337,3.337,0,0,0,36.875-2.3a1.349,1.349,0,0,0,1.2.634,1.511,1.511,0,0,0,1.477-.884V-5.889a1.489,1.489,0,0,0-1.461-.884Q36.461-6.773,36.461-4.121Zm11,4.277A4.15,4.15,0,0,1,44.434-.984a4.054,4.054,0,0,1-1.168-3.039v-.219a5.106,5.106,0,0,1,.492-2.277,3.612,3.612,0,0,1,1.395-1.547,3.914,3.914,0,0,1,2.059-.543,3.508,3.508,0,0,1,2.73,1.094,4.444,4.444,0,0,1,1,3.1v.922H45.555a2.1,2.1,0,0,0,.66,1.328,2,2,0,0,0,1.395.5,2.437,2.437,0,0,0,2.039-.945l1.109,1.242A3.389,3.389,0,0,1,49.383-.246,4.511,4.511,0,0,1,47.461.156ZM47.2-6.789a1.411,1.411,0,0,0-1.09.455,2.357,2.357,0,0,0-.535,1.3h3.141v-.181a1.681,1.681,0,0,0-.406-1.165A1.456,1.456,0,0,0,47.2-6.789ZM54.6,0H52.336V-12H54.6ZM-60.508,19.852a5.07,5.07,0,0,1-.887,3.129,2.843,2.843,0,0,1-2.395,1.176,2.633,2.633,0,0,1-2.07-.891V27.25h-2.258v-11.7h2.094l.078.828a2.654,2.654,0,0,1,2.141-.984,2.862,2.862,0,0,1,2.43,1.156,5.207,5.207,0,0,1,.867,3.188Zm-2.258-.164a3.327,3.327,0,0,0-.418-1.82,1.361,1.361,0,0,0-1.215-.641,1.478,1.478,0,0,0-1.461.813V21.5a1.5,1.5,0,0,0,1.477.836Q-62.766,22.336-62.766,19.688Zm8.406-2.023a6.134,6.134,0,0,0-.812-.062,1.654,1.654,0,0,0-1.68.867V24h-2.258V15.547h2.133l.063,1.008a2.092,2.092,0,0,1,1.883-1.164,2.366,2.366,0,0,1,.7.1Zm.453,2.031a5.013,5.013,0,0,1,.484-2.242,3.546,3.546,0,0,1,1.395-1.523,4.069,4.069,0,0,1,2.113-.539,3.849,3.849,0,0,1,2.793,1.047,4.2,4.2,0,0,1,1.207,2.844l.016.578a4.418,4.418,0,0,1-1.086,3.121A3.775,3.775,0,0,1-49.9,24.156a3.793,3.793,0,0,1-2.918-1.172,4.5,4.5,0,0,1-1.09-3.187Zm2.258.16A3.16,3.16,0,0,0-51.2,21.7a1.5,1.5,0,0,0,1.3.638,1.5,1.5,0,0,0,1.281-.63,3.457,3.457,0,0,0,.461-2.015,3.128,3.128,0,0,0-.461-1.831,1.5,1.5,0,0,0-1.3-.649,1.474,1.474,0,0,0-1.281.646A3.516,3.516,0,0,0-51.648,19.856Zm6.789-.145a5.094,5.094,0,0,1,.887-3.148,2.877,2.877,0,0,1,2.426-1.172,2.589,2.589,0,0,1,2.039.922V12h2.266V24h-2.039l-.109-.9a2.657,2.657,0,0,1-2.172,1.055,2.869,2.869,0,0,1-2.395-1.176A5.258,5.258,0,0,1-44.859,19.711Zm2.258.168a3.337,3.337,0,0,0,.414,1.823,1.349,1.349,0,0,0,1.2.634,1.511,1.511,0,0,0,1.477-.884V18.111a1.489,1.489,0,0,0-1.461-.884Q-42.6,17.227-42.6,19.879Zm12.172,3.262a2.831,2.831,0,0,1-2.312,1.016,2.67,2.67,0,0,1-2.074-.781,3.335,3.335,0,0,1-.73-2.289V15.547h2.258v5.467q0,1.322,1.2,1.322a1.63,1.63,0,0,0,1.578-.8V15.547h2.266V24h-2.125Zm7.406-.8a1.481,1.481,0,0,0,1.016-.344,1.2,1.2,0,0,0,.406-.914h2.117a2.9,2.9,0,0,1-.469,1.574,3.093,3.093,0,0,1-1.262,1.109,3.949,3.949,0,0,1-1.77.395A3.67,3.67,0,0,1-25.844,23a4.56,4.56,0,0,1-1.047-3.184v-.148a4.508,4.508,0,0,1,1.039-3.117A3.627,3.627,0,0,1-23,15.391a3.555,3.555,0,0,1,2.543.9,3.2,3.2,0,0,1,.973,2.4H-21.6a1.551,1.551,0,0,0-.406-1.072,1.354,1.354,0,0,0-1.031-.412,1.36,1.36,0,0,0-1.191.575,3.333,3.333,0,0,0-.4,1.866v.235a3.375,3.375,0,0,0,.4,1.878A1.377,1.377,0,0,0-23.023,22.336Zm7.531-8.867v2.078h1.445V17.2h-1.445v4.219a1.007,1.007,0,0,0,.18.672.9.9,0,0,0,.688.2,3.6,3.6,0,0,0,.664-.055v1.711a4.648,4.648,0,0,1-1.367.2,2.156,2.156,0,0,1-2.422-2.4V17.2h-1.234V15.547h1.234V13.469Zm2.117,6.227a5.013,5.013,0,0,1,.484-2.242A3.546,3.546,0,0,1-11.5,15.93a4.069,4.069,0,0,1,2.113-.539A3.849,3.849,0,0,1-6.59,16.438a4.2,4.2,0,0,1,1.207,2.844l.016.578A4.418,4.418,0,0,1-6.453,22.98a3.775,3.775,0,0,1-2.914,1.176,3.793,3.793,0,0,1-2.918-1.172,4.5,4.5,0,0,1-1.09-3.187Zm2.258.16a3.16,3.16,0,0,0,.453,1.843,1.5,1.5,0,0,0,1.3.638,1.5,1.5,0,0,0,1.281-.63,3.457,3.457,0,0,0,.461-2.015,3.128,3.128,0,0,0-.461-1.831,1.5,1.5,0,0,0-1.3-.649,1.474,1.474,0,0,0-1.281.646A3.516,3.516,0,0,0-11.117,19.856ZM-.344,19.7a5.013,5.013,0,0,1,.484-2.242A3.546,3.546,0,0,1,1.535,15.93a4.069,4.069,0,0,1,2.113-.539,3.849,3.849,0,0,1,2.793,1.047,4.2,4.2,0,0,1,1.207,2.844l.016.578A4.418,4.418,0,0,1,6.578,22.98a3.775,3.775,0,0,1-2.914,1.176A3.793,3.793,0,0,1,.746,22.984,4.5,4.5,0,0,1-.344,19.8Zm2.258.16A3.16,3.16,0,0,0,2.367,21.7a1.5,1.5,0,0,0,1.3.638,1.5,1.5,0,0,0,1.281-.63,3.457,3.457,0,0,0,.461-2.015,3.128,3.128,0,0,0-.461-1.831,1.5,1.5,0,0,0-1.3-.649,1.474,1.474,0,0,0-1.281.646A3.516,3.516,0,0,0,1.914,19.856Zm15.7,1.808a.727.727,0,0,0-.41-.652,4.659,4.659,0,0,0-1.316-.426q-3.016-.633-3.016-2.562a2.323,2.323,0,0,1,.934-1.879,3.766,3.766,0,0,1,2.441-.754,4.053,4.053,0,0,1,2.574.758,2.388,2.388,0,0,1,.965,1.969H17.531a1.092,1.092,0,0,0-.312-.8A1.322,1.322,0,0,0,16.242,17a1.351,1.351,0,0,0-.883.258.814.814,0,0,0-.312.656.7.7,0,0,0,.355.605,3.657,3.657,0,0,0,1.2.4,9.8,9.8,0,0,1,1.422.379,2.336,2.336,0,0,1,1.789,2.273,2.2,2.2,0,0,1-.992,1.871,4.28,4.28,0,0,1-2.562.715,4.47,4.47,0,0,1-1.887-.379,3.166,3.166,0,0,1-1.293-1.039,2.414,2.414,0,0,1-.469-1.426H14.75a1.179,1.179,0,0,0,.445.922,1.766,1.766,0,0,0,1.109.32,1.635,1.635,0,0,0,.98-.246A.766.766,0,0,0,17.617,21.664Zm7.539,2.492a4.15,4.15,0,0,1-3.027-1.141,4.054,4.054,0,0,1-1.168-3.039v-.219a5.106,5.106,0,0,1,.492-2.277,3.612,3.612,0,0,1,1.395-1.547,3.914,3.914,0,0,1,2.059-.543,3.508,3.508,0,0,1,2.73,1.094,4.444,4.444,0,0,1,1,3.1v.922H23.25a2.1,2.1,0,0,0,.66,1.328,2,2,0,0,0,1.395.5,2.437,2.437,0,0,0,2.039-.945l1.109,1.242a3.389,3.389,0,0,1-1.375,1.121A4.511,4.511,0,0,1,25.156,24.156ZM24.9,17.211a1.411,1.411,0,0,0-1.09.455,2.357,2.357,0,0,0-.535,1.3h3.141v-.181a1.681,1.681,0,0,0-.406-1.165A1.456,1.456,0,0,0,24.9,17.211Zm9.766.453a6.134,6.134,0,0,0-.812-.062,1.654,1.654,0,0,0-1.68.867V24H29.914V15.547h2.133l.063,1.008a2.092,2.092,0,0,1,1.883-1.164,2.366,2.366,0,0,1,.7.1Zm4.391,3.578,1.57-5.7h2.359L40.133,24H37.977l-2.852-8.453h2.359ZM46.359,24H44.094V15.547h2.266Zm-2.4-10.641a1.112,1.112,0,0,1,.34-.836,1.465,1.465,0,0,1,1.848,0,1.193,1.193,0,0,1,0,1.68,1.448,1.448,0,0,1-1.836,0A1.108,1.108,0,0,1,43.961,13.359Zm7.773,8.977a1.481,1.481,0,0,0,1.016-.344,1.2,1.2,0,0,0,.406-.914h2.117a2.9,2.9,0,0,1-.469,1.574,3.093,3.093,0,0,1-1.262,1.109,3.949,3.949,0,0,1-1.77.395A3.67,3.67,0,0,1,48.914,23a4.56,4.56,0,0,1-1.047-3.184v-.148a4.508,4.508,0,0,1,1.039-3.117,3.627,3.627,0,0,1,2.852-1.164,3.555,3.555,0,0,1,2.543.9,3.2,3.2,0,0,1,.973,2.4H53.156a1.551,1.551,0,0,0-.406-1.072,1.51,1.51,0,0,0-2.223.163,3.333,3.333,0,0,0-.4,1.866v.235a3.375,3.375,0,0,0,.4,1.878A1.377,1.377,0,0,0,51.734,22.336ZM58.945,24H56.68V15.547h2.266Zm-2.4-10.641a1.112,1.112,0,0,1,.34-.836,1.465,1.465,0,0,1,1.848,0,1.193,1.193,0,0,1,0,1.68,1.448,1.448,0,0,1-1.836,0A1.108,1.108,0,0,1,56.547,13.359ZM60.453,19.7a5.013,5.013,0,0,1,.484-2.242,3.546,3.546,0,0,1,1.395-1.523,4.069,4.069,0,0,1,2.113-.539,3.849,3.849,0,0,1,2.793,1.047,4.2,4.2,0,0,1,1.207,2.844l.016.578a4.418,4.418,0,0,1-1.086,3.121,4.209,4.209,0,0,1-5.832,0,4.5,4.5,0,0,1-1.09-3.187Zm2.258.16a3.16,3.16,0,0,0,.453,1.843,1.628,1.628,0,0,0,2.578.008,3.457,3.457,0,0,0,.461-2.015,3.128,3.128,0,0,0-.461-1.831,1.5,1.5,0,0,0-1.3-.649,1.474,1.474,0,0,0-1.281.646A3.516,3.516,0,0,0,62.711,19.856Z" transform="translate(538 678)" fill="#12263f"/>
    <path id="Trazado_881766" data-name="Trazado 881766" d="M-40.863-4.93h-4.5v3.047h5.281V0h-7.625V-11.375H-40.1v1.9h-5.266v2.711h4.5ZM-36.473,0h-2.266V-12h2.266Zm5.75.156A4.15,4.15,0,0,1-33.75-.984a4.054,4.054,0,0,1-1.168-3.039v-.219a5.106,5.106,0,0,1,.492-2.277,3.612,3.612,0,0,1,1.395-1.547,3.914,3.914,0,0,1,2.059-.543,3.508,3.508,0,0,1,2.73,1.094,4.444,4.444,0,0,1,1,3.1v.922h-5.383a2.1,2.1,0,0,0,.66,1.328,2,2,0,0,0,1.395.5,2.437,2.437,0,0,0,2.039-.945l1.109,1.242A3.389,3.389,0,0,1-28.8-.246,4.511,4.511,0,0,1-30.723.156Zm-.258-6.945a1.411,1.411,0,0,0-1.09.455,2.357,2.357,0,0,0-.535,1.3h3.141v-.181a1.681,1.681,0,0,0-.406-1.165A1.456,1.456,0,0,0-30.98-6.789Zm7.133-1.664.07.945a2.971,2.971,0,0,1,2.43-1.1A2.255,2.255,0,0,1-19.105-7.32a2.9,2.9,0,0,1,2.539-1.289,2.521,2.521,0,0,1,2.047.8,3.681,3.681,0,0,1,.672,2.41V0h-2.266V-5.391a1.61,1.61,0,0,0-.281-1.051,1.246,1.246,0,0,0-.992-.332,1.409,1.409,0,0,0-1.406.969l.008,5.8h-2.258V-5.383a1.59,1.59,0,0,0-.289-1.062,1.259,1.259,0,0,0-.984-.328,1.463,1.463,0,0,0-1.391.8V0h-2.258V-8.453ZM-8.223.156A4.15,4.15,0,0,1-11.25-.984a4.054,4.054,0,0,1-1.168-3.039v-.219a5.106,5.106,0,0,1,.492-2.277,3.612,3.612,0,0,1,1.395-1.547,3.914,3.914,0,0,1,2.059-.543,3.508,3.508,0,0,1,2.73,1.094,4.444,4.444,0,0,1,1,3.1v.922h-5.383a2.1,2.1,0,0,0,.66,1.328,2,2,0,0,0,1.395.5,2.437,2.437,0,0,0,2.039-.945l1.109,1.242A3.389,3.389,0,0,1-6.3-.246,4.511,4.511,0,0,1-8.223.156ZM-8.48-6.789a1.411,1.411,0,0,0-1.09.455,2.357,2.357,0,0,0-.535,1.3h3.141v-.181a1.681,1.681,0,0,0-.406-1.165A1.456,1.456,0,0,0-8.48-6.789Zm7.094-1.664.07.977a2.951,2.951,0,0,1,2.43-1.133,2.453,2.453,0,0,1,2,.789,3.682,3.682,0,0,1,.672,2.359V0H1.527V-5.406a1.465,1.465,0,0,0-.312-1.043A1.4,1.4,0,0,0,.176-6.773a1.553,1.553,0,0,0-1.43.813V0H-3.512V-8.453ZM8.2-10.531v2.078H9.645V-6.8H8.2v4.219a1.007,1.007,0,0,0,.18.672.9.9,0,0,0,.688.2,3.6,3.6,0,0,0,.664-.055V-.047a4.648,4.648,0,0,1-1.367.2,2.156,2.156,0,0,1-2.422-2.4V-6.8H4.707V-8.453H5.941v-2.078ZM10.316-4.3A5.013,5.013,0,0,1,10.8-6.547,3.546,3.546,0,0,1,12.2-8.07a4.069,4.069,0,0,1,2.113-.539A3.849,3.849,0,0,1,17.1-7.562a4.2,4.2,0,0,1,1.207,2.844l.016.578A4.418,4.418,0,0,1,17.238-1.02,3.775,3.775,0,0,1,14.324.156a3.793,3.793,0,0,1-2.918-1.172A4.5,4.5,0,0,1,10.316-4.2Zm2.258.16A3.16,3.16,0,0,0,13.027-2.3a1.5,1.5,0,0,0,1.3.638,1.5,1.5,0,0,0,1.281-.63,3.457,3.457,0,0,0,.461-2.015,3.128,3.128,0,0,0-.461-1.831,1.5,1.5,0,0,0-1.3-.649,1.474,1.474,0,0,0-1.281.646A3.516,3.516,0,0,0,12.574-4.144ZM24.293-2.336a.727.727,0,0,0-.41-.652,4.659,4.659,0,0,0-1.316-.426q-3.016-.633-3.016-2.562a2.323,2.323,0,0,1,.934-1.879,3.766,3.766,0,0,1,2.441-.754,4.053,4.053,0,0,1,2.574.758,2.388,2.388,0,0,1,.965,1.969H24.207a1.092,1.092,0,0,0-.312-.8A1.322,1.322,0,0,0,22.918-7a1.351,1.351,0,0,0-.883.258.814.814,0,0,0-.312.656.7.7,0,0,0,.355.605,3.657,3.657,0,0,0,1.2.4A9.8,9.8,0,0,1,24.7-4.7,2.336,2.336,0,0,1,26.488-2.43,2.2,2.2,0,0,1,25.5-.559a4.28,4.28,0,0,1-2.562.715,4.47,4.47,0,0,1-1.887-.379,3.166,3.166,0,0,1-1.293-1.039,2.414,2.414,0,0,1-.469-1.426h2.141a1.179,1.179,0,0,0,.445.922,1.766,1.766,0,0,0,1.109.32,1.635,1.635,0,0,0,.98-.246A.766.766,0,0,0,24.293-2.336Zm7.281-1.953a5.094,5.094,0,0,1,.887-3.148,2.877,2.877,0,0,1,2.426-1.172,2.589,2.589,0,0,1,2.039.922V-12h2.266V0H37.152l-.109-.9A2.657,2.657,0,0,1,34.871.156,2.869,2.869,0,0,1,32.477-1.02,5.258,5.258,0,0,1,31.574-4.289Zm2.258.168A3.337,3.337,0,0,0,34.246-2.3a1.349,1.349,0,0,0,1.2.634,1.511,1.511,0,0,0,1.477-.884V-5.889a1.489,1.489,0,0,0-1.461-.884Q33.832-6.773,33.832-4.121Zm11,4.277A4.15,4.15,0,0,1,41.8-.984a4.054,4.054,0,0,1-1.168-3.039v-.219a5.106,5.106,0,0,1,.492-2.277,3.612,3.612,0,0,1,1.395-1.547,3.914,3.914,0,0,1,2.059-.543,3.508,3.508,0,0,1,2.73,1.094,4.444,4.444,0,0,1,1,3.1v.922H42.926a2.1,2.1,0,0,0,.66,1.328,2,2,0,0,0,1.395.5,2.437,2.437,0,0,0,2.039-.945l1.109,1.242A3.389,3.389,0,0,1,46.754-.246,4.511,4.511,0,0,1,44.832.156Zm-.258-6.945a1.411,1.411,0,0,0-1.09.455,2.357,2.357,0,0,0-.535,1.3H46.09v-.181a1.681,1.681,0,0,0-.406-1.165A1.456,1.456,0,0,0,44.574-6.789ZM-73.133,24H-75.4V15.547h2.266Zm-2.4-10.641a1.112,1.112,0,0,1,.34-.836,1.277,1.277,0,0,1,.926-.328,1.28,1.28,0,0,1,.922.328,1.105,1.105,0,0,1,.344.836,1.108,1.108,0,0,1-.348.844,1.283,1.283,0,0,1-.918.328,1.283,1.283,0,0,1-.918-.328A1.108,1.108,0,0,1-75.531,13.359Zm3.906,6.352a5.094,5.094,0,0,1,.887-3.148,2.877,2.877,0,0,1,2.426-1.172,2.589,2.589,0,0,1,2.039.922V12h2.266V24h-2.039l-.109-.9a2.657,2.657,0,0,1-2.172,1.055,2.869,2.869,0,0,1-2.395-1.176A5.258,5.258,0,0,1-71.625,19.711Zm2.258.168a3.337,3.337,0,0,0,.414,1.823,1.349,1.349,0,0,0,1.2.634,1.511,1.511,0,0,0,1.477-.884V18.111a1.489,1.489,0,0,0-1.461-.884Q-69.367,17.227-69.367,19.879Zm11,4.277a4.15,4.15,0,0,1-3.027-1.141,4.054,4.054,0,0,1-1.168-3.039v-.219a5.106,5.106,0,0,1,.492-2.277,3.612,3.612,0,0,1,1.395-1.547,3.914,3.914,0,0,1,2.059-.543,3.508,3.508,0,0,1,2.73,1.094,4.444,4.444,0,0,1,1,3.1v.922h-5.383a2.1,2.1,0,0,0,.66,1.328,2,2,0,0,0,1.395.5,2.437,2.437,0,0,0,2.039-.945l1.109,1.242a3.389,3.389,0,0,1-1.375,1.121A4.511,4.511,0,0,1-58.367,24.156Zm-.258-6.945a1.411,1.411,0,0,0-1.09.455,2.357,2.357,0,0,0-.535,1.3h3.141v-.181a1.681,1.681,0,0,0-.406-1.165A1.456,1.456,0,0,0-58.625,17.211Zm7.094-1.664.07.977a2.951,2.951,0,0,1,2.43-1.133,2.453,2.453,0,0,1,2,.789,3.682,3.682,0,0,1,.672,2.359V24h-2.258V18.594a1.465,1.465,0,0,0-.312-1.043,1.4,1.4,0,0,0-1.039-.324,1.553,1.553,0,0,0-1.43.813V24h-2.258V15.547Zm9.586-2.078v2.078H-40.5V17.2h-1.445v4.219a1.007,1.007,0,0,0,.18.672.9.9,0,0,0,.688.2,3.6,3.6,0,0,0,.664-.055v1.711a4.648,4.648,0,0,1-1.367.2,2.156,2.156,0,0,1-2.422-2.4V17.2h-1.234V15.547H-44.2V13.469ZM-36.859,24h-2.266V15.547h2.266Zm-2.4-10.641a1.112,1.112,0,0,1,.34-.836,1.277,1.277,0,0,1,.926-.328,1.28,1.28,0,0,1,.922.328,1.105,1.105,0,0,1,.344.836,1.108,1.108,0,0,1-.348.844,1.283,1.283,0,0,1-.918.328,1.283,1.283,0,0,1-.918-.328A1.108,1.108,0,0,1-39.258,13.359Zm3.906,6.352a5.094,5.094,0,0,1,.887-3.148,2.877,2.877,0,0,1,2.426-1.172A2.589,2.589,0,0,1-30,16.313V12h2.266V24h-2.039l-.109-.9a2.657,2.657,0,0,1-2.172,1.055,2.869,2.869,0,0,1-2.395-1.176A5.258,5.258,0,0,1-35.352,19.711Zm2.258.168A3.337,3.337,0,0,0-32.68,21.7a1.349,1.349,0,0,0,1.2.634A1.511,1.511,0,0,0-30,21.452V18.111a1.489,1.489,0,0,0-1.461-.884Q-33.094,17.227-33.094,19.879ZM-21.086,24a2.507,2.507,0,0,1-.227-.758,2.732,2.732,0,0,1-2.133.914,3,3,0,0,1-2.059-.719,2.312,2.312,0,0,1-.816-1.812,2.389,2.389,0,0,1,1-2.062,4.915,4.915,0,0,1,2.879-.727h1.039v-.484a1.393,1.393,0,0,0-.3-.937,1.183,1.183,0,0,0-.949-.352,1.345,1.345,0,0,0-.895.273.929.929,0,0,0-.324.75h-2.258a2.268,2.268,0,0,1,.453-1.359,3,3,0,0,1,1.281-.98,4.669,4.669,0,0,1,1.859-.355,3.689,3.689,0,0,1,2.48.785,2.747,2.747,0,0,1,.918,2.207v3.664a4.041,4.041,0,0,0,.336,1.82V24Zm-1.867-1.57a1.945,1.945,0,0,0,.922-.223,1.462,1.462,0,0,0,.625-.6V20.156h-.844q-1.7,0-1.8,1.172l-.008.133a.9.9,0,0,0,.3.7A1.153,1.153,0,0,0-22.953,22.43Zm5.2-2.719a5.094,5.094,0,0,1,.887-3.148,2.877,2.877,0,0,1,2.426-1.172,2.589,2.589,0,0,1,2.039.922V12h2.266V24H-12.18l-.109-.9a2.657,2.657,0,0,1-2.172,1.055,2.869,2.869,0,0,1-2.395-1.176A5.258,5.258,0,0,1-17.758,19.711Zm2.258.168a3.337,3.337,0,0,0,.414,1.823,1.349,1.349,0,0,0,1.2.634,1.511,1.511,0,0,0,1.477-.884V18.111a1.489,1.489,0,0,0-1.461-.884Q-15.5,17.227-15.5,19.879ZM-.891,22.336a1.481,1.481,0,0,0,1.016-.344,1.2,1.2,0,0,0,.406-.914H2.648a2.9,2.9,0,0,1-.469,1.574A3.093,3.093,0,0,1,.918,23.762a3.949,3.949,0,0,1-1.77.395A3.67,3.67,0,0,1-3.711,23,4.56,4.56,0,0,1-4.758,19.82v-.148a4.508,4.508,0,0,1,1.039-3.117A3.627,3.627,0,0,1-.867,15.391a3.555,3.555,0,0,1,2.543.9,3.2,3.2,0,0,1,.973,2.4H.531a1.551,1.551,0,0,0-.406-1.072,1.354,1.354,0,0,0-1.031-.412,1.36,1.36,0,0,0-1.191.575,3.333,3.333,0,0,0-.4,1.866v.235a3.375,3.375,0,0,0,.4,1.878A1.377,1.377,0,0,0-.891,22.336ZM3.586,19.7a5.013,5.013,0,0,1,.484-2.242A3.546,3.546,0,0,1,5.465,15.93a4.069,4.069,0,0,1,2.113-.539,3.849,3.849,0,0,1,2.793,1.047,4.2,4.2,0,0,1,1.207,2.844l.016.578a4.418,4.418,0,0,1-1.086,3.121,3.775,3.775,0,0,1-2.914,1.176,3.793,3.793,0,0,1-2.918-1.172A4.5,4.5,0,0,1,3.586,19.8Zm2.258.16A3.16,3.16,0,0,0,6.3,21.7a1.5,1.5,0,0,0,1.3.638,1.5,1.5,0,0,0,1.281-.63,3.457,3.457,0,0,0,.461-2.015,3.128,3.128,0,0,0-.461-1.831,1.5,1.5,0,0,0-1.3-.649,1.474,1.474,0,0,0-1.281.646A3.516,3.516,0,0,0,5.844,19.856Zm11.891-2.192a6.134,6.134,0,0,0-.812-.062,1.654,1.654,0,0,0-1.68.867V24H12.984V15.547h2.133l.063,1.008a2.092,2.092,0,0,1,1.883-1.164,2.366,2.366,0,0,1,.7.1Zm8.7,2.188a5.07,5.07,0,0,1-.887,3.129,2.843,2.843,0,0,1-2.395,1.176,2.633,2.633,0,0,1-2.07-.891V27.25H18.82v-11.7h2.094l.078.828a2.654,2.654,0,0,1,2.141-.984,2.862,2.862,0,0,1,2.43,1.156,5.207,5.207,0,0,1,.867,3.188Zm-2.258-.164a3.327,3.327,0,0,0-.418-1.82,1.361,1.361,0,0,0-1.215-.641,1.478,1.478,0,0,0-1.461.813V21.5a1.5,1.5,0,0,0,1.477.836Q24.172,22.336,24.172,19.688Zm3.3.008a5.013,5.013,0,0,1,.484-2.242,3.546,3.546,0,0,1,1.395-1.523,4.069,4.069,0,0,1,2.113-.539,3.849,3.849,0,0,1,2.793,1.047,4.2,4.2,0,0,1,1.207,2.844l.016.578A4.418,4.418,0,0,1,34.4,22.98a3.775,3.775,0,0,1-2.914,1.176,3.793,3.793,0,0,1-2.918-1.172,4.5,4.5,0,0,1-1.09-3.187Zm2.258.16a3.16,3.16,0,0,0,.453,1.843,1.628,1.628,0,0,0,2.578.008,3.457,3.457,0,0,0,.461-2.015,3.128,3.128,0,0,0-.461-1.831,1.5,1.5,0,0,0-1.3-.649,1.474,1.474,0,0,0-1.281.646A3.516,3.516,0,0,0,29.734,19.856Zm11.891-2.192a6.134,6.134,0,0,0-.812-.062,1.654,1.654,0,0,0-1.68.867V24H36.875V15.547h2.133l.063,1.008a2.092,2.092,0,0,1,1.883-1.164,2.366,2.366,0,0,1,.7.1ZM47.375,24a2.507,2.507,0,0,1-.227-.758,2.732,2.732,0,0,1-2.133.914,3,3,0,0,1-2.059-.719,2.312,2.312,0,0,1-.816-1.812,2.389,2.389,0,0,1,1-2.062,4.915,4.915,0,0,1,2.879-.727h1.039v-.484a1.393,1.393,0,0,0-.3-.937,1.183,1.183,0,0,0-.949-.352,1.345,1.345,0,0,0-.895.273.929.929,0,0,0-.324.75H42.328a2.268,2.268,0,0,1,.453-1.359,3,3,0,0,1,1.281-.98,4.669,4.669,0,0,1,1.859-.355,3.689,3.689,0,0,1,2.48.785,2.747,2.747,0,0,1,.918,2.207v3.664a4.041,4.041,0,0,0,.336,1.82V24Zm-1.867-1.57a1.945,1.945,0,0,0,.922-.223,1.462,1.462,0,0,0,.625-.6V20.156h-.844q-1.7,0-1.8,1.172l-.008.133a.9.9,0,0,0,.3.7A1.153,1.153,0,0,0,45.508,22.43Zm8.25-8.961v2.078H55.2V17.2H53.758v4.219a1.007,1.007,0,0,0,.18.672.9.9,0,0,0,.688.2,3.6,3.6,0,0,0,.664-.055v1.711a4.648,4.648,0,0,1-1.367.2,2.156,2.156,0,0,1-2.422-2.4V17.2H50.266V15.547H51.5V13.469ZM58.844,24H56.578V15.547h2.266Zm-2.4-10.641a1.112,1.112,0,0,1,.34-.836,1.465,1.465,0,0,1,1.848,0,1.193,1.193,0,0,1,0,1.68,1.448,1.448,0,0,1-1.836,0A1.108,1.108,0,0,1,56.445,13.359Zm7.422,7.883,1.57-5.7H67.8L64.945,24H62.789l-2.852-8.453H62.3ZM73.57,24a2.507,2.507,0,0,1-.227-.758,2.732,2.732,0,0,1-2.133.914,3,3,0,0,1-2.059-.719,2.312,2.312,0,0,1-.816-1.812,2.389,2.389,0,0,1,1-2.062,4.915,4.915,0,0,1,2.879-.727H73.25v-.484a1.393,1.393,0,0,0-.3-.937A1.183,1.183,0,0,0,72,17.063a1.345,1.345,0,0,0-.895.273.929.929,0,0,0-.324.75H68.523a2.268,2.268,0,0,1,.453-1.359,3,3,0,0,1,1.281-.98,4.669,4.669,0,0,1,1.859-.355,3.689,3.689,0,0,1,2.48.785,2.747,2.747,0,0,1,.918,2.207v3.664a4.041,4.041,0,0,0,.336,1.82V24ZM71.7,22.43a1.945,1.945,0,0,0,.922-.223,1.462,1.462,0,0,0,.625-.6V20.156h-.844q-1.7,0-1.8,1.172l-.008.133a.9.9,0,0,0,.3.7A1.153,1.153,0,0,0,71.7,22.43Z" transform="translate(538 846)" fill="#12263f"/>
    <path id="Trazado_881775" data-name="Trazado 881775" d="M-68.746-11.375l2.922,8.25,2.906-8.25h3.078V0h-2.352V-3.109l.234-5.367L-65.027,0h-1.609L-69.7-8.469l.234,5.359V0h-2.344V-11.375ZM-58.293-4.3a5.013,5.013,0,0,1,.484-2.242A3.546,3.546,0,0,1-56.414-8.07,4.069,4.069,0,0,1-54.3-8.609a3.849,3.849,0,0,1,2.793,1.047A4.2,4.2,0,0,1-50.3-4.719l.016.578A4.418,4.418,0,0,1-51.371-1.02,3.775,3.775,0,0,1-54.285.156,3.793,3.793,0,0,1-57.2-1.016,4.5,4.5,0,0,1-58.293-4.2Zm2.258.16A3.16,3.16,0,0,0-55.582-2.3a1.5,1.5,0,0,0,1.3.638A1.5,1.5,0,0,0-53-2.294a3.457,3.457,0,0,0,.461-2.015A3.128,3.128,0,0,0-53-6.14a1.5,1.5,0,0,0-1.3-.649,1.474,1.474,0,0,0-1.281.646A3.516,3.516,0,0,0-56.035-4.144Zm6.789-.145a5.094,5.094,0,0,1,.887-3.148,2.877,2.877,0,0,1,2.426-1.172,2.589,2.589,0,0,1,2.039.922V-12h2.266V0h-2.039l-.109-.9A2.657,2.657,0,0,1-45.949.156,2.869,2.869,0,0,1-48.344-1.02,5.258,5.258,0,0,1-49.246-4.289Zm2.258.168A3.337,3.337,0,0,0-46.574-2.3a1.349,1.349,0,0,0,1.2.634,1.511,1.511,0,0,0,1.477-.884V-5.889a1.489,1.489,0,0,0-1.461-.884Q-46.988-6.773-46.988-4.121Zm11,4.277A4.15,4.15,0,0,1-39.016-.984a4.054,4.054,0,0,1-1.168-3.039v-.219a5.106,5.106,0,0,1,.492-2.277A3.612,3.612,0,0,1-38.3-8.066a3.914,3.914,0,0,1,2.059-.543,3.508,3.508,0,0,1,2.73,1.094,4.444,4.444,0,0,1,1,3.1v.922h-5.383a2.1,2.1,0,0,0,.66,1.328,2,2,0,0,0,1.395.5A2.437,2.437,0,0,0-33.8-2.609l1.109,1.242A3.389,3.389,0,0,1-34.066-.246,4.511,4.511,0,0,1-35.988.156Zm-.258-6.945a1.411,1.411,0,0,0-1.09.455,2.357,2.357,0,0,0-.535,1.3h3.141v-.181a1.681,1.681,0,0,0-.406-1.165A1.456,1.456,0,0,0-36.246-6.789ZM-28.848,0h-2.266V-12h2.266Zm1.508-4.3a5.013,5.013,0,0,1,.484-2.242A3.546,3.546,0,0,1-25.461-8.07a4.069,4.069,0,0,1,2.113-.539,3.849,3.849,0,0,1,2.793,1.047,4.2,4.2,0,0,1,1.207,2.844l.016.578A4.418,4.418,0,0,1-20.418-1.02,3.775,3.775,0,0,1-23.332.156,3.793,3.793,0,0,1-26.25-1.016,4.5,4.5,0,0,1-27.34-4.2Zm2.258.16A3.16,3.16,0,0,0-24.629-2.3a1.5,1.5,0,0,0,1.3.638,1.5,1.5,0,0,0,1.281-.63,3.457,3.457,0,0,0,.461-2.015,3.128,3.128,0,0,0-.461-1.831,1.5,1.5,0,0,0-1.3-.649,1.474,1.474,0,0,0-1.281.646A3.516,3.516,0,0,0-25.082-4.144Zm14.93-.926a7.053,7.053,0,0,1-2.809-1.363,2.6,2.6,0,0,1-.879-2,2.751,2.751,0,0,1,1.074-2.223,4.269,4.269,0,0,1,2.793-.879,4.66,4.66,0,0,1,2.09.453,3.436,3.436,0,0,1,1.422,1.25,3.2,3.2,0,0,1,.5,1.742H-7.465a2.08,2.08,0,0,0-.656-1.627A2.669,2.669,0,0,0-9.973-10.3a2.732,2.732,0,0,0-1.73.489,1.632,1.632,0,0,0-.621,1.358,1.468,1.468,0,0,0,.59,1.178,5.785,5.785,0,0,0,2.008.88,9.316,9.316,0,0,1,2.219.88A3.367,3.367,0,0,1-6.32-4.4a2.861,2.861,0,0,1,.387,1.508A2.658,2.658,0,0,1-7.012-.676,4.6,4.6,0,0,1-9.895.156a5.347,5.347,0,0,1-2.187-.449,3.681,3.681,0,0,1-1.566-1.23A3,3,0,0,1-14.2-3.3h1.508a1.959,1.959,0,0,0,.762,1.629,3.207,3.207,0,0,0,2.035.6,2.948,2.948,0,0,0,1.82-.484,1.573,1.573,0,0,0,.633-1.32,1.545,1.545,0,0,0-.586-1.293A6.755,6.755,0,0,0-10.152-5.07ZM2.9-4.133A5.062,5.062,0,0,1,2.02-1.023,2.829,2.829,0,0,1-.371.156,3.1,3.1,0,0,1-2.793-.82V3.25H-4.238v-11.7h1.32l.07.938A2.977,2.977,0,0,1-.395-8.609a2.882,2.882,0,0,1,2.41,1.148,5.117,5.117,0,0,1,.887,3.2ZM1.457-4.3A3.735,3.735,0,0,0,.848-6.555,1.963,1.963,0,0,0-.824-7.383,2.125,2.125,0,0,0-2.793-6.219V-2.18A2.129,2.129,0,0,0-.809-1.023,1.954,1.954,0,0,0,.844-1.848,4.077,4.077,0,0,0,1.457-4.3ZM8.824-7.156a4.331,4.331,0,0,0-.711-.055A1.9,1.9,0,0,0,6.184-6V0H4.738V-8.453H6.145l.023.977A2.251,2.251,0,0,1,8.184-8.609a1.477,1.477,0,0,1,.641.109ZM11.723,0H10.277V-8.453h1.445ZM10.16-10.7a.863.863,0,0,1,.215-.594.807.807,0,0,1,.637-.242.819.819,0,0,1,.641.242.854.854,0,0,1,.219.594.826.826,0,0,1-.219.586.834.834,0,0,1-.641.234.821.821,0,0,1-.637-.234A.834.834,0,0,1,10.16-10.7ZM15.4-8.453l.047,1.063A3.08,3.08,0,0,1,17.98-8.609q2.68,0,2.7,3.023V0H19.238V-5.594a1.946,1.946,0,0,0-.418-1.352,1.675,1.675,0,0,0-1.277-.437,2.086,2.086,0,0,0-1.234.375,2.546,2.546,0,0,0-.828.984V0H14.035V-8.453ZM22.52-4.3a4.968,4.968,0,0,1,.914-3.145,2.923,2.923,0,0,1,2.422-1.168A2.908,2.908,0,0,1,28.27-7.516l.07-.937h1.32V-.2a3.439,3.439,0,0,1-.973,2.586,3.589,3.589,0,0,1-2.613.945,4.348,4.348,0,0,1-1.789-.391,3.08,3.08,0,0,1-1.336-1.07L23.7,1a2.826,2.826,0,0,0,2.273,1.148,2.214,2.214,0,0,0,1.645-.594,2.269,2.269,0,0,0,.59-1.672V-.844a2.971,2.971,0,0,1-2.367,1,2.887,2.887,0,0,1-2.4-1.2A5.224,5.224,0,0,1,22.52-4.3Zm1.453.164a3.79,3.79,0,0,0,.586,2.246A1.9,1.9,0,0,0,26.2-1.07a2.117,2.117,0,0,0,2.008-1.242V-6.172a2.142,2.142,0,0,0-1.992-1.211,1.921,1.921,0,0,0-1.648.82A4.128,4.128,0,0,0,23.973-4.133ZM32.066,0V-11.375h3.719a4.317,4.317,0,0,1,2.785.766A2.759,2.759,0,0,1,39.5-8.344a2.31,2.31,0,0,1-.453,1.41,2.937,2.937,0,0,1-1.234.949A2.638,2.638,0,0,1,39.273-5a2.814,2.814,0,0,1,.535,1.723,3.042,3.042,0,0,1-.992,2.406,4.1,4.1,0,0,1-2.8.875Zm1.5-5.32v4.094h2.477A2.385,2.385,0,0,0,37.7-1.77a1.907,1.907,0,0,0,.605-1.5q0-2.055-2.234-2.055Zm0-1.2h2.266a2.375,2.375,0,0,0,1.574-.493A1.654,1.654,0,0,0,38-8.355a1.626,1.626,0,0,0-.547-1.366,2.686,2.686,0,0,0-1.664-.427H33.566ZM41.418-4.3a4.993,4.993,0,0,1,.488-2.234A3.643,3.643,0,0,1,43.266-8.07a3.7,3.7,0,0,1,1.988-.539,3.565,3.565,0,0,1,2.793,1.2,4.6,4.6,0,0,1,1.066,3.18v.1a5.036,5.036,0,0,1-.473,2.215A3.589,3.589,0,0,1,47.289-.391a3.743,3.743,0,0,1-2.02.547,3.556,3.556,0,0,1-2.785-1.2A4.575,4.575,0,0,1,41.418-4.2Zm1.453.172a3.616,3.616,0,0,0,.652,2.258,2.088,2.088,0,0,0,1.746.852,2.075,2.075,0,0,0,1.75-.863A3.955,3.955,0,0,0,47.668-4.3a3.61,3.61,0,0,0-.66-2.254,2.1,2.1,0,0,0-1.754-.863,2.075,2.075,0,0,0-1.727.852A3.925,3.925,0,0,0,42.871-4.133ZM56.145,0a3.036,3.036,0,0,1-.2-.891A3.225,3.225,0,0,1,53.535.156a2.984,2.984,0,0,1-2.051-.707,2.287,2.287,0,0,1-.8-1.793,2.39,2.39,0,0,1,1-2.051,4.733,4.733,0,0,1,2.824-.73h1.406v-.664A1.623,1.623,0,0,0,55.465-7a1.821,1.821,0,0,0-1.336-.449,2.107,2.107,0,0,0-1.3.391,1.151,1.151,0,0,0-.523.945H50.855A2,2,0,0,1,51.3-7.332a3.066,3.066,0,0,1,1.219-.934,4.1,4.1,0,0,1,1.691-.344,3.342,3.342,0,0,1,2.289.73,2.635,2.635,0,0,1,.859,2.012v3.891a4.757,4.757,0,0,0,.3,1.852V0Zm-2.4-1.1a2.54,2.54,0,0,0,1.289-.352,2.127,2.127,0,0,0,.883-.914V-4.1H54.785q-2.656,0-2.656,1.555a1.316,1.316,0,0,0,.453,1.063A1.742,1.742,0,0,0,53.746-1.1Zm9.969-6.055A4.331,4.331,0,0,0,63-7.211,1.9,1.9,0,0,0,61.074-6V0H59.629V-8.453h1.406l.023.977a2.251,2.251,0,0,1,2.016-1.133,1.477,1.477,0,0,1,.641.109ZM64.543-4.3a4.952,4.952,0,0,1,.922-3.129,2.915,2.915,0,0,1,2.414-1.184A2.932,2.932,0,0,1,70.23-7.594V-12h1.445V0H70.348l-.07-.906A2.943,2.943,0,0,1,67.863.156a2.887,2.887,0,0,1-2.395-1.2,5.008,5.008,0,0,1-.926-3.141Zm1.445.164a3.749,3.749,0,0,0,.594,2.25,1.92,1.92,0,0,0,1.641.813A2.109,2.109,0,0,0,70.23-2.3V-6.187a2.125,2.125,0,0,0-1.992-1.2,1.929,1.929,0,0,0-1.656.82A4.128,4.128,0,0,0,65.988-4.133Z" transform="translate(1062.833 678)" fill="#12263f"/>
    <path id="Trazado_881776" data-name="Trazado 881776" d="M-64-11.375l2.922,8.25,2.906-8.25h3.078V0h-2.352V-3.109l.234-5.367L-60.277,0h-1.609l-3.062-8.469.234,5.359V0h-2.344V-11.375ZM-53.543-4.3a5.013,5.013,0,0,1,.484-2.242A3.546,3.546,0,0,1-51.664-8.07a4.069,4.069,0,0,1,2.113-.539,3.849,3.849,0,0,1,2.793,1.047,4.2,4.2,0,0,1,1.207,2.844l.016.578A4.418,4.418,0,0,1-46.621-1.02,3.775,3.775,0,0,1-49.535.156a3.793,3.793,0,0,1-2.918-1.172A4.5,4.5,0,0,1-53.543-4.2Zm2.258.16A3.16,3.16,0,0,0-50.832-2.3a1.5,1.5,0,0,0,1.3.638,1.5,1.5,0,0,0,1.281-.63,3.457,3.457,0,0,0,.461-2.015,3.128,3.128,0,0,0-.461-1.831,1.5,1.5,0,0,0-1.3-.649,1.474,1.474,0,0,0-1.281.646A3.516,3.516,0,0,0-51.285-4.144Zm6.789-.145a5.094,5.094,0,0,1,.887-3.148,2.877,2.877,0,0,1,2.426-1.172,2.589,2.589,0,0,1,2.039.922V-12h2.266V0h-2.039l-.109-.9A2.657,2.657,0,0,1-41.2.156,2.869,2.869,0,0,1-43.594-1.02,5.258,5.258,0,0,1-44.5-4.289Zm2.258.168A3.337,3.337,0,0,0-41.824-2.3a1.349,1.349,0,0,0,1.2.634,1.511,1.511,0,0,0,1.477-.884V-5.889a1.489,1.489,0,0,0-1.461-.884Q-42.238-6.773-42.238-4.121Zm11,4.277A4.15,4.15,0,0,1-34.266-.984a4.054,4.054,0,0,1-1.168-3.039v-.219a5.106,5.106,0,0,1,.492-2.277,3.612,3.612,0,0,1,1.395-1.547,3.914,3.914,0,0,1,2.059-.543,3.508,3.508,0,0,1,2.73,1.094,4.444,4.444,0,0,1,1,3.1v.922h-5.383a2.1,2.1,0,0,0,.66,1.328,2,2,0,0,0,1.395.5,2.437,2.437,0,0,0,2.039-.945l1.109,1.242A3.389,3.389,0,0,1-29.316-.246,4.511,4.511,0,0,1-31.238.156ZM-31.5-6.789a1.411,1.411,0,0,0-1.09.455,2.357,2.357,0,0,0-.535,1.3h3.141v-.181a1.681,1.681,0,0,0-.406-1.165A1.456,1.456,0,0,0-31.5-6.789ZM-24.1,0h-2.266V-12H-24.1Zm1.508-4.3a5.013,5.013,0,0,1,.484-2.242A3.546,3.546,0,0,1-20.711-8.07,4.069,4.069,0,0,1-18.6-8.609,3.849,3.849,0,0,1-15.8-7.562,4.2,4.2,0,0,1-14.6-4.719l.016.578A4.418,4.418,0,0,1-15.668-1.02,3.775,3.775,0,0,1-18.582.156,3.793,3.793,0,0,1-21.5-1.016,4.5,4.5,0,0,1-22.59-4.2Zm2.258.16A3.16,3.16,0,0,0-19.879-2.3a1.5,1.5,0,0,0,1.3.638,1.5,1.5,0,0,0,1.281-.63,3.457,3.457,0,0,0,.461-2.015A3.128,3.128,0,0,0-17.3-6.14a1.5,1.5,0,0,0-1.3-.649,1.474,1.474,0,0,0-1.281.646A3.516,3.516,0,0,0-20.332-4.144Zm17.711-.137h1.289v1.82H-2.621V0H-4.879V-2.461H-9.543l-.1-1.422L-4.9-11.375h2.281Zm-4.773,0h2.516V-8.3l-.148.258ZM.121,0V-11.375h3.5A5.315,5.315,0,0,1,6.3-10.7,4.712,4.712,0,0,1,8.152-8.777a5.928,5.928,0,0,1,.664,2.832v.523A5.945,5.945,0,0,1,8.164-2.6,4.672,4.672,0,0,1,6.324-.687,5.355,5.355,0,0,1,3.645,0ZM2.465-9.477v7.594H3.6a2.545,2.545,0,0,0,2.1-.9,4.06,4.06,0,0,0,.742-2.57v-.6a4.124,4.124,0,0,0-.719-2.629,2.537,2.537,0,0,0-2.1-.895ZM14-4.289a5.094,5.094,0,0,1,.887-3.148,2.877,2.877,0,0,1,2.426-1.172,2.589,2.589,0,0,1,2.039.922V-12h2.266V0H19.582l-.109-.9A2.657,2.657,0,0,1,17.3.156,2.869,2.869,0,0,1,14.906-1.02,5.258,5.258,0,0,1,14-4.289Zm2.258.168A3.337,3.337,0,0,0,16.676-2.3a1.349,1.349,0,0,0,1.2.634,1.511,1.511,0,0,0,1.477-.884V-5.889a1.489,1.489,0,0,0-1.461-.884Q16.262-6.773,16.262-4.121Zm11,4.277A4.15,4.15,0,0,1,24.234-.984a4.054,4.054,0,0,1-1.168-3.039v-.219a5.106,5.106,0,0,1,.492-2.277,3.612,3.612,0,0,1,1.395-1.547,3.914,3.914,0,0,1,2.059-.543,3.508,3.508,0,0,1,2.73,1.094,4.444,4.444,0,0,1,1,3.1v.922H25.355a2.1,2.1,0,0,0,.66,1.328,2,2,0,0,0,1.395.5,2.437,2.437,0,0,0,2.039-.945l1.109,1.242A3.389,3.389,0,0,1,29.184-.246,4.511,4.511,0,0,1,27.262.156ZM27-6.789a1.411,1.411,0,0,0-1.09.455,2.357,2.357,0,0,0-.535,1.3H28.52v-.181a1.681,1.681,0,0,0-.406-1.165A1.456,1.456,0,0,0,27-6.789Zm13.734-4.586h2.344V-3.5a3.766,3.766,0,0,1-.48,1.918A3.261,3.261,0,0,1,41.246-.3,4.235,4.235,0,0,1,39.27.156a4.025,4.025,0,0,1-2.812-.918,3.335,3.335,0,0,1-1.008-2.6h2.359a1.829,1.829,0,0,0,.352,1.234,1.407,1.407,0,0,0,1.109.4,1.343,1.343,0,0,0,1.07-.461,1.948,1.948,0,0,0,.4-1.312ZM53.949-3.281l1.531-8.094h2.336L55.293,0H52.934L51.082-7.609,49.23,0H46.871L44.348-11.375h2.336L48.223-3.3,50.1-11.375h1.984Zm13.8-6.2H64.27V0H61.926V-9.477H58.488v-1.9h9.266Z" transform="translate(1061.833 726)" fill="#12263f"/>
  </g>
</svg>
