<svg xmlns="http://www.w3.org/2000/svg" width="67" height="59.184" viewBox="0 0 67 59.184">
  <g id="Grupo_1104239" data-name="Grupo 1104239" transform="translate(-180 -1697.408)">
    <g id="Grupo_1104121" data-name="Grupo 1104121" transform="translate(0 -2052.743)">
      <path id="_12068" data-name="12068" d="M66.039,71.828c-6.861-.947-14.108-.716-20.351,2.283C37.03,78.27,31.344,87.7,31.126,97.3s4.784,19.038,12.512,24.741a35.81,35.81,0,0,0,27.37,6.013c9.53-1.727,18.474-7.326,23.445-15.638,3.187-5.33,4.677-11.911,2.916-17.867a24.409,24.409,0,0,0-5.793-9.521A42.8,42.8,0,0,0,66.039,71.828Z" transform="translate(148.881 3680.691)" fill="#26aab7"/>
      <path id="Trazado_873155" data-name="Trazado 873155" d="M303.26,44.546a1.582,1.582,0,1,0-.106-2.456A1.573,1.573,0,0,0,303.26,44.546Z" transform="translate(138.287 4055.916) rotate(-90)" fill="#7d6eb2"/>
      <path id="Trazado_873156" data-name="Trazado 873156" d="M321.56,66.974a3.448,3.448,0,1,0-1.687-4.918A3.468,3.468,0,0,0,321.56,66.974Z" transform="translate(128.241 4079.581) rotate(-90)" fill="#ffd947"/>
      <circle id="Elipse_11521" data-name="Elipse 11521" cx="3.689" cy="3.689" r="3.689" transform="translate(237.702 3796.368) rotate(-90)" fill="none" stroke="#fff" stroke-linecap="round" stroke-linejoin="round" stroke-width="1.5"/>
    </g>
    <g id="elementos-de-la-lista" transform="translate(189.021 1702.396)">
      <g id="Icon" transform="translate(2.749 7.749)">
        <path id="Trazado_881528" data-name="Trazado 881528" d="M31.473,17.741V42.468a1.5,1.5,0,0,1-1.5,1.5H4.5a1.5,1.5,0,0,1-1.5-1.5V9.5A1.5,1.5,0,0,1,4.5,8H21.732Z" transform="translate(-3 -8)" fill="#e0e0e0"/>
        <path id="Trazado_881529" data-name="Trazado 881529" d="M37.741,17.741H29.5a1.5,1.5,0,0,1-1.5-1.5V8Z" transform="translate(-9.268 -8)" fill="#9e9e9e"/>
        <path id="Trazado_881530" data-name="Trazado 881530" d="M13.873,14H23.989v3.746H13.873a1.873,1.873,0,0,1,0-3.746Z" transform="translate(-5.256 -9.504)" fill="#59836b"/>
        <path id="Trazado_881531" data-name="Trazado 881531" d="M54.983,33.5a1.5,1.5,0,0,0-1.5-1.5H38.5A1.5,1.5,0,0,0,37,33.5v3.746H54.983Z" transform="translate(-11.524 -14.017)" fill="#ffd947"/>
        <path id="Trazado_881532" data-name="Trazado 881532" d="M37,39V50.239a1.5,1.5,0,0,0,1.5,1.5H53.485a1.5,1.5,0,0,0,1.5-1.5V39Z" transform="translate(-11.524 -15.772)" fill="#ffd947"/>
        <path id="Trazado_881533" data-name="Trazado 881533" d="M49.788,40.75,48,39.372,46.206,40.75A.749.749,0,0,1,45,40.156V32h5.994v8.156A.749.749,0,0,1,49.788,40.75Z" transform="translate(-13.53 -14.017)" fill="#62529b"/>
      </g>
      <g id="Line" transform="translate(2 7)">
        <path id="Trazado_881534" data-name="Trazado 881534" d="M11.741,22.735a.749.749,0,0,1,.749-.749H27.476a.749.749,0,0,1,0,1.5H12.49A.749.749,0,0,1,11.741,22.735ZM9.712,20.707l-2.38,2.381-.586-.8a.749.749,0,1,0-1.207.888l1.1,1.5a.754.754,0,0,0,1.133.086l3-3a.749.749,0,1,0-1.06-1.06Zm0,5.245-2.38,2.381-.586-.8a.749.749,0,0,0-1.207.888l1.1,1.5a.754.754,0,0,0,1.133.086l3-3a.749.749,0,0,0-1.06-1.06Zm0,5.245-2.38,2.381-.586-.8a.749.749,0,1,0-1.207.888l1.1,1.5a.754.754,0,0,0,1.133.086l3-3a.749.749,0,1,0-1.06-1.06Zm0,5.245-2.38,2.381-.586-.8a.749.749,0,1,0-1.207.888l1.1,1.5a.754.754,0,0,0,1.133.086l3-3a.749.749,0,0,0-1.06-1.06Zm37.245-9.211V42.217a2.25,2.25,0,0,1-2.248,2.248H4.248A2.25,2.25,0,0,1,2,42.217V9.248A2.25,2.25,0,0,1,4.248,7H21.482a.749.749,0,0,1,.53.22l9.741,9.741a.749.749,0,0,1,.22.53v7.493H44.71A2.25,2.25,0,0,1,46.958,27.231ZM34.969,33.889l1.791-1.378a.748.748,0,0,1,.913,0l1.791,1.378h0l0,0,0-7.41h-4.5v7.407Zm-5.245-7.407a.75.75,0,0,0-.749.749v3h4.5V26.482Zm-7.493-10.49a.75.75,0,0,0,.749.749h6.433L22.231,9.558ZM4.248,42.966H27.614a2.222,2.222,0,0,1-.138-.749v-3H12.49a.749.749,0,0,1,0-1.5H27.476V33.975H12.49a.749.749,0,0,1,0-1.5H27.476V28.73H12.49a.749.749,0,0,1,0-1.5H27.476a2.25,2.25,0,0,1,2.248-2.248h.749V18.239H22.98a2.244,2.244,0,0,1-2.11-1.5h-9.5a2.623,2.623,0,0,1,0-5.245h9.366v-3H4.248a.75.75,0,0,0-.749.749V42.217A.75.75,0,0,0,4.248,42.966ZM20.732,12.994H11.366a1.124,1.124,0,1,0,0,2.248h9.366ZM45.459,31.727h-4.5v2.162a1.493,1.493,0,0,1-1.033,1.425,1.575,1.575,0,0,1-1.442-.286l-1.271-.978-1.335,1.026a1.492,1.492,0,0,1-1.772.041,1.594,1.594,0,0,1-.64-1.321V31.727h-4.5v10.49a.75.75,0,0,0,.749.749H44.71a.75.75,0,0,0,.749-.749Zm0-4.5a.75.75,0,0,0-.749-.749H40.963v3.746h4.5ZM34.969,40.718h-4.5a.749.749,0,1,0,0,1.5h4.5a.749.749,0,1,0,0-1.5Zm0-2.248h-4.5a.749.749,0,1,0,0,1.5h4.5a.749.749,0,1,0,0-1.5Z" transform="translate(-2 -7)" fill="#00223d"/>
      </g>
    </g>
  </g>
</svg>
