<svg xmlns="http://www.w3.org/2000/svg" width="67" height="59.184" viewBox="0 0 67 59.184">
  <g id="Grupo_1104241" data-name="Grupo 1104241" transform="translate(-495 -2694.408)">
    <g id="Grupo_1104150" data-name="Grupo 1104150" transform="translate(315 -1055.743)">
      <path id="_12068" data-name="12068" d="M66.039,71.828c-6.861-.947-14.108-.716-20.351,2.283C37.03,78.27,31.344,87.7,31.126,97.3s4.784,19.038,12.512,24.741a35.81,35.81,0,0,0,27.37,6.013c9.53-1.727,18.474-7.326,23.445-15.638,3.187-5.33,4.677-11.911,2.916-17.867a24.409,24.409,0,0,0-5.793-9.521A42.8,42.8,0,0,0,66.039,71.828Z" transform="translate(148.881 3680.691)" fill="#26aab7"/>
      <path id="Trazado_873155" data-name="Trazado 873155" d="M303.26,44.546a1.582,1.582,0,1,0-.106-2.456A1.573,1.573,0,0,0,303.26,44.546Z" transform="translate(138.287 4055.916) rotate(-90)" fill="#7d6eb2"/>
      <path id="Trazado_873156" data-name="Trazado 873156" d="M321.56,66.974a3.448,3.448,0,1,0-1.687-4.918A3.468,3.468,0,0,0,321.56,66.974Z" transform="translate(128.241 4079.581) rotate(-90)" fill="#ffd947"/>
      <circle id="Elipse_11521" data-name="Elipse 11521" cx="3.689" cy="3.689" r="3.689" transform="translate(237.702 3796.368) rotate(-90)" fill="none" stroke="#fff" stroke-linecap="round" stroke-linejoin="round" stroke-width="1.5"/>
    </g>
    <g id="Filled_outline" data-name="Filled outline" transform="translate(508.077 2703.119)">
      <g id="Color" transform="translate(0.477 0.94)">
        <path id="Trazado_881588" data-name="Trazado 881588" d="M9.7,49.554H33.189a19.945,19.945,0,1,0-23.493,0Z" transform="translate(-1.496 -9.806)" fill="#ffd947"/>
        <circle id="Elipse_11837" data-name="Elipse 11837" cx="12.286" cy="12.286" r="12.286" transform="translate(7.66 11.346)" fill="#e5bd22"/>
        <path id="Trazado_881589" data-name="Trazado 881589" d="M74.869,23.082a1.284,1.284,0,0,0-1.8.189S64.042,34.241,61,37.875a1.277,1.277,0,0,0,1.984,1.607c2.665-3.359,12.069-14.6,12.069-14.6a1.278,1.278,0,0,0-.189-1.8Z" transform="translate(-41.82 -16.146)" fill="#fff"/>
        <g id="Grupo_1104152" data-name="Grupo 1104152" transform="translate(0.23 22.355)">
          <path id="Trazado_881590" data-name="Trazado 881590" d="M93.7,107.268a.957.957,0,0,0,.952-.837,6.873,6.873,0,0,0,.055-.859,7.318,7.318,0,1,0-14.636,0,6.873,6.873,0,0,0,.055.859.957.957,0,0,0,.952.837Z" transform="translate(-55.223 -89.876)" fill="#7d6eb2"/>
          <circle id="Elipse_11838" data-name="Elipse 11838" cx="3.351" cy="3.351" r="3.351" transform="translate(28.812)" fill="#62529b"/>
          <path id="Trazado_881598" data-name="Trazado 881598" d="M3.351,0A3.351,3.351,0,1,1,0,3.351,3.351,3.351,0,0,1,3.351,0Z" transform="translate(3.92)" fill="#62529b"/>
          <path id="Trazado_881591" data-name="Trazado 881591" d="M3.222,107.267a.957.957,0,0,1-.952-.837,6.872,6.872,0,0,1-.055-.859,7.318,7.318,0,1,1,14.637,0,6.871,6.871,0,0,1-.055.859.957.957,0,0,1-.952.837Z" transform="translate(-2.215 -89.875)" fill="#7d6eb2"/>
        </g>
        <path id="Trazado_881592" data-name="Trazado 881592" d="M38.688,109.96a6.872,6.872,0,0,0,.055-.859,7.3,7.3,0,0,0-2.685-5.664,9.4,9.4,0,0,0-1.691,5.39,9.011,9.011,0,0,0,.091,1.268,1.918,1.918,0,0,0,.25.7h3.032A.957.957,0,0,0,38.688,109.96Z" transform="translate(-23.876 -71.049)" fill="#62529b"/>
        <path id="Trazado_881593" data-name="Trazado 881593" d="M84.308,110.146a9.009,9.009,0,0,0,.091-1.268,9.4,9.4,0,0,0-1.676-5.366,7.3,7.3,0,0,0-2.655,5.64,6.871,6.871,0,0,0,.055.859.957.957,0,0,0,.952.837h2.983a1.915,1.915,0,0,0,.25-.7Z" transform="translate(-54.994 -71.1)" fill="#62529b"/>
        <path id="Trazado_881594" data-name="Trazado 881594" d="M53.329,104.16a.965.965,0,0,0,.951-.837,8.037,8.037,0,0,0,.081-1.133,8.5,8.5,0,0,0-17,0,8.036,8.036,0,0,0,.081,1.133.965.965,0,0,0,.953.837Z" transform="translate(-25.915 -64.413)" fill="#7d6eb2"/>
        <circle id="Elipse_11840" data-name="Elipse 11840" cx="3.829" cy="3.829" r="3.829" transform="translate(16.117 19.802)" fill="#62529b"/>
        <path id="Trazado_881595" data-name="Trazado 881595" d="M104.072,6.2l-3.427-.274a.479.479,0,0,1-.421-.341l-.981-3.3a.479.479,0,0,0-.83-.165L94.758,6.637a.957.957,0,0,0-.155.932l1.161,3.172a.957.957,0,0,0,.766.619l3.344.476a.957.957,0,0,0,.879-.345l3.654-4.513a.479.479,0,0,0-.335-.778Z" transform="translate(-64.85 -1.948)" fill="#aee6e6"/>
        <path id="Trazado_881596" data-name="Trazado 881596" d="M107.642,15.238l-3.654,4.512a.954.954,0,0,1-.878.345l-3.344-.475a.948.948,0,0,1-.466-.2l4.321-5.336a.467.467,0,0,0,.262.105l3.427.274a.479.479,0,0,1,.332.779Z" transform="translate(-68.088 -10.208)" fill="#59836b"/>
      </g>
      <g id="Outline" transform="translate(-0.001 0.468)">
        <path id="Trazado_881597" data-name="Trazado 881597" d="M36.749,10.783,40.4,6.271a.963.963,0,0,0-.667-1.557L36.308,4.44l-.98-3.3A.964.964,0,0,0,33.667.815L30.012,5.329a1.441,1.441,0,0,0-.31,1.053A20.419,20.419,0,0,0,2.209,33.806,7.763,7.763,0,0,0,.228,38.992a7.345,7.345,0,0,0,.059.918,1.439,1.439,0,0,0,1.426,1.256H39.181a1.439,1.439,0,0,0,1.427-1.255,7.356,7.356,0,0,0,.059-.919,7.766,7.766,0,0,0-2.01-5.219,20.4,20.4,0,0,0-2.734-22.489,1.441,1.441,0,0,0,.827-.5Zm-.517-5.389,3.427.274-3.654,4.511a.481.481,0,0,1-.44.173l-3.074-.438,3.67-4.532c.024,0,.047.009.071.011Zm-5.476.536,3.654-4.513.98,3.3c.007.024.018.045.026.068l-3.67,4.532L30.679,6.4a.481.481,0,0,1,.078-.465ZM29.04,26.646a3.829,3.829,0,0,0,1.892,3.3,11.818,11.818,0,0,1-1.237,1.931,7.827,7.827,0,0,0-2.13,1.408A8.967,8.967,0,0,0,13.3,33.258a7.827,7.827,0,0,0-2.167-1.411,11.871,11.871,0,0,1-1.22-1.9,3.825,3.825,0,0,0-1.179-7.053A11.8,11.8,0,0,1,26.053,14.2c-1.778,2.154-3.611,4.372-5.05,6.108a4.307,4.307,0,1,0,2.981,1.842c1.4-1.714,3.172-3.852,4.845-5.866a11.785,11.785,0,0,1,3.283,6.609,3.836,3.836,0,0,0-3.071,3.753Zm3.829-2.872A2.872,2.872,0,1,1,30,26.646a2.872,2.872,0,0,1,2.872-2.872ZM7.978,29.518a2.872,2.872,0,1,1,2.872-2.872A2.872,2.872,0,0,1,7.978,29.518Zm15.8-4.946a3.351,3.351,0,1,1-3.351-3.351A3.351,3.351,0,0,1,23.774,24.572Zm-.428-3.156a4.308,4.308,0,0,0-1.322-.841c2.657-3.2,6.481-7.843,8.886-10.762a1.449,1.449,0,0,0,1.213,1.017c-2.086,2.5-6.072,7.285-8.776,10.586ZM.966,23.96A19.461,19.461,0,0,1,30.139,7.708l.389,1.063L26.672,13.45A12.749,12.749,0,0,0,7.779,22.827a3.827,3.827,0,1,0,1.255,7.5c.179.354.373.7.587,1.039a7.757,7.757,0,0,0-6.7,1.74A19.5,19.5,0,0,1,.966,23.96Zm.747,16.25a.479.479,0,0,1-.477-.418,6.414,6.414,0,0,1-.051-.8,6.847,6.847,0,0,1,6.839-6.841,6.76,6.76,0,0,1,4.723,1.908,8.927,8.927,0,0,0-1.3,4.659,8.537,8.537,0,0,0,.086,1.2,1.426,1.426,0,0,0,.076.291Zm26.657-.426a.484.484,0,0,1-.479.426H12.956a.484.484,0,0,1-.477-.426,7.534,7.534,0,0,1-.077-1.065,8.022,8.022,0,1,1,16.045,0,7.534,7.534,0,0,1-.077,1.065Zm11.34-.791a6.363,6.363,0,0,1-.051.8.479.479,0,0,1-.478.419h-9.94a1.426,1.426,0,0,0,.076-.291,8.538,8.538,0,0,0,.086-1.2,8.923,8.923,0,0,0-1.292-4.636,6.838,6.838,0,0,1,11.6,4.91Zm.18-14.42a19.5,19.5,0,0,1-1.96,8.5,7.75,7.75,0,0,0-6.709-1.693c.214-.34.41-.692.592-1.051a3.826,3.826,0,1,0,1.255-7.5,12.739,12.739,0,0,0-3.625-7.281c1.519-1.828,2.907-3.492,3.8-4.556l1.3.184a19.362,19.362,0,0,1,5.356,13.4Z" transform="translate(0.001 -0.468)" fill="#00223d"/>
      </g>
    </g>
  </g>
</svg>
