<svg xmlns="http://www.w3.org/2000/svg" width="67" height="57.311" viewBox="0 0 67 57.311">
  <g id="Grupo_1104242" data-name="Grupo 1104242" transform="translate(-180 -3219.281)">
    <path id="_12068" data-name="12068" d="M66.039,71.828c-6.861-.947-14.108-.716-20.351,2.283C37.03,78.27,31.344,87.7,31.126,97.3s4.784,19.038,12.512,24.741a35.81,35.81,0,0,0,27.37,6.013c9.53-1.727,18.474-7.326,23.445-15.638,3.187-5.33,4.677-11.911,2.916-17.867a24.409,24.409,0,0,0-5.793-9.521A42.8,42.8,0,0,0,66.039,71.828Z" transform="translate(148.881 3147.948)" fill="#26aab7"/>
    <g id="identidad-corporativa" transform="translate(193.15 3227.908)">
      <g id="Grupo_1104158" data-name="Grupo 1104158" transform="translate(0.596 0.596)">
        <path id="Trazado_881599" data-name="Trazado 881599" d="M421.273,297.2v4.816a3.577,3.577,0,0,1-3.577,3.577H414.09V303.2h3.6A1.193,1.193,0,0,0,418.878,302v-4.8a1.192,1.192,0,0,0-1.192-1.192h-3.6V293.62H417.7A3.577,3.577,0,0,1,421.273,297.2Z" transform="translate(-381.767 -270.874)" fill="#e8ecf9"/>
        <path id="Trazado_881600" data-name="Trazado 881600" d="M42.409,7.5l1.033,14.406L42.409,37.429H41.2a3.577,3.577,0,0,1-3.577-3.577V11.077A3.577,3.577,0,0,1,41.2,7.5Z" transform="translate(-35.226 -7.5)" fill="#7d6eb2"/>
        <path id="Trazado_881601" data-name="Trazado 881601" d="M119.4,11.077V33.851a3.578,3.578,0,0,1-3.577,3.577H97.851L99.54,23.794,97.851,7.5h17.971A3.578,3.578,0,0,1,119.4,11.077Z" transform="translate(-90.668 -7.5)" fill="#d2e1f1"/>
        <path id="Trazado_881602" data-name="Trazado 881602" d="M106.054,37.429h-8.2V7.5h8.2a3.7,3.7,0,0,0-1.861,3.234V34.195A3.7,3.7,0,0,0,106.054,37.429Z" transform="translate(-90.668 -7.5)" fill="#aee6e6"/>
        <g id="Grupo_1104155" data-name="Grupo 1104155" transform="translate(0 4.789)">
          <path id="Trazado_881603" data-name="Trazado 881603" d="M11.092,220.716H8.7a1.2,1.2,0,0,1,0-2.394h2.394a1.2,1.2,0,0,1,0,2.394Z" transform="translate(-7.5 -206.35)" fill="#36d49b"/>
          <path id="Trazado_881604" data-name="Trazado 881604" d="M11.092,296.01H8.7a1.2,1.2,0,0,1,0-2.394h2.394a1.2,1.2,0,0,1,0,2.394Z" transform="translate(-7.5 -275.659)" fill="#36d49b"/>
          <path id="Trazado_881605" data-name="Trazado 881605" d="M11.092,145.422H8.7a1.2,1.2,0,0,1,0-2.394h2.394a1.2,1.2,0,0,1,0,2.394Z" transform="translate(-7.5 -137.042)" fill="#36d49b"/>
          <path id="Trazado_881606" data-name="Trazado 881606" d="M11.092,70.128H8.7a1.2,1.2,0,1,1,0-2.394h2.394a1.2,1.2,0,1,1,0,2.394Z" transform="translate(-7.5 -67.734)" fill="#36d49b"/>
        </g>
        <path id="Trazado_881607" data-name="Trazado 881607" d="M180.333,181.113l-2.806,2.807h-7.939l-1.2-1.2.734-5.639,3.589-3.589a1.193,1.193,0,0,1,1.687,0l5.932,5.932A1.193,1.193,0,0,1,180.333,181.113Z" transform="translate(-155.6 -159.976)" fill="#7d6eb2"/>
        <path id="Trazado_881608" data-name="Trazado 881608" d="M146.448,222.689v6.373l-2.343-2.344a1.192,1.192,0,0,1,0-1.686Z" transform="translate(-132.924 -205.582)" fill="#62529b"/>
        <circle id="Elipse_11841" data-name="Elipse 11841" cx="2.993" cy="2.993" r="2.993" transform="translate(14.964 17.359)" fill="#ffd947"/>
        <path id="Trazado_881609" data-name="Trazado 881609" d="M180.75,294.817a1.2,1.2,0,0,1-1.2,1.2H167.937l-.836-.876.836-1.518h11.616A1.2,1.2,0,0,1,180.75,294.817Z" transform="translate(-154.413 -270.874)" fill="#a29cde"/>
        <path id="Trazado_881610" data-name="Trazado 881610" d="M131.918,293.62v2.394h-2.75a1.2,1.2,0,1,1,0-2.394Z" transform="translate(-118.394 -270.874)" fill="#827cd2"/>
        <path id="Trazado_881611" data-name="Trazado 881611" d="M250.142,264.693v14.384a3.578,3.578,0,0,1-3.577,3.577h-9.606a3.578,3.578,0,0,1-3.577-3.577v-6l4.25-9.426,1.485-.151h9.833A1.193,1.193,0,0,1,250.142,264.693Z" transform="translate(-215.424 -243.148)" fill="#f3f5fc"/>
        <path id="Trazado_881612" data-name="Trazado 881612" d="M240.645,282.654h-3.686a3.578,3.578,0,0,1-3.577-3.577V264.693a1.193,1.193,0,0,1,1.192-1.193h4.543a2.374,2.374,0,0,0-.806,1.786V279.3A3.579,3.579,0,0,0,240.645,282.654Z" transform="translate(-215.424 -243.148)" fill="#e8ecf9"/>
        <path id="Trazado_881613" data-name="Trazado 881613" d="M298.091,322.9l-2.358,2.358h-6.67l-.116-.116-.556-.556.556-5.344,2.743-2.743a1,1,0,0,1,1.417,0l4.984,4.984A1,1,0,0,1,298.091,322.9Z" transform="translate(-266.061 -291.661)" fill="#7d6eb2"/>
        <path id="Trazado_881614" data-name="Trazado 881614" d="M266.029,354.4v5.9l-2.241-2.242a1,1,0,0,1,0-1.417Z" transform="translate(-243.142 -326.821)" fill="#62529b"/>
        <circle id="Elipse_11842" data-name="Elipse 11842" cx="2.394" cy="2.394" r="2.394" transform="translate(23.943 28.731)" fill="#ffd947"/>
        <path id="Trazado_881615" data-name="Trazado 881615" d="M296.957,422.817a1.2,1.2,0,0,1-1.2,1.2h-8.24l-.679-1.038.679-1.355h8.24A1.2,1.2,0,0,1,296.957,422.817Z" transform="translate(-264.634 -388.698)" fill="#a29cde"/>
        <path id="Trazado_881616" data-name="Trazado 881616" d="M266.035,421.62v2.394H264.7a1.2,1.2,0,1,1,0-2.394Z" transform="translate(-243.149 -388.698)" fill="#827cd2"/>
        <g id="Grupo_1104157" data-name="Grupo 1104157" transform="translate(9.29 5.261)">
          <g id="Grupo_1104156" data-name="Grupo 1104156" transform="translate(0 0)">
            <ellipse id="Elipse_11843" data-name="Elipse 11843" cx="2.336" cy="1.861" rx="2.336" ry="1.861" transform="translate(0 0.842)" fill="#fff"/>
            <ellipse id="Elipse_11844" data-name="Elipse 11844" cx="2.336" cy="1.861" rx="2.336" ry="1.861" transform="translate(12.663 0.842)" fill="#fff"/>
            <path id="Trazado_881617" data-name="Trazado 881617" d="M213.457,74.947c0-1.164-.843-1.273-1.884-1.273s-1.884.109-1.884,1.273a1.9,1.9,0,1,0,3.767,0Z" transform="translate(-202.906 -73.674)" fill="#495560"/>
          </g>
        </g>
      </g>
      <g id="Grupo_1104159" data-name="Grupo 1104159" transform="translate(0 0)">
        <path id="Trazado_881618" data-name="Trazado 881618" d="M36.525,22.746H35.91V22.14a1.791,1.791,0,0,0-1.789-1.789h-4.2V4.174A4.178,4.178,0,0,0,25.751,0H23.5a.6.6,0,0,0,0,1.192h2.249a2.985,2.985,0,0,1,2.981,2.981V20.352H26.19a1.794,1.794,0,0,0-.439-.727l-5.932-5.932a1.788,1.788,0,0,0-2.53,0l-5.932,5.932a1.787,1.787,0,0,0,0,2.53l.592.592h-.577a1.793,1.793,0,1,0,0,3.586h6.587v3.6H8.375V25.839a.6.6,0,1,0-1.192,0v4.089H6.568a2.985,2.985,0,0,1-2.981-2.981v-.615h.6a1.793,1.793,0,1,0,0-3.587h-.6v-2.4h.6a1.793,1.793,0,0,0,0-3.587h-.6v-2.4h.6a1.793,1.793,0,0,0,0-3.587h-.6v-2.4h.6a1.793,1.793,0,0,0,0-3.587h-.6V4.174A2.985,2.985,0,0,1,6.568,1.192h.614V23.057a.6.6,0,1,0,1.192,0V1.192H20.719a.6.6,0,1,0,0-1.192H6.568A4.178,4.178,0,0,0,2.395,4.174v.615h-.6a1.793,1.793,0,0,0,0,3.587h.6v2.4h-.6a1.793,1.793,0,1,0,0,3.587h.6v2.4h-.6a1.793,1.793,0,0,0,0,3.587h.6v2.4h-.6a1.793,1.793,0,1,0,0,3.587h.6v.615a4.178,4.178,0,0,0,4.174,4.174H17.957v5.4A4.178,4.178,0,0,0,22.131,40.7h9.605a4.178,4.178,0,0,0,4.174-4.174V35.91h.615A4.178,4.178,0,0,0,40.7,31.737V26.92a4.178,4.178,0,0,0-4.174-4.174ZM1.193,6.582a.6.6,0,0,1,.6-.6H4.188a.6.6,0,0,1,0,1.2H1.793a.6.6,0,0,1-.6-.6Zm0,5.986a.6.6,0,0,1,.6-.6H4.188a.6.6,0,0,1,0,1.2H1.793a.6.6,0,0,1-.6-.6Zm0,5.986a.6.6,0,0,1,.6-.6H4.188a.6.6,0,0,1,0,1.2H1.793a.6.6,0,0,1-.6-.6Zm0,5.986a.6.6,0,0,1,.6-.6H4.188a.6.6,0,1,1,0,1.2H1.793a.6.6,0,0,1-.6-.6ZM35.91,26.332h.605a.6.6,0,0,1,.6.6v4.8a.6.6,0,0,1-.6.6H35.91ZM12.2,21.311a.6.6,0,0,1,0-.843l5.932-5.932a.6.6,0,0,1,.844,0l5.816,5.816h-2.7a3.589,3.589,0,1,0-6.645,2.395H13.634Zm5.758.829v.606H16.97a2.4,2.4,0,1,1,3.905-2.395h-1.13a1.791,1.791,0,0,0-1.789,1.789Zm-6.587,3a.6.6,0,1,1,0-1.2h6.587v1.2H11.371ZM34.718,36.525a2.985,2.985,0,0,1-2.981,2.981H22.131a2.985,2.985,0,0,1-2.981-2.981V22.14a.6.6,0,0,1,.6-.6H34.121a.6.6,0,0,1,.6.6Zm4.789-4.788a2.985,2.985,0,0,1-2.981,2.981H35.91v-1.2h.605A1.791,1.791,0,0,0,38.3,31.727v-4.8a1.791,1.791,0,0,0-1.789-1.789H35.91v-1.2h.615a2.985,2.985,0,0,1,2.981,2.981Z" transform="translate(0 0)" fill="#00223d"/>
        <path id="Trazado_881619" data-name="Trazado 881619" d="M267.926,317.17l.76-.76a1.6,1.6,0,0,0,0-2.26l-1.5-1.5a.6.6,0,1,0-.843.843l1.5,1.5a.406.406,0,0,1,0,.573l-1.511,1.511h-1.019a2.991,2.991,0,1,0-5.482,0h-1.02l-1.511-1.512a.4.4,0,0,1,0-.573l4.984-4.984a.405.405,0,0,1,.574,0l1.514,1.515a.6.6,0,1,0,.843-.843l-1.515-1.515a1.6,1.6,0,0,0-2.261,0l-4.983,4.983a1.6,1.6,0,0,0,0,2.26l.76.76a1.793,1.793,0,0,0,.566,3.495h9.577a1.793,1.793,0,0,0,.566-3.495Zm-7.152-1.291a1.8,1.8,0,1,1,3.6,0,1.778,1.778,0,0,1-.46,1.2h-2.676A1.776,1.776,0,0,1,260.774,315.878Zm6.586,3.594h-9.577a.6.6,0,1,1,0-1.2h9.577a.6.6,0,1,1,0,1.2Z" transform="translate(-235.638 -284.156)" fill="#00223d"/>
        <path id="Trazado_881620" data-name="Trazado 881620" d="M151.15,60.83v.954a.6.6,0,1,0,1.192,0V60.83a.6.6,0,1,0-1.192,0Z" transform="translate(-139.134 -55.445)" fill="#00223d"/>
        <path id="Trazado_881621" data-name="Trazado 881621" d="M204.67,66.175c-.742,0-2.48,0-2.48,1.87a2.489,2.489,0,1,0,4.96,0C207.15,66.175,205.412,66.175,204.67,66.175Zm0,3.381a1.415,1.415,0,0,1-1.287-1.512c0-.47.052-.677,1.287-.677s1.287.208,1.287.677A1.415,1.415,0,0,1,204.67,69.556Z" transform="translate(-186.116 -60.914)" fill="#00223d"/>
        <path id="Trazado_881622" data-name="Trazado 881622" d="M301.806,61.784V60.83a.6.6,0,1,0-1.192,0v.954a.6.6,0,1,0,1.192,0Z" transform="translate(-276.716 -55.445)" fill="#00223d"/>
      </g>
    </g>
  </g>
</svg>
