<svg xmlns="http://www.w3.org/2000/svg" width="67" height="59.184" viewBox="0 0 67 59.184">
  <g id="Grupo_1104243" data-name="Grupo 1104243" transform="translate(-228 -3661.754)">
    <g id="Grupo_1104160" data-name="Grupo 1104160" transform="translate(48 -88.397)">
      <path id="_12068" data-name="12068" d="M66.039,71.828c-6.861-.947-14.108-.716-20.351,2.283C37.03,78.27,31.344,87.7,31.126,97.3s4.784,19.038,12.512,24.741a35.81,35.81,0,0,0,27.37,6.013c9.53-1.727,18.474-7.326,23.445-15.638,3.187-5.33,4.677-11.911,2.916-17.867a24.409,24.409,0,0,0-5.793-9.521A42.8,42.8,0,0,0,66.039,71.828Z" transform="translate(148.881 3680.691)" fill="#26aab7"/>
      <path id="Trazado_873155" data-name="Trazado 873155" d="M303.26,44.546a1.582,1.582,0,1,0-.106-2.456A1.573,1.573,0,0,0,303.26,44.546Z" transform="translate(138.287 4055.916) rotate(-90)" fill="#7d6eb2"/>
      <path id="Trazado_873156" data-name="Trazado 873156" d="M321.56,66.974a3.448,3.448,0,1,0-1.687-4.918A3.468,3.468,0,0,0,321.56,66.974Z" transform="translate(128.241 4079.581) rotate(-90)" fill="#ffd947"/>
      <circle id="Elipse_11521" data-name="Elipse 11521" cx="3.689" cy="3.689" r="3.689" transform="translate(237.702 3796.368) rotate(-90)" fill="none" stroke="#fff" stroke-linecap="round" stroke-linejoin="round" stroke-width="1.5"/>
    </g>
    <g id="Artboard361" transform="translate(231.961 3665.253)">
      <g id="Grupo_1104168" data-name="Grupo 1104168" transform="translate(9.386 7)">
        <g id="Grupo_1104167" data-name="Grupo 1104167" transform="translate(2.671 3.485)">
          <g id="Grupo_1104162" data-name="Grupo 1104162" transform="translate(0.502)">
            <path id="Trazado_881623" data-name="Trazado 881623" d="M94.927,223.836H92.29v1.213a.8.8,0,0,0,.8.8h1.038a.8.8,0,0,0,.8-.8Z" transform="translate(-88.66 -209.529)" fill="#b1b1b5" fill-rule="evenodd"/>
            <path id="Trazado_881624" data-name="Trazado 881624" d="M82.072,204.844l.018,1.172a.807.807,0,0,0,.8.8h2.678a.8.8,0,0,0,.8-.8l-.017-1.172C84.954,204.888,83.478,204.844,82.072,204.844Z" transform="translate(-79.281 -192.095)" fill="#d1d1d6" fill-rule="evenodd"/>
            <path id="Trazado_881625" data-name="Trazado 881625" d="M55.917,60.994c.236-4.029,1.982-3.866,1.982-6.6a4.922,4.922,0,1,0-9.843,0c0,2.733,1.745,2.57,1.983,6.6.106.8.56.975.823.975C54.778,61.969,55.472,62.357,55.917,60.994Z" transform="translate(-48.056 -49.473)" fill="#ffd947" fill-rule="evenodd"/>
            <path id="Trazado_881626" data-name="Trazado 881626" d="M107.917,60.994c.236-4.029,1.982-3.866,1.982-6.6a4.922,4.922,0,0,0-4.922-4.922c-.091,0-.182,0-.273.008a4.923,4.923,0,0,1,4.648,4.914c0,2.733-1.746,2.57-1.983,6.6-.263.809-.615,1-1.677,1.024C107.191,62.04,107.613,61.928,107.917,60.994Z" transform="translate(-100.057 -49.473)" fill="#ffd064" fill-rule="evenodd"/>
            <path id="Trazado_881627" data-name="Trazado 881627" d="M118.013,206.816h.547a.8.8,0,0,0,.8-.8l-.017-1.172c-.181.006-.363.01-.546.013l.017,1.158a.8.8,0,0,1-.8.8Z" transform="translate(-112.273 -192.095)" fill="#b1b1b5" fill-rule="evenodd"/>
            <path id="Trazado_881628" data-name="Trazado 881628" d="M72.217,189.88v.8a.8.8,0,0,0,.8.8H77.3a.8.8,0,0,0,.8-.8v-.8Z" transform="translate(-70.235 -178.359)" fill="#eceff1" fill-rule="evenodd"/>
            <path id="Trazado_881629" data-name="Trazado 881629" d="M127.433,191.48h.547a.8.8,0,0,0,.8-.8v-.8h-.547v.8A.8.8,0,0,1,127.433,191.48Z" transform="translate(-120.92 -178.359)" fill="#d1d1d6" fill-rule="evenodd"/>
          </g>
          <g id="Grupo_1104163" data-name="Grupo 1104163" transform="translate(21.749 23.79)">
            <path id="Trazado_881630" data-name="Trazado 881630" d="M349.616,436.054v-5.023h-1.893v3.846a1.4,1.4,0,0,0,1.4,1.4h.265A.226.226,0,0,0,349.616,436.054Z" transform="translate(-344.381 -423.512)" fill="#ddb829" fill-rule="evenodd"/>
            <path id="Trazado_881631" data-name="Trazado 881631" d="M349.616,436.054v-5.023h-.265v5.023a.226.226,0,0,1-.225.225h.265A.226.226,0,0,0,349.616,436.054Z" transform="translate(-344.381 -423.512)" fill="#c48958" fill-rule="evenodd"/>
            <path id="Trazado_881632" data-name="Trazado 881632" d="M460.933,390.658a1.508,1.508,0,0,0-1.508-1.508h-.252v3.013l.252,0A1.508,1.508,0,0,0,460.933,390.658Z" transform="translate(-446.686 -385.068)" fill="#26aab7" fill-rule="evenodd"/>
            <path id="Trazado_881633" data-name="Trazado 881633" d="M460.933,390.658a1.508,1.508,0,0,0-1.508-1.508h-.252v.348l.252,0a1.509,1.509,0,0,1,1.5,1.335A1.544,1.544,0,0,0,460.933,390.658Z" transform="translate(-446.686 -385.068)" fill="#c48958" fill-rule="evenodd"/>
            <path id="Trazado_881634" data-name="Trazado 881634" d="M312.231,347.51h-2.682a2.553,2.553,0,0,1,0-5.105h2.682c2.279-.469,4.441-1.871,6.275-2.9a.775.775,0,0,1,1.155.675v9.458a.775.775,0,0,1-1.19.655A17.081,17.081,0,0,0,312.231,347.51Z" transform="translate(-306.996 -339.4)" fill="#ffd947" fill-rule="evenodd"/>
            <path id="Trazado_881635" data-name="Trazado 881635" d="M307.027,345.349a2.511,2.511,0,0,1-.031-.393,2.56,2.56,0,0,1,2.553-2.552h2.682c2.279-.469,4.441-1.871,6.275-2.9a.775.775,0,0,1,1.155.675v.785a.775.775,0,0,0-1.155-.675c-1.835,1.032-4,2.432-6.275,2.9h-2.682A2.563,2.563,0,0,0,307.027,345.349Z" transform="translate(-306.996 -339.4)" fill="#ffd064" fill-rule="evenodd"/>
            <path id="Trazado_881636" data-name="Trazado 881636" d="M438.03,349.635v-9.458a.775.775,0,0,0-1.155-.675c-.3.169-.612.349-.93.533v9.7c.3.184.6.371.894.557a.775.775,0,0,0,1.19-.655Z" transform="translate(-425.364 -339.4)" fill="#7d6eb2" fill-rule="evenodd"/>
            <path id="Trazado_881637" data-name="Trazado 881637" d="M438.03,340.962v-.784a.775.775,0,0,0-1.155-.675c-.3.169-.612.349-.93.533v.784c.318-.183.629-.363.93-.532a.775.775,0,0,1,1.155.674Z" transform="translate(-425.364 -339.4)" fill="#685e68" fill-rule="evenodd"/>
            <path id="Trazado_881638" data-name="Trazado 881638" d="M312.231,381.124v-5.105h-2.682a2.553,2.553,0,0,0,0,5.105Z" transform="translate(-306.996 -373.014)" fill="#62529b" fill-rule="evenodd"/>
            <path id="Trazado_881639" data-name="Trazado 881639" d="M312.231,376.8v-.784h-2.682A2.56,2.56,0,0,0,307,378.571a2.507,2.507,0,0,0,.031.393,2.563,2.563,0,0,1,2.522-2.16Z" transform="translate(-306.996 -373.014)" fill="#685e68" fill-rule="evenodd"/>
          </g>
          <g id="Grupo_1104164" data-name="Grupo 1104164" transform="translate(23.792 1.175)">
            <path id="Trazado_881640" data-name="Trazado 881640" d="M332.7,74.062l9.869-9.869a1.377,1.377,0,0,1,1.943,0l.389.389a1.376,1.376,0,0,1,0,1.943l-9.869,9.869-2.96.793a.134.134,0,0,1-.164-.164Z" transform="translate(-331.9 -63.791)" fill="#7d6eb2" fill-rule="evenodd"/>
            <path id="Trazado_881641" data-name="Trazado 881641" d="M344.363,67.113a1.49,1.49,0,0,1,.148.128l.389.389a1.376,1.376,0,0,1,0,1.943l-9.869,9.869-2.96.793a.134.134,0,0,1-.164-.164l.182-.682,2.278-.611,9.869-9.869A1.377,1.377,0,0,0,344.363,67.113Z" transform="translate(-331.901 -66.84)" fill="#7d6eb2" fill-rule="evenodd"/>
            <path id="Trazado_881642" data-name="Trazado 881642" d="M331.906,191.921l.793-2.96,2.331,2.331-2.96.793a.134.134,0,0,1-.164-.164Z" transform="translate(-331.901 -178.69)" fill="#ffd947" fill-rule="evenodd"/>
            <path id="Trazado_881643" data-name="Trazado 881643" d="M331.905,210.566l.182-.682,2.278-.611.664.664-2.96.793a.134.134,0,0,1-.164-.164Z" transform="translate(-331.9 -197.336)" fill="#7d6eb2" fill-rule="evenodd"/>
            <path id="Trazado_881644" data-name="Trazado 881644" d="M451.96,65.009l.816-.816a1.377,1.377,0,0,1,1.943,0l.389.389a1.376,1.376,0,0,1,0,1.943l-.816.816Z" transform="translate(-442.109 -63.791)" fill="#62529b" fill-rule="evenodd"/>
            <path id="Trazado_881645" data-name="Trazado 881645" d="M473.217,67.113a1.492,1.492,0,0,1,.148.128l.389.389a1.376,1.376,0,0,1,0,1.943l-.816.816-.664-.664.816-.816A1.377,1.377,0,0,0,473.217,67.113Z" transform="translate(-460.755 -66.84)" fill="#453776" fill-rule="evenodd"/>
          </g>
          <g id="Grupo_1104165" data-name="Grupo 1104165" transform="translate(8.713 10.692)">
            <path id="Trazado_881646" data-name="Trazado 881646" d="M246.429,299.373l-3.131,2.6,1.679,3.9a.168.168,0,0,0,.3.021l1.084-1.746,2.013.412a.169.169,0,0,0,.189-.232Z" transform="translate(-235.489 -289.56)" fill="#fff" fill-rule="evenodd"/>
            <path id="Trazado_881647" data-name="Trazado 881647" d="M264.072,299.373l-.414.343,1.985,4.608a.167.167,0,0,1-.01.154l.383.078a.169.169,0,0,0,.189-.232Zm-1.554,6.258.1.238a.168.168,0,0,0,.3.021L264,304.144l-.5-.1Z" transform="translate(-253.132 -289.56)" fill="#fd4755" fill-rule="evenodd"/>
            <path id="Trazado_881648" data-name="Trazado 881648" d="M160.218,310.725l-2.251,4.836a.168.168,0,0,1-.3.013l-1.032-1.776-2.026.353a.168.168,0,0,1-.181-.237l2.226-4.783Z" transform="translate(-153.898 -298.517)" fill="#fff" fill-rule="evenodd"/>
            <path id="Trazado_881649" data-name="Trazado 881649" d="M160.218,326.443l-2.251,4.836a.168.168,0,0,1-.3.013l-1.032-1.776-2.026.353a.168.168,0,0,1-.181-.237l.137-.294,1.786-.312,1.033,1.778a.169.169,0,0,0,.3-.013l2.111-4.536Z" transform="translate(-153.898 -314.235)" fill="#fd4755" fill-rule="evenodd"/>
            <path id="Trazado_881650" data-name="Trazado 881650" d="M155.787,180.071c1.346,1.007,1.042.9,2.72.99a1.414,1.414,0,0,1,1.316,1.1,3.43,3.43,0,0,0,.661,1.768l.787.739a1.415,1.415,0,0,1,.3,1.691c-.758,1.5-.7,1.18-.5,2.849a1.415,1.415,0,0,1-.859,1.488c-1.546.662-1.3.453-2.217,1.86a1.414,1.414,0,0,1-1.614.587c-1.61-.486-1.286-.486-2.9,0a1.414,1.414,0,0,1-1.614-.587c-.92-1.407-.672-1.2-2.218-1.86a1.416,1.416,0,0,1-.858-1.488c.2-1.669.256-1.349-.5-2.849a1.415,1.415,0,0,1,.3-1.691c1.226-1.151,1.064-.87,1.448-2.507a1.414,1.414,0,0,1,1.316-1.1c1.678-.094,1.374.017,2.719-.99A1.414,1.414,0,0,1,155.787,180.071Z" transform="translate(-148.131 -179.78)" fill="#aee6e6" fill-rule="evenodd"/>
            <path id="Trazado_881651" data-name="Trazado 881651" d="M206.794,180.073c1.346,1.007,1.042.9,2.72.99a1.414,1.414,0,0,1,1.316,1.1,3.429,3.429,0,0,0,.661,1.768l.787.739a1.415,1.415,0,0,1,.3,1.691c-.758,1.5-.7,1.18-.5,2.849a1.415,1.415,0,0,1-.859,1.488c-1.546.662-1.3.453-2.217,1.86a1.414,1.414,0,0,1-1.559.6,1.42,1.42,0,0,0,.823-.6c.92-1.407.671-1.2,2.217-1.86a1.417,1.417,0,0,0,.859-1.488c-.2-1.669-.256-1.349.5-2.849a1.414,1.414,0,0,0-.3-1.691l-.787-.739a3.429,3.429,0,0,1-.66-1.768,1.415,1.415,0,0,0-1.316-1.1c-1.679-.094-1.374.017-2.72-.99a1.433,1.433,0,0,0-.491-.241,1.412,1.412,0,0,1,1.227.241Zm-1.227,12.759c-.246.057-.563.162-1.079.318a1.431,1.431,0,0,1-.791.015.547.547,0,0,0,.055-.015C204.846,192.82,205.047,192.714,205.568,192.832Z" transform="translate(-199.139 -179.782)" fill="#26aab7" fill-rule="evenodd"/>
            <path id="Trazado_881652" data-name="Trazado 881652" d="M186.1,220.768a4.011,4.011,0,1,0-4.012-4.012A4.019,4.019,0,0,0,186.1,220.768Z" transform="translate(-179.298 -210.041)" fill="#f6f6f6" fill-rule="evenodd"/>
            <path id="Trazado_881653" data-name="Trazado 881653" d="M186.1,212.746c.108,0,.215,0,.321.012a4.012,4.012,0,0,0,0,8c-.106.008-.213.012-.321.012a4.011,4.011,0,1,1,0-8.022Z" transform="translate(-179.298 -210.041)" fill="#d1d1d6" fill-rule="evenodd"/>
          </g>
          <g id="Grupo_1104166" data-name="Grupo 1104166" transform="translate(0 24.882)">
            <path id="Trazado_881654" data-name="Trazado 881654" d="M47.6,352.883l1.235,3.248a.247.247,0,0,0,.227.165l3.472.171a.257.257,0,0,1,.149.456L49.972,359.1a.249.249,0,0,0-.088.267l.912,3.355a.258.258,0,0,1-.389.283L47.5,361.1a.249.249,0,0,0-.283,0l-2.909,1.9a.256.256,0,0,1-.387-.283l.912-3.355a.254.254,0,0,0-.088-.267l-2.709-2.179a.256.256,0,0,1,.149-.456l3.472-.171a.25.25,0,0,0,.227-.165l1.235-3.248A.257.257,0,0,1,47.6,352.883Z" transform="translate(-41.939 -352.717)" fill="#ffd947" fill-rule="evenodd"/>
            <path id="Trazado_881655" data-name="Trazado 881655" d="M73.489,356.414l1.1.053a.257.257,0,0,1,.149.456L72.028,359.1a.249.249,0,0,0-.088.267l.912,3.355a.258.258,0,0,1-.389.283l-.752-.493-.869-3.2a.249.249,0,0,1,.088-.267l2.709-2.179A.256.256,0,0,0,73.489,356.414Zm-3.835-3.531,1.235,3.248a.244.244,0,0,0,.224.165l-1.1-.053a.247.247,0,0,1-.227-.165l-.915-2.408.3-.787A.257.257,0,0,1,69.654,352.883Zm-.1,8.219a.249.249,0,0,0-.283,0l-2.909,1.9a.256.256,0,0,1-.387-.283l.077-.288,2.629-1.72a.254.254,0,0,1,.28,0Z" transform="translate(-63.995 -352.717)" fill="#d6b225" fill-rule="evenodd"/>
          </g>
        </g>
        <path id="Trazado_881656" data-name="Trazado 881656" d="M22.446,32.694l-.277-.116a2.044,2.044,0,0,1-1.244-2.15,5.46,5.46,0,0,0,.112-1.28,5.414,5.414,0,0,0-.543-1.164h0a2.046,2.046,0,0,1,.433-2.446,5.435,5.435,0,0,0,.907-.909,5.44,5.44,0,0,0,.332-1.241h0a2.049,2.049,0,0,1,1.9-1.6h0a5.438,5.438,0,0,0,1.28-.112A5.446,5.446,0,0,0,26.4,20.94a2.046,2.046,0,0,1,2.484,0,5.448,5.448,0,0,0,1.053.737,5.438,5.438,0,0,0,1.28.112h0a2.044,2.044,0,0,1,1.9,1.6,5.439,5.439,0,0,0,.333,1.241,5.445,5.445,0,0,0,.907.909,2.049,2.049,0,0,1,.433,2.447h0a5.444,5.444,0,0,0-.544,1.164,5.4,5.4,0,0,0,.113,1.279v0a2.045,2.045,0,0,1-1.183,2.122l1.4,3.26a.656.656,0,0,1-.735.9l-1.856-.38-1,1.609a.656.656,0,0,1-1.162-.091l-1.233-2.918a3.519,3.519,0,0,0-.948-.241,1.525,1.525,0,0,0-.438.08l-1.8,3.826a.656.656,0,0,1-1.162.051l-.952-1.638-1.866.327a.656.656,0,0,1-.709-.923Zm9.542.4-.031.025a5.414,5.414,0,0,0-.736,1.053h0a2.062,2.062,0,0,1-1.159.862l.48,1.135.572-.921a.656.656,0,0,1,.689-.3l1.075.22ZM25.6,35.107a2.047,2.047,0,0,1-1.528-.932h0c-.238-.364-.38-.607-.5-.781l-1.129,2.434,1.079-.189a.657.657,0,0,1,.681.317l.553.951Zm2.5-13.115a.751.751,0,0,0-.911,0h0a6.274,6.274,0,0,1-1.39.919,6.264,6.264,0,0,1-1.655.189.752.752,0,0,0-.7.585,6.262,6.262,0,0,1-.473,1.6,6.271,6.271,0,0,1-1.146,1.21l0,0a.749.749,0,0,0-.157.9,6.237,6.237,0,0,1,.664,1.528,6.283,6.283,0,0,1-.1,1.663h0a.747.747,0,0,0,.454.787h0a6.256,6.256,0,0,1,1.491.745,6.284,6.284,0,0,1,.992,1.34.75.75,0,0,0,.856.311h0a6.262,6.262,0,0,1,1.619-.388,6.278,6.278,0,0,1,1.62.388h0a.75.75,0,0,0,.855-.311,6.242,6.242,0,0,1,.991-1.341,6.276,6.276,0,0,1,1.492-.744h0a.75.75,0,0,0,.454-.788,6.231,6.231,0,0,1-.1-1.663,6.269,6.269,0,0,1,.665-1.528.752.752,0,0,0-.158-.9h0a6.283,6.283,0,0,1-1.146-1.21,6.279,6.279,0,0,1-.475-1.6v0a.748.748,0,0,0-.7-.583,6.265,6.265,0,0,1-1.655-.189,6.274,6.274,0,0,1-1.39-.919Zm-.457,10.449a4.622,4.622,0,1,1,4.622-4.622,4.632,4.632,0,0,1-4.622,4.622Zm0-1.313a3.309,3.309,0,1,0-3.309-3.309A3.315,3.315,0,0,0,27.644,31.128Zm-13.762-9.1a7.369,7.369,0,0,0-1.268-3.952A4.882,4.882,0,0,1,11.9,15.4a5.58,5.58,0,0,1,11.16,0,4.882,4.882,0,0,1-.715,2.667,7.375,7.375,0,0,0-1.269,3.968V22.8a1.461,1.461,0,0,1-.8,1.3v.3a1.462,1.462,0,0,1-.822,1.31v.291A1.462,1.462,0,0,1,18,27.462H16.958A1.464,1.464,0,0,1,15.5,26.005v-.291a1.46,1.46,0,0,1-.82-1.309v-.3a1.46,1.46,0,0,1-.8-1.3Zm5.879.637H15.194V22.8a.144.144,0,0,0,.144.144h4.28a.143.143,0,0,0,.142-.144Zm-.8,1.6H15.995V24.4a.144.144,0,0,0,.144.144h2.68a.144.144,0,0,0,.144-.144Zm-.822,1.6H16.815v.144a.144.144,0,0,0,.144.144H18a.144.144,0,0,0,.142-.144Zm.844-4.514h.829a7.793,7.793,0,0,1,1.117-3.458,4.267,4.267,0,1,0-6.9,0,7.794,7.794,0,0,1,1.117,3.458h.829V17.241h-.489a1.8,1.8,0,1,1,1.8-1.8v.487h.387v-.487a1.8,1.8,0,1,1,1.8,1.8h-.489Zm-1.7,0h.387V17.241h-.387Zm1.7-5.42h.489a.488.488,0,1,0-.489-.487Zm-3.012,0v-.487a.488.488,0,1,0-.489.487ZM36.49,43.04h-.132a3.21,3.21,0,1,1,0-6.42h2.615a22.64,22.64,0,0,0,6.02-2.817h0a1.432,1.432,0,0,1,2.134,1.248v2.644a2.166,2.166,0,0,1,0,4.17v2.644a1.432,1.432,0,0,1-2.2,1.21h0A18.2,18.2,0,0,0,39.7,43.191v3.851a.656.656,0,0,1-.656.656H38.55a2.065,2.065,0,0,1-2.06-2.06Zm10.638-3.881V40.4a.852.852,0,0,0,0-1.241ZM39.7,41.843a14.905,14.905,0,0,1,4.033,1.621v-7.43A17.925,17.925,0,0,1,39.7,37.8Zm5.346,2.4q.3.183.588.368a.118.118,0,0,0,.123,0,.115.115,0,0,0,.061-.1V35.05a.119.119,0,0,0-.179-.1q-.291.164-.593.338Zm-6.659-6.308H36.358a1.9,1.9,0,1,0,0,3.795h2.027Zm0,5.107H37.8v2.6a.749.749,0,0,0,.582.728ZM18.135,8.816a.656.656,0,1,1-1.313,0V7.656a.656.656,0,1,1,1.313,0Zm-3.8.667a.656.656,0,0,1-1.137.656l-.579-1a.656.656,0,1,1,1.137-.656Zm-2.958,2.479a.656.656,0,1,1-.657,1.137l-1-.581a.656.656,0,1,1,.657-1.137ZM21.759,10.14a.656.656,0,0,1-1.137-.657l.581-1a.656.656,0,1,1,1.137.657Zm2.48,2.959a.656.656,0,1,1-.658-1.136l1-.581a.656.656,0,0,1,.658,1.136Zm11.984,8.27L45.9,11.7a2,2,0,0,1,2.831,0l.382.379,0,0a2.012,2.012,0,0,1,0,2.832l-9.674,9.674a.656.656,0,0,1-.294.17l-3.122.837a.656.656,0,0,1-.8-.8l.837-3.122A.656.656,0,0,1,36.222,21.369ZM45.248,14.2l-7.633,7.633,1.356,1.356L46.6,15.556Zm2.285.428.649-.649a.7.7,0,0,0,0-.977l-.381-.378,0,0a.686.686,0,0,0-.971,0h0l-.649.649ZM37.026,23.1l-.248.925.925-.248ZM15.482,38.3l1.142-3a.914.914,0,0,1,1.708,0l1.142,3,3.208.158a.913.913,0,0,1,.531,1.623L20.706,42.1l.842,3.1a.913.913,0,0,1-1.377,1.009h0l-2.692-1.762L14.788,46.2l0,0a.916.916,0,0,1-1.38-1h0l.843-3.1-2.505-2.014a.913.913,0,0,1,.526-1.625Zm-2.1,1.417,1.886,1.517a.892.892,0,0,1,.315.948v.005l-.636,2.341L16.973,43.2a.89.89,0,0,1,1.007,0l2.026,1.326-.636-2.34v-.005a.891.891,0,0,1,.315-.948l1.887-1.517L19.147,39.6h0a.891.891,0,0,1-.807-.588l-.862-2.266-.861,2.266a.891.891,0,0,1-.807.589h0Zm.982-4.168a.656.656,0,0,1-1.2.531,15.873,15.873,0,0,1-.885-10.173.656.656,0,0,1,1.275.314,14.56,14.56,0,0,0,.811,9.328Zm18.178,7.806a.656.656,0,0,1,.444,1.236,15.884,15.884,0,0,1-9.481.379A.656.656,0,1,1,23.85,43.7a14.572,14.572,0,0,0,8.694-.348Zm8.884-18.2a.656.656,0,0,1,1.247-.411,15.913,15.913,0,0,1,.642,7.124.656.656,0,1,1-1.3-.179,14.625,14.625,0,0,0,.136-2,14.477,14.477,0,0,0-.725-4.537Zm-15.263-9.9a.656.656,0,0,1-.133-1.306,15.976,15.976,0,0,1,1.612-.081,15.747,15.747,0,0,1,9.515,3.183.656.656,0,0,1-.791,1.048,14.439,14.439,0,0,0-8.724-2.918,14.642,14.642,0,0,0-1.479.075Z" transform="translate(-9.386 -7)" fill="#00223d" fill-rule="evenodd"/>
      </g>
    </g>
  </g>
</svg>
