<svg xmlns="http://www.w3.org/2000/svg" width="67" height="59.184" viewBox="0 0 67 59.184">
  <g id="Grupo_1104244" data-name="Grupo 1104244" transform="translate(-180 -8487.91)">
    <g id="Grupo_1104180" data-name="Grupo 1104180" transform="translate(0 4737.759)">
      <path id="_12068" data-name="12068" d="M66.039,71.828c-6.861-.947-14.108-.716-20.351,2.283C37.03,78.27,31.344,87.7,31.126,97.3s4.784,19.038,12.512,24.741a35.81,35.81,0,0,0,27.37,6.013c9.53-1.727,18.474-7.326,23.445-15.638,3.187-5.33,4.677-11.911,2.916-17.867a24.409,24.409,0,0,0-5.793-9.521A42.8,42.8,0,0,0,66.039,71.828Z" transform="translate(148.881 3680.691)" fill="#26aab7"/>
      <path id="Trazado_873155" data-name="Trazado 873155" d="M303.26,44.546a1.582,1.582,0,1,0-.106-2.456A1.573,1.573,0,0,0,303.26,44.546Z" transform="translate(138.287 4055.916) rotate(-90)" fill="#7d6eb2"/>
      <path id="Trazado_873156" data-name="Trazado 873156" d="M321.56,66.974a3.448,3.448,0,1,0-1.687-4.918A3.468,3.468,0,0,0,321.56,66.974Z" transform="translate(128.241 4079.581) rotate(-90)" fill="#ffd947"/>
      <circle id="Elipse_11521" data-name="Elipse 11521" cx="3.689" cy="3.689" r="3.689" transform="translate(237.702 3796.368) rotate(-90)" fill="none" stroke="#fff" stroke-linecap="round" stroke-linejoin="round" stroke-width="1.5"/>
    </g>
    <g id="estrategia-de-mercadeo" transform="translate(187.423 8495.798)">
      <g id="Grupo_1104182" data-name="Grupo 1104182" transform="translate(21.236 23.756)">
        <path id="Trazado_881669" data-name="Trazado 881669" d="M201.773,281.565v1.182a2.147,2.147,0,0,1-4.282,0v-1.182Z" transform="translate(-197.491 -281.565)" fill="#7ca1b1" fill-rule="evenodd"/>
      </g>
      <g id="Grupo_1104183" data-name="Grupo 1104183" transform="translate(21.236 23.756)">
        <path id="Trazado_881670" data-name="Trazado 881670" d="M200.192,284.662a2.307,2.307,0,0,1-.56.069,2.073,2.073,0,0,1-2.141-1.984v-1.182h1.12v1.182A2.024,2.024,0,0,0,200.192,284.662Z" transform="translate(-197.491 -281.565)" fill="#678d98" fill-rule="evenodd"/>
      </g>
      <g id="Grupo_1104184" data-name="Grupo 1104184" transform="translate(19.482 21.019)">
        <path id="Trazado_881671" data-name="Trazado 881671" d="M184.082,248.492v2.233a1.067,1.067,0,0,1-1.1,1.021h-5.589a1.065,1.065,0,0,1-1.1-1.021v-2.233Z" transform="translate(-176.292 -248.492)" fill="#a8d3d8" fill-rule="evenodd"/>
      </g>
      <g id="Grupo_1104185" data-name="Grupo 1104185" transform="translate(19.482 21.019)">
        <path id="Trazado_881672" data-name="Trazado 881672" d="M178.515,251.746h-1.123a1.065,1.065,0,0,1-1.1-1.021v-2.233h1.12v2.233A1.066,1.066,0,0,0,178.515,251.746Z" transform="translate(-176.293 -248.492)" fill="#8ebac5" fill-rule="evenodd"/>
      </g>
      <g id="Grupo_1104186" data-name="Grupo 1104186" transform="translate(15.545 5.433)">
        <path id="Trazado_881673" data-name="Trazado 881673" d="M136.536,60.121a7.749,7.749,0,0,1,7.83,7.664c0,4.569-3,4.555-3,7.365a.876.876,0,0,1-.883.866h-7.9a.878.878,0,0,1-.883-.866c0-2.81-3-2.8-3-7.365a7.749,7.749,0,0,1,7.832-7.664Z" transform="translate(-128.704 -60.121)" fill="#ffd947" fill-rule="evenodd"/>
      </g>
      <g id="Grupo_1104187" data-name="Grupo 1104187" transform="translate(15.545 5.433)">
        <path id="Trazado_881674" data-name="Trazado 881674" d="M136.538,60.121c.187,0,.375.007.56.019a7.737,7.737,0,0,0-7.272,7.645c0,4.569,3,4.555,3,7.365a.878.878,0,0,0,.883.866h-1.12a.878.878,0,0,1-.883-.866c0-2.81-3-2.8-3-7.365a7.749,7.749,0,0,1,7.832-7.664Z" transform="translate(-128.706 -60.121)" fill="#deac2f" fill-rule="evenodd"/>
      </g>
      <g id="Grupo_1104198" data-name="Grupo 1104198" transform="translate(23.312 22.417)">
        <g id="Grupo_1104188" data-name="Grupo 1104188" transform="translate(17.805 7.244)">
          <path id="Trazado_881675" data-name="Trazado 881675" d="M440.413,352.923a2.64,2.64,0,1,1-2.642,2.639A2.64,2.64,0,0,1,440.413,352.923Z" transform="translate(-437.771 -352.923)" fill="#d7f1ff" fill-rule="evenodd"/>
        </g>
        <g id="Grupo_1104189" data-name="Grupo 1104189" transform="translate(0 7.908)">
          <path id="Trazado_881676" data-name="Trazado 881676" d="M223.435,360.955h3.449a.857.857,0,0,1,.854.854v2.243a.857.857,0,0,1-.854.854h-3.449a.857.857,0,0,1-.854-.854v-2.243A.857.857,0,0,1,223.435,360.955Z" transform="translate(-222.581 -360.955)" fill="#d7f1ff" fill-rule="evenodd"/>
        </g>
        <g id="Grupo_1104190" data-name="Grupo 1104190" transform="translate(0 7.908)">
          <path id="Trazado_881677" data-name="Trazado 881677" d="M223.435,360.955h3.449a.857.857,0,0,1,.854.854v1.1a.857.857,0,0,0-.854-.854h-3.449a.857.857,0,0,0-.854.854v-1.1A.857.857,0,0,1,223.435,360.955Z" transform="translate(-222.581 -360.955)" fill="#c4e4f5" fill-rule="evenodd"/>
        </g>
        <g id="Grupo_1104191" data-name="Grupo 1104191" transform="translate(4.571 10.068)">
          <path id="Trazado_881678" data-name="Trazado 881678" d="M278.731,387.058h1.158a.907.907,0,0,1,.9.9v8.077a.9.9,0,0,1-.9.9h-1.158a.905.905,0,0,1-.9-.9v-8.077A.907.907,0,0,1,278.731,387.058Z" transform="translate(-277.827 -387.058)" fill="#a3cbef" fill-rule="evenodd"/>
        </g>
        <g id="Grupo_1104192" data-name="Grupo 1104192" transform="translate(18.225 7.244)">
          <path id="Trazado_881679" data-name="Trazado 881679" d="M445.07,352.923a2.641,2.641,0,0,1,1.813,4.559,2.641,2.641,0,0,0-4.035-3.349A2.638,2.638,0,0,1,445.07,352.923Z" transform="translate(-442.849 -352.923)" fill="#c4e4f5" fill-rule="evenodd"/>
        </g>
        <g id="Grupo_1104193" data-name="Grupo 1104193" transform="translate(3.088 2.015)">
          <path id="Trazado_881680" data-name="Trazado 881680" d="M266.262,300.834l8.029,4.633V289.731l-8.029,4.633H259.9v6.47Z" transform="translate(-259.899 -289.731)" fill="#d7f1ff" fill-rule="evenodd"/>
        </g>
        <g id="Grupo_1104194" data-name="Grupo 1104194" transform="translate(17.48)">
          <path id="Trazado_881681" data-name="Trazado 881681" d="M434.746,265.378H435.9a.909.909,0,0,1,.9.9v17.96a.907.907,0,0,1-.9.9h-1.158a.905.905,0,0,1-.9-.9v-17.96A.907.907,0,0,1,434.746,265.378Z" transform="translate(-433.842 -265.378)" fill="#7d6eb2" fill-rule="evenodd"/>
        </g>
        <g id="Grupo_1104195" data-name="Grupo 1104195" transform="translate(3.088 6.648)">
          <path id="Trazado_881682" data-name="Trazado 881682" d="M266.262,345.723H259.9v6.47h6.363Z" transform="translate(-259.899 -345.723)" fill="#7d6eb2" fill-rule="evenodd"/>
        </g>
        <g id="Grupo_1104196" data-name="Grupo 1104196" transform="translate(17.497)">
          <path id="Trazado_881683" data-name="Trazado 881683" d="M434.931,265.378h1.158a.909.909,0,0,1,.9.9v17.96a.905.905,0,0,1-.9.9.958.958,0,0,0,.017-.166v-17.96a.907.907,0,0,0-.9-.9h-1.165A.906.906,0,0,1,434.931,265.378Z" transform="translate(-434.043 -265.378)" fill="#62529b" fill-rule="evenodd"/>
        </g>
        <g id="Grupo_1104197" data-name="Grupo 1104197" transform="translate(3.088 2.015)">
          <path id="Trazado_881684" data-name="Trazado 881684" d="M274.291,291.364v-1.633l-8.029,4.633H259.9V296h6.363Z" transform="translate(-259.899 -289.731)" fill="#c4e4f5" fill-rule="evenodd"/>
        </g>
      </g>
      <g id="Grupo_1104199" data-name="Grupo 1104199" transform="translate(26.814 29.478)">
        <path id="Trazado_881685" data-name="Trazado 881685" d="M266.821,352.356h4.441v-1.633H264.9v1.633Z" transform="translate(-264.899 -350.723)" fill="#62529b" fill-rule="evenodd"/>
      </g>
      <g id="Grupo_1104204" data-name="Grupo 1104204" transform="translate(18.547 8.435)">
        <g id="Grupo_1104200" data-name="Grupo 1104200">
          <path id="Trazado_881686" data-name="Trazado 881686" d="M171.1,97.552a3.626,3.626,0,0,1,.42.173l1.016-.484a4.886,4.886,0,0,1,1.279,1.277l-.487,1.018a3.653,3.653,0,0,1,.176.42l1.061.375a4.826,4.826,0,0,1,0,1.809l-1.061.375a3.625,3.625,0,0,1-.176.42l.487,1.016a4.823,4.823,0,0,1-1.279,1.279l-1.016-.487a3.658,3.658,0,0,1-.42.176l-.377,1.061a4.814,4.814,0,0,1-1.806,0l-.377-1.061a3.775,3.775,0,0,1-.418-.176l-1.018.487a4.849,4.849,0,0,1-1.277-1.279l.484-1.016a3.626,3.626,0,0,1-.173-.42l-1.063-.375a4.964,4.964,0,0,1,0-1.809l1.063-.375a3.625,3.625,0,0,1,.173-.42l-.484-1.018a4.877,4.877,0,0,1,1.277-1.277l1.018.484a3.773,3.773,0,0,1,.418-.173l.377-1.063a4.95,4.95,0,0,1,1.806,0Z" transform="translate(-164.991 -96.406)" fill="#95b8c7" fill-rule="evenodd"/>
        </g>
        <g id="Grupo_1104201" data-name="Grupo 1104201" transform="translate(0)">
          <path id="Trazado_881687" data-name="Trazado 881687" d="M170.932,105.392l-.209.589a4.814,4.814,0,0,1-1.806,0l-.377-1.061a3.772,3.772,0,0,1-.418-.176l-1.018.487a4.85,4.85,0,0,1-1.277-1.279l.484-1.016a3.623,3.623,0,0,1-.173-.42l-1.063-.375a4.964,4.964,0,0,1,0-1.809l1.063-.375a3.622,3.622,0,0,1,.173-.42l-.484-1.018a4.877,4.877,0,0,1,1.277-1.277l1.018.484a3.772,3.772,0,0,1,.418-.173l.377-1.063a4.95,4.95,0,0,1,1.806,0l.209.591a4.18,4.18,0,0,0,0,8.312Z" transform="translate(-164.991 -96.406)" fill="#80a9ba" fill-rule="evenodd"/>
        </g>
        <g id="Grupo_1104202" data-name="Grupo 1104202" transform="translate(2.653 2.653)">
          <path id="Trazado_881688" data-name="Trazado 881688" d="M199.236,132.828a2.176,2.176,0,1,0-2.176-2.176A2.181,2.181,0,0,0,199.236,132.828Z" transform="translate(-197.06 -128.475)" fill="#fff" fill-rule="evenodd"/>
        </g>
        <g id="Grupo_1104203" data-name="Grupo 1104203" transform="translate(2.653 2.654)">
          <path id="Trazado_881689" data-name="Trazado 881689" d="M197.395,130.653a2.177,2.177,0,0,1,2.008-2.172c-.055,0-.112,0-.166,0a2.176,2.176,0,0,0,0,4.353c.055,0,.112,0,.166-.007A2.175,2.175,0,0,1,197.395,130.653Z" transform="translate(-197.06 -128.477)" fill="#eef5f6" fill-rule="evenodd"/>
        </g>
      </g>
      <path id="Trazado_881690" data-name="Trazado 881690" d="M46.818,32.274a3.187,3.187,0,0,0-2.606-3.129V23.416a1.468,1.468,0,0,0-1.467-1.467H41.6a1.468,1.468,0,0,0-1.467,1.467v.765l-7.5,4.326H26.516a.577.577,0,0,0-.577.577v.664H24.314a1.421,1.421,0,0,0-1.42,1.42v2.212a1.421,1.421,0,0,0,1.42,1.42h1.626v.666a.577.577,0,0,0,.577.577H27.4v5.271a1.469,1.469,0,0,0,1.467,1.469h1.142a1.471,1.471,0,0,0,1.469-1.469V36.042h1.155l7.5,4.326v.762A1.469,1.469,0,0,0,41.6,42.6h1.145a1.469,1.469,0,0,0,1.467-1.469V35.4a3.186,3.186,0,0,0,2.606-3.127ZM25.939,33.645H24.313a.269.269,0,0,1-.266-.266V31.167a.269.269,0,0,1,.266-.266h1.626Zm4.387,7.668a.319.319,0,0,1-.315.315H28.869a.318.318,0,0,1-.313-.315V36.042h1.77Zm1.887-6.425h-5.12V29.66h5.12Zm7.922,4.147-6.767-3.9V29.417l6.767-3.9Zm2.924,2.095a.318.318,0,0,1-.313.315H41.6a.318.318,0,0,1-.313-.315V23.416A.317.317,0,0,1,41.6,23.1h1.145a.317.317,0,0,1,.313.313Zm1.154-6.914V30.33a2.026,2.026,0,0,1,0,3.886ZM16.819,2.922a.577.577,0,1,1,1-.577l.976,1.69a.577.577,0,0,1-1,.577Zm5.728.14V1.077a.577.577,0,1,1,1.154,0V3.062a.577.577,0,1,1-1.154,0ZM6.491,27.155v1.306a.577.577,0,0,1-1.154,0V27.155a.577.577,0,0,1,1.154,0Zm0,3.811v1.309a.577.577,0,0,1-1.154,0V30.966a.577.577,0,1,1,1.154,0ZM27.456,4.036l.974-1.69a.577.577,0,1,1,1,.576l-.974,1.69a.577.577,0,1,1-1-.576Zm11.55,18.051v1.306a.577.577,0,1,1-1.154,0V22.086a.577.577,0,1,1,1.154,0Zm-2.46-6.37a.577.577,0,0,1,.577-.577h1.306a.577.577,0,1,1,0,1.154H37.123A.577.577,0,0,1,36.546,15.717ZM31.068,8.1a.577.577,0,0,1,.212-.788l1.613-.929a.577.577,0,0,1,.576,1l-1.613.929a.577.577,0,0,1-.788-.212ZM6.491,23.341v1.306a.577.577,0,0,1-1.154,0V23.341a.577.577,0,1,1,1.154,0Zm26.446-8.2h1.309a.577.577,0,0,1,0,1.154H32.937a.577.577,0,0,1,0-1.154Zm6.069,4.442a.577.577,0,1,1-1.154,0V18.273a.577.577,0,1,1,1.154,0ZM14.68,8.391a.574.574,0,0,1-.288-.077L12.78,7.385a.577.577,0,0,1,.576-1l1.613.929a.577.577,0,0,1-.289,1.077Zm8.444,7.423A2.724,2.724,0,1,0,20.4,13.091,2.727,2.727,0,0,0,23.124,15.814Zm0-4.293a1.57,1.57,0,1,1-1.57,1.57A1.571,1.571,0,0,1,23.124,11.521ZM17.889,32.274a.577.577,0,0,1-.577.577H16.006a.577.577,0,1,1,0-1.154h1.306A.577.577,0,0,1,17.889,32.274Zm2.547-7.75V24.6a2.693,2.693,0,0,0,5.377,0v-.078h.067a1.627,1.627,0,0,0,1.663-1.584V21.522a1.433,1.433,0,0,0,.927-1.334A3.273,3.273,0,0,1,29.546,17.9a6.788,6.788,0,0,0,1.881-4.976,8.3,8.3,0,0,0-16.6,0A6.788,6.788,0,0,0,16.705,17.9a3.273,3.273,0,0,1,1.076,2.288,1.433,1.433,0,0,0,.925,1.333v1.42a1.627,1.627,0,0,0,1.663,1.584Zm4.223.078a1.543,1.543,0,0,1-3.069,0v-.078h3.069Zm-5.724-4.415a4.383,4.383,0,0,0-1.346-3.03,5.658,5.658,0,0,1-1.61-4.234,7.149,7.149,0,0,1,14.293,0,5.658,5.658,0,0,1-1.61,4.234,4.382,4.382,0,0,0-1.346,3.03.291.291,0,0,1-.3.277H23.7V18.4c.144-.016.286-.036.425-.063a.577.577,0,0,0,.434-.374l.268-.758.729.347a.578.578,0,0,0,.573-.045,5.334,5.334,0,0,0,1.411-1.414.577.577,0,0,0,.044-.572l-.346-.726L28,14.526a.577.577,0,0,0,.374-.434,5.333,5.333,0,0,0,0-2A.577.577,0,0,0,28,11.655l-.757-.268.346-.726a.577.577,0,0,0-.044-.572A5.335,5.335,0,0,0,26.13,8.674a.578.578,0,0,0-.573-.045l-.729.347-.268-.757a.577.577,0,0,0-.433-.374,5.363,5.363,0,0,0-2,0,.577.577,0,0,0-.434.374l-.268.757-.726-.346a.578.578,0,0,0-.572.044,5.31,5.31,0,0,0-1.415,1.415.577.577,0,0,0-.043.573l.347.725-.759.268a.577.577,0,0,0-.375.439,5.337,5.337,0,0,0,0,1.994.577.577,0,0,0,.375.439l.759.268-.347.725a.577.577,0,0,0,.043.573,5.31,5.31,0,0,0,1.415,1.415.577.577,0,0,0,.572.044l.726-.346.268.757a.577.577,0,0,0,.434.374c.14.027.281.047.424.063v2.066H19.229a.286.286,0,0,1-.294-.277Zm1.247-5.676a3.027,3.027,0,0,1-.146-.348.577.577,0,0,0-.353-.356l-.72-.254a4.068,4.068,0,0,1,0-.927l.72-.254a.577.577,0,0,0,.353-.356,3.049,3.049,0,0,1,.146-.348.577.577,0,0,0,0-.5l-.33-.69a4.145,4.145,0,0,1,.655-.655l.69.329a.577.577,0,0,0,.5,0A3.457,3.457,0,0,1,22.05,10a.577.577,0,0,0,.356-.353l.255-.721a4.267,4.267,0,0,1,.926,0l.255.721A.577.577,0,0,0,24.2,10a3.431,3.431,0,0,1,.355.147.577.577,0,0,0,.495,0l.692-.329a4.176,4.176,0,0,1,.654.656l-.329.69a.577.577,0,0,0,0,.5,2.982,2.982,0,0,1,.143.348.577.577,0,0,0,.353.356l.721.255a4.233,4.233,0,0,1,0,.926l-.721.255a.577.577,0,0,0-.353.356,2.989,2.989,0,0,1-.143.348.577.577,0,0,0,0,.5l.329.69a4.176,4.176,0,0,1-.654.656l-.692-.329a.577.577,0,0,0-.495,0,3.473,3.473,0,0,1-.355.147.577.577,0,0,0-.356.353l-.2.569H22.608l-.2-.569a.577.577,0,0,0-.356-.353,3.467,3.467,0,0,1-.355-.147.576.576,0,0,0-.5,0l-.69.329a4.145,4.145,0,0,1-.655-.655l.33-.69a.578.578,0,0,0,0-.5Zm-.323,8.429V21.619h6.529v1.321a.481.481,0,0,1-.509.43h-5.51A.481.481,0,0,1,19.86,22.941ZM6.491,19.528v1.309a.577.577,0,1,1-1.154,0V19.528a.577.577,0,1,1,1.154,0ZM21.7,32.274a.577.577,0,0,1-.577.577H19.819a.577.577,0,1,1,0-1.154h1.306A.577.577,0,0,1,21.7,32.274Zm-7.624,0a.577.577,0,0,1-.577.577H12.192a.577.577,0,1,1,0-1.154H13.5A.577.577,0,0,1,14.078,32.274ZM7.8,15.717a.577.577,0,0,1,.577-.577H9.685a.577.577,0,0,1,0,1.154H8.379A.577.577,0,0,1,7.8,15.717Zm-1.311,0v1.306a.577.577,0,0,1-1.154,0V15.717a.577.577,0,0,1,1.154,0Zm5.1,0a.577.577,0,0,1,.577-.577h1.306a.577.577,0,0,1,0,1.154H12.164A.577.577,0,0,1,11.587,15.717ZM10.265,32.274a.577.577,0,0,1-.577.577H8.381a.577.577,0,1,1,0-1.154H9.688A.577.577,0,0,1,10.265,32.274Z" fill="#00223d"/>
    </g>
  </g>
</svg>
