<svg xmlns="http://www.w3.org/2000/svg" width="67" height="59.184" viewBox="0 0 67 59.184">
  <g id="Grupo_1104245" data-name="Grupo 1104245" transform="translate(-180 -9566.91)">
    <g id="Grupo_1104205" data-name="Grupo 1104205" transform="translate(0 5816.759)">
      <path id="_12068" data-name="12068" d="M66.039,71.828c-6.861-.947-14.108-.716-20.351,2.283C37.03,78.27,31.344,87.7,31.126,97.3s4.784,19.038,12.512,24.741a35.81,35.81,0,0,0,27.37,6.013c9.53-1.727,18.474-7.326,23.445-15.638,3.187-5.33,4.677-11.911,2.916-17.867a24.409,24.409,0,0,0-5.793-9.521A42.8,42.8,0,0,0,66.039,71.828Z" transform="translate(148.881 3680.691)" fill="#26aab7"/>
      <path id="Trazado_873155" data-name="Trazado 873155" d="M303.26,44.546a1.582,1.582,0,1,0-.106-2.456A1.573,1.573,0,0,0,303.26,44.546Z" transform="translate(138.287 4055.916) rotate(-90)" fill="#7d6eb2"/>
      <path id="Trazado_873156" data-name="Trazado 873156" d="M321.56,66.974a3.448,3.448,0,1,0-1.687-4.918A3.468,3.468,0,0,0,321.56,66.974Z" transform="translate(128.241 4079.581) rotate(-90)" fill="#ffd947"/>
      <circle id="Elipse_11521" data-name="Elipse 11521" cx="3.689" cy="3.689" r="3.689" transform="translate(237.702 3796.368) rotate(-90)" fill="none" stroke="#fff" stroke-linecap="round" stroke-linejoin="round" stroke-width="1.5"/>
    </g>
    <g id="_360-grados" data-name="360-grados" transform="translate(193.757 9576.759)">
      <path id="Trazado_881691" data-name="Trazado 881691" d="M45.846,26.683A19.163,19.163,0,1,1,26.683,7.52,19.163,19.163,0,0,1,45.846,26.683Zm0,0" transform="translate(-6.94 -6.94)" fill="#7d6eb2"/>
      <path id="Trazado_881692" data-name="Trazado 881692" d="M132.52,26.683c0-10.583-5.041-19.163-11.26-19.163S110,16.1,110,26.683s5.041,19.163,11.26,19.163S132.52,37.266,132.52,26.683Zm0,0" transform="translate(-101.517 -6.94)" fill="#ffd947"/>
      <path id="Trazado_881693" data-name="Trazado 881693" d="M45.846,121.26c0-6.219-8.58-11.26-19.163-11.26S7.52,115.041,7.52,121.26s8.58,11.26,19.163,11.26S45.846,127.478,45.846,121.26Zm0,0" transform="translate(-6.94 -101.517)" fill="#ffd947"/>
      <path id="Trazado_881694" data-name="Trazado 881694" d="M45.846,239.341a6.781,6.781,0,0,0-.146-1.392c-1.167,5.562-9.236,9.868-19.017,9.868s-17.85-4.306-19.017-9.868a6.78,6.78,0,0,0-.146,1.392c0,6.219,8.58,11.26,19.163,11.26S45.846,245.56,45.846,239.341Zm0,0" transform="translate(-6.94 -219.598)" fill="#deac2f"/>
      <path id="Trazado_881695" data-name="Trazado 881695" d="M111.551,111.551a31.166,31.166,0,0,0,0,19.418,31.166,31.166,0,0,0,19.418,0,31.166,31.166,0,0,0,0-19.418,31.166,31.166,0,0,0-19.418,0Zm0,0" transform="translate(-101.517 -101.517)" fill="#ffc41f"/>
      <path id="Trazado_881696" data-name="Trazado 881696" d="M139.221,344.784a26.832,26.832,0,0,0,.861-3.1,30.848,30.848,0,0,1-21.14,0,26.826,26.826,0,0,0,.861,3.1,31.165,31.165,0,0,0,19.418,0Zm0,0" transform="translate(-109.768 -315.332)" fill="#deac2f"/>
      <path id="Trazado_881697" data-name="Trazado 881697" d="M239.341,7.52a6.78,6.78,0,0,0-1.392.146c5.562,1.167,9.868,9.236,9.868,19.017s-4.306,17.85-9.868,19.017a6.781,6.781,0,0,0,1.392.146c6.219,0,11.26-8.58,11.26-19.163S245.56,7.52,239.341,7.52Zm0,0" transform="translate(-219.598 -6.94)" fill="#deac2f"/>
      <path id="Trazado_881698" data-name="Trazado 881698" d="M344.784,119.8a26.826,26.826,0,0,0-3.1-.861,30.848,30.848,0,0,1,0,21.14,26.832,26.832,0,0,0,3.1-.861,31.165,31.165,0,0,0,0-19.418Zm0,0" transform="translate(-315.332 -109.768)" fill="#deac2f"/>
      <path id="Trazado_881699" data-name="Trazado 881699" d="M33.7,5.783A19.743,19.743,0,0,0,5.783,33.7a19.744,19.744,0,0,0,26.633,1.179.58.58,0,0,0-.745-.889A18.564,18.564,0,0,1,24.8,37.622a14.208,14.208,0,0,0,3.4-4.034,21.834,21.834,0,0,0,1.7-3.678,21.834,21.834,0,0,0,3.678-1.7,14.193,14.193,0,0,0,4.043-3.412,18.52,18.52,0,0,1-4.306,7.635.58.58,0,1,0,.847.792A19.744,19.744,0,0,0,33.7,5.783Zm-.82.82a18.478,18.478,0,0,1,4.754,8.1,14.187,14.187,0,0,0-4.05-3.422,21.815,21.815,0,0,0-3.675-1.7,21.446,21.446,0,0,0-1.97-4.112.58.58,0,1,0-.983.615,19.376,19.376,0,0,1,1.525,3.031A31.129,31.129,0,0,0,19.743,7.9,31.128,31.128,0,0,0,11,9.113,18.486,18.486,0,0,1,13.134,5.18c1.909-2.63,4.2-4.02,6.609-4.02A7.861,7.861,0,0,1,25.6,4.234a.58.58,0,1,0,.875-.762,12.209,12.209,0,0,0-1.7-1.626A18.483,18.483,0,0,1,32.883,6.6ZM8.573,17.243a.579.579,0,0,0-.613.545c-.038.645-.057,1.3-.057,1.955a31.119,31.119,0,0,0,1.211,8.748A20.086,20.086,0,0,1,6.487,27.2C3.052,25.187,1.16,22.537,1.16,19.743S3.052,14.3,6.487,12.281a20.066,20.066,0,0,1,2.635-1.289,29.261,29.261,0,0,0-.938,4.44.58.58,0,0,0,.5.651.605.605,0,0,0,.077.005.58.58,0,0,0,.574-.5,27.672,27.672,0,0,1,1.161-5.1,29.477,29.477,0,0,1,9.248-1.422,29.481,29.481,0,0,1,9.244,1.421,29.708,29.708,0,0,1,1.436,9.259A29.473,29.473,0,0,1,29,29a29.474,29.474,0,0,1-9.255,1.425A29.473,29.473,0,0,1,10.488,29a29.473,29.473,0,0,1-1.425-9.255c0-.63.018-1.265.055-1.887A.58.58,0,0,0,8.573,17.243ZM6.6,6.6a18.478,18.478,0,0,1,8.126-4.762A12.94,12.94,0,0,0,12.2,4.5a20.383,20.383,0,0,0-2.61,5.076A21.84,21.84,0,0,0,5.9,11.281,14.187,14.187,0,0,0,1.849,14.7,18.478,18.478,0,0,1,6.6,6.6Zm0,26.28a18.478,18.478,0,0,1-4.754-8.1A14.187,14.187,0,0,0,5.9,28.205a21.826,21.826,0,0,0,3.679,1.7,21.833,21.833,0,0,0,1.7,3.678,14.187,14.187,0,0,0,3.422,4.05A18.478,18.478,0,0,1,6.6,32.883ZM27.2,33c-2.018,3.435-4.668,5.327-7.462,5.327S14.3,36.435,12.281,33a20.086,20.086,0,0,1-1.286-2.628,31.131,31.131,0,0,0,8.748,1.211,31.117,31.117,0,0,0,8.748-1.211A20.033,20.033,0,0,1,27.2,33ZM33,27.2a20.047,20.047,0,0,1-2.628,1.286,31.128,31.128,0,0,0,1.211-8.748A31.086,31.086,0,0,0,30.376,11,20.065,20.065,0,0,1,33,12.281c3.435,2.018,5.327,4.668,5.327,7.462S36.435,25.187,33,27.2Zm0,0" fill="#00223d"/>
      <path id="Trazado_881700" data-name="Trazado 881700" d="M151.5,225.24a.58.58,0,1,0,0,1.16h2.723a.58.58,0,0,0,.58-.58v-5.884a.58.58,0,0,0-.58-.58H151.5a.58.58,0,1,0,0,1.16h2.143V222.3H151.5a.58.58,0,1,0,0,1.16h2.143v1.782Zm0,0" transform="translate(-139.283 -202.438)" fill="#00223d"/>
      <path id="Trazado_881701" data-name="Trazado 881701" d="M285.338,226.4h2.942a.58.58,0,0,0,.58-.58v-5.884a.58.58,0,0,0-.58-.58h-2.942a.58.58,0,0,0-.58.58v5.884A.58.58,0,0,0,285.338,226.4Zm2.362-3.522v2.362h-1.782v-4.724H287.7Zm0,0" transform="translate(-262.797 -202.438)" fill="#00223d"/>
      <path id="Trazado_881702" data-name="Trazado 881702" d="M218.143,226.4h2.942a.58.58,0,0,0,.58-.58v-2.942a.58.58,0,0,0-.58-.58h-2.362v-1.782h2.362a.58.58,0,1,0,0-1.16h-2.942a.58.58,0,0,0-.58.58v5.884A.58.58,0,0,0,218.143,226.4Zm.58-2.942H220.5v1.782h-1.782Zm0,0" transform="translate(-200.784 -202.438)" fill="#00223d"/>
      <path id="Trazado_881703" data-name="Trazado 881703" d="M331.719,171.8a1.6,1.6,0,1,0-1.6-1.6A1.6,1.6,0,0,0,331.719,171.8Zm0-2.035a.437.437,0,1,1-.437.437A.438.438,0,0,1,331.719,169.762Zm0,0" transform="translate(-304.662 -155.599)" fill="#00223d"/>
    </g>
  </g>
</svg>
